<svg id="Capa_1" data-name="Capa 1" xmlns="http://www.w3.org/2000/svg" viewBox="0 0 34.02 34.02"><defs><style>.cls-1{fill:#fff;}.cls-2{fill:#b7b7b7;}</style></defs><title>icon-houzz</title><path class="cls-1" d="M17,34A17,17,0,1,0,0,17,17,17,0,0,0,17,34"/><polyline class="cls-2" points="17.63 4.99 10.66 9.01 10.66 17.06 17.63 13.03 17.63 4.99"/><polyline class="cls-2" points="10.66 17.06 10.66 25.1 17.63 21.08 10.66 17.06 10.66 17.06"/><polyline class="cls-2" points="17.63 21.08 17.63 29.12 24.59 25.1 24.59 17.06 17.63 21.08"/><polyline class="cls-2" points="17.63 13.04 24.59 17.06 24.59 9.01 17.63 13.04"/><polyline class="cls-1" points="10.66 17.06 17.63 21.08 17.63 13.04 10.66 17.06"/><polyline points="17.63 21.08 24.59 17.06 17.63 13.04 17.63 21.08"/></svg>