<svg id="Capa_1" data-name="Capa 1" xmlns="http://www.w3.org/2000/svg" viewBox="0 0 34.02 34.02"><defs><style>.cls-1{fill:#fff;}</style></defs><title>icon-pinterest</title><path class="cls-1" d="M17,0A17,17,0,1,0,34,17,17,17,0,0,0,17,0Zm0,25.47a8.48,8.48,0,0,1-2.41-.35,7.1,7.1,0,0,0,.86-1.82c0.1-.38.6-2.34,0.6-2.34A2.44,2.44,0,0,0,18.13,22c2.73,0,4.59-2.49,4.59-5.83a5.08,5.08,0,0,0-5.38-4.87c-4,0-6.08,2.9-6.08,5.31A3.27,3.27,0,0,0,13,19.88a0.29,0.29,0,0,0,.43-0.21L13.6,19a0.41,0.41,0,0,0-.12-0.47,2.46,2.46,0,0,1-.56-1.67,4,4,0,0,1,4.19-4.07c2.28,0,3.54,1.39,3.54,3.26,0,2.45-1.09,4.52-2.7,4.52a1.32,1.32,0,0,1-1.34-1.64,18.31,18.31,0,0,0,.75-3,1.14,1.14,0,0,0-1.15-1.28c-0.91,0-1.64.94-1.64,2.2a3.27,3.27,0,0,0,.27,1.35L13.74,22.8a7.47,7.47,0,0,0-.15,2A8.5,8.5,0,1,1,17,25.47Z"/></svg>