<?xml version="1.0" encoding="utf-8"?>
<!-- Generator: Adobe Illustrator 19.2.1, SVG Export Plug-In . SVG Version: 6.00 Build 0)  -->
<svg version="1.1" id="Capa_1" xmlns="http://www.w3.org/2000/svg" xmlns:xlink="http://www.w3.org/1999/xlink" x="0px" y="0px"
	 viewBox="0 0 34 34" style="enable-background:new 0 0 34 34;" xml:space="preserve">
<style type="text/css">
	.st0{fill:#B7B7B7;}
	.st1{fill:#FFFFFF;}
</style>
<title>icon-houzz</title>
<path d="M17,34c9.4,0,17-7.6,17-17S26.4,0,17,0S0,7.6,0,17S7.6,34,17,34"/>
<polyline class="st0" points="17.6,5 10.7,9 10.7,17.1 17.6,13 17.6,5 "/>
<polyline class="st0" points="10.7,17.1 10.7,25.1 17.6,21.1 10.7,17.1 10.7,17.1 "/>
<polyline class="st0" points="17.6,21.1 17.6,29.1 24.6,25.1 24.6,17.1 17.6,21.1 "/>
<polyline class="st0" points="17.6,13 24.6,17.1 24.6,9 17.6,13 "/>
<polyline class="st1" points="10.7,17.1 17.6,21.1 17.6,13 10.7,17.1 "/>
<polyline points="17.6,21.1 24.6,17.1 17.6,13 17.6,21.1 "/>
</svg>
