<?xml version="1.0" encoding="utf-8"?>
<!-- Generator: Adobe Illustrator 19.2.1, SVG Export Plug-In . SVG Version: 6.00 Build 0)  -->
<svg version="1.1" id="Capa_1" xmlns="http://www.w3.org/2000/svg" xmlns:xlink="http://www.w3.org/1999/xlink" x="0px" y="0px"
	 viewBox="0 0 34 34" style="enable-background:new 0 0 34 34;" xml:space="preserve">
<title>facebook</title>
<path d="M17,0C7.6,0,0,7.6,0,17s7.6,17,17,17s17-7.6,17-17S26.4,0,17,0z M20.8,14.1l-0.2,2.5H18v8.8h-3.3v-8.8h-1.8v-2.5h1.8v-1.7
	c-0.1-0.9,0.1-1.8,0.6-2.6c0.6-0.9,1.7-1.4,2.8-1.3c1.1,0,2.1,0.1,3.1,0.3l-0.4,2.6c-0.5-0.1-0.9-0.2-1.4-0.2
	c-0.6-0.1-1.1,0.2-1.3,0.8c0,0,0,0.1,0,0.1v2L20.8,14.1L20.8,14.1z"/>
</svg>
