<?xml version="1.0" encoding="utf-8"?>
<!-- Generator: Adobe Illustrator 19.2.1, SVG Export Plug-In . SVG Version: 6.00 Build 0)  -->
<svg version="1.1" id="Layer_1" xmlns="http://www.w3.org/2000/svg" xmlns:xlink="http://www.w3.org/1999/xlink" x="0px" y="0px"
	 viewBox="-485 403 72 72" style="enable-background:new -485 403 72 72;" xml:space="preserve">
<path d="M-483.8,473.8c1.6,1.6,4.2,1.6,5.8,0l18.7-18.7c0.1-0.1,0.3-0.3,0.4-0.5c11.2,8.5,27.3,7.6,37.5-2.6
	c11.2-11.2,11.2-29.4,0-40.6c-11.2-11.2-29.4-11.2-40.6,0c-10.2,10.2-11.1,26.3-2.6,37.5c-0.2,0.1-0.3,0.2-0.5,0.4l-18.7,18.7
	C-485.4,469.6-485.4,472.2-483.8,473.8z M-456.6,446.6c-8.2-8.2-8.2-21.6,0-29.8c8.2-8.2,21.6-8.2,29.8,0c8.2,8.2,8.2,21.6,0,29.8
	C-435,454.9-448.4,454.8-456.6,446.6z"/>
</svg>
