<?xml version="1.0" encoding="utf-8"?>
<!-- Generator: Adobe Illustrator 19.2.1, SVG Export Plug-In . SVG Version: 6.00 Build 0)  -->
<svg version="1.1" id="Layer_1" xmlns="http://www.w3.org/2000/svg" xmlns:xlink="http://www.w3.org/1999/xlink" x="0px" y="0px"
	 viewBox="0 0 33 17.2" style="enable-background:new 0 0 33 17.2;" xml:space="preserve">
<style type="text/css">
	.st0{fill:#FFFFFF;}
</style>
<g>
	<path class="st0" d="M8,17.2c-0.4,0-0.8-0.2-1.1-0.5L0.4,9.6c-0.5-0.6-0.5-1.5,0-2l6.5-7.1C7.5-0.1,8.4-0.2,9,0.4
		C9.6,1,9.7,1.9,9.1,2.5L3.5,8.6l5.6,6.1c0.6,0.6,0.5,1.6-0.1,2.1C8.7,17,8.4,17.2,8,17.2z"/>
</g>
<g>
	<path class="st0" d="M25,17.2c-0.4,0-0.7-0.1-1-0.4c-0.6-0.6-0.7-1.5-0.1-2.1l5.6-6.1l-5.6-6.1C23.3,1.9,23.4,1,24,0.4
		c0.6-0.6,1.6-0.5,2.1,0.1l6.5,7.1c0.5,0.6,0.5,1.5,0,2l-6.5,7.1C25.8,17,25.4,17.2,25,17.2z"/>
</g>
</svg>
