<?xml version="1.0" standalone="no"?>
<!DOCTYPE svg PUBLIC "-//W3C//DTD SVG 1.1//EN" "http://www.w3.org/Graphics/SVG/1.1/DTD/svg11.dtd" >
<svg xmlns="http://www.w3.org/2000/svg">
<metadata>
This is a custom SVG webfont generated by Font Squirrel.
Copyright   : Copyright 1997 International Typeface Corporation All rights reserved
Designer    : Janice Fishman Holly Goldsmith Jim Parkinson Sumner Stone
Foundry URL : httpwwwitcfontscom
</metadata>
<defs>
<font id="webfontQGJs1e0B" horiz-adv-x="1073" >
<font-face units-per-em="2048" ascent="1638" descent="-410" />
<missing-glyph horiz-adv-x="380" />
<glyph unicode=" "  horiz-adv-x="380" />
<glyph unicode="&#x09;" horiz-adv-x="380" />
<glyph unicode="&#xa0;" horiz-adv-x="380" />
<glyph unicode="!" horiz-adv-x="538" d="M637 1149l-252 -557l-125 -270q-14 -37 -29 -37q-16 0 -16 20q0 10 8 43l183 641l59 250q27 119 56.5 158t88.5 39q45 0 73 -21.5t28 -56.5q0 -29 -9.5 -55.5t-64.5 -153.5zM172 205q39 0 64.5 -25.5t25.5 -64.5q0 -53 -37 -92t-88 -39q-41 0 -68.5 26.5t-27.5 65.5 q0 53 39 91t92 38z" />
<glyph unicode="&#x22;" horiz-adv-x="702" d="M578 1307l-144 -334q-16 -37 -22 -46t-14.5 -9t-8.5 12q0 2 6 45l60 356q14 70 26 86q23 33 64 33q59 0 59 -53q1 -29 -26 -90zM877 1307l-144 -334q-23 -55 -37 -55q-8 0 -8 12l4 45l62 356q10 66 26 86q23 33 64 33q59 0 59 -53q1 -27 -26 -90z" />
<glyph unicode="#" horiz-adv-x="1062" d="M748 479l-136 -395q-12 -35 -15 -41t-13 -6q-43 0 -43 20q0 12 6 27l137 393h-285l-151 -409q-8 -23 -10 -27t-11 -4q-4 0 -10 2l-18 2q-20 4 -20.5 14.5t7.5 26.5l148 397h-176q-47 0 -47 17q0 10 10 30l14 35l6 17q6 25 14.5 29.5t41.5 4.5h186q16 53 106 275h-198h-4 q-35 -6 -35 16q0 4 4 21q8 14 14 39l6 18q6 25 14.5 31t33.5 6h219l129 346q10 29 20 29q43 0 43 -11q0 -10 -6 -24l-127 -342h289l84 241l20 62q12 25 15 43q8 39 22 39h15q20 0 20 -17q0 -20 -39 -137q-16 -53 -27 -78l-49 -153h172h27q18 0 18 -23q0 -14 -2 -24l-2 -33 q-2 -29 -13 -36t-54 -7h-189l-104 -283h207q41 0 41 -12q0 -4 -2 -8q0 -2 -2 -10.5t-9.5 -31t-15.5 -52.5q-6 -16 -45 -17h-231zM842 887h-287q-35 -84 -59 -156l-45 -121h288z" />
<glyph unicode="$" horiz-adv-x="1058" d="M414 -14l-90 -244q-12 -37 -37 -37t-25 25q0 14 6 26l88 234q-281 59 -280 309q0 76 34.5 121t92.5 45q41 0 66.5 -25.5t25.5 -66.5q0 -88 -84 -101q-27 -4 -37 -13t-10 -30q0 -78 53 -130t150 -72l231 628q-106 88 -135 121q-96 106 -96 260q0 170 128 287t316 117 q8 0 70 -4l61 174q8 20 12 25t16.5 5t24 -8t11.5 -16q0 -6 -7 -19l-63 -172q96 -25 147 -84q68 -78 68 -192q0 -49 -28.5 -82t-71.5 -33q-39 0 -62.5 24.5t-23.5 63.5q0 66 63 86q33 10 33 45q0 47 -37 85t-100 57l-205 -570q139 -129 186 -212t47 -197q0 -186 -139 -303 q-152 -129 -344 -129q-30 0 -55 2zM674 868l198 537q-27 4 -57 4q-125 0 -208 -83t-83 -206q0 -72 27 -117t123 -135zM645 621l-217 -605q160 2 246 70q106 88 106 236q0 156 -135 299z" />
<glyph unicode="%" horiz-adv-x="1546" d="M252 51l1188 1331q-150 -45 -289 -45q-168 0 -342 62q92 -80 92 -238q0 -195 -112.5 -335t-270.5 -140q-104 0 -169.5 82t-65.5 213q0 111 50 218.5t136 176.5q90 76 207 76q43 0 82 -12q262 -63 403 -64q176 0 320 54q45 18 61 18q27 0 27 -21q0 -16 -137 -161 l-1092 -1227l-29 -37q-20 -23 -32.5 -22.5t-34 13.5t-21.5 21q0 4 29 37zM676 1423q-94 0 -172 -172q-84 -182 -84 -379q0 -158 92 -157q106 0 184 207q66 166 66 356q0 78 -19.5 111.5t-66.5 33.5zM1247 731q102 0 169 -78t67 -198q0 -195 -117 -353q-47 -61 -119.5 -98 t-146.5 -37q-106 0 -172 80t-66 207q0 193 114.5 335t270.5 142zM1249 705q-49 0 -90 -45.5t-84 -147.5q-78 -186 -78 -356q0 -162 94.5 -162t172 177t77.5 394q0 74 -21.5 107t-70.5 33z" />
<glyph unicode="&#x26;" horiz-adv-x="1501" d="M950 317q59 -150 117.5 -212t136.5 -62q100 0 162 96q18 29 31 29q10 0 10 -10q0 -27 -68 -90q-94 -94 -223 -95q-102 0 -163.5 39t-123.5 146q-145 -186 -364 -187q-180 0 -282.5 91.5t-102.5 250.5q0 227 239 367q80 45 267 127q-49 193 -49 270q0 160 109.5 264.5 t277.5 104.5q127 0 211 -67.5t84 -170.5q0 -127 -125 -211q-61 -41 -291 -147q-29 -14 -35 -16q18 -74 82 -250q39 -102 78 -222q119 197 197.5 270t168.5 73q55 0 90 -29t35 -74q0 -37 -23.5 -60.5t-60.5 -23.5q-68 0 -67 68q-2 59 -39 59q-55 0 -148 -125 q-78 -99 -131 -203zM756 872l37 19q96 45 135 70.5t73 68.5q68 80 68 189q0 92 -43 143t-119 51q-94 0 -149.5 -70.5t-55.5 -191.5q1 -119 54 -279zM594 778l-35 -18q-96 -51 -131 -74.5t-68 -60.5q-104 -111 -104 -279q0 -139 73.5 -227t188.5 -88q190 0 287 168 q-107 223 -211 579z" />
<glyph unicode="'" horiz-adv-x="403" d="M578 1307l-144 -334q-16 -37 -22 -46t-14.5 -9t-8.5 12q0 2 6 45l60 356q14 70 26 86q23 33 64 33q59 0 59 -53q1 -29 -26 -90z" />
<glyph unicode="(" horiz-adv-x="669" d="M952 1475q16 0 17 -15q0 -16 -54 -53q-127 -88 -248.5 -232.5t-205.5 -306.5q-82 -156 -115 -293t-33 -323q0 -289 103 -545q4 -12 4 -18t-6 -12.5t-11 -6.5q-20 0 -90 144q-143 293 -143 536q0 324 166 586q70 109 199 232.5t286 230.5q104 76 131 76z" />
<glyph unicode=")" horiz-adv-x="698" d="M438 1477q8 0 17.5 -15.5t58.5 -107.5q154 -285 154 -566q0 -264 -101.5 -466.5t-337.5 -409.5q-86 -76 -204.5 -159t-141.5 -83q-16 0 -16 17q0 8 115 102q162 135 263 268t173 310q109 256 108 512q0 137 -28.5 296.5t-71.5 256.5q-6 14 -6 26q0 19 18 19z" />
<glyph unicode="*" horiz-adv-x="780" d="M680 1169l10 -28q20 -57 58 -101q33 -35 32 -57q0 -20 -18 -41l-12 -18l-7 -17v-10q-4 -29 -22 -29q-14 0 -27 21q-6 14 -22 26l-23 15q-29 18 -28 39q0 12 6 30q27 70 26 168q-39 -25 -63 -49q-8 -10 -26 -37l-25 -39q-23 -39 -58 -38q-16 0 -26 8l-17 8l-57 -6 q-2 0 -7 8t-5 12q0 12 24 41q12 18 13 29l6 29q4 31 47 30q14 0 24 -2h31q33 0 94 17l35 6l-29 20q-47 35 -108 49q-51 12 -61.5 23.5t-8.5 54.5l-2 23l-10 22q-4 12 -4 17q0 20 18 20q4 0 31 -6q31 -10 68 -10q29 0 36 -5.5t9 -25.5q12 -63 65 -145q4 -6 12 -23 q18 80 19 123v22q-2 16 -2 39q0 25 9 34t54 26q18 2 25 16q14 12 22 12q20 0 21 -18v-22q0 -16 10 -54q8 -16 8 -28q0 -20 -34 -43q-16 -10 -46 -27q-18 -16 -28 -35q-8 -10 -12 -16q-10 -10 -27 -35q63 0 104 12q45 20 76 27q18 6 29 6q12 0 22 -16q23 -31 45 -45 q31 -18 31 -28.5t-27 -21.5q-39 -14 -61 -32q-20 -18 -33 -19q-14 0 -88 58q-14 9 -96 36z" />
<glyph unicode="+" d="M674 723h387v-74h-387v-379h-74v379h-387v74h387v379h74v-379z" />
<glyph unicode="," horiz-adv-x="485" d="M141.5 182q53.5 0 85 -38t31.5 -101q0 -160 -156 -236q-119 -61 -221 -61q-23 0 -22 12q0 8 45 17q129 25 202.5 85t73.5 142q0 29 -14 29q-8 0 -19 -23q-4 -12 -38.5 -12t-60 25.5t-25.5 62.5q0 45 32.5 71.5t86 26.5z" />
<glyph unicode="-" horiz-adv-x="538" d="M516 545l-20 -113h-414l16 113h418z" />
<glyph unicode="." horiz-adv-x="456" d="M131 201q45 0 70.5 -27t25.5 -74q0 -51 -31.5 -82.5t-82.5 -31.5q-100 0 -101 96q0 51 34 85t85 34z" />
<glyph unicode="/" horiz-adv-x="835" d="M1067 1360l-999 -1352q-23 -31 -27 -36t-14 -5q-16 0 -35 14.5t-19 26.5q0 10 21 39l997 1350q18 27 22.5 31t12.5 4q16 0 37.5 -12.5t21.5 -22.5q0 -17 -18 -37z" />
<glyph unicode="0" d="M893 1442q131 0 204.5 -100.5t73.5 -278.5q0 -250 -117.5 -507t-301 -422t-361.5 -165q-129 0 -207 112t-78 296q0 156 73 345t204 378q115 164 248 253t262 89zM883 1411q-203 0 -416 -459q-98 -215 -162 -454q-39 -145 -39 -283q0 -209 150 -209q119 0 213 122t219 437 q174 432 174 666q0 180 -139 180z" />
<glyph unicode="1" d="M961 1300l-414 -1124q-37 -102 -37 -108q0 -39 68 -39l129 2h16q10 0 19.5 -6.5t9.5 -12.5q0 -14 -27 -14h-20q-14 2 -80 2h-361q-92 0 -147 -2q-16 -2 -35 -2q-25 0 -25 14q0 18 52 19q14 0 73 -2h33q61 0 87 24.5t58 114.5l314 846q66 168 79 210t13 72q0 39 -45 39 q-23 0 -109 -16q-25 -4 -37 -4q-23 0 -22 14q0 10 15.5 15.5t88.5 17.5q215 41 334 88l13 4q12 0 12 -14.5t-31 -77.5q-16 -42 -24 -60z" />
<glyph unicode="2" d="M440 1139l60 2q20 0 38.5 -22.5t18.5 -45.5q0 -41 -31.5 -71.5t-72.5 -30.5q-39 0 -69 30.5t-30 71.5q0 123 119 248t322 125q168 0 247 -72q94 -84 95 -217q0 -172 -162 -340q-88 -88 -194.5 -170t-377.5 -266l-307 -217q100 -8 180 -8q313 0 379 7t107 42 q27 23 59.5 71t48.5 82q14 31 29 31q16 0 16 -18.5t-69 -165.5q-14 -25 -39 -86q-27 -70 -55 -119q-193 -4 -224 -4q-489 0 -612 8l18 51q20 53 49 83t109 83q68 43 229.5 165t258.5 202q121 100 188.5 181t110.5 177q53 117 53 223q0 102 -57.5 162t-157.5 60 q-152 0 -246 -142q-41 -61 -41 -96q0 -14 10 -14z" />
<glyph unicode="3" d="M166 272h-19q-49 0 -49 -51q0 -82 71 -136t173 -54q193 0 315 166q45 61 77 158.5t32 176.5q0 86 -47 143.5t-119 57.5l-104 -2q-8 -2 -19 -2q-14 0 -24.5 11.5t-10.5 27.5t10.5 21.5t49.5 5.5q96 2 124.5 6t78.5 22q123 49 199.5 153.5t76.5 223.5q0 96 -49 147.5 t-141.5 51.5t-175.5 -55.5t-83 -116.5q0 -12 6.5 -15.5t39.5 -7.5q25 -4 41 -26.5t16 -53.5q0 -39 -24.5 -64.5t-63.5 -25.5q-41 0 -67.5 32t-26.5 77q0 117 104 207q115 100 297 100q145 0 227 -73.5t82 -205.5q0 -170 -155 -276q-121 -82 -250 -111q-29 -6 -29 -14 q0 -6 35 -18q193 -66 192.5 -271t-180.5 -362q-160 -141 -393 -142q-160 0 -248 71t-88 202q0 82 43 136t107 54q35 0 60.5 -22.5t25.5 -52.5q0 -39 -27 -67t-63 -28q-17 0 -27 2z" />
<glyph unicode="4" d="M815 453l-61 -177q-88 -264 -95 -276q-14 -33 -47 -29q-96 4 -112.5 7.5t-16.5 17.5q0 8 11 35l149 428l-534 2h-27q-8 4 -8 10t16 21l901 833q23 18 47.5 44t30.5 30q14 18 39 47q23 25 43 24q31 0 31 -22q0 -6 -25 -31l-971 -903h205q180 0 264 -2l199 514 q16 43 30.5 43t78.5 -10q41 -6 53 -11.5t12 -15.5q0 -8 -8 -33l-184 -489q39 0 127 8q14 2 32 2q35 0 35 -28q0 -39 -51 -39h-164z" />
<glyph unicode="5" d="M584 1276l-123 -322l-33 -80q-18 -39 -29 -71q115 102 258 102q141 0 222.5 -91t81.5 -251q0 -236 -174.5 -408.5t-411.5 -172.5q-121 0 -204 68.5t-83 168.5q0 43 33 74t78 31q37 0 60.5 -24t23.5 -60q0 -66 -68 -86q-41 -10 -41 -27q0 -31 47 -70q57 -41 148 -41 q190 0 309 213q104 182 104 371q0 252 -178 252q-66 0 -138.5 -43t-111.5 -102q-23 -37 -37 -37q-8 0 -16 6t-8 12q0 14 12 39q16 41 27 59l41 97l162 407q2 8 12 32t14 38q14 43 23.5 56.5t27.5 13.5q14 0 23 -3l20 -2l295 -20q53 -4 86 -4q78 0 111 57q14 25 27 25 q14 0 14 -15q0 -18 -111 -174q-20 -33 -34.5 -39t-73.5 -6q-18 0 -37 2z" />
<glyph unicode="6" d="M500 870q113 59 209 60q139 0 220 -87t81 -239q0 -272 -201 -479q-141 -147 -317 -148q-143 0 -220 101q-96 125 -96 311q0 168 98.5 394.5t247.5 402.5q221 262 457 262q86 0 137 -37t51 -98q0 -39 -24.5 -64.5t-65.5 -25.5q-74 0 -73 65q0 23 26 60q10 16 10 28 q0 39 -86 39q-143 0 -274 -196q-63 -93 -180 -349zM668 885q-147 0 -238 -201q-41 -96 -69.5 -230.5t-28.5 -238.5q0 -94 43 -147.5t121 -53.5q76 0 131 50.5t102 162.5q94 223 94 449q0 100 -40.5 154.5t-114.5 54.5z" />
<glyph unicode="7" d="M1057 1227h-117l-322 4h-116q-27 -6 -45 -55q-27 -76 -41.5 -76t-14.5 14q0 16 31 109q18 70 23 88l22 86q18 76 45 76q14 0 15 -13q0 -20 -9 -45q-4 -8 -4 -10q0 -10 15.5 -13t109.5 -6l381 -4h47q20 -2 47 -2q29 0 42.5 6.5t41.5 32.5q23 20 31 21q10 0 10 -13 q0 -27 -182 -266q-2 -2 -272 -375l-209 -292l-135 -203q-74 -106 -74 -146q0 -35 29 -34q10 0 32 26q16 16 41 16.5t41.5 -21t16.5 -54.5q0 -45 -32 -74t-83 -29t-82 31t-31 78q0 63 62.5 172t244.5 362z" />
<glyph unicode="8" d="M791 795l-25 -15q109 -166 136.5 -231.5t27.5 -155.5q0 -176 -137.5 -296t-339.5 -120q-152 0 -240 72t-88 193q0 166 145 301q51 45 86 66.5t181 101.5l36 22q-4 8 -16 25l-49 78q-86 131 -86 245q0 147 124 258t290 111q137 0 215 -66q41 -35 67.5 -92t26.5 -114 q0 -139 -129 -248q-41 -33 -67.5 -49t-157.5 -86zM735 815q131 76 206 179.5t75 203.5q0 102 -51.5 159.5t-141.5 57.5q-100 0 -171.5 -77.5t-71.5 -188.5q-1 -150 155 -334zM598 700q-334 -199 -334 -452q0 -109 53.5 -171.5t147.5 -62.5q119 0 202 96.5t83 233.5 q0 84 -32 157.5t-120 198.5z" />
<glyph unicode="9" d="M791 578q-88 -59 -199 -60q-143 0 -222 84t-79 236q0 244 151.5 426t352.5 182q150 0 230.5 -102.5t80.5 -288.5q0 -193 -90 -404q-137 -311 -326.5 -493.5t-378.5 -182.5q-88 0 -141 37t-53 99q0 41 25.5 67.5t66.5 26.5q33 0 54.5 -18.5t21.5 -45.5q0 -23 -29 -63 q-10 -16 -10 -29q0 -14 25.5 -25.5t60.5 -11.5q145 0 254 164q121 181 205 402zM793 1409q-72 0 -125.5 -46t-100.5 -151q-98 -211 -98 -391q0 -119 46 -187.5t128 -68.5q141 0 227 223q88 219 88 414q1 207 -165 207z" />
<glyph unicode=":" horiz-adv-x="485" d="M387 852q41 0 68.5 -28.5t27.5 -71.5q0 -47 -33.5 -80t-84.5 -33q-94 0 -95 94q0 51 34 85t83 34zM135 199q41 0 66.5 -27t25.5 -70q0 -53 -33.5 -85.5t-87.5 -32.5q-43 0 -68.5 25.5t-25.5 68.5q0 51 35 86t88 35z" />
<glyph unicode=";" horiz-adv-x="485" d="M141.5 182q53.5 0 85 -38t31.5 -101q0 -160 -156 -236q-119 -61 -221 -61q-23 0 -22 12q0 8 45 17q129 25 202.5 85t73.5 142q0 29 -14 29q-8 0 -19 -23q-4 -12 -38.5 -12t-60 25.5t-25.5 62.5q0 45 32.5 71.5t86 26.5zM340 848q41 0 68.5 -28.5t27.5 -71.5 q0 -47 -33.5 -80t-85.5 -33q-94 0 -94 94q0 51 34 85t83 34z" />
<glyph unicode="&#x3c;" horiz-adv-x="1058" d="M991 1298v-94l-747 -477l747 -498v-94l-876 588v12z" />
<glyph unicode="=" d="M1061 823v-73h-848v73h848zM1061 623v-74h-848v74h848z" />
<glyph unicode="&#x3e;" horiz-adv-x="1058" d="M190 1298l877 -563v-12l-877 -588v94l748 498l-748 477v94z" />
<glyph unicode="?" horiz-adv-x="802" d="M682 1444q145 0 231 -79t86 -212q0 -145 -116 -231q-55 -41 -95 -61.5t-215 -96.5q-213 -86 -282 -363q-10 -51 -15.5 -62t-17.5 -11q-14 0 -14 20q0 119 73 266q66 137 261 281q164 121 208.5 178t44.5 148q0 193 -174 192q-90 0 -141 -51q-47 -47 -47 -84 q0 -10 6 -16.5t31 -18.5q31 -14 31 -51q0 -35 -26 -59.5t-65 -24.5q-37 0 -63.5 26.5t-26.5 65.5q0 43 29 92t74 82q92 70 223 70zM215 193q41 0 66.5 -27t25.5 -70q0 -49 -30.5 -80.5t-79.5 -31.5q-45 0 -72 24.5t-27 65.5q0 51 33 85t84 34z" />
<glyph unicode="@" horiz-adv-x="1968" d="M1411 582l-55 -123q-59 -131 -60 -185q0 -51 70 -51t156 42t151 108q70 70 113 186.5t43 237.5q0 125 -48 242.5t-132 195.5t-214 123t-270 45q-365 0 -602 -257t-237 -654q0 -342 189.5 -553t496.5 -211q334 0 608 223q143 119 209 248q12 23 20 22q18 -2 23.5 -5 t5.5 -13q0 -25 -72 -117q-164 -197 -375.5 -301t-451.5 -104q-352 0 -585.5 226t-233.5 568q0 430 358 729q283 233 633 234q184 0 348 -59.5t260 -159.5q156 -166 156 -404q0 -311 -240 -504q-76 -61 -178 -98t-199 -37q-74 0 -115.5 30t-41.5 83q0 14 12 73 q-68 -100 -138.5 -144t-164.5 -44q-100 0 -166 71.5t-66 182.5q0 133 98.5 286.5t243 258t269.5 104.5q147 0 166 -149l51 110q8 27 27 27q14 0 24 -2q25 -4 39 -4q29 0 45 8q25 10 33 10t8 -10q0 -14 -49 -119l-60 -131q-25 -55 -49 -117zM1208 520l109 234q59 127 59 153 q0 51 -47 94q-35 33 -92 33q-125 0 -250 -194q-180 -270 -180 -480q0 -137 108 -137q152 0 293 297z" />
<glyph unicode="A" horiz-adv-x="1284" d="M485 477h-32q-25 -25 -54 -61l-190 -262q-39 -53 -39 -74q0 -43 113 -43q23 0 32 2q37 4 41 4q29 0 29 -20q0 -23 -55 -23l-113 2l-186 -4q-139 0 -171 4t-32 23q0 16 20 16q18 0 31 -2q27 -6 51 -6q68 0 117 26q31 18 133 152l592 778l162 207l180 234q18 27 35 26 q20 0 20 -29q0 -53 -14 -112q-31 -156 -57 -371l-90 -729q-12 -86 -13 -111q0 -59 74 -63l121 -6q25 0 24 -17q0 -14 -19 -16t-130 -2l-156 2l-270 -2q-14 -2 -33 -2q-35 0 -35 25q0 18 22.5 18t45.5 -2h23q59 0 98 18q29 12 43 115l39 262l2 15q2 6 2 16t-9.5 12t-64.5 2 q-244 0 -287 -2zM856 537l64 419q4 29 8 53.5t6 35t4 24.5q4 20 4 29q0 18 -8 18q-6 0 -12 -20q-10 -25 -29 -37q-41 -47 -66 -86l-219 -295q-68 -94 -96 -127q-12 -10 -12 -14q0 -14 28 -15l41 2l103 -2q157 1 184 15z" />
<glyph unicode="B" horiz-adv-x="1204" d="M741 1417h183q193 0 276 -59q104 -76 105 -209q0 -215 -238 -342q-119 -63 -227 -82q129 -31 184 -82q80 -68 80 -186q0 -113 -66.5 -217.5t-179.5 -167.5q-139 -76 -508 -76q-66 0 -131 2h-186q-121 0 -139 -2h-13q-23 0 -22 16q0 10 8 16.5t18 4.5l90 -8q78 6 93.5 11 t25.5 25q4 6 15 37q23 51 65 158l361 897q66 170 65 193q0 20 -29.5 27t-121.5 7q-31 0 -31 16.5t33 16.5l102 4h188zM582 782l-7 -24q31 -4 68 -4q250 0 367 143q98 125 98 299q0 182 -215 182q-39 0 -76 -2q-14 -29 -43 -100l-182 -469zM551 707l-225 -576 q-25 -55 -25 -73.5t6 -23.5t27 -5q129 0 196.5 13t139.5 54q106 61 165.5 162.5t59.5 222.5q0 231 -238 232q-55 0 -106 -6z" />
<glyph unicode="C" horiz-adv-x="1173" d="M1014 1442q84 0 136 -23.5t142 -101.5q23 -18 41 -19q25 0 47 39q8 8 17 9q12 0 12 -15q0 -25 -31 -86q-94 -180 -112 -256q-8 -33 -24.5 -33t-16.5 21q0 8 14 51q12 43 12 100q0 127 -65.5 201t-177.5 74q-264 0 -449 -289q-94 -150 -147.5 -329t-53.5 -345 q0 -377 275 -377q96 0 184 50q68 41 133.5 101t91.5 112q29 47 45 47q12 0 13 -17q0 -18 -35 -69t-80 -101q-201 -213 -461 -213q-182 0 -285.5 116t-103.5 321q0 250 128 491.5t333 391t418 149.5z" />
<glyph unicode="D" horiz-adv-x="1464" d="M154 201l413 1024q43 111 43 125q0 27 -63 30l-111 11q-33 0 -33 16t43 16q12 0 123 -4q29 -2 127 -2h140q78 2 172 2q188 0 301 -59q217 -115 217 -402q0 -291 -175 -532.5t-464 -347.5q-123 -47 -211 -59.5t-305 -16.5q-131 0 -312 -2l-114 -2q-18 -2 -43 -2 q-29 0 -29 18q0 23 90 23q94 0 119 18q25 31 33 56q35 82 39 90zM750 1188l-388 -979q-2 -6 -34 -86q-16 -43 -17 -51q0 -31 111 -31q199 0 345 63.5t273 202.5q131 143 207 338t76 383q0 197 -106 285q-86 70 -242 69q-78 0 -123 -8q-14 -2 -22.5 -13t-24.5 -48 q-32 -70 -55 -125z" />
<glyph unicode="E" horiz-adv-x="1173" d="M737 1159l-153 -393q74 -6 96 -6q104 0 182 53t109 145q8 31 24 31q18 0 19 -16q0 -2 -8 -23q-115 -244 -203 -510q-6 -29 -20.5 -28.5t-14.5 14.5q0 6 4 23q31 106 31 157q0 66 -45 92.5t-160 26.5q-23 0 -31 -7t-18 -34l-221 -545q-25 -61 -25 -71q0 -20 37 -21l106 -4 q41 -2 111 -2q297 0 408 129q57 68 106 215q14 41 35 41q14 0 14 -14q0 -12 -20 -62q-88 -236 -115 -317q-8 -23 -18.5 -29t-46.5 -6h-355h-340q-254 0 -296 2t-42 16q0 12 18.5 14.5t119.5 2.5q37 0 50 14t46 84l414 999l55 130q35 88 35 106q0 14 -19.5 18.5t-134.5 6.5 q-25 0 -25 12q0 20 39 20q59 0 195 -2h293l125 -2l164 -2h28q37 0 45 2h13q35 0 34 -20q-2 -4 -4 -10q-10 -16 -22 -58l-58 -209q-18 -82 -36 -82q-12 0 -13 17l2 14q27 66 27 158q0 98 -64 125q-74 29 -219 28l-114 2h-23q-20 0 -30.5 -8t-20.5 -33z" />
<glyph unicode="F" horiz-adv-x="1038" d="M545 700l-213 -546q-39 -96 -39 -109q0 -16 35 -16q37 0 159 6q23 0 23 -19q0 -20 -31 -20l-164 4l-258 -2l-108 2q-53 -4 -60 -4q-23 0 -22 16q0 20 29 21q37 0 59 -2q10 -2 20 -2q82 0 99 8q20 12 67 131l428 1081q43 106 43 119q0 18 -24 18l-123 -2q-31 0 -31 23 q0 18 25 18q18 0 33 -2l129 -4l270 -2h174q72 0 94 2q55 2 107 2l61 -2q14 0 27 2h8q10 0 10 -10q0 -39 -67 -246q-10 -20 -21 -65q-14 -55 -29 -56q-12 0 -12 17q0 23 6 47q16 57 17 113q0 117 -70 141q-29 10 -54.5 12t-156.5 4q-57 0 -86 2h-53q-18 0 -24.5 -8t-28.5 -53 l-236 -571q20 -4 43 -5q135 0 174 11q47 14 81 52t73 120q31 63 38 74.5t17 11.5q14 0 14 -11q0 -23 -67 -194l-64 -176q-16 -51 -26 -90q-31 -111 -49 -111q-14 0 -15 19q0 23 12 59q10 45 11 78q0 121 -125 121q-86 -1 -129 -7z" />
<glyph unicode="G" horiz-adv-x="1382" d="M1161 332l-33 -113q-10 -33 -35.5 -58.5t-93.5 -70.5q-96 -63 -188 -90t-219 -27q-225 0 -342 99q-131 109 -131 299q0 195 100 401.5t275 374.5q309 299 636 299q137 0 228 -76q49 -45 80 -45q37 0 63 47q4 4 14.5 4t10.5 -10q0 -6 -24.5 -53t-37.5 -84l-34 -86 q-43 -109 -52.5 -127.5t-21.5 -18.5q-16 0 -17 15q0 6 11 49q23 86 22 143q0 84 -67.5 142.5t-167.5 58.5q-137 0 -287 -99.5t-264 -269.5q-127 -188 -195 -405q-51 -154 -51 -305q0 -154 76 -238t213 -84q209 0 295 176q18 41 37.5 106.5t19.5 88.5q0 39 -66 39h-26 q-29 -2 -49 -2q-35 0 -35 18q0 20 24 21q18 0 31 -2l227 -5l265 5q35 0 34 -21q0 -14 -11 -17t-54 -3h-68q-47 0 -62.5 -12.5t-29.5 -63.5z" />
<glyph unicode="H" horiz-adv-x="1423" d="M1489 1202l-391 -1016l-41 -114q0 -27 33.5 -34t150.5 -9q23 -4 23 -15q0 -18 -37 -18h-33l-297 4l-197 -2q-12 -2 -26 -2q-27 0 -27 18q0 20 29 21l49 -2h20l56 2q29 2 39 9t22 36q6 20 23 61l184 480q14 39 23 59q-4 20 -62 20h-336q-66 0 -106 2h-13q-16 0 -24 -7 t-14 -31q-8 -27 -23 -60l-172 -438q-33 -86 -33 -98q0 -16 13.5 -22.5t64.5 -16.5l115 6q10 0 10 -18.5t-27 -18.5q-55 0 -94 2l-270 4q-35 0 -117 -4q-66 -4 -78 -4q-43 0 -43 20q0 23 23 23q14 0 28 -2h15q88 0 112 10q18 4 30.5 25.5t68.5 144.5l413 1032q35 88 35 101 q0 25 -27.5 32t-119.5 7q-45 0 -45 18q0 16 22 16l144 -2q84 -2 235 -2h96q33 2 62 2q37 0 37 -18q0 -25 -33 -25q-6 0 -59 2q-12 2 -50 2q-39 0 -53 -18t-57 -127l-156 -399l-22 -58l-7 -12q0 -12 15.5 -16t68.5 -4q176 -4 211 -5h64q16 2 31 2l127 -2q16 0 25 14.5 t36 82.5l162 395q37 90 37 117q0 20 -24.5 25t-119.5 5q-47 4 -47 23q0 10 8.5 12t38.5 2l389 -2q59 0 111 2h25q35 0 34 -16q0 -18 -26 -19q-20 0 -35 2h-27q-88 0 -112.5 -24.5t-77.5 -159.5z" />
<glyph unicode="I" horiz-adv-x="669" d="M723 1157l-383 -977l-29 -78q-10 -27 -10 -28q0 -37 82 -47q8 0 63 -2q27 -2 27 -15q0 -14 -29 -14q-131 2 -424 2q-94 0 -110 2t-16 12.5t8 12.5t47 2q80 2 100 10q37 12 57 45l44 106l399 1004q59 150 59 164q0 35 -63 35h-82q-23 0 -23 16q0 14 23 14h18q10 -2 99 -2 l305 2q12 -2 20 -2l76 2q4 0 11 -6t7 -10q0 -18 -24 -19q-12 0 -21 3h-32q-57 0 -76 -6.5t-33 -26.5q-22 -33 -90 -199z" />
<glyph unicode="J" horiz-adv-x="790" d="M831 1083l-186 -481q-109 -276 -178.5 -406t-161.5 -223q-139 -145 -282 -145q-63 0 -107.5 40t-44.5 99q0 94 92 94q80 0 80 -75q0 -33 -10 -45.5t-45 -28.5q-14 -6 -14.5 -18.5t19 -22.5t42.5 -10q98 0 168 131q43 84 116 274l359 899l43 111q10 37 16 53q8 14 8 21 q0 14 -19 25t-48 11l-88 -2h-15q-18 0 -18 15q0 20 27 20l67 -2q16 0 37 2q25 2 70 2l180 -2q39 0 61 2q119 4 121 4q29 0 29 -20.5t-45 -18.5q-117 -2 -139 -24q-28 -9 -134 -279z" />
<glyph unicode="K" horiz-adv-x="1271" d="M557 715l-192 -490q-53 -150 -54 -153q0 -39 60 -39h18q29 2 60 2q57 0 57 -17q0 -18 -39 -18l-143 2l-404 -6q-31 0 -31 18q0 20 29 21q18 0 31 -2q18 -2 43 -2q66 0 86 18q12 8 98 211l373 936l57 154q0 39 -88 39q-14 -1 -25 -1q-65 0 -65 19q0 16 82 16l205 -2l192 2 q53 0 65.5 -3t12.5 -13q0 -18 -61 -18q-66 -4 -90 -13q-27 -6 -41 -41l-43 -116l-132 -351q-16 -43 -16 -45q0 -12 10 -12q6 0 17 10q16 18 45 31l143 100l68 54l178 145q147 127 172 152.5t25 48.5q0 35 -64 34q-31 0 -47 -2h-33q-25 0 -24 15q0 25 38 24h29q51 -4 350 -4 q68 0 68 -18.5t-61 -18.5q-72 -2 -138.5 -44t-259.5 -208l-155 -126q-45 -39 -101 -74q-55 -37 -71.5 -51.5t-16.5 -26.5q0 -4 6 -18l11 -31l204 -639q29 -92 48.5 -110.5t82.5 -18.5h17q31 2 61 2q23 0 23 -17q0 -25 -76 -24q-2 0 -215 4h-59l-160 -2q-51 0 -51 18 q0 20 28 21q25 0 43 -2h31q49 0 49 35l-26 98l-158 522q-27 84 -43 84q-8 0 -12.5 -7t-20.5 -52z" />
<glyph unicode="L" horiz-adv-x="1177" d="M762 1219l-426 -1072l-25 -63l-6 -14q0 -33 84 -33q190 0 258 5t135 24q86 23 142.5 73.5t113.5 155.5q37 70 52 108q6 18 18 19q18 0 18 -19q0 -49 -114 -315l-25 -61q-8 -20 -19.5 -23.5t-74.5 -3.5h-125q-59 0 -119.5 1t-91.5 2t-37 1q-88 0 -170 -2h-104h-60 q-68 2 -120 2q-51 0 -113 -6q-18 -2 -47 -2t-29 16q0 18 51 19q1 -1 14 -2q24 0 91 6q37 2 48 11t23 44q10 20 35 82l447 1085q35 86 35 107q0 31 -103 31q-4 0 -59 -4q-18 0 -19 16q0 14 17.5 17t81.5 3q23 0 88 -2q10 0 47 -1t111.5 -2t150.5 -1l39 2q10 2 24 2 q20 0 21 -20q0 -18 -25 -19q-2 0 -43 5h-24q-72 0 -90 -13q-14 -10 -23.5 -29t-52.5 -130z" />
<glyph unicode="M" horiz-adv-x="1589" d="M1503 1417h27h127l235 2q25 0 25 -14q0 -10 -8 -19.5t-17 -9.5q-4 0 -26 6q-8 2 -20.5 2t-20.5 -2h-23h-20q-8 2 -23 2q-27 0 -39 -28q-39 -78 -75 -176l-383 -998l-8 -21q-5 -15 -9 -24q-4 -14 -6 -22q-4 -14 -16 -43q-8 -8 -9 -15q0 -25 54 -24h28l45 -2h5l40 2 q6 0 7 -10q0 -25 -31 -25l-57 4l-439 -4q-20 0 -20 12q0 14 10 18.5t43 4.5q59 0 94 10q18 8 37 49t100 256l330 826l43 116l29 72q-37 -49 -53 -76l-84 -125q-20 -33 -66 -98l-637 -940l-41 -57q-35 -53 -51 -53.5t-16 32.5l2 23l2 63l55 1040q4 57 4 101q0 47 -8 47 q-4 0 -10 -21q-16 -53 -35 -100l-373 -1008l-16 -47l-8 -24l-13 -37q-4 -16 -4 -19q0 -23 18.5 -27.5t102.5 -4.5l37 2q14 0 14 -13q0 -23 -26 -22q-23 0 -37 2l-131 2q-182 0 -215 -2q-12 -2 -29 -2q-20 0 -20 14q0 23 30 23q12 0 23 -2q14 -2 65 -2q72 0 91.5 20.5 t58.5 136.5l383 1033l30 73q6 20 17 47l10 17q0 8 -23.5 17t-46.5 9l-116 -4h-8q-14 0 -15 23q0 20 23 20q14 0 26 -2q29 -4 207 -4q158 0 168 2h10q12 0 13 -18q0 -37 -4 -113l-39 -770q0 -14 -3 -72.5t-6 -87.5q18 33 48 68l49 68z" />
<glyph unicode="N" horiz-adv-x="1404" d="M1112 330l330 897q43 115 43 137q0 18 -29 18q-37 0 -65 -2l-72 -2q-43 0 -43 19q0 25 43 24l248 -4q47 0 96 2h63q27 0 27 -18q0 -23 -59 -23l-92 2q-45 0 -62 -30l-16 -47l-31 -78l-352 -953l-58 -137l-30 -67l-13 -33q-18 -47 -28 -47q-16 0 -31 53l-324 1305 l-403 -1121q-53 -156 -53 -166q0 -25 67 -24h25q27 2 49 2q45 0 57.5 -3t12.5 -18q0 -20 -31 -20q-37 0 -57 2q-131 4 -172 4q-10 0 -166 -4h-47q-35 0 -35 16.5t49 22.5h27q29 0 75 4q39 2 53.5 9t30.5 30q8 20 25 57l39 103l370 1030l19 49l12 31l8 16q0 16 -57 16 q-98 0 -119 -2h-33q-41 0 -41 23q0 25 37 24q10 0 47 -2q74 -4 226 -4q117 0 157 4z" />
<glyph unicode="O" horiz-adv-x="1454" d="M1083 1444q209 0 322 -150q109 -141 108 -333q0 -213 -105 -420t-292 -353q-270 -215 -545 -215q-205 0 -319.5 114t-114.5 319q0 207 106.5 425t286.5 375q270 238 553 238zM1067 1415q-123 0 -250 -97t-235 -274q-113 -182 -179.5 -386.5t-66.5 -370.5q0 -285 258 -285 q154 0 301 129q190 166 315 481q109 289 109 480q0 121 -45 206q-57 117 -207 117z" />
<glyph unicode="P" horiz-adv-x="1161" d="M535 674l-197 -510q-20 -47 -31 -84l-12 -31l-4 -6q0 -14 26 -14l158 2q20 -4 21 -17q0 -18 -33 -18l-53 2l-402 4q-84 -6 -88 -6q-31 0 -31 18q0 20 27 21q12 0 23 -2l106 -2q23 0 32 5t19 25q0 2 6 17l21 47l31 70l393 1005l28 78l41 106q-12 2 -26 2q-37 0 -66 -4 q-8 0 -20 -1t-19.5 -2t-9.5 -1q-49 0 -49 20.5t41 20.5h16q16 -2 35 -2h25q23 0 50.5 1t41.5 2t20 1q301 0 422 -24q131 -23 203 -96.5t72 -184.5q0 -195 -180.5 -327t-444.5 -132q-69 1 -192 17zM815 1374l-262 -659q104 -20 158 -21q172 0 304 137.5t132 313.5 q0 125 -64.5 180t-210.5 55q-20 0 -57 -6z" />
<glyph unicode="Q" horiz-adv-x="1456" d="M645 -31q-29 -76 -29 -141q0 -102 64.5 -165.5t167.5 -63.5q70 0 113 16q25 10 32 10q16 0 17 -14q0 -20 -73 -40t-149 -20q-176 0 -286.5 84t-110.5 218q0 55 19 137q-274 115 -275 401q0 383 289 709q307 342 657 342q199 0 315.5 -134t116.5 -360q0 -219 -119.5 -433 t-320.5 -361.5t-428 -184.5zM1061 1411q-127 0 -260 -109.5t-250 -310.5q-100 -176 -159.5 -372.5t-59.5 -358.5q0 -127 65.5 -195.5t184.5 -68.5q137 0 271 98.5t237 274.5q102 174 165.5 373.5t63.5 347.5q0 158 -66.5 239.5t-191.5 81.5z" />
<glyph unicode="R" horiz-adv-x="1234" d="M559 733l-233 -592l-23 -55q-6 -16 -6 -18q0 -31 72 -39q29 -4 37 -4l47 2q12 0 12 -11q0 -20 -45 -20q-18 0 -242 4q-33 2 -94 2q-51 0 -109 -4q-16 -2 -38 -2q-27 0 -27 16q0 14 57 15q84 4 109 20q23 10 65 115l424 1081q4 12 14.5 39t14.5 35q8 16 8 29 q0 23 -26.5 30.5t-98.5 7.5q-20 4 -20 15q0 14 18.5 16t122.5 2q2 0 14.5 -1t35 -2t44.5 -1l101 -2q193 0 249 -6t113 -33q152 -72 152 -233q0 -106 -77 -197.5t-210 -140.5q-109 -39 -313 -47l65 -19q131 -37 172 -93t41 -200q0 -45 -2 -59l-14 -180q-6 -80 -6 -117 q0 -78 49 -78q16 0 30 12q4 4 5 25q0 25 16 43t39 18q29 0 28 -30q0 -41 -45 -71t-108 -30q-98 0 -151.5 54.5t-53.5 154.5q0 63 8 123l19 158q8 86 8 115q0 102 -88 135q-31 12 -160 18zM776 1290l-201 -518q25 -2 58 -2q209 0 343 103.5t134 265.5q0 80 -29.5 141 t-76.5 84q-41 16 -148 16q-23 0 -30 -4t-17 -20q-19 -33 -33 -66z" />
<glyph unicode="S" horiz-adv-x="960" d="M608 887l123 -123q164 -164 164 -330q0 -190 -146.5 -325.5t-355.5 -135.5q-123 0 -203 45q-12 6 -90 66q-23 16 -45 16q-47 0 -78 -100q-8 -29 -22 -29q-18 0 -18 21q0 8 18 47q70 178 121 326q8 31 16 40t25 9q14 0 14 -15q0 -4 -8 -24q-14 -23 -14 -103 q0 -125 74.5 -191.5t211.5 -66.5q145 0 236.5 84t91.5 219q0 156 -141 287l-115 107q-174 166 -174 319q0 166 135 287t322 121q98 0 204 -43q61 -27 82 -27q39 0 74 53q12 20 23 21q12 0 12 -15q0 -16 -37 -88q-35 -63 -70 -223q-6 -35 -26 -35q-14 0 -15 15v12q6 43 7 76 q0 100 -67 159.5t-179 59.5q-125 0 -210 -74t-85 -182q0 -115 145 -260z" />
<glyph unicode="T" horiz-adv-x="1167" d="M1034 1376l-475 -1186q-2 -6 -29 -69q-14 -33 -14 -41q0 -47 131 -47q18 0 19 -13q0 -23 -35 -22q-33 0 -53 2q-131 4 -203 4q-76 0 -162 -4q-29 -4 -72 -4q-23 0 -22 12q0 8 13 16.5t28 8.5q10 0 18 -2h21q76 0 103.5 26.5t76.5 151.5l463 1169h-82q-117 0 -185.5 -21.5 t-128.5 -74.5q-37 -37 -63.5 -75t-79.5 -140q-12 -25 -29 -25q-10 0 -10 13q0 8 6 20l31 70l68 149q49 94 59 125q70 -4 512 -4q246 0 553 6q-49 -139 -98 -301q-14 -59 -21.5 -72.5t-21.5 -13.5q-16 0 -17 17q0 6 17 69q18 63 18 121q0 92 -72 121q-45 18 -157 18 q-58 0 -107 -4z" />
<glyph unicode="U" horiz-adv-x="1325" d="M721 1200l-252 -635q-102 -264 -102 -375q0 -78 55 -127t141 -49q117 0 220.5 54.5t172.5 150.5q100 141 234 486l180 462q59 158 60 174q0 43 -76 43h-19q-16 -2 -30 -2q-18 0 -19 15q0 16 33 16h31l202 -2h78q20 2 41 2t21 -12q0 -18 -35 -19h-25q-12 2 -37 2 q-57 0 -76.5 -15t-39.5 -81l-49 -127l-187 -469q-176 -440 -301 -565q-158 -156 -410 -156q-164 0 -261 67.5t-97 180.5q0 119 100 367l258 635q8 16 21.5 50t19.5 46q8 14 9 24q0 35 -52 41h-61q-20 0 -20 13q0 18 32 18h19l196 -2l236 2q23 0 22 -12q0 -14 -10 -16.5 t-76 -4.5q-59 -4 -65 -10q-14 -8 -31 -39q-6 -16 -24.5 -61t-26.5 -70z" />
<glyph unicode="V" horiz-adv-x="1185" d="M584 340l616 827q104 141 105 176q0 25 -27 32t-119 7q-18 0 -18 11q0 14 28.5 16t182.5 2q180 0 209.5 -1t29.5 -9q0 -10 -11 -13.5t-58 -7.5q-109 -6 -148 -53q-18 -20 -114 -151l-576 -783l-119 -166q-174 -254 -182 -254t-8 19q0 6 6 80l10 178l51 969q4 113 4 118 q0 18 -7 26.5t-27 12.5q-31 8 -78 8q-49 0 -49 15q0 18 49 18q41 0 74 -2q86 -4 163 -4q215 0 297 4h35q16 0 17 -10q0 -16 -21.5 -20.5t-112.5 -8.5q-78 -2 -98 -6t-31 -22q-8 -12 -8 -39l-4 -72z" />
<glyph unicode="W" horiz-adv-x="1773" d="M973 729l-504 -659l-33 -41q-33 -45 -51 -45q-12 0 -12 16l2 66l41 1175v90q0 29 -19.5 39t-89.5 12q-47 2 -47 15q0 20 31 20h20q66 -4 238 -6l211 4q16 2 37 2q16 0 16 -10q0 -14 -16.5 -18.5t-89.5 -10.5q-98 -10 -101 -47l-2 -43l-2 -49l-39 -965l406 531l6 463v24 v25q0 41 -19.5 54t-76.5 13h-23q-20 0 -20 13q0 20 32 20h13q111 -4 180 -4l420 -4q43 0 135 8h22q31 0 31 -14t-49 -19q-98 -6 -137 -27.5t-94 -99.5l-228 -313l-18 -663l661 917q102 135 103 156q0 31 -49 30q-8 0 -62 -4h-8q-37 0 -37 17q0 6 12.5 12t26.5 6l37 -2h168 l106 -2h25h16q4 2 12 2q14 0 15 -10q0 -18 -66 -21q-76 -4 -105.5 -22.5t-82.5 -93.5l-64 -90l-800 -1100q-49 -63 -59.5 -74.5t-22.5 -11.5q-14 0 -15 16q0 18 2 31v29zM1155 1016l195 272q2 4 34 47q12 12 13 19q0 29 -103 28q-135 0 -135 -57v-18q2 -12 2 -25v-29z" />
<glyph unicode="X" horiz-adv-x="1277" d="M870 803l54 -488q10 -78 16 -117.5t16.5 -78.5t20.5 -52.5t30.5 -25.5t42 -13t62.5 1q55 0 55 -13q0 -20 -37 -20q-20 0 -32 2q-57 4 -232 4q-252 0 -317 -4h-27q-33 0 -33 14.5t24 16.5t155 2q49 0 64.5 18.5t15.5 73.5q0 72 -11 168l-39 366l-90 -100q-45 -53 -78 -86 l-260 -264q-90 -90 -104 -108.5t-14 -37.5q0 -23 24.5 -26.5t136.5 -3.5q12 0 13 -8q0 -27 -52 -27h-30q-109 8 -205 8q-35 0 -105 -4q-53 -4 -67 -4q-23 0 -23 12q0 25 43 25q76 2 116 16t81 53q102 90 106 95q49 47 105 108l397 418l-59 448q-18 145 -41 178t-107 33h-18 q-20 -2 -38.5 -2t-18.5 13q0 23 43 22q47 0 75 -2q147 -4 228 -4q176 0 262 6h10q18 0 19 -12q0 -20 -43 -25h-48q-90 0 -118.5 -15t-28.5 -60q0 -23 10 -119l37 -326l356 348l58 58q18 18 26 28q25 27 37 39q16 16 17 25q0 27 -107 26h-24q-20 0 -21 15q0 18 29 18 q25 0 41 -2q82 -4 190 -4q45 0 158 6h12q23 0 23 -12q0 -20 -68 -21q-7 0 -14 1q-68 0 -107 -19q-43 -20 -110 -90l-90 -92z" />
<glyph unicode="Y" horiz-adv-x="1112" d="M707 698l440 525q96 119 96 131q0 29 -55 28q-104 0 -105 17q0 18 47 18h130q53 -2 182 -2h45q27 0 26 -14q0 -10 -9 -12.5t-46 -4.5q-90 -10 -122.5 -32.5t-129.5 -134.5l-399 -478q-68 -74 -89.5 -108.5t-58.5 -126.5l-133 -346q-6 -18 -22 -56q-8 -16 -8 -28 q0 -39 71 -43l45 -2l31 -2q20 2 21 -11q0 -18 -43 -18q-18 0 -142 4q-102 4 -129 4q-55 0 -198 -8q-16 -2 -54 -2q-16 0 -16 12q0 16 14.5 19.5t104.5 7.5q63 4 87.5 25.5t53.5 101.5l141 368q33 84 33 123q0 4 -6 99l-39 512l-8 69q-4 33 -24.5 43t-82.5 10q-57 0 -57 16.5 t29 16.5q18 0 30 -2l242 -4q184 0 215 2q14 2 37 2q31 0 31 -14q0 -16 -60 -19q-100 -2 -133 -17t-33 -62q0 -4 5 -78z" />
<glyph unicode="Z" horiz-adv-x="1167" d="M864 1411h262q115 0 193 4q31 2 70 2q29 0 51 -2q-35 -45 -103 -119l-227 -254l-633 -710l-174 -201l-72 -86q100 -8 301 -8q152 0 233 30.5t159 114.5q70 80 139 219q14 29 28.5 29t14.5 -14q0 -39 -176 -420q-86 4 -277 4h-424q-219 0 -241 -2q-10 -2 -26.5 -2 t-16.5 10q0 4 30 33q70 76 72 78l90 96l45 47l203 217l791 881q-174 16 -246 16q-201 0 -300.5 -60.5t-180.5 -230.5q-20 -43 -41 -43q-14 0 -15 19q0 16 39 96l49 100q59 131 80 168q147 -12 303 -12z" />
<glyph unicode="[" horiz-adv-x="663" d="M692 1348l-542 -1522l-21 -57q0 -20 39 -19h6h145h25q12 -4 12 -20q0 -14 -5 -20.5t-17 -4.5h-12h-314q-53 0 -53 21q0 4 10 36l588 1641q14 35 21.5 41t39.5 6h306q31 0 37 -1t6 -9q-2 -25 -6.5 -29t-30.5 -4h-160h-31q-18 0 -26 -14q-9 -31 -17 -45z" />
<glyph unicode="\" horiz-adv-x="1173" d="M430 1401l621 -1352q16 -35 16 -41q0 -14 -21.5 -28.5t-41.5 -14.5q-10 0 -14.5 5t-18.5 38l-621 1348q-12 25 -12 30q0 14 22.5 30t42.5 16q15 0 27 -31z" />
<glyph unicode="]" horiz-adv-x="675" d="M807 1380l-580 -1616q-14 -41 -24 -48t-51 -7h-308h-24q-8 0 -13 8q0 2 3 27q0 8 34 8h172h21q16 0 22.5 5t10.5 24l10 29l553 1529q16 49 16 54q0 16 -39 16h-149q-31 0 -33 4q-2 2 -4 27q2 12 39 12l313 -2q45 0 45 -18q0 -9 -14 -52z" />
<glyph unicode="^" d="M1071 666h-203q-135 203 -239 530q-96 -213 -215 -371q-127 -172 -160 -172q-20 0 -21 19q0 16 29 51q180 199 348 569q51 113 65.5 134.5t37.5 21.5q20 0 30.5 -19.5t49.5 -138.5q122 -358 278 -624z" />
<glyph unicode="_" horiz-adv-x="1058" d="M-188 -186h964v-93h-964v93z" />
<glyph unicode="`" horiz-adv-x="1058" d="M741 1382l47 -303q6 -31 7 -32q0 -16 -13 -17q-6 0 -22 25l-78 133q-33 57 -119 194h178z" />
<glyph unicode="a" horiz-adv-x="997" d="M797 735l51 109q10 25 14 29t15 4q4 0 24.5 -4.5t28.5 -4.5q45 0 69 13q8 6 15 6q12 0 12 -15q0 -4 -16 -43l-271 -614q-39 -84 -39 -135q0 -53 54 -53q82 0 159 108q16 23 24.5 23t8.5 -8q0 -27 -45 -72q-86 -96 -215 -96q-63 0 -103 30.5t-40 79.5q0 31 14 72 q-129 -190 -299 -191q-106 0 -174 69t-68 175q0 117 78 257t207 253q174 156 324 156q80 0 122 -36t50 -112zM582 274l159 344q27 61 27 80q0 63 -38 102.5t-97 39.5q-57 0 -100.5 -27t-96.5 -94q-109 -137 -174 -290t-65 -267q0 -139 114 -139q66 0 143 71t128 180z" />
<glyph unicode="b" horiz-adv-x="956" d="M684 1339l-195 -477q-18 -47 -55 -114q12 12 21 18l53 49q72 68 188 68q109 0 179.5 -74t70.5 -186q0 -111 -60.5 -230t-153.5 -210t-214 -150.5t-233 -59.5q-109 0 -183.5 58.5t-74.5 140.5q0 33 8 57.5t53 130.5l432 988q6 20 19 36q8 16 8 19q0 20 -72 20 q-18 0 -41 -2q-16 0 -16 13q0 10 8 12t43 2q70 0 190 2l43 4h15q16 0 16 -12q0 -8 -6 -17q-23 -33 -43 -86zM301 438l-49 -119q-72 -174 -72 -233q0 -82 109 -82q201 0 362 309q129 246 129 392q0 141 -106 141q-201 0 -373 -408z" />
<glyph unicode="c" horiz-adv-x="729" d="M719 748l16 -3q16 -8 25 -8q16 0 16 23q0 33 -40 58.5t-89 25.5q-154 0 -293 -226q-145 -227 -145 -432q0 -172 156 -172q66 0 116.5 31t118.5 111q18 25 33 24q10 0 10 -12q0 -25 -53 -78q-117 -117 -262 -117q-133 0 -214 77t-81 204q0 215 229 440q190 186 389 187 q76 0 123 -42t47 -110q0 -45 -23.5 -72.5t-60.5 -27.5q-29 0 -51 21.5t-22 47.5q0 50 55 50z" />
<glyph unicode="d" horiz-adv-x="1038" d="M1264 1382l-467 -1132q-53 -127 -54 -160q0 -25 18.5 -41t47.5 -16q43 0 90 30.5t78 77.5q20 35 31 35q14 0 14 -16q0 -33 -70 -99q-88 -78 -207 -77q-72 0 -112.5 34.5t-40.5 96.5q0 27 4 59q-76 -109 -145.5 -155t-163.5 -46q-115 0 -187.5 73t-72.5 190q0 240 229 456 q207 195 395 195q131 0 174 -125l13 24l14 31l219 524l14 37q8 10 9 19q0 16 -11.5 18t-76.5 6q-39 2 -39 14.5t22 12.5h25q106 -4 149 -4q78 0 101 8q12 4 16 4q12 0 12 -12q0 -6 -6 -14q-20 -40 -22 -48zM711 471l47 121q41 109 41 129q0 47 -43 84t-97 37 q-152 0 -309 -254q-150 -238 -149 -406q0 -72 34.5 -110.5t100 -38.5t118 36.5t115.5 129.5q81 116 142 272z" />
<glyph unicode="e" horiz-adv-x="778" d="M285 496q-76 -158 -76 -293q0 -182 162 -183q125 0 243 132q27 29 35 28q10 0 10 -10q0 -18 -29.5 -54t-66.5 -63q-109 -80 -229 -80q-133 0 -219 78t-86 197q0 233 250 444q217 188 391 189q86 0 133 -37t47 -103q0 -111 -119 -183.5t-301 -72.5q-65 1 -145 11zM301 522 q25 -2 55 -2q180 0 287 125q61 76 62 131q0 63 -64 64q-70 0 -129 -49q-113 -87 -211 -269z" />
<glyph unicode="f" horiz-adv-x="550" d="M500 834l-178 -488q-193 -526 -375 -735q-74 -84 -136.5 -118t-148.5 -34q-80 0 -127 32t-47 85q0 37 25.5 60.5t64.5 23.5q27 0 44.5 -14.5t17.5 -36.5q0 -18 -21 -43q-12 -16 -12 -27q0 -45 61 -45q104 0 182 103q63 90 156 354l309 878h-47l-102 -2q-16 -2 -37 -2 q-25 0 -25 17q0 23 21.5 29t103.5 6l74 -3h29q121 293 200 400q129 174 326 174q82 0 132 -36t50 -95q0 -35 -21.5 -57.5t-53.5 -22.5q-27 0 -46.5 17.5t-19.5 39.5q0 16 27 47q8 16 8 27q0 51 -86 51q-90 0 -147.5 -77.5t-137.5 -311.5l-55 -156h98h58h55q10 2 26 3 q23 0 23 -23t-29 -23l-186 3h-53z" />
<glyph unicode="g" horiz-adv-x="886" d="M270 104h164q123 0 168 -12q152 -35 152 -221q0 -166 -117 -283q-125 -127 -346 -127q-164 0 -283 74q-150 88 -149 211q0 86 75 139q27 20 111 52q18 10 43 18q-66 27 -92.5 59.5t-26.5 83.5q0 156 238 224q-66 86 -66 174q0 158 116 271.5t275 113.5q70 0 116 -25 t93 -86q76 117 160 117q39 0 63.5 -23.5t24.5 -60.5q0 -29 -17.5 -47.5t-44 -18.5t-42 15.5t-15.5 40.5q0 6 2 10q0 6 2 14q2 6 3 8q0 10 -13 11q-20 0 -58 -44t-38 -67q0 -10 8 -25q25 -57 25 -125q0 -143 -101 -249q-94 -98 -256 -99q-119 0 -213 68q-88 -31 -122.5 -57.5 t-34.5 -65.5q0 -43 61 -53q94 -15 121 -15h8h6zM539 846q-98 0 -177 -172q-68 -147 -67 -277q0 -61 35 -97t96 -36q53 0 90 35t76 123q66 143 65 280q1 144 -118 144zM365 -51l-232 -4q-127 -63 -127 -197q0 -113 81 -181.5t214 -68.5q158 0 275.5 89t117.5 208 q0 51 -32.5 91t-81.5 51q-55 12 -215 12z" />
<glyph unicode="h" horiz-adv-x="1026" d="M438 684l-26 -55q129 145 215 201.5t180 56.5q76 0 124 -36t48 -91t-47 -170l-187 -428q-35 -80 -34 -96q0 -31 30 -31q68 0 189 102q31 27 41 27t10 -12q0 -14 -39 -48q-145 -123 -264 -122q-57 0 -92 31.5t-35 82.5q0 47 49 154l180 403q45 92 45 125q0 29 -18.5 46.5 t-48.5 17.5q-84 0 -205 -115q-94 -88 -141 -160.5t-113 -220.5l-133 -299q-16 -39 -22.5 -45t-24.5 -6q-8 0 -56 4q-63 -4 -73 -6q-4 -2 -12.5 -2t-8.5 6q0 10 15 41l563 1282q31 72 31 80q0 16 -9.5 18t-66.5 2q-49 0 -49 21q0 10 14 10t22 -2l152 -2q49 0 86 6q25 4 33 4 q18 0 18 -14t-8 -25q-14 -35 -27 -55l-45 -100l-227 -508z" />
<glyph unicode="i" horiz-adv-x="491" d="M467 743l-236 -538q-47 -111 -47 -135q0 -23 17.5 -39.5t40.5 -16.5q39 0 89 28t77 67q16 25 28.5 24.5t12.5 -12.5q0 -23 -58 -74q-86 -74 -194 -74q-72 0 -118 37t-46 94q0 51 51 166l213 475q10 35 25 54q6 8 6 14q0 12 -13.5 16.5t-76.5 8.5q-16 4 -17 14q0 4 6 11 t11 7q6 0 30 -4q33 -4 92 -4q86 0 121 15q20 8 29 8q14 0 14 -17q0 -6 -10 -24q-20 -38 -47 -101zM586 1339q37 0 58.5 -23.5t21.5 -64.5q0 -39 -22.5 -62.5t-57.5 -23.5q-41 0 -67.5 26t-26.5 64q0 37 26.5 60.5t67.5 23.5z" />
<glyph unicode="j" horiz-adv-x="481" d="M498 801l-273 -664q-160 -389 -334 -553q-117 -111 -256 -110q-164 0 -163 106q0 35 24.5 60.5t57.5 25.5q29 0 49 -18.5t20 -44.5q0 -14 -10 -35q-10 -25 -10 -31q0 -14 16 -24.5t39 -10.5q76 0 129 58q66 76 201 403l319 795l17 41l6 12q0 18 -45 20q-70 6 -70 21 q0 16 23 16q6 0 43 -4q41 -4 104 -4q53 0 94 14q16 6 25 7q16 0 16 -15q1 -4 -22 -65zM608 1341q35 0 58.5 -22.5t23.5 -54.5q0 -45 -30.5 -77t-75.5 -32q-35 0 -57.5 20.5t-22.5 53.5q0 47 30.5 79.5t73.5 32.5z" />
<glyph unicode="k" horiz-adv-x="1009" d="M356 502l-182 -434l-18 -43l-17 -13l-41 -4l-51 -6l-45 -6q-8 -4 -12 -4q-12 0 -13 12q0 10 11 27q8 16 24 57l502 1200q10 31 21 51l14 37q6 12 6 19q0 25 -39 24q-10 0 -59 -4q-14 -2 -37 -2t-23 12q0 14 14.5 16.5t90.5 2.5q182 2 221 12q14 8 22 8q10 0 10.5 -10 t-40.5 -106l-295 -693l-45 -112q55 -2 69 -2q45 0 70 18.5t107 116.5q115 135 176 181t127 46q59 0 94 -28.5t35 -79.5q0 -39 -23.5 -66t-58.5 -27q-57 0 -62 60v47q0 51 -35 51q-43 0 -225 -211q-66 -78 -84 -95t-57 -32l41 -6q84 -14 117.5 -45t33.5 -92q0 -82 -24 -219 q-10 -61 -10 -92q0 -41 36 -41q55 0 116 70.5t85 164.5q12 37 28.5 37t16.5 -18q0 -37 -61 -148q-39 -70 -103.5 -110.5t-136.5 -40.5q-68 0 -106.5 39.5t-38.5 107.5q0 78 33 217q10 55 10 88q0 27 -11.5 40t-41.5 24q-37 10 -74 10q-21 0 -62 -6z" />
<glyph unicode="l" horiz-adv-x="497" d="M709 1356l-459 -1120q-51 -121 -51 -162q0 -55 73 -56q76 0 148 86q33 37 39 37q14 0 14 -14q0 -25 -67 -86q-80 -70 -201 -70q-78 0 -123 34t-45 91q0 31 7 54.5t44 111.5l436 1061l23 57q6 12 6 15q0 18 -39 18q-90 0 -90 17q0 12 18 12q25 0 43.5 -2t69.5 -2 q90 0 131 8q25 4 31 4q23 0 22 -16q0 -8 -10 -29q-12 -33 -20 -49z" />
<glyph unicode="m" horiz-adv-x="1415" d="M455 723l-11 -29q4 4 78 86q88 104 226 105q84 0 118.5 -43t38.5 -152q131 193 283 193q78 0 124 -43t46 -115q0 -55 -51 -172l-152 -344q-37 -80 -37 -121t47 -41q31 0 72 22.5t68 53.5q27 27 39 27t12 -9q0 -23 -70 -73q-104 -74 -188 -74q-57 0 -93 29.5t-36 76.5 q0 49 45 156l149 346q53 123 54 160q0 72 -62 72q-94 0 -207 -138q-78 -96 -182 -348l-123 -289q-20 -51 -26.5 -59t-16.5 -8t-16 2q-31 4 -54 4q-31 0 -38 -2q-25 -4 -27 -4q-14 0 -14 10q0 6 10 25q8 16 20 45l213 506q68 160 68 208q0 27 -16.5 42.5t-45.5 15.5 q-84 0 -196 -133q-29 -29 -109 -144q-20 -29 -76 -153l-153 -361q-18 -43 -22.5 -50t-14.5 -7t-16 2q-33 4 -39 4q-63 0 -76 -6q-4 -2 -12 -2q-10 0 -11 10q0 4 11 19q8 10 14 30l299 692l25 60q6 10 6 14q0 18 -37 19q-57 0 -57 20q0 14 20 14q16 0 27 -2q55 -6 88 -6 q92 0 116 15l13 4q12 0 12 -15q0 -6 -18 -45q-21 -45 -39 -100z" />
<glyph unicode="n" horiz-adv-x="1007" d="M449 727l-23 -55q18 18 47 51q154 160 293 160q82 0 133 -46t51 -118q0 -55 -53 -170l-166 -375q-29 -66 -29 -88q0 -43 48 -43q57 0 168 94q8 6 16 6q12 0 12 -10q0 -20 -67 -72q-96 -63 -197 -63q-63 0 -104 27.5t-41 70.5q0 41 38 123l164 367q59 133 60 180 q0 29 -20.5 49.5t-51.5 20.5q-96 0 -221 -136q-57 -61 -93 -118.5t-83 -167.5l-154 -357l-14 -32q-6 -20 -11.5 -25.5t-15.5 -5.5q-4 0 -45 4q-6 2 -24 2q-16 0 -56 -4q-6 -2 -14 -2q-14 0 -14 10q0 4 6 12l14 31l291 696l22 58l11 18q-4 16 -52 17q-61 4 -61 22q0 14 23 14 q6 0 53 -6q10 -2 39 -2q109 0 145 17q12 6 19 6q12 0 12 -13q0 -6 -2 -10z" />
<glyph unicode="o" horiz-adv-x="946" d="M625 877q125 0 202.5 -90.5t77.5 -235.5q0 -242 -219 -432q-170 -152 -358 -152q-127 0 -209 88t-82 228q0 119 67.5 243.5t180.5 212.5q176 138 340 138zM608 840q-170 0 -295 -244q-119 -233 -118 -438q0 -154 137 -154q172 0 286 221q129 252 130 459q-1 156 -140 156 z" />
<glyph unicode="p" horiz-adv-x="993" d="M188 102l-172 -424q-14 -31 -22 -63q-18 -51 -41 -90q150 -6 149 -21q0 -16 -51 -16q-45 0 -110 4q-14 0 -28.5 1t-23 2t-10.5 1q-18 0 -125 -6l-82 -2q-43 0 -43 16q0 18 58 23q76 2 95 17.5t52 97.5l459 1101q35 84 35 88q0 16 -25 17h-20q-10 -2 -33 -2q-37 0 -37 16 q0 14 25 15h32q164 0 213 12q16 4 21 4q12 0 12 -12.5t-57 -139.5q94 84 150.5 114t123.5 30q109 0 179.5 -67.5t70.5 -174.5q0 -156 -90 -311.5t-232.5 -255t-283.5 -99.5q-76 0 -119 27.5t-70 97.5zM313 399l-67 -168q-23 -57 -23 -81q0 -53 41 -92.5t98 -39.5 q166 0 316 279q131 244 131 418q0 121 -109 121q-111 0 -217 -127q-82 -93 -170 -310z" />
<glyph unicode="q" horiz-adv-x="954" d="M463 -483l26 -2l29 -2q74 -4 74 -18.5t-39 -14.5q-8 0 -86 4q-86 4 -145 4q-31 0 -132 -4h-36q-20 0 -21 12q0 20 86 23q59 0 72 12l14 25q12 23 25 55l102 260l60 154q12 14 18 38q-16 -12 -27 -18q-61 -45 -99 -59.5t-95 -14.5q-113 0 -187.5 74t-74.5 188 q0 109 56 231t150 216q92 92 200 146.5t198 54.5q70 0 108.5 -29t65.5 -98l10 32l10 41q8 29 13.5 36t17.5 7q18 0 35 -2h12q43 0 70 15q12 4 16 4q10 0 10 -15q0 -6 -41 -112zM643 358l100 252q31 74 31 107q0 51 -41 85t-102 34q-143 0 -264 -191q-170 -272 -170 -465 q0 -72 37.5 -116t101.5 -44q102 0 186 105q55 63 121 233z" />
<glyph unicode="r" horiz-adv-x="690" d="M473 799l-76 -185q188 262 332 263q45 0 72.5 -25t27.5 -66t-26.5 -70.5t-61.5 -29.5q-33 0 -32 23l4 20q4 12 4 23q0 49 -49 49q-59 0 -166 -115t-201 -321l-147 -324q-14 -35 -18.5 -41t-16.5 -6q-6 0 -13 2q-16 4 -51 4t-55 -4h-12q-18 0 -19 8q2 4 6 8l11 21l325 739 l21 47q0 16 -27 17q-4 0 -35 -2h-20q-31 0 -31 14q0 6 2 8t13.5 4t31 3t60.5 1q111 6 143 19q16 4 18 4q12 0 13 -13q0 -14 -27 -75z" />
<glyph unicode="s" horiz-adv-x="708" d="M586 883q78 0 135 -47.5t57 -110.5q0 -35 -22.5 -59.5t-53.5 -24.5q-25 0 -43 17.5t-18 41.5q0 18 13.5 34t27.5 16q6 0 18 -5q14 -8 23 -8q12 0 12 15q0 35 -47 67.5t-96 32.5q-66 0 -111 -42t-45 -101q0 -37 15.5 -84t80.5 -201q23 -61 23 -125q0 -139 -94 -233.5 t-236 -94.5q-123 0 -205.5 69t-82.5 169q0 57 33.5 94t84.5 37q39 0 67 -26.5t28 -63.5q0 -27 -17.5 -44.5t-42.5 -17.5q-27 0 -45 12.5t-18 30.5q0 14 6 27q4 16 4 18q0 20 -17 21q-18 0 -33.5 -27.5t-15.5 -60.5q0 -80 66.5 -139.5t157.5 -59.5q84 0 140 51.5t56 128.5 q0 51 -43 181q-41 115 -41 196q0 133 81 224.5t198 91.5z" />
<glyph unicode="t" horiz-adv-x="522" d="M492 825l-277 -620q-45 -111 -45 -127q0 -18 18.5 -30.5t44.5 -12.5q94 0 160 92q18 27 29 27q16 0 16 -15q0 -8 -23.5 -37.5t-43.5 -48.5q-82 -68 -187 -67q-74 0 -120 36.5t-46 94.5q0 33 48 137l268 575h-84q-25 0 -30 2.5t-5 12.5q0 27 29 26h18q10 -2 33 -2 q29 0 55 2l35 88q20 45 29 46q12 0 41 -7q8 -2 24 -2q23 0 66 21q8 4 14 4q10 0 10 -8q0 -6 -22 -49l-45 -99l49 2l78 4q37 4 41 4q23 0 22 -16q0 -31 -86 -31l-78 -2h-36z" />
<glyph unicode="u" horiz-adv-x="999" d="M567 162l25 69q-137 -158 -208 -204.5t-173 -46.5q-80 0 -131 31.5t-51 82.5q0 53 45 156l211 473l18 38l16 34q6 8 7 14q0 16 -50 16q-66 0 -65 23q0 14 14.5 14t22.5 -2q27 -6 71 -6q106 0 158 18q12 4 17 5q10 0 10 -13q0 -14 -41 -102q-47 -96 -76 -180 q-20 -53 -63 -150l-82 -188q-51 -111 -52 -166q0 -59 76 -60q78 0 207 132q145 152 238 372l131 312q4 8 5 12t3 7t4 4t4 1h6q2 0 7.5 -1t16.5 -2t19 -1h17q55 0 71 6q12 4 15 4q10 0 10 -8q0 -2 -4 -10l-15 -33l-229 -534q-70 -160 -70 -201q0 -31 12.5 -43t41.5 -12 q74 0 168 106q23 27 30 27q12 0 13 -13q0 -20 -37 -57t-84 -66q-72 -43 -148 -43q-59 0 -104 33t-45 76q0 29 18 76z" />
<glyph unicode="v" horiz-adv-x="894" d="M489 614l-114 -266q-20 -47 -39 -118.5t-19 -106.5q0 -106 89 -107q84 0 187 111t175 271.5t72 291.5q0 68 -29 68q-2 0 -23 -4q-14 -6 -26 -6q-23 0 -39 15t-16 36q0 33 25.5 56.5t60.5 23.5q92 0 92 -115q0 -152 -58.5 -313.5t-158.5 -286.5q-154 -190 -316 -191 q-88 0 -145 48.5t-57 123.5q0 96 79 283l119 281q25 53 25 75q0 18 -14.5 30.5t-34.5 12.5q-41 0 -110 -60t-99 -122q-12 -31 -30.5 -31t-18.5 15q0 16 36.5 64t75.5 87q106 100 209 101q63 0 102 -33t39 -86.5t-39 -147.5z" />
<glyph unicode="w" horiz-adv-x="1376" d="M1012 778l-193 -481q-45 -111 -45 -184q0 -47 23.5 -74t64.5 -27q70 0 155 77t167 212q57 98 93 212t36 204q0 45 -27 45q-8 -2 -20 -6q-4 -2 -17 -2q-59 0 -59 51q0 31 24.5 53.5t59.5 22.5q37 0 58.5 -33t21.5 -88q0 -184 -80 -369.5t-204 -302.5t-249 -117 q-66 0 -114 42t-64 114q-6 33 -6 98q-63 -131 -136 -191.5t-169 -60.5q-82 0 -135.5 49.5t-53.5 124.5q0 96 58 232l123 283q31 68 30 116q0 55 -47 56q-41 0 -104.5 -54.5t-96.5 -117.5q-12 -23 -22 -23q-12 0 -12 16q0 39 80 119q106 109 219 109q70 0 109.5 -32t39.5 -87 q0 -84 -65 -227l-121 -267q-47 -102 -47 -174q0 -86 69 -86q174 0 349 430l104 252l39 117q4 20 8 23.5t21 3.5l24 2l49 6l58 10q16 4 18 4q16 0 16 -12q0 -8 -8 -17q-16 -33 -22 -51z" />
<glyph unicode="x" horiz-adv-x="958" d="M426 442l25 90q35 133 34 181q0 119 -86 118q-59 0 -119.5 -41.5t-107.5 -117.5q-25 -37 -41 -37q-12 0 -12 14q0 33 74 107q119 125 247 125q106 0 154.5 -49.5t56.5 -165.5q135 217 281 217q55 0 90 -31t35 -78q0 -33 -18.5 -52.5t-49.5 -19.5q-25 0 -42 14.5t-17 35.5 q0 16 28 39q8 6 9 22q0 41 -52 41q-70 0 -167 -117q-57 -70 -85 -123t-67 -172l-16 -53q-49 -147 -50 -266q0 -115 86 -115q57 0 123 52.5t107 129.5q23 47 37 48q10 0 10 -13q0 -41 -62 -119q-104 -133 -256 -133q-94 0 -146 47.5t-52 131.5q0 37 6 81 q-74 -139 -144.5 -198.5t-160.5 -59.5q-68 0 -106 33t-38 92q0 41 25 70t61 29q27 0 46.5 -17.5t19.5 -40.5q0 -18 -7 -28.5t-44 -36.5q-8 -2 -8 -21q0 -20 19.5 -32.5t47.5 -12.5q92 0 188.5 125t143.5 307z" />
<glyph unicode="y" horiz-adv-x="991" d="M496 100l32 50l66 110l65 100l177 291q100 164 130.5 199t75.5 35q33 0 52.5 -19.5t19.5 -50.5t-20.5 -51.5t-49.5 -20.5q-20 0 -28 7.5t-19 31.5q-4 8 -10 9q-20 0 -88 -111l-211 -344l-289 -442q-147 -219 -297 -345q-90 -74 -178 -73q-92 0 -92 67q0 35 24.5 57.5 t61.5 22.5q27 0 35 -9t8 -42q0 -37 29 -37q37 0 114.5 65.5t143.5 153.5q102 131 102 232q0 29 -2 51v49l-4 590q0 78 -14.5 109.5t-47 31.5t-71.5 -43t-70 -115q-16 -39 -23 -48t-18 -9q-16 0 -16 19q0 39 61 133q92 137 217 137q94 0 117 -62q18 -45 19 -157v-56l-6 -327 v-37q0 -76 4 -152z" />
<glyph unicode="z" horiz-adv-x="825" d="M129 145q80 20 123 21q82 0 270 -76q70 -29 102.5 -29t56.5 25t24 59q0 25 -11.5 35t-50.5 23q-23 10 -22 41q0 27 20.5 46t48.5 19q31 0 49.5 -21.5t18.5 -56.5q0 -119 -92 -204q-78 -72 -134 -72q-23 0 -126 31q-293 86 -324 86q-25 0 -31 -35q-6 -41 -39 -41 q-25 0 -24 20q0 37 43 82l106 117q229 254 451 438q66 53 92 80q-115 -39 -211 -39q-123 0 -219 64q-16 10 -25 10q-14 0 -21 -14.5t-34 -85.5q-6 -18 -11 -23.5t-18 -5.5q-14 0 -14 14q0 8 8 23q23 43 70 198q6 31 22 31q8 0 70 -24q184 -78 371 -78q123 0 123 47 q0 8 -3 16q-2 4 -2 11q0 23 27 22q25 0 25 -39q0 -29 -25 -57.5t-117 -108.5q-374 -324 -567 -549z" />
<glyph unicode="{" horiz-adv-x="768" d="M737 1069l-61 -158q-90 -258 -408 -290q90 -14 145.5 -74t55.5 -144q0 -90 -57 -215l-66 -141q-45 -100 -45 -182q0 -49 37 -69.5t123 -20.5q14 0 14 -13q0 -14 -24 -14q-158 0 -229.5 42t-71.5 132q0 41 7 65.5t40 112.5l73 185q53 139 54 209q0 115 -136 120 q-45 6 -47 15q0 10 19 10h24q29 -2 66 -2q104 0 168 76q33 39 80 178l71 219q43 133 95.5 200.5t140.5 106.5q98 43 223 43q20 0 20.5 -14t-22.5 -14q-109 -2 -156 -43t-86 -166l-30 -105z" />
<glyph unicode="|" horiz-adv-x="1058" d="M514 1536h117v-2048h-117v2048z" />
<glyph unicode="}" horiz-adv-x="774" d="M131 8l94 254q57 178 153.5 258t278.5 105q-90 16 -144 73.5t-54 132.5q0 70 67 242l49 125q33 80 33 150q0 51 -32.5 70.5t-122.5 19.5q-18 0 -19 12q0 14 25 14q113 0 186 -24q115 -37 115 -158q0 -47 -39 -156l-66 -178q-51 -131 -51 -203q0 -115 160 -112 q20 0 20 -12q0 -10 -9 -12.5t-68 -2.5q-76 0 -127 -24q-59 -31 -79 -60.5t-65 -161.5l-82 -233q-49 -143 -104 -215t-150 -117q-92 -45 -211 -45q-35 0 -34 14q0 10 6 13.5t35 3.5q104 8 146 49t89 178z" />
<glyph unicode="~" horiz-adv-x="1236" d="M1430 797q-55 -96 -132 -150.5t-155 -54.5q-45 0 -131 29q-182 59 -248 59q-55 0 -93 -23.5t-98 -97.5l-30 21q125 205 291 204q57 0 192 -45q115 -39 166 -39q115 0 207 115z" />
<glyph unicode="&#xa1;" horiz-adv-x="546" d="M-86 -311l256 557l49 110q14 41 41 95q10 16 29 65q14 37 30 37q14 0 15 -21q0 -10 -8 -43l-181 -641l-59 -249q-27 -111 -59.5 -154t-89.5 -43q-41 0 -68 23.5t-27 60.5q0 29 9.5 55.5t62.5 147.5zM399 858q45 0 72 -26.5t27 -69.5q0 -51 -36 -86t-89 -35q-92 0 -92 96 q0 53 32.5 87t85.5 34z" />
<glyph unicode="&#xa2;" horiz-adv-x="849" d="M367 258l-123 -217q-27 -45 -49 -45q-18 0 -19 16q0 10 21 49l125 218q-145 80 -146 237q0 129 86 269.5t234 252.5q80 59 148.5 84t162.5 27l131 231q14 27 35 27q18 0 18 -16q0 -14 -12 -35l-119 -215q106 -43 107 -148q0 -39 -26 -67.5t-60 -28.5q-29 0 -51.5 20.5 t-22.5 49.5q0 23 14.5 37t34.5 14q12 0 37 -10q8 -4 12 -4q12 0 13 16q0 70 -74 96l-443 -792q43 -41 111 -41q137 0 246 141q23 29 33 29q12 0 12 -13q0 -29 -70 -94q-115 -102 -252 -102q-44 0 -114 14zM369 365l426 757q-66 -4 -125.5 -43t-130.5 -129 q-78 -102 -131.5 -242.5t-53.5 -248.5q1 -51 15 -94z" />
<glyph unicode="&#xa3;" horiz-adv-x="1181" d="M942 635l-303 -4q-109 -309 -420 -500q-18 -12 -18 -16q0 -6 8 -6t18 6q6 6 146 59q88 37 202 37q84 0 211 -51q111 -45 162 -45q68 0 121 80q29 39 49 86q12 33 27 32q16 0 16 -22q0 -53 -102 -191q-104 -139 -228 -139q-70 0 -200 53q-184 76 -301 76q-150 0 -295 -94 q-25 -18 -45 -19q-8 0 -15.5 6.5t-7.5 14.5q0 16 16.5 27.5t102.5 52.5q88 43 168 130t119 181q33 78 57 242q-35 2 -74 2q-29 0 -41 -2q-23 0 -47 -1t-37.5 -2t-15.5 -1q-53 0 -53 30q0 20 21.5 24.5t142.5 4.5h69q10 0 49 6q55 358 209 557t375 199q131 0 197 -66 q74 -74 73 -180q0 -53 -28.5 -85t-75.5 -32q-39 0 -66.5 25t-27.5 59q0 57 67 86q47 16 47 37q0 35 -45 72q-51 43 -141 43q-147 0 -233 -150q-43 -74 -69 -161.5t-54 -266.5l-25 -139h70q156 0 225 4h31q39 0 39 -20q0 -23 -13.5 -31t-56.5 -8z" />
<glyph unicode="&#xa4;" horiz-adv-x="1243" d="M158 1419l207 -207q127 90 256 91q133 0 260 -91l204 207l72 -73l-205 -205q86 -123 86 -256t-86 -256l205 -205l-72 -74l-204 207q-123 -88 -260 -88q-133 0 -256 88l-207 -207l-72 74l207 205q-88 123 -88 256t88 256l-207 205zM618 1200q-127 0 -219 -92t-92 -221 q0 -131 92.5 -223.5t223.5 -92.5q129 0 221 92.5t92 223.5t-92.5 222t-225.5 91z" />
<glyph unicode="&#xa5;" horiz-adv-x="1101" d="M657 467l-114 -328q-20 -55 -21 -71q0 -18 42 -29.5t108 -9.5q18 0 18 -11q0 -20 -39 -20q-23 0 -37 2q-160 6 -229 6q-123 0 -192 -6l-52 -2q-20 0 -20 12q0 23 57 23q109 4 141.5 25.5t57.5 103.5l106 303h-352q-14 0 -14 12q0 29 15 34t99 5q35 0 74 -2h78h117l32 107 h-307q-37 0 -43 2t-6 12q0 29 7 35t38 6h316l-58 567l-8 88q-4 33 -19.5 44t-70.5 14h-29l-28 2q-23 0 -23 12q0 18 33 18q18 0 33 -2q82 -4 219 -4q186 0 217 2q16 2 41 2q29 0 28 -14q0 -12 -13 -14t-89 -7q-119 -2 -119 -73q0 -20 6 -68l58 -545l418 514q78 94 91 111.5 t13 32.5q0 18 -23.5 23t-119.5 7q-18 0 -19 13q0 20 49 20q6 0 66 -2l291 -2q27 0 26 -12q0 -16 -34 -17q-102 -8 -142.5 -33.5t-148.5 -158.5l-314 -387l-104 -131h278q29 0 34 -2t5 -15v-8q0 -23 -8 -29t-41 -4h-16h-41h-4l-248 3q-14 -23 -29 -68q-8 -14 -14 -39h287 q45 0 53 -4t8 -31q0 -18 -35 -14l-63 -2q-16 -2 -51 -2q-25 0 -160 4z" />
<glyph unicode="&#xa6;" horiz-adv-x="1058" d="M514 1382h117v-716h-117v716zM514 358h117v-716h-117v716z" />
<glyph unicode="&#xa7;" horiz-adv-x="1017" d="M672 954l106 -96q129 -117 158 -168q41 -70 41 -147q0 -129 -88 -221q-43 -43 -137 -95q29 -74 28 -137q0 -147 -114 -262q-123 -121 -283 -121q-139 0 -240.5 94.5t-101.5 225.5q0 51 28.5 81.5t75.5 30.5q92 0 93 -90q0 -55 -58 -74q-45 -18 -45 -42.5t31 -82.5 q27 -47 82 -75.5t121 -28.5q109 0 174 68.5t65 181.5q0 78 -34.5 139.5t-122.5 136.5l-82 72q-90 78 -121 130t-31 128q0 190 219 309q-47 86 -47 160q0 143 113.5 244.5t271.5 101.5q129 0 222.5 -68.5t93.5 -164.5q0 -51 -30 -84t-77 -33q-39 0 -67.5 23.5t-28.5 58.5 t15.5 50t62.5 32q20 6 20 20q0 51 -65.5 92t-147.5 41q-102 0 -163.5 -59t-61.5 -158q0 -61 23.5 -102t101.5 -111zM651 715l-67 59q-102 96 -117 113q-119 -84 -119 -191q0 -41 41 -100t105 -111l100 -84q84 -70 139 -137q109 61 109 162q-1 121 -191 289z" />
<glyph unicode="&#xa8;" horiz-adv-x="1058" d="M586 1247q35 0 57.5 -25.5t22.5 -66.5q0 -45 -33 -75.5t-80 -30.5q-39 0 -62.5 22.5t-23.5 61.5q0 49 34 81.5t85 32.5zM928 1247q37 0 60.5 -25.5t23.5 -64.5q0 -45 -33 -76.5t-78 -31.5q-39 0 -63.5 22.5t-24.5 58.5q0 49 33 83t82 34z" />
<glyph unicode="&#xa9;" horiz-adv-x="1609" d="M975 1442q281 0 477.5 -199t196.5 -481q0 -319 -233.5 -553t-553.5 -234q-291 0 -487.5 198t-196.5 489q0 319 235.5 549.5t561.5 230.5zM948 1380q-279 0 -486.5 -216t-207.5 -505q0 -262 177 -442t435 -180q287 0 497 215t210 510q0 262 -179.5 440t-445.5 178z M1245 932l-18 -47q-8 -20 -25 -21q-25 0 -24 19q0 4 8 35q6 20 6 53q0 74 -37 114.5t-102 40.5q-162 0 -275 -170q-123 -186 -123 -391q0 -215 160 -215q135 0 250 156q23 29 39 29q18 0 18 -17q0 -31 -80 -106q-127 -127 -297 -127q-119 0 -187.5 69.5t-68.5 188.5 q0 233 177.5 426.5t390.5 193.5q102 0 180 -71q12 -12 20 -13q6 0 15 13q8 14 26 14q16 0 16.5 -12.5t-22.5 -59.5q-33 -65 -47 -102z" />
<glyph unicode="&#xaa;" horiz-adv-x="692" d="M682 1032l25 49q10 23 22 23q10 0 19 -2q4 -2 16 -2q27 0 39 6l12 4q12 0 12 -12q0 -14 -10 -31l-168 -362q-23 -51 -22 -78q0 -29 26 -29q49 0 95 61q12 20 20 21q10 0 10 -10q0 -16 -30 -47q-53 -59 -138 -60q-43 0 -68.5 20.5t-25.5 53.5q0 10 2 16q-96 -94 -174 -94 q-66 0 -110 43t-44 107q0 125 130.5 262t248.5 137q80 0 113 -76zM541 745l98 203q18 35 18 49q0 31 -22.5 52.5t-54.5 21.5q-92 0 -201 -192q-63 -117 -64 -203q0 -76 64 -76q41 0 86 41t76 104z" />
<glyph unicode="&#xab;" horiz-adv-x="823" d="M469 684l-205 -180q-43 -37 -43 -53q0 -6 21 -62l73 -151l9 -25l8 -20l4 -13q0 -12 -10.5 -12t-44.5 37l-162 168q-35 35 -33 47l4 34.5t3 23.5t1 9q2 6 49 39l152 101l80 49l110 65q10 6 17 7q12 0 12 -15q0 -6 -45 -49zM821 684l-205 -180q-45 -41 -45 -53q0 -6 23 -62 l72 -151l10 -25l8 -20q4 -12 4 -15q0 -10 -10 -10q-8 0 -45 37l-162 168q-37 35 -35 47q6 59 10 67q2 6 50 39l149 101q186 121 207 121q4 0 8 -5.5t4 -7.5q0 -12 -43 -51z" />
<glyph unicode="&#xac;" horiz-adv-x="1075" d="M963 782v-452h-132v379h-718v73h850z" />
<glyph unicode="&#xad;" horiz-adv-x="538" d="M516 545l-20 -113h-414l16 113h418z" />
<glyph unicode="&#xae;" horiz-adv-x="1609" d="M975 1442q281 0 477.5 -199t196.5 -481q0 -319 -233.5 -553t-553.5 -234q-291 0 -487.5 198t-196.5 489q0 319 235.5 549.5t561.5 230.5zM948 1380q-279 0 -486.5 -216t-207.5 -505q0 -262 177 -442t435 -180q287 0 497 215t210 510q0 262 -179.5 440t-445.5 178z M844 733l-133 -348q-12 -33 -13 -37q0 -14 11.5 -16t64.5 -4q27 0 27 -13q0 -18 -39 -18q-20 0 -152 4h-51q-53 0 -76 -2q-12 -2 -28 -2q-25 0 -25 16q0 8 5 10.5t30 4.5h2q55 2 69.5 12t34.5 66l246 636q18 53 19 58q0 18 -68 18q-23 0 -23 15q0 12 12.5 14t86.5 2l61 -2 l74 -2h84q113 0 179.5 -47t66.5 -125q0 -63 -50.5 -117.5t-134.5 -83.5q-53 -18 -155 -27l26 -6q72 -20 99.5 -58t27.5 -114v-37l-6 -106q-2 -23 -2 -57q0 -51 21 -52q8 0 9 4.5t1 24.5q0 10 14.5 20.5t30.5 10.5q31 0 31 -25q0 -27 -33 -46t-80 -19q-68 0 -104.5 36.5 t-36.5 102.5q0 16 4 65l8 93q2 20 2 55q0 55 -25.5 73.5t-111.5 22.5zM971 1063l-113 -297q94 4 143 18q72 20 115 72.5t43 118.5q0 98 -61 129q-20 10 -88 10q-14 0 -18.5 -6t-20.5 -45z" />
<glyph unicode="&#xaf;" horiz-adv-x="1058" d="M1006 1200l-39 -104h-486l37 104h488z" />
<glyph unicode="&#xb0;" horiz-adv-x="837" d="M731 1446q84 0 143.5 -59.5t59.5 -143.5t-66.5 -149.5t-152.5 -65.5t-147.5 60.5t-61.5 146.5q0 90 65.5 150.5t159.5 60.5zM727 1382q-63 0 -106 -44t-43 -107q0 -59 36.5 -98t94.5 -39q61 0 108 47t47 110q0 49 -39 95q-30 36 -98 36z" />
<glyph unicode="&#xb1;" d="M674 723h387v-74h-387v-379h-74v379h-387v74h387v379h74v-379zM1061 98v-73h-848v73h848z" />
<glyph unicode="&#xb2;" horiz-adv-x="698" d="M242 688h16l96 -2q180 0 216 3t59 24q39 31 65 86q10 23 27 22q20 0 20 -20q0 -16 -47 -101q-20 -47 -22 -51l-37 -74q-61 -4 -141 -4h-56l-164 2q-135 0 -178 7l17 41q14 33 30.5 50t69.5 52q125 78 299 213q213 168 213 330q0 57 -30.5 90t-86.5 33q-88 0 -137 -66 q-31 -35 -31 -57q0 -6 8.5 -6t14.5 2h6q20 0 34.5 -15.5t14.5 -36.5q0 -29 -22.5 -49t-53.5 -20q-29 0 -49 21.5t-20 47.5q0 78 78 152q78 76 202 76q113 0 164 -43q63 -53 64 -133q0 -113 -105 -207q-51 -49 -115.5 -94.5t-250.5 -161.5z" />
<glyph unicode="&#xb3;" horiz-adv-x="698" d="M465 1004h-14q-12 0 -21.5 9t-9.5 21q0 25 47 25q70 0 107.5 10t78.5 39q102 70 103 180q0 109 -107 109q-55 0 -105 -29t-50 -59q0 -10 20 -11q18 -2 32.5 -19t14.5 -38q0 -27 -19.5 -45t-45.5 -18q-29 0 -49.5 20.5t-20.5 52.5q0 80 74.5 135.5t183.5 55.5 q102 0 157.5 -44t55.5 -128q0 -164 -258 -236q129 -45 129 -168q0 -125 -107.5 -215t-257.5 -90q-109 0 -168 44t-59 126q0 53 28.5 87t74.5 34q27 0 45 -15.5t18 -37.5q0 -66 -82 -66q-23 0 -31 -5t-8 -19q0 -43 42 -72t104 -29q104 0 179 85t75 204q0 47 -27 78t-68 31z " />
<glyph unicode="&#xb4;" horiz-adv-x="1058" d="M930 1386h149h4q35 4 35 -10q0 -10 -41 -41l-293 -217q-109 -84 -125 -84q-6 0 -6 4q0 2 4 11l13 12z" />
<glyph unicode="&#xb5;" horiz-adv-x="1013" d="M1016 813l-232 -534q-51 -123 -59 -148t-8 -53q0 -55 53 -55q80 0 166 106q23 27 31 27q12 0 12 -13q0 -20 -37 -58t-82 -65q-70 -43 -149 -43q-59 0 -103.5 33t-44.5 76q0 27 17 76q2 8 12 31.5t14 37.5q-135 -158 -206.5 -204.5t-172.5 -46.5q-88 0 -139 34 q-18 -63 -31 -123l-43 -237q-35 -186 -141 -186q-39 0 -64.5 22.5t-25.5 56.5q0 29 8 53.5t59 139.5l449 983l23 49l12 23q6 8 6 14q0 16 -49 16q-66 0 -66 23q0 14 17 14q12 0 20 -2q31 -6 53 -6q121 0 177 18q12 4 16 5q10 0 10 -11q0 -16 -41 -104q-47 -96 -76 -180 q-20 -53 -63 -150l-84 -188q-51 -117 -51 -166q0 -27 20.5 -42.5t55.5 -15.5q78 0 208 132q141 147 238 370l131 312q8 18 10 21t11 3q2 0 43 -4h18q53 0 70 6q12 4 14 4q10 0 10 -8q0 -2 -16 -43z" />
<glyph unicode="&#xb6;" horiz-adv-x="1101" d="M1196 1372l-377 -1079q-72 -205 -147.5 -314.5t-204.5 -195.5q-170 -115 -299 -115q-78 0 -136.5 38t-58.5 89q0 47 32 82t73 35q39 0 64.5 -25.5t25.5 -64.5q0 -20 -23 -45q-12 -14 -12 -29q0 -35 57 -35q88 0 164 97q150 195 264 524l109 311q-203 2 -291 53 q-139 82 -139 228q0 123 74.5 236.5t199.5 176.5q141 74 355 74h391h53q33 0 33 -20q0 -18 -31 -19h-47h-4zM1147 1370h-107l-374 -1038q-78 -215 -125 -311.5t-131 -206.5q-6 -6 -7 -11q0 -10 11 -10q12 0 70.5 46t93.5 81q102 113 192 371z" />
<glyph unicode="&#xb7;" horiz-adv-x="442" d="M252 580q47 0 73.5 -29t26.5 -78q0 -53 -33.5 -86t-87.5 -33q-104 0 -104 101q0 53 36 89t89 36z" />
<glyph unicode="&#xb8;" horiz-adv-x="1058" d="M510 0l-27 -72q80 -4 110 -26.5t30 -77.5q0 -84 -72 -143.5t-172 -59.5q-51 0 -92 17.5t-41 39.5q0 12 10 13q6 0 14 -6q41 -31 80 -31q72 0 122 57.5t50 138.5q0 59 -61 60h-15l33 90h31z" />
<glyph unicode="&#xb9;" horiz-adv-x="698" d="M772 1339l-256 -655q-20 -55 -20 -59q0 -14 28 -15l82 2h10q27 0 27 -20.5t-25 -20.5h-14q-16 2 -55 2h-100h-125h-80q-10 0 -19 -2h-16q-25 0 -25 19q0 16 13.5 18t95.5 2q35 0 48 12.5t32 61.5l194 496q57 139 58 163q0 12 -17 13q-14 0 -67 -8q-10 -2 -29 -2 q-20 0 -20 16q0 18 77 27q150 25 209 51q4 2 13 2q16 0 16 -17q0 -8 -6 -24q-27 -54 -29 -62z" />
<glyph unicode="&#xba;" horiz-adv-x="657" d="M573 1104q80 0 130.5 -55.5t50.5 -143.5q0 -129 -115 -239.5t-248 -110.5q-84 0 -136 54.5t-52 138.5q0 127 118.5 241.5t251.5 114.5zM561 1075q-98 0 -174 -143q-74 -135 -74 -260q0 -88 80 -88q102 0 172 129q78 150 78 272q0 90 -82 90z" />
<glyph unicode="&#xbb;" horiz-adv-x="870" d="M268 723l160 -158l21 -20l12 -10q18 -16 18 -29q0 -37 -10 -68q-4 -16 -47 -43l-154 -102q-66 -41 -94 -57q-100 -63 -111 -64q-12 0 -12 10q0 14 58 64l178 153q63 55 63 78q0 16 -33 68l-45 69q-88 150 -88 164q0 8 11 8q12 0 34 -22q27 -27 39 -41zM610 725l160 -156 l35 -30q18 -16 18 -31q0 -35 -10 -66q-4 -16 -47 -45l-156 -102l-94 -55q-100 -63 -110 -64q-12 0 -13 12q0 10 58 60l178 155q66 57 65 78q0 14 -35 66l-43 71q-12 18 -65 113l-19 33q-6 10 -6 16q0 10 11 11q12 0 73 -66z" />
<glyph unicode="&#xbc;" horiz-adv-x="1615" d="M774 1339l-256 -655q-20 -55 -20 -59q0 -14 28 -15l82 2h10q27 0 27 -20.5t-24 -20.5h-15q-16 2 -55 2h-100h-125h-80q-10 0 -19 -2h-16q-25 0 -25 19q0 16 13.5 18t95.5 2q35 0 48 12.5t32 61.5l194 496q57 139 58 163q0 12 -17 13q-14 0 -67 -8q-10 -2 -29 -2 q-20 0 -20 16q0 18 77 27q150 25 209 51q4 2 13 2q16 0 16 -17q0 -8 -6 -24q-27 -54 -29 -62zM1452 1260l-1051 -1246q-31 -35 -43 -34q-8 0 -27.5 13t-19.5 19q0 2 21 29l1161 1366q23 27 33 27q8 0 26.5 -12.5t18.5 -18.5q0 -10 -119 -143zM1368 264l-37 -96 q-49 -145 -57 -164q-12 -20 -43 -20q-57 0 -75.5 5t-18.5 19q0 4 6 23l88 237h-316q-33 0 -32 15q0 8 14 22l590 514q16 16 22 25q33 37 52 37q25 0 24 -23q0 -10 -18 -27l-586 -514h109h155l115 277q8 20 13 25.5t16 5.5q14 0 49 -7q49 -8 49 -24q0 -8 -4 -25l-103 -254h11 q20 2 57 2q12 2 25 2q29 0 28 -24q0 -31 -43 -31h-90z" />
<glyph unicode="&#xbd;" horiz-adv-x="1615" d="M774 1339l-256 -655q-20 -55 -20 -59q0 -14 28 -15l82 2h10q27 0 27 -20.5t-24 -20.5h-15q-16 2 -55 2h-100h-125h-80q-10 0 -19 -2h-16q-25 0 -25 19q0 16 13.5 18t95.5 2q35 0 48 12.5t32 61.5l194 496q57 139 58 163q0 12 -17 13q-14 0 -67 -8q-10 -2 -29 -2 q-20 0 -20 16q0 18 77 27q150 25 209 51q4 2 13 2q16 0 16 -17q0 -8 -6 -24q-27 -54 -29 -62zM1415 1260l-1050 -1246q-33 -35 -43 -34q-8 0 -28 13t-20 19q0 2 21 29l1161 1366q23 27 31 27q10 0 28.5 -12.5t18.5 -18.5q0 -10 -119 -143zM1171 688h7q20 0 34.5 -14.5 t14.5 -34.5q0 -29 -22.5 -50.5t-53.5 -21.5q-29 0 -49.5 21.5t-20.5 48.5q0 78 78 151q76 76 203 76q113 0 166 -45q63 -49 63 -131q0 -109 -104 -209q-80 -76 -367 -256l-170 -108q57 -2 101 -2q193 0 228.5 3t57.5 23q39 31 66 84q10 25 27 25q20 0 20 -21q0 -14 -45 -102 l-25 -49l-37 -76q-63 -2 -149 -2q-285 0 -389 6l16 43q14 33 32.5 50.5t70.5 49.5q170 111 297 213q215 168 215 334q0 55 -32 88t-85 33q-90 0 -139 -65q-31 -37 -31 -56q0 -8 10 -8q6 0 12 2z" />
<glyph unicode="&#xbe;" horiz-adv-x="1615" d="M465 1004h-14q-12 0 -21.5 9t-9.5 21q0 25 47 25q70 0 107.5 10t78.5 39q102 70 103 180q0 109 -107 109q-55 0 -105 -29t-50 -59q0 -10 20 -11q18 -2 32.5 -19t14.5 -38q0 -27 -19.5 -45t-45.5 -18q-29 0 -49.5 20.5t-20.5 52.5q0 80 74.5 135.5t183.5 55.5 q102 0 157.5 -44t55.5 -128q0 -164 -258 -236q129 -45 129 -168q0 -125 -107.5 -215t-257.5 -90q-109 0 -168 44t-59 126q0 53 28.5 87t74.5 34q27 0 45 -15.5t18 -37.5q0 -66 -82 -66q-23 0 -31 -5t-8 -19q0 -43 42 -72t104 -29q104 0 179 85t75 204q0 47 -27 78t-68 31z M1464 1260l-1052 -1246q-31 -35 -41.5 -34.5t-29.5 13.5t-19 19q0 2 20 29l1163 1366q20 27 30.5 27t29 -12.5t18.5 -18.5q0 -10 -119 -143zM1366 264l-37 -96q-49 -145 -57 -164q-12 -20 -43 -20q-57 0 -75.5 5t-18.5 19q0 4 6 23l88 237h-316q-33 0 -32 15q0 8 14 22 l590 514q16 16 22 25q33 37 52 37q25 0 24 -23q0 -10 -18 -27l-584 -514h106h156l115 277q12 31 26 31q4 0 52 -7q31 -4 40 -9t9 -17q0 -6 -4 -23l-103 -254h11q20 2 57 2q12 2 24 2q29 0 29 -24q0 -12 -12 -21.5t-29 -9.5h-92z" />
<glyph unicode="&#xbf;" horiz-adv-x="788" d="M537 518q14 0 14 -20q0 -119 -74 -267q-68 -141 -260 -282q-164 -119 -211 -178.5t-47 -147.5q0 -86 51 -139t135 -53q66 0 123.5 43t57.5 94q0 10 -5.5 15t-31.5 18q-31 16 -31 53q0 35 25.5 59.5t64.5 24.5q37 0 63.5 -27.5t26.5 -64.5q0 -96 -104 -174 q-88 -70 -217 -70q-147 0 -236.5 78t-89.5 205q0 145 121 239q53 41 93 61.5t214 96.5q104 41 178 135t107 227q10 47 15.5 60.5t17.5 13.5zM596 858q43 0 69.5 -24.5t26.5 -65.5q0 -51 -32.5 -85t-81.5 -34q-43 0 -69 25.5t-26 70.5q0 51 31 82t82 31z" />
<glyph unicode="&#xc0;" horiz-adv-x="1284" d="M477 477h-33q-25 -25 -51 -61l-186 -262q-37 -53 -37 -74q0 -43 113 -43q23 0 32 2q37 4 41 4q29 0 29 -23q0 -20 -53 -20h-27q-41 2 -78 2l-196 -4q-139 0 -171 4t-32 23q0 16 18 16q20 0 31 -2q31 -6 51 -6q72 0 117 26q31 18 131 152l580 778l331 441q20 27 35 26 q23 0 23 -33q0 -47 -12 -108q-27 -145 -52 -371l-77 -729q-8 -102 -9 -104q0 -66 74 -70l121 -6q25 0 24 -17q0 -14 -19 -16t-130 -2l-156 2l-270 -2q-14 -2 -31 -2q-37 0 -37 25q0 18 25 18q20 0 43 -2h23q59 0 98 18q27 10 41 115l33 262q0 8 1 15.5t1 11.5l2 4 q0 10 -9.5 12t-64.5 2q-244 0 -287 -2zM848 537l55 419l17 113q4 20 4 27q0 20 -9 20q-6 0 -12 -20q-16 -25 -29 -37q-18 -27 -63 -86l-213 -295l-96 -127q-12 -10 -13 -14q0 -14 29 -15l41 2l103 -2q159 1 186 15zM1118 1858l47 -304q8 -31 9 -32q0 -16 -13 -17 q-8 0 -22 25l-78 133q-29 37 -49 86q-14 20 -43 66q-10 14 -27 43h176z" />
<glyph unicode="&#xc1;" horiz-adv-x="1284" d="M485 477h-32q-25 -25 -54 -61l-190 -262q-39 -53 -39 -74q0 -43 113 -43q23 0 32 2q37 4 41 4q29 0 29 -20q0 -23 -55 -23l-113 2l-186 -4q-139 0 -171 4t-32 23q0 16 20 16q18 0 31 -2q27 -6 51 -6q68 0 117 26q31 18 133 152l592 778l162 207l180 234q18 27 35 26 q20 0 20 -29q0 -53 -14 -112q-31 -156 -57 -371l-90 -729q-12 -86 -13 -111q0 -59 74 -63l121 -6q25 0 24 -17q0 -14 -19 -16t-130 -2l-156 2l-270 -2q-14 -2 -33 -2q-35 0 -35 25q0 18 22.5 18t45.5 -2h23q59 0 98 18q29 12 43 115l39 262l2 15q2 6 2 16t-9.5 12t-64.5 2 q-244 0 -287 -2zM856 537l64 419q4 29 8 53.5t6 35t4 24.5q4 20 4 29q0 18 -8 18q-6 0 -12 -20q-10 -25 -29 -37q-41 -47 -66 -86l-219 -295q-68 -94 -96 -127q-12 -10 -12 -14q0 -14 28 -15l41 2l103 -2q157 1 184 15zM1382 1860h150h4q35 4 35 -11q0 -10 -41 -41 l-293 -217q-111 -84 -125 -84q-6 0 -6 6l16 21z" />
<glyph unicode="&#xc2;" horiz-adv-x="1284" d="M485 477h-32q-25 -25 -54 -61l-190 -262q-39 -53 -39 -74q0 -43 113 -43q23 0 32 2q37 4 41 4q29 0 29 -20q0 -23 -55 -23l-113 2l-186 -4q-139 0 -171 4t-32 23q0 16 20 16q18 0 31 -2q27 -6 51 -6q68 0 117 26q31 18 133 152l592 778l162 207l180 234q18 27 35 26 q20 0 20 -29q0 -53 -14 -112q-31 -156 -57 -371l-90 -729q-12 -86 -13 -111q0 -59 74 -63l121 -6q25 0 24 -17q0 -14 -19 -16t-130 -2l-156 2l-270 -2q-14 -2 -33 -2q-35 0 -35 25q0 18 22.5 18t45.5 -2h23q59 0 98 18q29 12 43 115l39 262l2 15q2 6 2 16t-9.5 12t-64.5 2 q-244 0 -287 -2zM856 537l64 419q4 29 8 53.5t6 35t4 24.5q4 20 4 29q0 18 -8 18q-6 0 -12 -20q-10 -25 -29 -37q-41 -47 -66 -86l-219 -295q-68 -94 -96 -127q-12 -10 -12 -14q0 -14 28 -15l41 2l103 -2q157 1 184 15zM1374 1874l-65 -307l-4 -25q-6 -31 -25 -31 q-72 0 -72 25l4 20l27 125q8 33 12 45q6 12 6 23q0 12 -8 12q-4 0 -10 -10q-29 -39 -139 -129q-61 -53 -73.5 -62.5t-27.5 -9.5q-23 0 -22 15q0 6 10 12q201 143 338 321q27 41 39 41q18 0 18 -20q0 -2 -8 -45z" />
<glyph unicode="&#xc3;" horiz-adv-x="1284" d="M485 477h-32q-25 -25 -54 -61l-190 -262q-39 -53 -39 -74q0 -43 113 -43q23 0 32 2q37 4 41 4q29 0 29 -20q0 -23 -55 -23l-113 2l-186 -4q-139 0 -171 4t-32 23q0 16 20 16q18 0 31 -2q27 -6 51 -6q68 0 117 26q31 18 133 152l592 778l162 207l180 234q18 27 35 26 q20 0 20 -29q0 -53 -14 -112q-31 -156 -57 -371l-90 -729q-12 -86 -13 -111q0 -59 74 -63l121 -6q25 0 24 -17q0 -14 -19 -16t-130 -2l-156 2l-270 -2q-14 -2 -33 -2q-35 0 -35 25q0 18 22.5 18t45.5 -2h23q59 0 98 18q29 12 43 115l39 262l2 15q2 6 2 16t-9.5 12t-64.5 2 q-244 0 -287 -2zM856 537l64 419q4 29 8 53.5t6 35t4 24.5q4 20 4 29q0 18 -8 18q-6 0 -12 -20q-10 -25 -29 -37q-41 -47 -66 -86l-219 -295q-68 -94 -96 -127q-12 -10 -12 -14q0 -14 28 -15l41 2l103 -2q157 1 184 15zM1108 1745q45 0 79 -14.5t103 -65.5q63 -45 96 -45 q37 0 82 74q18 33 33 32.5t15 -10.5q0 -4 -7 -12q-10 -25 -20 -35q-39 -61 -92.5 -100t-100.5 -39q-39 0 -65.5 12t-116.5 74q-70 49 -115 49q-20 0 -38.5 -20.5t-18.5 -45.5q0 -20 12 -32q10 -14 11 -17q0 -14 -17 -14q-14 0 -25.5 20.5t-11.5 42.5q0 53 62.5 99.5 t134.5 46.5z" />
<glyph unicode="&#xc4;" horiz-adv-x="1284" d="M485 477h-32q-25 -25 -54 -61l-190 -262q-39 -53 -39 -74q0 -43 113 -43q23 0 32 2q37 4 41 4q29 0 29 -20q0 -23 -55 -23l-113 2l-186 -4q-139 0 -171 4t-32 23q0 16 20 16q18 0 31 -2q27 -6 51 -6q68 0 117 26q31 18 133 152l592 778l162 207l180 234q18 27 35 26 q20 0 20 -29q0 -53 -14 -112q-31 -156 -57 -371l-90 -729q-12 -86 -13 -111q0 -59 74 -63l121 -6q25 0 24 -17q0 -14 -19 -16t-130 -2l-156 2l-270 -2q-14 -2 -33 -2q-35 0 -35 25q0 18 22.5 18t45.5 -2h23q59 0 98 18q29 12 43 115l39 262l2 15q2 6 2 16t-9.5 12t-64.5 2 q-244 0 -287 -2zM856 537l64 419q4 29 8 53.5t6 35t4 24.5q4 20 4 29q0 18 -8 18q-6 0 -12 -20q-10 -25 -29 -37q-41 -47 -66 -86l-219 -295q-68 -94 -96 -127q-12 -10 -12 -14q0 -14 28 -15l41 2l103 -2q157 1 184 15zM1010 1722q35 0 57.5 -26.5t22.5 -65.5 q0 -45 -33 -75.5t-80 -30.5q-39 0 -62.5 22.5t-23.5 61.5q0 49 34 81.5t85 32.5zM1364 1722q37 0 60.5 -24.5t23.5 -63.5q0 -45 -32 -77.5t-77 -32.5q-39 0 -64.5 23.5t-25.5 60.5q0 47 34 80.5t81 33.5z" />
<glyph unicode="&#xc5;" horiz-adv-x="1284" d="M485 477h-32q-25 -25 -54 -61l-190 -262q-39 -53 -39 -74q0 -43 113 -43q23 0 32 2q37 4 41 4q29 0 29 -20q0 -23 -55 -23l-113 2l-186 -4q-139 0 -171 4t-32 23q0 16 20 16q18 0 31 -2q27 -6 51 -6q68 0 117 26q31 18 133 152l592 778l162 207l180 234q18 27 35 26 q20 0 20 -29q0 -53 -14 -112q-31 -156 -57 -371l-90 -729q-12 -86 -13 -111q0 -59 74 -63l121 -6q25 0 24 -17q0 -14 -19 -16t-130 -2l-156 2l-270 -2q-14 -2 -33 -2q-35 0 -35 25q0 18 22.5 18t45.5 -2h23q59 0 98 18q29 12 43 115l39 262l2 15q2 6 2 16t-9.5 12t-64.5 2 q-244 0 -287 -2zM856 537l64 419q4 29 8 53.5t6 35t4 24.5q4 20 4 29q0 18 -8 18q-6 0 -12 -20q-10 -25 -29 -37q-41 -47 -66 -86l-219 -295q-68 -94 -96 -127q-12 -10 -12 -14q0 -14 28 -15l41 2l103 -2q157 1 184 15zM1176 1858q70 0 117.5 -49.5t47.5 -120.5 q0 -70 -48 -119t-119 -49q-76 0 -123 47t-47 120.5t48 122t124 48.5zM1174 1821q-51 0 -89 -40t-38 -93.5t37.5 -91t89 -37.5t87 38.5t35.5 92t-36.5 92.5t-85.5 39z" />
<glyph unicode="&#xc6;" horiz-adv-x="1816" d="M766 141l143 334q-39 2 -86 2q-262 0 -350 -4q-18 -10 -35 -27q-18 -16 -51 -53l-219 -239q-63 -68 -64 -82q0 -35 99 -35h45q18 2 42.5 2t24.5 -16q0 -23 -36 -23h-31q-14 2 -60 2q-276 0 -311 -4q-16 -2 -39 -2q-31 0 -31 24q0 16 11 17l96 -6q6 0 40 15t46 24 q23 16 143 139l992 1032q94 98 94 125q0 25 -66 25h-65q-25 0 -25 16t43 16l205 -2l295 2l401 -2q29 0 29 -14q0 -16 -10 -37q-25 -59 -86 -268q-10 -37 -16.5 -47.5t-16.5 -10.5t-10 15q0 10 8 41q25 84 24 147q0 78 -57 105.5t-215 29.5l-121 2h-20q-33 0 -43 -13t-43 -93 l-205 -508q39 -4 82 -4q147 0 229 80q31 29 44.5 49t39.5 84q6 14 15 14q18 0 18 -10q0 -14 -23 -57q-20 -37 -84.5 -199t-97.5 -260q-18 -53 -31 -53q-14 0 -14 14q0 6 14 41q27 72 27 139q0 66 -43 91.5t-149 25.5h-48l-241 -582l-23 -57l-8 -16q2 -18 64.5 -23.5 t279.5 -5.5q27 0 94.5 14.5t104.5 28.5q90 35 142 97.5t95 189.5q12 37 19.5 47t21.5 10q12 0 13 -14q0 -20 -21 -68q-35 -76 -106 -287q-16 -45 -28.5 -53t-64.5 -8l-890 2q-137 0 -138 14q0 18 86 19h50q41 2 54 15t48 93zM930 526l325 772q-41 -31 -100 -100 q-90 -106 -231 -254l-326 -340q-8 -10 -29 -31l-22 -18l-15 -8q-6 -6 -6 -8q0 -12 35 -13q6 0 84 2l86 -2q20 -2 70 -2q66 0 129 2z" />
<glyph unicode="&#xc7;" horiz-adv-x="1173" d="M559 -27l-18 -45q80 -4 109.5 -26.5t29.5 -77.5q0 -84 -71.5 -144.5t-172.5 -60.5q-49 0 -91 18.5t-42 40.5q0 12 10 13q6 0 15 -6q43 -33 80 -33q72 0 122 57.5t50 138.5q0 33 -13.5 45.5t-52.5 14.5h-10l22 65q-186 0 -288.5 115t-102.5 321.5t93.5 417.5t250.5 365 q121 117 262.5 183.5t268.5 66.5q113 0 196 -56q16 -10 86 -69q23 -18 41 -19q25 0 47 39q8 8 17 9q12 0 12 -15q0 -25 -31 -86q-94 -180 -112 -256q-8 -33 -24.5 -33t-16.5 21q0 8 14 51q12 43 12 100q0 127 -65.5 201t-177.5 74q-264 0 -449 -291q-94 -147 -147.5 -327.5 t-53.5 -346.5q0 -377 275 -377q98 0 184 50q70 43 133.5 103t91.5 112q29 47 45 47q12 0 13 -17q0 -35 -73 -122t-144 -138q-150 -109 -324 -123z" />
<glyph unicode="&#xc8;" horiz-adv-x="1173" d="M737 1159l-153 -393q74 -6 96 -6q104 0 182 53t109 145q8 31 24 31q18 0 19 -16q0 -2 -8 -23q-115 -244 -203 -510q-6 -29 -20.5 -28.5t-14.5 14.5q0 6 4 23q31 106 31 157q0 66 -45 92.5t-160 26.5q-23 0 -31 -7t-18 -34l-221 -545q-25 -61 -25 -71q0 -20 37 -21l106 -4 q41 -2 111 -2q297 0 408 129q57 68 106 215q14 41 35 41q14 0 14 -14q0 -12 -20 -62q-88 -236 -115 -317q-8 -23 -18.5 -29t-46.5 -6h-355h-340q-254 0 -296 2t-42 16q0 12 18.5 14.5t119.5 2.5q37 0 50 14t46 84l414 999l55 130q35 88 35 106q0 14 -19.5 18.5t-134.5 6.5 q-25 0 -25 12q0 20 39 20q59 0 195 -2h293l125 -2l164 -2h28q37 0 45 2h13q35 0 34 -20q-2 -4 -4 -10q-10 -16 -22 -58l-58 -209q-18 -82 -36 -82q-12 0 -13 17l2 14q27 66 27 158q0 98 -64 125q-74 29 -219 28l-114 2h-23q-20 0 -30.5 -8t-20.5 -33zM985 1858l47 -304 q6 -31 6 -32q0 -16 -12 -17q-6 0 -22 25l-78 133l-119 195h178z" />
<glyph unicode="&#xc9;" horiz-adv-x="1173" d="M737 1159l-153 -393q74 -6 96 -6q104 0 182 53t109 145q8 31 24 31q18 0 19 -16q0 -2 -8 -23q-115 -244 -203 -510q-6 -29 -20.5 -28.5t-14.5 14.5q0 6 4 23q31 106 31 157q0 66 -45 92.5t-160 26.5q-23 0 -31 -7t-18 -34l-221 -545q-25 -61 -25 -71q0 -20 37 -21l106 -4 q41 -2 111 -2q297 0 408 129q57 68 106 215q14 41 35 41q14 0 14 -14q0 -12 -20 -62q-88 -236 -115 -317q-8 -23 -18.5 -29t-46.5 -6h-355h-340q-254 0 -296 2t-42 16q0 12 18.5 14.5t119.5 2.5q37 0 50 14t46 84l414 999l55 130q35 88 35 106q0 14 -19.5 18.5t-134.5 6.5 q-25 0 -25 12q0 20 39 20q59 0 195 -2h293l125 -2l164 -2h28q37 0 45 2h13q35 0 34 -20q-2 -4 -4 -10q-10 -16 -22 -58l-58 -209q-18 -82 -36 -82q-12 0 -13 17l2 14q27 66 27 158q0 98 -64 125q-74 29 -219 28l-114 2h-23q-20 0 -30.5 -8t-20.5 -33zM1176 1860h149h4 q35 4 35 -11q0 -10 -41 -41l-293 -217q-111 -84 -125 -84q-6 0 -6 6l16 21z" />
<glyph unicode="&#xca;" horiz-adv-x="1173" d="M737 1159l-153 -393q74 -6 96 -6q104 0 182 53t109 145q8 31 24 31q18 0 19 -16q0 -2 -8 -23q-115 -244 -203 -510q-6 -29 -20.5 -28.5t-14.5 14.5q0 6 4 23q31 106 31 157q0 66 -45 92.5t-160 26.5q-23 0 -31 -7t-18 -34l-221 -545q-25 -61 -25 -71q0 -20 37 -21l106 -4 q41 -2 111 -2q297 0 408 129q57 68 106 215q14 41 35 41q14 0 14 -14q0 -12 -20 -62q-88 -236 -115 -317q-8 -23 -18.5 -29t-46.5 -6h-355h-340q-254 0 -296 2t-42 16q0 12 18.5 14.5t119.5 2.5q37 0 50 14t46 84l414 999l55 130q35 88 35 106q0 14 -19.5 18.5t-134.5 6.5 q-25 0 -25 12q0 20 39 20q59 0 195 -2h293l125 -2l164 -2h28q37 0 45 2h13q35 0 34 -20q-2 -4 -4 -10q-10 -16 -22 -58l-58 -209q-18 -82 -36 -82q-12 0 -13 17l2 14q27 66 27 158q0 98 -64 125q-74 29 -219 28l-114 2h-23q-20 0 -30.5 -8t-20.5 -33zM1202 1874l-65 -307 l-4 -25q-6 -31 -25 -31q-72 0 -72 25l4 20l27 125q8 33 12 45q6 12 6 23q0 12 -8 12q-4 0 -10 -10q-29 -39 -139 -129q-61 -53 -73.5 -62.5t-27.5 -9.5q-23 0 -22 15q0 6 10 12q201 143 338 321q27 41 39 41q18 0 18 -20q0 -2 -8 -45z" />
<glyph unicode="&#xcb;" horiz-adv-x="1173" d="M737 1159l-153 -393q74 -6 96 -6q104 0 182 53t109 145q8 31 24 31q18 0 19 -16q0 -2 -8 -23q-115 -244 -203 -510q-6 -29 -20.5 -28.5t-14.5 14.5q0 6 4 23q31 106 31 157q0 66 -45 92.5t-160 26.5q-23 0 -31 -7t-18 -34l-221 -545q-25 -61 -25 -71q0 -20 37 -21l106 -4 q41 -2 111 -2q297 0 408 129q57 68 106 215q14 41 35 41q14 0 14 -14q0 -12 -20 -62q-88 -236 -115 -317q-8 -23 -18.5 -29t-46.5 -6h-355h-340q-254 0 -296 2t-42 16q0 12 18.5 14.5t119.5 2.5q37 0 50 14t46 84l414 999l55 130q35 88 35 106q0 14 -19.5 18.5t-134.5 6.5 q-25 0 -25 12q0 20 39 20q59 0 195 -2h293l125 -2l164 -2h28q37 0 45 2h13q35 0 34 -20q-2 -4 -4 -10q-10 -16 -22 -58l-58 -209q-18 -82 -36 -82q-12 0 -13 17l2 14q27 66 27 158q0 98 -64 125q-74 29 -219 28l-114 2h-23q-20 0 -30.5 -8t-20.5 -33zM838 1722 q35 0 57.5 -26.5t22.5 -65.5q0 -45 -33 -75.5t-80 -30.5q-39 0 -62.5 22.5t-23.5 61.5q0 49 34 81.5t85 32.5zM1192 1722q37 0 60.5 -24.5t23.5 -63.5q0 -45 -32 -77.5t-77 -32.5q-39 0 -64.5 23.5t-25.5 60.5q0 47 34 80.5t81 33.5z" />
<glyph unicode="&#xcc;" horiz-adv-x="669" d="M723 1157l-383 -977l-29 -78q-10 -27 -10 -28q0 -37 82 -47q8 0 63 -2q27 -2 27 -15q0 -14 -29 -14q-131 2 -424 2q-94 0 -110 2t-16 12.5t8 12.5t47 2q80 2 100 10q37 12 57 45l44 106l399 1004q59 150 59 164q0 35 -63 35h-82q-23 0 -23 16q0 14 23 14h18q10 -2 99 -2 l305 2q12 -2 20 -2l76 2q4 0 11 -6t7 -10q0 -18 -24 -19q-12 0 -21 3h-32q-57 0 -76 -6.5t-33 -26.5q-22 -33 -90 -199zM760 1858l47 -304q6 -31 6 -32q0 -16 -12 -17q-6 0 -23 25l-78 133l-118 195h178z" />
<glyph unicode="&#xcd;" horiz-adv-x="669" d="M723 1157l-383 -977l-29 -78q-10 -27 -10 -28q0 -37 82 -47q8 0 63 -2q27 -2 27 -15q0 -14 -29 -14q-131 2 -424 2q-94 0 -110 2t-16 12.5t8 12.5t47 2q80 2 100 10q37 12 57 45l44 106l399 1004q59 150 59 164q0 35 -63 35h-82q-23 0 -23 16q0 14 23 14h18q10 -2 99 -2 l305 2q12 -2 20 -2l76 2q4 0 11 -6t7 -10q0 -18 -24 -19q-12 0 -21 3h-32q-57 0 -76 -6.5t-33 -26.5q-22 -33 -90 -199zM948 1860h150h4q35 4 35 -11q0 -10 -41 -41l-293 -217q-111 -84 -125 -84q-6 0 -6 6l16 21z" />
<glyph unicode="&#xce;" horiz-adv-x="669" d="M723 1157l-383 -977l-29 -78q-10 -27 -10 -28q0 -37 82 -47q8 0 63 -2q27 -2 27 -15q0 -14 -29 -14q-131 2 -424 2q-94 0 -110 2t-16 12.5t8 12.5t47 2q80 2 100 10q37 12 57 45l44 106l399 1004q59 150 59 164q0 35 -63 35h-82q-23 0 -23 16q0 14 23 14h18q10 -2 99 -2 l305 2q12 -2 20 -2l76 2q4 0 11 -6t7 -10q0 -18 -24 -19q-12 0 -21 3h-32q-57 0 -76 -6.5t-33 -26.5q-22 -33 -90 -199zM977 1874l-66 -307l-4 -25q-6 -31 -24 -31q-72 0 -72 25l4 20l27 125q8 33 12 45q6 12 6 23q0 12 -8 12q-4 0 -10 -10q-29 -39 -140 -129 q-61 -53 -73.5 -62.5t-26.5 -9.5q-23 0 -22 15q0 6 10 12q201 143 338 321q27 41 39 41q18 0 18 -20q0 -2 -8 -45z" />
<glyph unicode="&#xcf;" horiz-adv-x="669" d="M723 1157l-383 -977l-29 -78q-10 -27 -10 -28q0 -37 82 -47q8 0 63 -2q27 -2 27 -15q0 -14 -29 -14q-131 2 -424 2q-94 0 -110 2t-16 12.5t8 12.5t47 2q80 2 100 10q37 12 57 45l44 106l399 1004q59 150 59 164q0 35 -63 35h-82q-23 0 -23 16q0 14 23 14h18q10 -2 99 -2 l305 2q12 -2 20 -2l76 2q4 0 11 -6t7 -10q0 -18 -24 -19q-12 0 -21 3h-32q-57 0 -76 -6.5t-33 -26.5q-22 -33 -90 -199zM637 1722q35 0 57.5 -26.5t22.5 -65.5q0 -45 -33 -75.5t-80 -30.5q-39 0 -62.5 22.5t-23.5 61.5q0 49 34 81.5t85 32.5zM915 1722q37 0 60.5 -24.5 t23.5 -63.5q0 -45 -31.5 -77.5t-76.5 -32.5q-39 0 -64.5 23.5t-25.5 60.5q0 47 33.5 80.5t80.5 33.5z" />
<glyph unicode="&#xd0;" horiz-adv-x="1470" d="M381 752l190 473q43 111 43 125q0 27 -63 30l-111 11q-33 0 -32.5 16t43.5 16q12 0 122 -4q29 -2 127 -2h138q80 2 174 2q188 0 301 -59q217 -115 217 -399q0 -293 -173 -530.5t-466 -348.5q-129 -51 -216 -63.5t-300 -16.5q-131 0 -312 -2l-114 -2q-18 -2 -43 -2 q-29 0 -29 18q0 23 90 23q94 0 119 18q8 8 14 17l31 67l27 62l202 504l-43 -3h-43q-12 0 -26 3h-35q-29 0 -43 -3h-18q-33 0 -33 25t37 25h16q20 -2 113 -2q53 0 96 2zM754 1188l-172 -434q20 -2 39 -2l167 2q27 0 27 -25q0 -18 -25.5 -23.5t-123.5 -5.5q-31 0 -103 5 l-196 -496q-2 -6 -35 -86q-16 -43 -17 -51q0 -31 115 -31q205 0 346.5 60.5t267.5 203.5q131 143 207 339t76 384q0 197 -106 285q-86 70 -242 69q-78 0 -123 -8q-14 -2 -22.5 -13t-24.5 -48q-35 -68 -55 -125z" />
<glyph unicode="&#xd1;" horiz-adv-x="1404" d="M1112 330l330 897q43 115 43 137q0 18 -29 18q-37 0 -65 -2l-72 -2q-43 0 -43 19q0 25 43 24l248 -4q47 0 96 2h63q27 0 27 -18q0 -23 -59 -23l-92 2q-45 0 -62 -30l-16 -47l-31 -78l-352 -953l-58 -137l-30 -67l-13 -33q-18 -47 -28 -47q-16 0 -31 53l-324 1305 l-403 -1121q-53 -156 -53 -166q0 -25 67 -24h25q27 2 49 2q45 0 57.5 -3t12.5 -18q0 -20 -31 -20q-37 0 -57 2q-131 4 -172 4q-10 0 -166 -4h-47q-35 0 -35 16.5t49 22.5h27q29 0 75 4q39 2 53.5 9t30.5 30q8 20 25 57l39 103l370 1030l19 49l12 31l8 16q0 16 -57 16 q-98 0 -119 -2h-33q-41 0 -41 23q0 25 37 24q10 0 47 -2q74 -4 226 -4q117 0 157 4zM1055 1745q45 0 78.5 -14.5t103.5 -65.5q63 -45 96 -45q37 0 82 74q18 33 32.5 32.5t14.5 -10.5q0 -4 -6 -12q-10 -25 -20 -35q-39 -61 -92.5 -100t-100.5 -39q-39 0 -65.5 12t-116.5 74 q-70 49 -115 49q-20 0 -38.5 -20.5t-18.5 -45.5q0 -20 12 -32q10 -14 10 -17q0 -14 -16 -14q-14 0 -25.5 20.5t-11.5 42.5q0 53 62.5 99.5t134.5 46.5z" />
<glyph unicode="&#xd2;" horiz-adv-x="1454" d="M1083 1444q209 0 322 -150q109 -141 108 -333q0 -213 -105 -420t-292 -353q-270 -215 -545 -215q-205 0 -319.5 114t-114.5 319q0 207 106.5 425t286.5 375q270 238 553 238zM1067 1415q-123 0 -250 -97t-235 -274q-113 -182 -179.5 -386.5t-66.5 -370.5q0 -285 258 -285 q154 0 301 129q190 166 315 481q109 289 109 480q0 121 -45 206q-57 117 -207 117zM1126 1858l48 -304q6 -31 6 -32q0 -16 -13 -17q-6 0 -22 25l-78 133l-119 195h178z" />
<glyph unicode="&#xd3;" horiz-adv-x="1454" d="M1083 1444q209 0 322 -150q109 -141 108 -333q0 -213 -105 -420t-292 -353q-270 -215 -545 -215q-205 0 -319.5 114t-114.5 319q0 207 106.5 425t286.5 375q270 238 553 238zM1067 1415q-123 0 -250 -97t-235 -274q-113 -182 -179.5 -386.5t-66.5 -370.5q0 -285 258 -285 q154 0 301 129q190 166 315 481q109 289 109 480q0 121 -45 206q-57 117 -207 117zM1315 1860h149h4q35 4 35 -11q0 -10 -41 -41l-293 -217q-111 -84 -125 -84q-6 0 -6 6l17 21z" />
<glyph unicode="&#xd4;" horiz-adv-x="1454" d="M1083 1444q209 0 322 -150q109 -141 108 -333q0 -213 -105 -420t-292 -353q-270 -215 -545 -215q-205 0 -319.5 114t-114.5 319q0 207 106.5 425t286.5 375q270 238 553 238zM1067 1415q-123 0 -250 -97t-235 -274q-113 -182 -179.5 -386.5t-66.5 -370.5q0 -285 258 -285 q154 0 301 129q190 166 315 481q109 289 109 480q0 121 -45 206q-57 117 -207 117zM1343 1874l-65 -307l-4 -25q-6 -31 -25 -31q-72 0 -71 25l4 20l26 125q8 33 13 45q6 12 6 23q0 12 -8 12q-4 0 -11 -10q-29 -39 -139 -129q-61 -53 -73.5 -62.5t-26.5 -9.5q-23 0 -23 15 q0 6 10 12q201 143 338 321q27 41 39 41q18 0 19 -20q-1 -2 -9 -45z" />
<glyph unicode="&#xd5;" horiz-adv-x="1454" d="M1083 1444q209 0 322 -150q109 -141 108 -333q0 -213 -105 -420t-292 -353q-270 -215 -545 -215q-205 0 -319.5 114t-114.5 319q0 207 106.5 425t286.5 375q270 238 553 238zM1067 1415q-123 0 -250 -97t-235 -274q-113 -182 -179.5 -386.5t-66.5 -370.5q0 -285 258 -285 q154 0 301 129q190 166 315 481q109 289 109 480q0 121 -45 206q-57 117 -207 117zM1479 1704l-21 -35q-37 -61 -91 -100t-103 -39q-37 0 -63.5 12t-117.5 74q-72 49 -114 49q-23 0 -40.5 -20.5t-17.5 -45.5q0 -16 13 -32q10 -14 10 -17q0 -14 -16 -14q-14 0 -25.5 20.5 t-11.5 42.5q0 53 62.5 99.5t133.5 46.5q45 0 79 -14.5t104 -65.5q63 -45 96 -45q37 0 80 74q18 33 34 32q14 0 15 -10q0 -4 -6 -12z" />
<glyph unicode="&#xd6;" horiz-adv-x="1454" d="M1083 1444q209 0 322 -150q109 -141 108 -333q0 -213 -105 -420t-292 -353q-270 -215 -545 -215q-205 0 -319.5 114t-114.5 319q0 207 106.5 425t286.5 375q270 238 553 238zM1067 1415q-123 0 -250 -97t-235 -274q-113 -182 -179.5 -386.5t-66.5 -370.5q0 -285 258 -285 q154 0 301 129q190 166 315 481q109 289 109 480q0 121 -45 206q-57 117 -207 117zM965 1722q35 0 57 -26.5t22 -65.5q0 -45 -32.5 -75.5t-79.5 -30.5q-39 0 -62.5 22.5t-23.5 61.5q0 49 34 81.5t85 32.5zM1319 1722q37 0 60.5 -24.5t23.5 -63.5q0 -45 -32 -77.5t-77 -32.5 q-39 0 -64.5 23.5t-25.5 60.5q0 47 34 80.5t81 33.5z" />
<glyph unicode="&#xd7;" d="M637 739l303 303l53 -53l-303 -303l303 -303l-53 -53l-303 303l-303 -303l-53 53l303 303l-303 303l53 53z" />
<glyph unicode="&#xd8;" horiz-adv-x="1456" d="M1487 1530l-131 -182q158 -152 157 -400q0 -176 -81.5 -355t-211.5 -314.5t-303.5 -220.5t-343.5 -85q-113 0 -215 41l-155 -204q-23 -29 -29 -35t-16.5 -6t-20.5 10t-10 18t23 39l159 209q-90 66 -130 150t-40 211q0 217 114 438t308 387q252 213 512 213q141 0 236 -60 l133 177q20 27 30.5 26.5t21.5 -9.5t11 -17t-18 -31zM371 129l893 1192q-66 94 -189 94q-266 0 -514 -407q-104 -174 -163.5 -366.5t-59.5 -360.5q0 -82 33 -152zM1288 1264l-889 -1188q74 -72 195 -72q131 0 272.5 104.5t235.5 272.5t155.5 367.5t61.5 332.5q0 85 -31 183z " />
<glyph unicode="&#xd9;" horiz-adv-x="1325" d="M721 1200l-252 -635q-102 -264 -102 -375q0 -78 55 -127t141 -49q117 0 220.5 54.5t172.5 150.5q100 141 234 486l180 462q59 158 60 174q0 43 -76 43h-19q-16 -2 -30 -2q-18 0 -19 15q0 16 33 16h31l202 -2h78q20 2 41 2t21 -12q0 -18 -35 -19h-25q-12 2 -37 2 q-57 0 -76.5 -15t-39.5 -81l-49 -127l-187 -469q-176 -440 -301 -565q-158 -156 -410 -156q-164 0 -261 67.5t-97 180.5q0 119 100 367l258 635q8 16 21.5 50t19.5 46q8 14 9 24q0 35 -52 41h-61q-20 0 -20 13q0 18 32 18h19l196 -2l236 2q23 0 22 -12q0 -14 -10 -16.5 t-76 -4.5q-59 -4 -65 -10q-14 -8 -31 -39q-6 -16 -24.5 -61t-26.5 -70zM1122 1858l47 -304q6 -31 7 -32q0 -16 -13 -17q-6 0 -22 25l-78 133l-119 195h178z" />
<glyph unicode="&#xda;" horiz-adv-x="1325" d="M721 1200l-252 -635q-102 -264 -102 -375q0 -78 55 -127t141 -49q117 0 220.5 54.5t172.5 150.5q100 141 234 486l180 462q59 158 60 174q0 43 -76 43h-19q-16 -2 -30 -2q-18 0 -19 15q0 16 33 16h31l202 -2h78q20 2 41 2t21 -12q0 -18 -35 -19h-25q-12 2 -37 2 q-57 0 -76.5 -15t-39.5 -81l-49 -127l-187 -469q-176 -440 -301 -565q-158 -156 -410 -156q-164 0 -261 67.5t-97 180.5q0 119 100 367l258 635q8 16 21.5 50t19.5 46q8 14 9 24q0 35 -52 41h-61q-20 0 -20 13q0 18 32 18h19l196 -2l236 2q23 0 22 -12q0 -14 -10 -16.5 t-76 -4.5q-59 -4 -65 -10q-14 -8 -31 -39q-6 -16 -24.5 -61t-26.5 -70zM1313 1860h149h4q35 4 35 -11q0 -10 -41 -41l-293 -217q-111 -84 -125 -84q-6 0 -6 6l17 21z" />
<glyph unicode="&#xdb;" horiz-adv-x="1325" d="M721 1200l-252 -635q-102 -264 -102 -375q0 -78 55 -127t141 -49q117 0 220.5 54.5t172.5 150.5q100 141 234 486l180 462q59 158 60 174q0 43 -76 43h-19q-16 -2 -30 -2q-18 0 -19 15q0 16 33 16h31l202 -2h78q20 2 41 2t21 -12q0 -18 -35 -19h-25q-12 2 -37 2 q-57 0 -76.5 -15t-39.5 -81l-49 -127l-187 -469q-176 -440 -301 -565q-158 -156 -410 -156q-164 0 -261 67.5t-97 180.5q0 119 100 367l258 635q8 16 21.5 50t19.5 46q8 14 9 24q0 35 -52 41h-61q-20 0 -20 13q0 18 32 18h19l196 -2l236 2q23 0 22 -12q0 -14 -10 -16.5 t-76 -4.5q-59 -4 -65 -10q-14 -8 -31 -39q-6 -16 -24.5 -61t-26.5 -70zM1341 1874l-65 -307l-4 -25q-6 -31 -25 -31q-72 0 -71 25l4 20l26 125q8 33 13 45q6 12 6 23q0 12 -8 12q-4 0 -11 -10q-29 -39 -139 -129q-61 -53 -73.5 -62.5t-26.5 -9.5q-23 0 -23 15q0 6 10 12 q201 143 338 321q27 41 39 41q18 0 19 -20q-1 -2 -9 -45z" />
<glyph unicode="&#xdc;" horiz-adv-x="1325" d="M721 1200l-252 -635q-102 -264 -102 -375q0 -78 55 -127t141 -49q117 0 220.5 54.5t172.5 150.5q100 141 234 486l180 462q59 158 60 174q0 43 -76 43h-19q-16 -2 -30 -2q-18 0 -19 15q0 16 33 16h31l202 -2h78q20 2 41 2t21 -12q0 -18 -35 -19h-25q-12 2 -37 2 q-57 0 -76.5 -15t-39.5 -81l-49 -127l-187 -469q-176 -440 -301 -565q-158 -156 -410 -156q-164 0 -261 67.5t-97 180.5q0 119 100 367l258 635q8 16 21.5 50t19.5 46q8 14 9 24q0 35 -52 41h-61q-20 0 -20 13q0 18 32 18h19l196 -2l236 2q23 0 22 -12q0 -14 -10 -16.5 t-76 -4.5q-59 -4 -65 -10q-14 -8 -31 -39q-6 -16 -24.5 -61t-26.5 -70zM975 1722q35 0 57.5 -26.5t22.5 -65.5q0 -45 -33 -75.5t-80 -30.5q-39 0 -62.5 22.5t-23.5 61.5q0 49 34 81.5t85 32.5zM1329 1722q37 0 60.5 -24.5t23.5 -63.5q0 -45 -31.5 -77.5t-76.5 -32.5 q-39 0 -65 23.5t-26 60.5q0 47 34 80.5t81 33.5z" />
<glyph unicode="&#xdd;" horiz-adv-x="1112" d="M707 698l440 525q96 119 96 131q0 29 -55 28q-104 0 -105 17q0 18 47 18h130q53 -2 182 -2h45q27 0 26 -14q0 -10 -9 -12.5t-46 -4.5q-90 -10 -122.5 -32.5t-129.5 -134.5l-399 -478q-68 -74 -89.5 -108.5t-58.5 -126.5l-133 -346q-6 -18 -22 -56q-8 -16 -8 -28 q0 -39 71 -43l45 -2l31 -2q20 2 21 -11q0 -18 -43 -18q-18 0 -142 4q-102 4 -129 4q-55 0 -198 -8q-16 -2 -54 -2q-16 0 -16 12q0 16 14.5 19.5t104.5 7.5q63 4 87.5 25.5t53.5 101.5l141 368q33 84 33 123q0 4 -6 99l-39 512l-8 69q-4 33 -24.5 43t-82.5 10q-57 0 -57 16.5 t29 16.5q18 0 30 -2l242 -4q184 0 215 2q14 2 37 2q31 0 31 -14q0 -16 -60 -19q-100 -2 -133 -17t-33 -62q0 -4 5 -78zM1149 1860h149h5q35 4 34 -11q0 -10 -41 -41l-292 -217q-111 -84 -125 -84q-6 0 -7 6l17 21z" />
<glyph unicode="&#xde;" horiz-adv-x="1163" d="M416 365l-88 -232l-19 -49l-10 -29l-6 -10q0 -16 33 -16l118 2h25q23 0 23 -13q0 -23 -37 -22q-20 0 -35 2q-18 2 -121 2h-133q-203 0 -221 -2q-14 -2 -31 -2q-23 0 -23 14q0 23 25 23h21l36 -2l33 -2q25 -2 53 -2q18 0 26.5 12t37.5 86l471 1173q20 53 27 84 q-18 2 -43 2q-16 0 -54 -4l-35 -2q-55 0 -55 17q0 18 29 21t184 3h88q41 2 82 2l154 -4l24 2q18 0 19 -16q0 -14 -23 -14q-43 0 -102 -5q-51 -2 -65.5 -14t-37.5 -74l-75 -198h77q193 0 297 -54q143 -74 144 -231q0 -193 -184.5 -329t-446.5 -136q-59 1 -182 17zM690 1055 l-256 -647q98 -23 152 -23q170 0 303 139.5t133 317.5t-129 211q-45 10 -150 10q-20 0 -53 -8z" />
<glyph unicode="&#xdf;" horiz-adv-x="1005" d="M485 940l-258 -805q-63 -193 -126.5 -316.5t-149.5 -213.5q-131 -143 -258 -144q-70 0 -115 35t-45 90q0 39 24.5 65.5t61.5 26.5q29 0 53.5 -21.5t24.5 -47.5q0 -10 -21 -49q-10 -16 -10 -25q0 -14 14.5 -26.5t30.5 -12.5q68 0 131 74q76 94 197 473l223 698 q125 385 266 547q141 160 297 160q113 0 176.5 -65.5t63.5 -184.5q0 -207 -154 -305q-88 -51 -176 -64q-25 -2 -24 -12q0 -10 18 -12q92 -16 151.5 -99t59.5 -194q0 -207 -140.5 -372t-314.5 -165q-78 0 -124 38t-46 104q0 51 27 87t68 36q33 0 54 -20.5t21 -49.5 q0 -49 -36 -61q-43 -14 -43 -46q0 -55 75 -55q98 0 166 88q53 74 91 211t38 252q0 238 -186 252q-37 6 -37 27q0 18 31 18l47 -2q115 0 188 64q49 43 79 130t30 191q0 178 -119 178q-96 0 -165 -101.5t-159 -375.5z" />
<glyph unicode="&#xe0;" horiz-adv-x="997" d="M797 735l51 109q10 25 14 29t15 4q4 0 24.5 -4.5t28.5 -4.5q45 0 69 13q8 6 15 6q12 0 12 -15q0 -4 -16 -43l-271 -614q-39 -84 -39 -135q0 -53 54 -53q82 0 159 108q16 23 24.5 23t8.5 -8q0 -27 -45 -72q-86 -96 -215 -96q-63 0 -103 30.5t-40 79.5q0 31 14 72 q-129 -190 -299 -191q-106 0 -174 69t-68 175q0 117 78 257t207 253q174 156 324 156q80 0 122 -36t50 -112zM582 274l159 344q27 61 27 80q0 63 -38 102.5t-97 39.5q-57 0 -100.5 -27t-96.5 -94q-109 -137 -174 -290t-65 -267q0 -139 114 -139q66 0 143 71t128 180z M709 1382l47 -303q6 -31 6 -32q0 -16 -12 -17q-6 0 -23 25l-78 133q-33 57 -119 194h179z" />
<glyph unicode="&#xe1;" horiz-adv-x="997" d="M797 735l51 109q10 25 14 29t15 4q4 0 24.5 -4.5t28.5 -4.5q45 0 69 13q8 6 15 6q12 0 12 -15q0 -4 -16 -43l-271 -614q-39 -84 -39 -135q0 -53 54 -53q82 0 159 108q16 23 24.5 23t8.5 -8q0 -27 -45 -72q-86 -96 -215 -96q-63 0 -103 30.5t-40 79.5q0 31 14 72 q-129 -190 -299 -191q-106 0 -174 69t-68 175q0 117 78 257t207 253q174 156 324 156q80 0 122 -36t50 -112zM582 274l159 344q27 61 27 80q0 63 -38 102.5t-97 39.5q-57 0 -100.5 -27t-96.5 -94q-109 -137 -174 -290t-65 -267q0 -139 114 -139q66 0 143 71t128 180z M899 1386h150h4q35 4 34 -10q0 -10 -40 -41l-293 -217q-109 -84 -125 -84q-6 0 -6 4q0 2 4 11l12 12z" />
<glyph unicode="&#xe2;" horiz-adv-x="997" d="M797 735l51 109q10 25 14 29t15 4q4 0 24.5 -4.5t28.5 -4.5q45 0 69 13q8 6 15 6q12 0 12 -15q0 -4 -16 -43l-271 -614q-39 -84 -39 -135q0 -53 54 -53q82 0 159 108q16 23 24.5 23t8.5 -8q0 -27 -45 -72q-86 -96 -215 -96q-63 0 -103 30.5t-40 79.5q0 31 14 72 q-129 -190 -299 -191q-106 0 -174 69t-68 175q0 117 78 257t207 253q174 156 324 156q80 0 122 -36t50 -112zM582 274l159 344q27 61 27 80q0 63 -38 102.5t-97 39.5q-57 0 -100.5 -27t-96.5 -94q-109 -137 -174 -290t-65 -267q0 -139 114 -139q66 0 143 71t128 180z M926 1401l-66 -309l-4 -25q-4 -31 -25 -31q-72 0 -71 25q0 2 4 22l27 125q6 25 12 43q6 12 6 23q0 12 -8 12q-4 0 -10 -10q-20 -29 -140 -129q-57 -51 -71.5 -61.5t-28.5 -10.5q-23 0 -23 12q0 8 31 31q66 41 166 138.5t152 168.5q29 39 38 39q6 0 12.5 -6t6.5 -12 q0 -4 -8 -45z" />
<glyph unicode="&#xe3;" horiz-adv-x="997" d="M797 735l51 109q10 25 14 29t15 4q4 0 24.5 -4.5t28.5 -4.5q45 0 69 13q8 6 15 6q12 0 12 -15q0 -4 -16 -43l-271 -614q-39 -84 -39 -135q0 -53 54 -53q82 0 159 108q16 23 24.5 23t8.5 -8q0 -27 -45 -72q-86 -96 -215 -96q-63 0 -103 30.5t-40 79.5q0 31 14 72 q-129 -190 -299 -191q-106 0 -174 69t-68 175q0 117 78 257t207 253q174 156 324 156q80 0 122 -36t50 -112zM582 274l159 344q27 61 27 80q0 63 -38 102.5t-97 39.5q-57 0 -100.5 -27t-96.5 -94q-109 -137 -174 -290t-65 -267q0 -139 114 -139q66 0 143 71t128 180z M662 1270q45 0 76.5 -14.5t105.5 -65.5q63 -45 96 -45q39 0 80 74q23 33 35 32q14 0 14 -10q0 -6 -6 -12q-2 -4 -21 -35q-39 -63 -92 -101t-100 -38q-39 0 -65.5 12t-116.5 74q-70 49 -115 49q-20 0 -38.5 -20.5t-18.5 -45.5q0 -18 12 -32q8 -12 8 -17q0 -12 -16 -12 q-12 0 -23.5 19.5t-11.5 41.5q0 53 62.5 99.5t134.5 46.5z" />
<glyph unicode="&#xe4;" horiz-adv-x="997" d="M797 735l51 109q10 25 14 29t15 4q4 0 24.5 -4.5t28.5 -4.5q45 0 69 13q8 6 15 6q12 0 12 -15q0 -4 -16 -43l-271 -614q-39 -84 -39 -135q0 -53 54 -53q82 0 159 108q16 23 24.5 23t8.5 -8q0 -27 -45 -72q-86 -96 -215 -96q-63 0 -103 30.5t-40 79.5q0 31 14 72 q-129 -190 -299 -191q-106 0 -174 69t-68 175q0 117 78 257t207 253q174 156 324 156q80 0 122 -36t50 -112zM582 274l159 344q27 61 27 80q0 63 -38 102.5t-97 39.5q-57 0 -100.5 -27t-96.5 -94q-109 -137 -174 -290t-65 -267q0 -139 114 -139q66 0 143 71t128 180z M555 1247q35 0 57.5 -25.5t22.5 -66.5q0 -45 -33 -75.5t-80 -30.5q-39 0 -62.5 22.5t-23.5 61.5q0 49 34 81.5t85 32.5zM897 1247q37 0 60.5 -25.5t23.5 -64.5q0 -45 -33 -76.5t-78 -31.5q-39 0 -63.5 22.5t-24.5 58.5q0 49 33 83t82 34z" />
<glyph unicode="&#xe5;" horiz-adv-x="997" d="M797 735l51 109q10 25 14 29t15 4q4 0 24.5 -4.5t28.5 -4.5q45 0 69 13q8 6 15 6q12 0 12 -15q0 -4 -16 -43l-271 -614q-39 -84 -39 -135q0 -53 54 -53q82 0 159 108q16 23 24.5 23t8.5 -8q0 -27 -45 -72q-86 -96 -215 -96q-63 0 -103 30.5t-40 79.5q0 31 14 72 q-129 -190 -299 -191q-106 0 -174 69t-68 175q0 117 78 257t207 253q174 156 324 156q80 0 122 -36t50 -112zM582 274l159 344q27 61 27 80q0 63 -38 102.5t-97 39.5q-57 0 -100.5 -27t-96.5 -94q-109 -137 -174 -290t-65 -267q0 -139 114 -139q66 0 143 71t128 180z M727 1384q70 0 118 -50t48 -122q0 -70 -49 -119t-119 -49q-76 0 -123 47.5t-47 122.5q0 74 48 122t124 48zM725 1348q-49 0 -88 -41t-39 -94.5t38 -91.5t89 -38t87 39t36 95q0 53 -37 92t-86 39z" />
<glyph unicode="&#xe6;" horiz-adv-x="1339" d="M1018 850l-21 -45q145 76 236 76q84 0 130 -37t46 -107q0 -109 -121 -180.5t-305 -71.5q-49 0 -139 11q-72 -162 -72 -287q0 -188 160 -189q135 0 244 140q20 23 32 22q10 0 11 -8q0 -25 -50 -78q-117 -123 -276 -123q-115 0 -207 70q-70 55 -88 176q-131 -246 -338 -246 q-106 0 -175 69t-69 175q0 135 99.5 293t245 265.5t270.5 107.5q150 0 168 -150l47 98q14 33 18 39.5t15 6.5q4 0 22 -7q6 -2 29 -2q41 0 67 15q8 4 13 4q14 0 14 -15q0 -8 -6 -22zM594 311l141 297q31 68 31 101q0 31 -21 67q-33 61 -114 62q-74 0 -139.5 -54.5 t-139.5 -175.5q-158 -256 -157 -444q0 -66 29.5 -105t80.5 -39q154 0 289 291zM864 522h37q193 0 293 119q68 78 68 137q0 63 -64 64q-78 0 -173 -91.5t-161 -228.5z" />
<glyph unicode="&#xe7;" horiz-adv-x="729" d="M336 -27l-17 -45q80 -4 110 -26.5t30 -77.5q0 -84 -72 -144.5t-172 -60.5q-51 0 -92 18.5t-41 40.5q0 12 10 13q6 0 14 -6q41 -33 80 -33q72 0 122 56t50 138q0 35 -13 47.5t-54 14.5h-8l22 65q-70 6 -119 29q-154 72 -153 252q0 217 229 440q193 186 387 187 q76 0 124 -42t48 -110q0 -45 -23.5 -72.5t-60.5 -27.5q-29 0 -51 21.5t-22 47.5q0 49 55 50l16 -3q16 -8 25 -8q16 0 16 23q0 33 -40 58.5t-89 25.5q-154 0 -293 -226q-145 -227 -145 -432q0 -172 156 -172q66 0 116.5 31t118.5 111q18 25 33 24q10 0 10 -12q0 -39 -94 -115 q-88 -74 -213 -80z" />
<glyph unicode="&#xe8;" horiz-adv-x="778" d="M285 496q-76 -158 -76 -293q0 -182 162 -183q125 0 243 132q27 29 35 28q10 0 10 -10q0 -18 -29.5 -54t-66.5 -63q-109 -80 -229 -80q-133 0 -219 78t-86 197q0 233 250 444q217 188 391 189q86 0 133 -37t47 -103q0 -111 -119 -183.5t-301 -72.5q-65 1 -145 11zM301 522 q25 -2 55 -2q180 0 287 125q61 76 62 131q0 63 -64 64q-70 0 -129 -49q-113 -87 -211 -269zM639 1382l47 -303q6 -31 6 -32q0 -16 -12 -17q-6 0 -23 25l-77 133q-33 57 -119 194h178z" />
<glyph unicode="&#xe9;" horiz-adv-x="778" d="M285 496q-76 -158 -76 -293q0 -182 162 -183q125 0 243 132q27 29 35 28q10 0 10 -10q0 -18 -29.5 -54t-66.5 -63q-109 -80 -229 -80q-133 0 -219 78t-86 197q0 233 250 444q217 188 391 189q86 0 133 -37t47 -103q0 -111 -119 -183.5t-301 -72.5q-65 1 -145 11zM301 522 q25 -2 55 -2q180 0 287 125q61 76 62 131q0 63 -64 64q-70 0 -129 -49q-113 -87 -211 -269zM827 1386h150h4q35 4 35 -10q0 -10 -41 -41l-293 -217q-109 -84 -125 -84q-6 0 -6 4q0 2 4 11l12 12z" />
<glyph unicode="&#xea;" horiz-adv-x="778" d="M285 496q-76 -158 -76 -293q0 -182 162 -183q125 0 243 132q27 29 35 28q10 0 10 -10q0 -18 -29.5 -54t-66.5 -63q-109 -80 -229 -80q-133 0 -219 78t-86 197q0 233 250 444q217 188 391 189q86 0 133 -37t47 -103q0 -111 -119 -183.5t-301 -72.5q-65 1 -145 11zM301 522 q25 -2 55 -2q180 0 287 125q61 76 62 131q0 63 -64 64q-70 0 -129 -49q-113 -87 -211 -269zM856 1401l-65 -309l-5 -25q-4 -31 -24 -31q-72 0 -72 25q0 2 4 22l27 125q6 25 12 43q6 12 6 23q0 12 -8 12q-4 0 -10 -10q-20 -29 -139 -129q-57 -51 -71.5 -61.5t-29.5 -10.5 q-23 0 -22 12q0 8 30 31q66 41 166.5 138.5t151.5 168.5q29 39 39 39q6 0 12 -6t6 -12q0 -4 -8 -45z" />
<glyph unicode="&#xeb;" horiz-adv-x="778" d="M285 496q-76 -158 -76 -293q0 -182 162 -183q125 0 243 132q27 29 35 28q10 0 10 -10q0 -18 -29.5 -54t-66.5 -63q-109 -80 -229 -80q-133 0 -219 78t-86 197q0 233 250 444q217 188 391 189q86 0 133 -37t47 -103q0 -111 -119 -183.5t-301 -72.5q-65 1 -145 11zM301 522 q25 -2 55 -2q180 0 287 125q61 76 62 131q0 63 -64 64q-70 0 -129 -49q-113 -87 -211 -269zM473 1247q35 0 57.5 -25.5t22.5 -66.5q0 -45 -33 -75.5t-80 -30.5q-39 0 -62.5 22.5t-23.5 61.5q0 49 34 81.5t85 32.5zM815 1247q37 0 60.5 -25.5t23.5 -64.5q0 -45 -32.5 -76.5 t-78.5 -31.5q-39 0 -63.5 22.5t-24.5 58.5q0 49 33 83t82 34z" />
<glyph unicode="&#xec;" horiz-adv-x="491" d="M467 743l-236 -538q-47 -111 -47 -135q0 -23 17.5 -39.5t40.5 -16.5q39 0 89 28t77 67q16 25 28.5 24.5t12.5 -12.5q0 -23 -58 -74q-86 -74 -194 -74q-72 0 -118 37t-46 94q0 51 51 166l213 475q10 35 25 54q6 8 6 14q0 12 -13.5 16.5t-76.5 8.5q-16 4 -17 14q0 4 6 11 t11 7q6 0 30 -4q33 -4 92 -4q86 0 121 15q20 8 29 8q14 0 14 -17q0 -6 -10 -24q-20 -38 -47 -101zM457 1382l47 -303q6 -31 6 -32q0 -16 -12 -17q-6 0 -23 25l-78 133q-33 57 -118 194h178z" />
<glyph unicode="&#xed;" horiz-adv-x="491" d="M467 743l-236 -538q-47 -111 -47 -135q0 -23 17.5 -39.5t40.5 -16.5q39 0 89 28t77 67q16 25 28.5 24.5t12.5 -12.5q0 -23 -58 -74q-86 -74 -194 -74q-72 0 -118 37t-46 94q0 51 51 166l213 475q10 35 25 54q6 8 6 14q0 12 -13.5 16.5t-76.5 8.5q-16 4 -17 14q0 4 6 11 t11 7q6 0 30 -4q33 -4 92 -4q86 0 121 15q20 8 29 8q14 0 14 -17q0 -6 -10 -24q-20 -38 -47 -101zM647 1386h150h4q35 4 35 -10q0 -10 -41 -41l-293 -217q-109 -84 -125 -84q-6 0 -6 4q0 2 4 11l12 12z" />
<glyph unicode="&#xee;" horiz-adv-x="491" d="M467 743l-236 -538q-47 -111 -47 -135q0 -23 17.5 -39.5t40.5 -16.5q39 0 89 28t77 67q16 25 28.5 24.5t12.5 -12.5q0 -23 -58 -74q-86 -74 -194 -74q-72 0 -118 37t-46 94q0 51 51 166l213 475q10 35 25 54q6 8 6 14q0 12 -13.5 16.5t-76.5 8.5q-16 4 -17 14q0 4 6 11 t11 7q6 0 30 -4q33 -4 92 -4q86 0 121 15q20 8 29 8q14 0 14 -17q0 -6 -10 -24q-20 -38 -47 -101zM674 1401l-66 -309l-4 -25q-6 -31 -24 -31q-72 0 -72 25q0 2 4 22l27 125q6 25 12 43q6 12 6 23q0 12 -8 12q-4 0 -10 -10q-20 -29 -140 -129q-57 -51 -71.5 -61.5 t-28.5 -10.5q-23 0 -23 12q0 8 31 31q66 41 166 138.5t152 168.5q29 39 39 39q6 0 12 -6t6 -12q0 -4 -8 -45z" />
<glyph unicode="&#xef;" horiz-adv-x="491" d="M467 743l-236 -538q-47 -111 -47 -135q0 -23 17.5 -39.5t40.5 -16.5q39 0 89 28t77 67q16 25 28.5 24.5t12.5 -12.5q0 -23 -58 -74q-86 -74 -194 -74q-72 0 -118 37t-46 94q0 51 51 166l213 475q10 35 25 54q6 8 6 14q0 12 -13.5 16.5t-76.5 8.5q-16 4 -17 14q0 4 6 11 t11 7q6 0 30 -4q33 -4 92 -4q86 0 121 15q20 8 29 8q14 0 14 -17q0 -6 -10 -24q-20 -38 -47 -101zM338 1247q35 0 57.5 -25.5t22.5 -66.5q0 -45 -33 -75.5t-80 -30.5q-39 0 -62.5 22.5t-23.5 61.5q0 49 34 81.5t85 32.5zM612 1247q37 0 60.5 -24.5t23.5 -63.5 q0 -45 -32.5 -77.5t-77.5 -32.5q-39 0 -63.5 22.5t-24.5 58.5q0 49 32.5 83t81.5 34z" />
<glyph unicode="&#xf0;" horiz-adv-x="927" d="M791 1247l192 72q6 2 13.5 4l11.5 3t6 1q8 0 16 -7t8 -15q0 -18 -127 -62q-47 -14 -92 -37q117 -227 117 -467q0 -317 -174 -542.5t-420 -225.5q-141 0 -222 82t-81 223q0 143 75.5 275.5t209.5 220.5q162 106 282 107q92 0 150 -45q-12 172 -68 340l-178 -66 q-31 -12 -43 -12q-20 0 -21 20q0 16 41 31l189 70q-53 137 -137 239q-4 4 -4 8q0 10 12 11q18 0 90 -56q78 -59 154 -172zM608 838q-168 0 -280 -211q-133 -250 -133 -455q0 -164 151 -164q174 0 305 291q100 229 101 401q0 66 -38 102t-106 36z" />
<glyph unicode="&#xf1;" horiz-adv-x="1007" d="M449 727l-23 -55q18 18 47 51q154 160 293 160q82 0 133 -46t51 -118q0 -55 -53 -170l-166 -375q-29 -66 -29 -88q0 -43 48 -43q57 0 168 94q8 6 16 6q12 0 12 -10q0 -20 -67 -72q-96 -63 -197 -63q-63 0 -104 27.5t-41 70.5q0 41 38 123l164 367q59 133 60 180 q0 29 -20.5 49.5t-51.5 20.5q-96 0 -221 -136q-57 -61 -93 -118.5t-83 -167.5l-154 -357l-14 -32q-6 -20 -11.5 -25.5t-15.5 -5.5q-4 0 -45 4q-6 2 -24 2q-16 0 -56 -4q-6 -2 -14 -2q-14 0 -14 10q0 4 6 12l14 31l291 696l22 58l11 18q-4 16 -52 17q-61 4 -61 22q0 14 23 14 q6 0 53 -6q10 -2 39 -2q109 0 145 17q12 6 19 6q12 0 12 -13q0 -6 -2 -10zM668 1270q45 0 76.5 -14.5t105.5 -65.5q63 -45 96 -45q37 0 82 74q18 33 32.5 32.5t14.5 -10.5q0 -6 -6 -12q-2 -4 -20 -35q-37 -61 -91.5 -100t-101.5 -39q-39 0 -65.5 13t-116.5 73 q-72 49 -115 49q-23 0 -40 -20.5t-17 -45.5q0 -12 12 -32q10 -10 10 -15q0 -14 -16 -14q-14 0 -25.5 19.5t-11.5 41.5q0 53 63.5 99.5t133.5 46.5z" />
<glyph unicode="&#xf2;" horiz-adv-x="946" d="M625 877q125 0 202.5 -90.5t77.5 -235.5q0 -242 -219 -432q-170 -152 -358 -152q-127 0 -209 88t-82 228q0 119 67.5 243.5t180.5 212.5q176 138 340 138zM608 840q-170 0 -295 -244q-119 -233 -118 -438q0 -154 137 -154q172 0 286 221q129 252 130 459q-1 156 -140 156 zM684 1382l47 -303q6 -31 6 -32q0 -16 -12 -17q-6 0 -23 25l-77 133q-33 57 -119 194h178z" />
<glyph unicode="&#xf3;" horiz-adv-x="946" d="M625 877q125 0 202.5 -90.5t77.5 -235.5q0 -242 -219 -432q-170 -152 -358 -152q-127 0 -209 88t-82 228q0 119 67.5 243.5t180.5 212.5q176 138 340 138zM608 840q-170 0 -295 -244q-119 -233 -118 -438q0 -154 137 -154q172 0 286 221q129 252 130 459q-1 156 -140 156 zM872 1386h150h4q35 4 35 -10q0 -10 -41 -41l-293 -217q-109 -84 -125 -84q-6 0 -6 4q0 2 4 11l12 12z" />
<glyph unicode="&#xf4;" horiz-adv-x="946" d="M625 877q125 0 202.5 -90.5t77.5 -235.5q0 -242 -219 -432q-170 -152 -358 -152q-127 0 -209 88t-82 228q0 119 67.5 243.5t180.5 212.5q176 138 340 138zM608 840q-170 0 -295 -244q-119 -233 -118 -438q0 -154 137 -154q172 0 286 221q129 252 130 459q-1 156 -140 156 zM901 1401l-65 -309l-5 -25q-4 -31 -24 -31q-72 0 -72 25q0 2 4 22l27 125q6 25 12 43q6 12 6 23q0 12 -8 12q-4 0 -10 -10q-20 -29 -139 -129q-57 -51 -71.5 -61.5t-29.5 -10.5q-23 0 -22 12q0 8 31 31q66 41 166 138.5t151 168.5q29 39 39 39q6 0 12 -6t6 -12q0 -4 -8 -45 z" />
<glyph unicode="&#xf5;" horiz-adv-x="946" d="M625 877q125 0 202.5 -90.5t77.5 -235.5q0 -242 -219 -432q-170 -152 -358 -152q-127 0 -209 88t-82 228q0 119 67.5 243.5t180.5 212.5q176 138 340 138zM608 840q-170 0 -295 -244q-119 -233 -118 -438q0 -154 137 -154q172 0 286 221q129 252 130 459q-1 156 -140 156 zM635 1270q45 0 76.5 -13.5t107.5 -66.5q63 -45 96 -45q23 0 39.5 15.5t40.5 58.5q23 33 35 32q14 0 14 -10q0 -6 -6 -12q-2 -4 -20 -35q-39 -63 -92.5 -101t-102.5 -38q-39 0 -65.5 12t-116.5 74q-72 49 -115 49q-23 0 -40 -20.5t-17 -47.5q0 -16 12 -30q10 -10 11 -15 q0 -14 -17 -14q-14 0 -25.5 19.5t-11.5 41.5q0 53 62.5 99.5t134.5 46.5z" />
<glyph unicode="&#xf6;" horiz-adv-x="946" d="M625 877q125 0 202.5 -90.5t77.5 -235.5q0 -242 -219 -432q-170 -152 -358 -152q-127 0 -209 88t-82 228q0 119 67.5 243.5t180.5 212.5q176 138 340 138zM608 840q-170 0 -295 -244q-119 -233 -118 -438q0 -154 137 -154q172 0 286 221q129 252 130 459q-1 156 -140 156 zM528 1247q35 0 57.5 -25.5t22.5 -66.5q0 -45 -32.5 -75.5t-79.5 -30.5q-39 0 -62.5 22.5t-23.5 61.5q0 49 33.5 81.5t84.5 32.5zM870 1247q37 0 60.5 -25.5t23.5 -64.5q0 -45 -32.5 -76.5t-77.5 -31.5q-39 0 -63.5 22.5t-24.5 58.5q0 49 32.5 83t81.5 34z" />
<glyph unicode="&#xf7;" d="M1061 723v-74h-848v74h848zM637 1038q41 0 69.5 -28.5t28.5 -71.5q0 -41 -28.5 -69.5t-69.5 -28.5q-43 0 -71.5 28.5t-28.5 71.5q0 41 28.5 69.5t71.5 28.5zM637 539q41 0 69.5 -30t28.5 -71t-28.5 -69.5t-69.5 -28.5q-43 0 -71.5 28.5t-28.5 71.5q0 41 29.5 70t70.5 29z " />
<glyph unicode="&#xf8;" horiz-adv-x="940" d="M881 946l-88 -129q63 -59 88.5 -116.5t25.5 -139.5q0 -250 -221 -440q-176 -152 -360 -152q-53 0 -103 19l-110 -166q-20 -31 -39 -31q-10 0 -20.5 6t-10.5 15q0 4 18 30l113 170q-139 94 -139 267q0 211 190.5 404.5t397.5 193.5q59 0 125 -33l90 133q18 27 34 27 q25 0 25 -21q0 -10 -16 -37zM209 55l510 748q-45 45 -105 45q-168 0 -301 -250q-121 -231 -120 -440q0 -46 16 -103zM745 750l-501 -736q37 -18 80 -18q74 0 126 27.5t101 95.5q84 117 142.5 281.5t58.5 289.5q-1 19 -7 60z" />
<glyph unicode="&#xf9;" horiz-adv-x="999" d="M567 162l25 69q-137 -158 -208 -204.5t-173 -46.5q-80 0 -131 31.5t-51 82.5q0 53 45 156l211 473l18 38l16 34q6 8 7 14q0 16 -50 16q-66 0 -65 23q0 14 14.5 14t22.5 -2q27 -6 71 -6q106 0 158 18q12 4 17 5q10 0 10 -13q0 -14 -41 -102q-47 -96 -76 -180 q-20 -53 -63 -150l-82 -188q-51 -111 -52 -166q0 -59 76 -60q78 0 207 132q145 152 238 372l131 312q4 8 5 12t3 7t4 4t4 1h6q2 0 7.5 -1t16.5 -2t19 -1h17q55 0 71 6q12 4 15 4q10 0 10 -8q0 -2 -4 -10l-15 -33l-229 -534q-70 -160 -70 -201q0 -31 12.5 -43t41.5 -12 q74 0 168 106q23 27 30 27q12 0 13 -13q0 -20 -37 -57t-84 -66q-72 -43 -148 -43q-59 0 -104 33t-45 76q0 29 18 76zM711 1382l47 -303q6 -31 6 -32q0 -16 -12 -17q-6 0 -23 25l-78 133q-33 57 -119 194h179z" />
<glyph unicode="&#xfa;" horiz-adv-x="999" d="M567 162l25 69q-137 -158 -208 -204.5t-173 -46.5q-80 0 -131 31.5t-51 82.5q0 53 45 156l211 473l18 38l16 34q6 8 7 14q0 16 -50 16q-66 0 -65 23q0 14 14.5 14t22.5 -2q27 -6 71 -6q106 0 158 18q12 4 17 5q10 0 10 -13q0 -14 -41 -102q-47 -96 -76 -180 q-20 -53 -63 -150l-82 -188q-51 -111 -52 -166q0 -59 76 -60q78 0 207 132q145 152 238 372l131 312q4 8 5 12t3 7t4 4t4 1h6q2 0 7.5 -1t16.5 -2t19 -1h17q55 0 71 6q12 4 15 4q10 0 10 -8q0 -2 -4 -10l-15 -33l-229 -534q-70 -160 -70 -201q0 -31 12.5 -43t41.5 -12 q74 0 168 106q23 27 30 27q12 0 13 -13q0 -20 -37 -57t-84 -66q-72 -43 -148 -43q-59 0 -104 33t-45 76q0 29 18 76zM899 1386h150h4q35 4 34 -10q0 -10 -40 -41l-293 -217q-109 -84 -125 -84q-6 0 -6 4q0 2 4 11l12 12z" />
<glyph unicode="&#xfb;" horiz-adv-x="999" d="M567 162l25 69q-137 -158 -208 -204.5t-173 -46.5q-80 0 -131 31.5t-51 82.5q0 53 45 156l211 473l18 38l16 34q6 8 7 14q0 16 -50 16q-66 0 -65 23q0 14 14.5 14t22.5 -2q27 -6 71 -6q106 0 158 18q12 4 17 5q10 0 10 -13q0 -14 -41 -102q-47 -96 -76 -180 q-20 -53 -63 -150l-82 -188q-51 -111 -52 -166q0 -59 76 -60q78 0 207 132q145 152 238 372l131 312q4 8 5 12t3 7t4 4t4 1h6q2 0 7.5 -1t16.5 -2t19 -1h17q55 0 71 6q12 4 15 4q10 0 10 -8q0 -2 -4 -10l-15 -33l-229 -534q-70 -160 -70 -201q0 -31 12.5 -43t41.5 -12 q74 0 168 106q23 27 30 27q12 0 13 -13q0 -20 -37 -57t-84 -66q-72 -43 -148 -43q-59 0 -104 33t-45 76q0 29 18 76zM928 1401l-66 -309l-4 -25q-6 -31 -24 -31q-72 0 -72 25q0 2 4 22l27 125q6 25 12 43q6 12 6 23q0 12 -8 12q-4 0 -10 -10q-20 -29 -140 -129 q-57 -51 -71.5 -61.5t-28.5 -10.5q-23 0 -23 12q0 8 31 31q66 41 166 138.5t152 168.5q29 39 39 39q6 0 12 -6t6 -12q0 -4 -8 -45z" />
<glyph unicode="&#xfc;" horiz-adv-x="999" d="M567 162l25 69q-137 -158 -208 -204.5t-173 -46.5q-80 0 -131 31.5t-51 82.5q0 53 45 156l211 473l18 38l16 34q6 8 7 14q0 16 -50 16q-66 0 -65 23q0 14 14.5 14t22.5 -2q27 -6 71 -6q106 0 158 18q12 4 17 5q10 0 10 -13q0 -14 -41 -102q-47 -96 -76 -180 q-20 -53 -63 -150l-82 -188q-51 -111 -52 -166q0 -59 76 -60q78 0 207 132q145 152 238 372l131 312q4 8 5 12t3 7t4 4t4 1h6q2 0 7.5 -1t16.5 -2t19 -1h17q55 0 71 6q12 4 15 4q10 0 10 -8q0 -2 -4 -10l-15 -33l-229 -534q-70 -160 -70 -201q0 -31 12.5 -43t41.5 -12 q74 0 168 106q23 27 30 27q12 0 13 -13q0 -20 -37 -57t-84 -66q-72 -43 -148 -43q-59 0 -104 33t-45 76q0 29 18 76zM557 1247q35 0 57.5 -25.5t22.5 -66.5q0 -45 -33 -75.5t-80 -30.5q-39 0 -62.5 22.5t-23.5 61.5q0 49 34 81.5t85 32.5zM899 1247q37 0 60.5 -25.5 t23.5 -64.5q0 -45 -32.5 -76.5t-78.5 -31.5q-39 0 -63.5 22.5t-24.5 58.5q0 49 33 83t82 34z" />
<glyph unicode="&#xfd;" horiz-adv-x="991" d="M496 100l32 50l66 110l65 100l177 291q100 164 130.5 199t75.5 35q33 0 52.5 -19.5t19.5 -50.5t-20.5 -51.5t-49.5 -20.5q-20 0 -28 7.5t-19 31.5q-4 8 -10 9q-20 0 -88 -111l-211 -344l-289 -442q-147 -219 -297 -345q-90 -74 -178 -73q-92 0 -92 67q0 35 24.5 57.5 t61.5 22.5q27 0 35 -9t8 -42q0 -37 29 -37q37 0 114.5 65.5t143.5 153.5q102 131 102 232q0 29 -2 51v49l-4 590q0 78 -14.5 109.5t-47 31.5t-71.5 -43t-70 -115q-16 -39 -23 -48t-18 -9q-16 0 -16 19q0 39 61 133q92 137 217 137q94 0 117 -62q18 -45 19 -157v-56l-6 -327 v-37q0 -76 4 -152zM895 1386h149h5q35 4 34 -10q0 -10 -41 -41l-292 -217q-109 -84 -125 -84q-6 0 -7 4q0 2 5 11l12 12z" />
<glyph unicode="&#xfe;" horiz-adv-x="999" d="M193 100l-232 -575q143 -6 143 -21q0 -16 -43 -16l-116 2q-18 0 -39 1t-32 2t-15 1q-43 0 -80 -2q-82 -4 -105 -4q-41 0 -41 16q0 18 54 21q80 8 94 16q20 16 31 39q12 33 20 49l700 1702l19 41q6 8 6 14q0 18 -31 19q-23 0 -39 -2q-8 -2 -22 -2q-20 0 -21 14q0 16 29 17 q6 0 78 -2l43 2l72 4l47 8q16 4 18 4q10 0 10 -12q0 -8 -12 -37l-264 -666q123 147 272 148q109 0 178.5 -69t69.5 -175q0 -125 -68.5 -263t-183.5 -241q-172 -154 -352 -153q-78 0 -116.5 25t-71.5 95zM332 430l-88 -213q-16 -39 -17 -55q0 -63 38 -103.5t97 -40.5 q86 0 163 69t157 216q129 236 129 406q0 125 -109 125q-98 0 -208 -115q-78 -80 -162 -289z" />
<glyph unicode="&#xff;" horiz-adv-x="991" d="M496 100l32 50l66 110l65 100l177 291q100 164 130.5 199t75.5 35q33 0 52.5 -19.5t19.5 -50.5t-20.5 -51.5t-49.5 -20.5q-20 0 -28 7.5t-19 31.5q-4 8 -10 9q-20 0 -88 -111l-211 -344l-289 -442q-147 -219 -297 -345q-90 -74 -178 -73q-92 0 -92 67q0 35 24.5 57.5 t61.5 22.5q27 0 35 -9t8 -42q0 -37 29 -37q37 0 114.5 65.5t143.5 153.5q102 131 102 232q0 29 -2 51v49l-4 590q0 78 -14.5 109.5t-47 31.5t-71.5 -43t-70 -115q-16 -39 -23 -48t-18 -9q-16 0 -16 19q0 39 61 133q92 137 217 137q94 0 117 -62q18 -45 19 -157v-56l-6 -327 v-37q0 -76 4 -152zM553 1247q35 0 57.5 -25.5t22.5 -66.5q0 -45 -33 -75.5t-80 -30.5q-39 0 -62.5 22.5t-23.5 61.5q0 49 34 81.5t85 32.5zM895 1247q37 0 60.5 -25.5t23.5 -64.5q0 -45 -33 -76.5t-78 -31.5q-39 0 -63.5 22.5t-24.5 58.5q0 49 33 83t82 34z" />
<glyph unicode="&#x152;" horiz-adv-x="1828" d="M1229 723l-246 -588l-18 -51l-9 -16q0 -25 50 -25l47 2l290 -4q59 0 155.5 42t141.5 89q39 39 95 190q16 45 22 54.5t17 9.5q18 0 18 -10q0 -12 -94 -258q-8 -29 -23 -64q-4 -10 -10 -31q-14 -49 -25.5 -57t-54.5 -8h-2h-350h-252q-141 0 -276 -14q-92 -10 -154 -11 q-186 0 -301 119t-115 311q0 215 111.5 435.5t300.5 382.5q264 223 510 223q53 0 160 -10q117 -12 184 -13h92l117 2l379 -2h49q20 0 20 -14q0 -10 -10 -35q-45 -129 -92 -303q-6 -27 -23 -27q-12 0 -12 17q0 12 12 53q18 61 19 127q0 117 -121 137q-82 10 -293 10 q-31 0 -41 -11t-33 -68l-221 -541q59 -6 103 -6q104 0 188 59.5t108 149.5q8 25 21 24q14 0 14 -10q0 -12 -61 -145q-51 -100 -146 -375q-12 -35 -17 -42t-13 -7q-14 0 -15 14q0 8 11 33q27 61 26 143q0 59 -31.5 87t-105.5 30zM811 205l446 1063q16 41 25 59q10 20 10 27 q0 63 -229 63q-242 0 -481 -373q-113 -176 -178.5 -382.5t-65.5 -387.5q0 -270 264 -270q96 0 125 33q10 12 84 168z" />
<glyph unicode="&#x153;" horiz-adv-x="1406" d="M911 496q-70 -164 -69 -287q0 -188 157 -189q133 0 244 134q23 29 35 28q10 0 10 -10q0 -18 -28 -53q-123 -145 -299 -146q-186 0 -271 156q-188 -160 -368 -160q-125 0 -205 89t-80 227q0 111 65.5 234.5t171.5 213.5q74 63 171.5 102t181.5 39q86 0 156.5 -53 t105.5 -145q233 207 422 207q76 0 121 -39t45 -105q0 -109 -123 -181.5t-303 -72.5q-58 1 -140 11zM604 842q-55 0 -114.5 -34t-102.5 -87q-82 -102 -137 -261t-55 -288q0 -166 137 -166q188 0 313 279q100 229 100 399q0 158 -141 158zM934 524q45 -4 53 -4q162 0 260 103 q82 86 82 159q0 59 -63 60q-80 0 -169 -85.5t-163 -232.5z" />
<glyph unicode="&#x178;" horiz-adv-x="1112" d="M707 698l440 525q96 119 96 131q0 29 -55 28q-104 0 -105 17q0 18 47 18h130q53 -2 182 -2h45q27 0 26 -14q0 -10 -9 -12.5t-46 -4.5q-90 -10 -122.5 -32.5t-129.5 -134.5l-399 -478q-68 -74 -89.5 -108.5t-58.5 -126.5l-133 -346q-6 -18 -22 -56q-8 -16 -8 -28 q0 -39 71 -43l45 -2l31 -2q20 2 21 -11q0 -18 -43 -18q-18 0 -142 4q-102 4 -129 4q-55 0 -198 -8q-16 -2 -54 -2q-16 0 -16 12q0 16 14.5 19.5t104.5 7.5q63 4 87.5 25.5t53.5 101.5l141 368q33 84 33 123q0 4 -6 99l-39 512l-8 69q-4 33 -24.5 43t-82.5 10q-57 0 -57 16.5 t29 16.5q18 0 30 -2l242 -4q184 0 215 2q14 2 37 2q31 0 31 -14q0 -16 -60 -19q-100 -2 -133 -17t-33 -62q0 -4 5 -78zM801 1722q35 0 57.5 -26.5t22.5 -65.5q0 -45 -33 -75.5t-80 -30.5q-39 0 -62.5 22.5t-23.5 61.5q0 49 34 81.5t85 32.5zM1155 1722q37 0 60.5 -24.5 t23.5 -63.5q0 -45 -31.5 -77.5t-77.5 -32.5q-39 0 -64.5 23.5t-25.5 60.5q0 47 34 80.5t81 33.5z" />
<glyph unicode="&#x2c6;" horiz-adv-x="1058" d="M958 1401l-65 -309l-4 -25q-4 -31 -25 -31q-72 0 -71 25q0 2 4 22l26 125q6 25 13 43q6 12 6 23q0 12 -8 12q-4 0 -11 -10q-20 -29 -139 -129q-57 -51 -71.5 -61.5t-28.5 -10.5q-23 0 -23 12q0 8 31 31q66 41 166 138.5t151 168.5q29 39 39 39q6 0 12.5 -6t6.5 -12 q-1 -4 -9 -45z" />
<glyph unicode="&#x2dc;" horiz-adv-x="1058" d="M1094 1229l-21 -35q-37 -61 -91 -100t-101 -39q-39 0 -66 13t-117 73q-72 49 -114 49q-23 0 -40.5 -20.5t-17.5 -45.5q0 -18 13 -32q10 -10 10 -15q0 -14 -17 -14q-14 0 -25 20.5t-11 42.5q0 51 63.5 97.5t132.5 46.5q45 0 77 -14.5t105 -65.5q63 -45 97 -45q35 0 82 74 q18 33 32.5 32.5t14.5 -10.5q0 -6 -6 -12z" />
<glyph unicode="&#x2000;" horiz-adv-x="968" />
<glyph unicode="&#x2001;" horiz-adv-x="1939" />
<glyph unicode="&#x2002;" horiz-adv-x="968" />
<glyph unicode="&#x2003;" horiz-adv-x="1939" />
<glyph unicode="&#x2004;" horiz-adv-x="645" />
<glyph unicode="&#x2005;" horiz-adv-x="483" />
<glyph unicode="&#x2006;" horiz-adv-x="321" />
<glyph unicode="&#x2007;" horiz-adv-x="321" />
<glyph unicode="&#x2008;" horiz-adv-x="241" />
<glyph unicode="&#x2009;" horiz-adv-x="387" />
<glyph unicode="&#x200a;" horiz-adv-x="106" />
<glyph unicode="&#x2010;" horiz-adv-x="538" d="M516 545l-20 -113h-414l16 113h418z" />
<glyph unicode="&#x2011;" horiz-adv-x="538" d="M516 545l-20 -113h-414l16 113h418z" />
<glyph unicode="&#x2012;" horiz-adv-x="538" d="M516 545l-20 -113h-414l16 113h418z" />
<glyph unicode="&#x2013;" horiz-adv-x="993" d="M971 537l-17 -99h-872l14 99h875z" />
<glyph unicode="&#x2014;" horiz-adv-x="1267" d="M1292 537l-16 -99h-1247l16 99h1247z" />
<glyph unicode="&#x2018;" horiz-adv-x="391" d="M594 1464q10 0 10 -10q0 -12 -39 -37q-59 -39 -86.5 -68.5t-50.5 -78.5q-18 -43 -18 -76q0 -49 24 -49q8 0 13.5 4t21.5 31q16 23 51 22.5t55.5 -22t20.5 -56.5q0 -47 -34 -78.5t-85 -31.5q-57 0 -94 40t-37 101q0 129 137 250q18 16 59.5 37.5t51.5 21.5z" />
<glyph unicode="&#x2019;" horiz-adv-x="417" d="M539 1450q53 0 90 -42t37 -105q0 -121 -131 -236q-82 -70 -119 -70q-8 0 -8 9q0 14 34 34q55 39 79 62.5t46 64.5q33 57 33 104.5t-27 47.5q-8 0 -12 -4t-20 -33q-16 -25 -54 -25q-29 0 -50 25t-21 59q0 47 36 78t87 31z" />
<glyph unicode="&#x201a;" horiz-adv-x="430" d="M96 201q53 0 90 -42t37 -106q0 -121 -133 -235q-74 -70 -117 -70q-8 0 -8 6q0 14 35 37q55 37 78.5 60.5t46.5 66.5q33 53 33 102q0 47 -27 48q-8 0 -12 -4.5t-21 -30.5q-16 -25 -53 -25q-29 0 -50.5 24.5t-21.5 59.5q0 47 36 78t87 31z" />
<glyph unicode="&#x201c;" horiz-adv-x="706" d="M596 1470q10 0 10 -10t-39 -39q-59 -37 -86.5 -66.5t-50.5 -80.5q-18 -43 -18 -76q0 -49 24 -49q10 0 14.5 5t20.5 32q16 23 51 22.5t55.5 -22t20.5 -58.5q0 -47 -34 -78.5t-85 -31.5q-57 0 -94 40t-37 101q0 131 137 250q18 16 59.5 38.5t51.5 22.5zM911.5 1470 q10.5 0 10.5 -10t-39 -39q-59 -37 -87 -66.5t-51 -80.5q-18 -41 -18 -74q0 -51 25 -51q10 0 14 5t20 32q16 23 54 22q35 0 54 -21.5t19 -58.5q0 -45 -34.5 -77.5t-83.5 -32.5q-57 0 -94 40t-37 101q0 131 137 252q18 16 59 37.5t51.5 21.5z" />
<glyph unicode="&#x201d;" horiz-adv-x="720" d="M539 1450q53 0 90 -42t37 -105q0 -121 -131 -236q-82 -70 -119 -70q-8 0 -8 9q0 14 34 34q55 39 79 62.5t46 64.5q33 57 33 104.5t-27 47.5q-8 0 -12 -4t-20 -33q-16 -25 -54 -25q-29 0 -50 25t-21 59q0 47 36 78t87 31zM842 1450q53 0 90 -42t37 -105q0 -121 -133 -236 q-78 -70 -117 -70q-8 0 -8 9q0 14 34 34q55 39 80 62.5t45 64.5q33 53 33 105q0 47 -26 47q-8 0 -12.5 -4t-20.5 -33q-16 -25 -53 -25q-29 0 -50.5 25t-21.5 59q0 47 36 78t87 31z" />
<glyph unicode="&#x201e;" horiz-adv-x="733" d="M96 201q53 0 90 -42t37 -106q0 -121 -133 -235q-74 -70 -117 -70q-8 0 -8 6q0 14 35 37q55 37 78.5 60.5t46.5 66.5q33 53 33 102q0 47 -27 48q-8 0 -12 -4.5t-21 -30.5q-16 -25 -53 -25q-29 0 -50.5 24.5t-21.5 59.5q0 47 36 78t87 31zM399 201q53 0 90 -42t37 -106 q0 -119 -133 -235q-74 -70 -117 -70q-8 0 -8 8q0 14 35 35q55 37 80 61.5t45 65.5q33 53 33 102q0 47 -27 48q-8 0 -12 -4.5t-21 -30.5q-16 -25 -53 -25q-29 0 -50.5 24.5t-21.5 59.5q0 47 36 78t87 31z" />
<glyph unicode="&#x2022;" horiz-adv-x="1411" d="M817 961q102 0 176 -75t74 -179q0 -106 -73.5 -180t-180 -74t-180.5 73.5t-74 180t74.5 180.5t183.5 74z" />
<glyph unicode="&#x2026;" horiz-adv-x="1370" d="M123 201q45 0 70.5 -27t25.5 -74q0 -51 -31.5 -82.5t-83.5 -31.5q-100 0 -100 96q0 51 34 85t85 34zM580 201q45 0 70.5 -27t25.5 -74q0 -51 -32 -82.5t-83 -31.5q-100 0 -100 96q0 51 34 85t85 34zM1036 201q45 0 71 -27t26 -74q0 -51 -32 -82.5t-83 -31.5 q-100 0 -100 96q0 51 33.5 85t84.5 34z" />
<glyph unicode="&#x202f;" horiz-adv-x="387" />
<glyph unicode="&#x2039;" horiz-adv-x="473" d="M469 684l-205 -180q-43 -37 -43 -53q0 -6 21 -62l73 -151l9 -25l8 -20l4 -13q0 -12 -10.5 -12t-44.5 37l-162 168q-35 35 -33 47l4 34.5t3 23.5t1 9q2 6 49 39l152 101l80 49l110 65q10 6 17 7q12 0 12 -15q0 -6 -45 -49z" />
<glyph unicode="&#x203a;" horiz-adv-x="528" d="M268 723l160 -158l21 -20l12 -10q18 -16 18 -29q0 -37 -10 -68q-4 -16 -47 -43l-154 -102q-66 -41 -94 -57q-100 -63 -111 -64q-12 0 -12 10q0 14 58 64l178 153q63 55 63 78q0 16 -33 68l-45 69q-88 150 -88 164q0 8 11 8q12 0 34 -22q27 -27 39 -41z" />
<glyph unicode="&#x205f;" horiz-adv-x="483" />
<glyph unicode="&#x20ac;" d="M1335 1366q0 -25 -26 -78q-84 -158 -103 -229q-6 -31 -20 -31q-16 0 -17 19q0 2 15 47q10 31 10 90q0 88 -48 157.5t-126 69.5q-203 0 -416 -459q-2 -4 -14 -32.5l-19 -45.5h181h231q29 0 34 -2t5 -14v-8q0 -23 -7 -28t-42 -5h-17h-41h-4l-200 2h-150h-12 q-6 -10 -55 -151h14h139h240q47 0 54 -4.5t7 -30.5q0 -18 -35 -15l-63 -2q-16 -2 -51 -2h-11h-2q-18 2 -100 4l-61 3l-133 -3h-13q-27 -80 -37 -120q-39 -145 -39 -283q0 -209 150 -209q86 0 165 37t133 94.5t83 94t47 69.5q31 45 41 45q16 0 16 -14q0 -20 -42 -82t-56 -74 q-2 -2 -18.5 -20.5t-33 -34t-44 -39t-58 -41.5t-68.5 -35.5t-84 -27t-95 -9.5q-131 0 -213 113t-82 295q0 94 39 241h-144q-14 0 -14 13q0 29 15.5 34t99.5 5q25 0 57 -2q29 86 61 151h-104q-37 0 -43 2t-6 13q0 29 7 34.5t38 5.5h135q59 117 135 226q115 164 248 253 t262 89q35 0 66.5 -7.5t54.5 -20.5t38 -23.5t28 -22.5l14 -14q23 -16 37 -17q23 0 43 35q4 6 14 6t10 -12z" />
<glyph unicode="&#x2122;" horiz-adv-x="1619" d="M776 1378l-250 -579q-20 -41 -20 -49q0 -10 7 -12.5t40 -4.5q31 -2 31 -14q0 -16 -27 -17q-18 0 -31 3q-35 2 -116 2q-61 0 -84 -2q-16 -2 -39 -3q-20 0 -21 13q0 10 10.5 13t51.5 5q27 0 38 12.5t35 71.5l242 563h-37q-78 0 -125 -27.5t-82 -92.5q-16 -29 -23 -37.5 t-20 -8.5q-16 0 -16 15q0 2 4 14l16 33q16 45 39 74q20 39 31 63q481 -2 594 2q-45 -123 -55 -160q-10 -45 -31 -45q-25 0 -25 17q0 4 11 37q8 23 8 53q0 39 -21.5 51t-89.5 12q-22 0 -45 -2zM1669 1411h191q41 0 48 -2t7 -12q0 -16 -25 -17h-16q-8 2 -21 2h-22 q-16 0 -23.5 -12t-38.5 -86l-202 -489q-16 -41 -17 -45q0 -16 45 -17h21q18 0 18 -12q0 -16 -24 -16h-33l-240 -3q-20 0 -20 15q0 16 22 16l29 -2q27 -2 37 9.5t27 54.5q6 16 18 45l197 460q-4 -6 -54 -75l-338 -461q-37 -53 -57 -53t-20 22v12l2 31l28 484l4 38l5 29 l-11 -29l-14 -41l-182 -456q-16 -39 -17 -51q0 -18 37 -19h10q10 2 21 2q16 0 16 -14q0 -16 -22 -17h-23q-16 2 -53 3h-61q-51 0 -68 -3h-16q-20 0 -21 15q0 16 39 16q63 0 74 8q10 12 28 66l205 506q20 49 21 57q0 12 -25 12q-4 0 -37 -2h-18q-23 0 -23 16.5t21 16.5h18 l51 -2h47h33h37q12 2 29 2q25 0 24 -33q0 -8 -2 -39l-20 -376l-2 -31v-10z" />
<glyph unicode="&#xe000;" horiz-adv-x="885" d="M0 885h885v-885h-885v885z" />
<glyph unicode="&#xfb01;" horiz-adv-x="1005" d="M498 836l-166 -461q-195 -545 -385 -762q-72 -82 -138.5 -116t-150.5 -34q-80 0 -126 31t-46 84q0 33 22.5 54.5t57.5 21.5q27 0 46 -16.5t19 -36.5q0 -12 -18 -39q-14 -14 -14 -29q0 -45 59 -45q100 0 170 86q80 92 178 373l309 887l-51 -3h-65l-52 -2q-6 -2 -18 -2 q-25 0 -25 21q0 33 78 33h29q29 -2 68 -2h51q6 14 18 39l58 141q23 55 82 143t100 127q123 123 280 123q102 0 174 -46t72 -112q0 -37 -22.5 -58.5t-59.5 -21.5q-31 0 -52.5 19.5t-21.5 48.5q0 27 25 43q20 14 21 29q0 27 -41 47t-95 20q-90 0 -149 -65q-39 -43 -66.5 -99.5 t-85.5 -212.5l-61 -167q262 -4 430 -5q27 0 57 7q12 2 23 2q16 0 16 -12.5t-12 -26.5l-19 -35l-8 -19q-37 -100 -51 -129l-190 -434q-57 -125 -58 -157q0 -20 18.5 -37t43.5 -17q78 0 174 111q6 8 12 8q10 0 10 -12q0 -20 -61 -78q-78 -70 -182 -70q-72 0 -117 36t-45 93.5 t59 190.5l193 436q35 76 35 84q0 20 -35 21l-260 4q-23 0 -41 -2z" />
<glyph unicode="&#xfb02;" horiz-adv-x="1011" d="M735 836l-209 4q-14 0 -28 -2l-25 -74l-94 -256l-53 -148l-148 -362q-125 -303 -317 -463q-84 -70 -195 -70q-84 0 -132 31t-48 82q0 33 23.5 56.5t56.5 23.5q27 0 46 -15.5t19 -37.5q0 -14 -18 -39q-12 -16 -12 -29q0 -18 17 -31.5t44 -13.5q102 0 178 98 q31 39 81 149.5t89 223.5l307 871q-16 2 -36 2q-96 0 -121 -5q-12 -2 -31 -2q-25 0 -25 17q0 18 21 28q12 6 102 7h84h21q98 217 140 290.5t103 141.5q129 137 308 137q49 0 164 -25q25 -6 43 -6t124 27q20 4 27 4q23 0 23 -16q0 -8 -13 -37l-460 -1112q-74 -174 -74 -215 q0 -23 20.5 -40.5t46.5 -17.5q80 0 146 80q39 45 47 45q14 0 14 -12q0 -8 -27.5 -40t-52.5 -52q-84 -61 -186 -62q-76 0 -121 34t-45 87q0 43 8 69.5t58 141.5l405 950q-66 16 -65 58q0 25 26 51q10 10 10 18q0 16 -33.5 26.5t-82.5 10.5q-104 0 -178 -96 q-76 -102 -146 -297l-51 -145h145h50q20 2 43 2q20 0 20 -22.5t-33 -22.5z" />
<glyph unicode="&#xfb03;" horiz-adv-x="1593" d="M1569 743l-236 -538q-47 -111 -47 -135q0 -23 17.5 -39.5t40.5 -16.5q39 0 89 28t77 67q16 25 28.5 24.5t12.5 -12.5q0 -23 -58 -74q-86 -74 -194 -74q-72 0 -118 37t-46 94q0 51 51 166l213 475q10 35 25 54q6 8 6 14q0 12 -13.5 16.5t-76.5 8.5q-16 4 -17 14q0 4 6 11 t11 7q6 0 30 -4q33 -4 92 -4q86 0 121 15q20 8 29 8q14 0 14 -17q0 -6 -10 -24q-20 -38 -47 -101zM1688 1339q37 0 58.5 -23.5t21.5 -64.5q0 -39 -22.5 -62.5t-57.5 -23.5q-41 0 -67.5 26t-26.5 64q0 37 26.5 60.5t67.5 23.5zM1051 834l-178 -488q-193 -526 -375 -735 q-74 -84 -136.5 -118t-148.5 -34q-80 0 -127 32t-47 85q0 37 25.5 60.5t64.5 23.5q27 0 44.5 -14.5t17.5 -36.5q0 -18 -21 -43q-12 -16 -12 -27q0 -45 61 -45q104 0 182 103q63 90 156 354l309 878h-47l-102 -2q-16 -2 -37 -2q-25 0 -25 17q0 23 21.5 29t103.5 6l74 -3h29 q121 293 200 400q129 174 326 174q82 0 132 -36t50 -95q0 -35 -21.5 -57.5t-53.5 -22.5q-27 0 -46.5 17.5t-19.5 39.5q0 16 27 47q8 16 8 27q0 51 -86 51q-90 0 -147.5 -77.5t-137.5 -311.5l-55 -156h98h58h55q10 2 26 3q23 0 23 -23t-29 -23l-186 3h-53zM500 834l-178 -488 q-193 -526 -375 -735q-74 -84 -136.5 -118t-148.5 -34q-80 0 -127 32t-47 85q0 37 25.5 60.5t64.5 23.5q27 0 44.5 -14.5t17.5 -36.5q0 -18 -21 -43q-12 -16 -12 -27q0 -45 61 -45q104 0 182 103q63 90 156 354l309 878h-47l-102 -2q-16 -2 -37 -2q-25 0 -25 17 q0 23 21.5 29t103.5 6l74 -3h29q121 293 200 400q129 174 326 174q82 0 132 -36t50 -95q0 -35 -21.5 -57.5t-53.5 -22.5q-27 0 -46.5 17.5t-19.5 39.5q0 16 27 47q8 16 8 27q0 51 -86 51q-90 0 -147.5 -77.5t-137.5 -311.5l-55 -156h98h58h55q10 2 26 3q23 0 23 -23t-29 -23 l-186 3h-53z" />
<glyph unicode="&#xfb04;" horiz-adv-x="1599" d="M1811 1356l-459 -1120q-51 -121 -51 -162q0 -55 73 -56q76 0 148 86q33 37 39 37q14 0 14 -14q0 -25 -67 -86q-80 -70 -201 -70q-78 0 -123 34t-45 91q0 31 7 54.5t44 111.5l436 1061l23 57q6 12 6 15q0 18 -39 18q-90 0 -90 17q0 12 18 12q25 0 43.5 -2t69.5 -2 q90 0 131 8q25 4 31 4q23 0 22 -16q0 -8 -10 -29q-12 -33 -20 -49zM1051 834l-178 -488q-193 -526 -375 -735q-74 -84 -136.5 -118t-148.5 -34q-80 0 -127 32t-47 85q0 37 25.5 60.5t64.5 23.5q27 0 44.5 -14.5t17.5 -36.5q0 -18 -21 -43q-12 -16 -12 -27q0 -45 61 -45 q104 0 182 103q63 90 156 354l309 878h-47l-102 -2q-16 -2 -37 -2q-25 0 -25 17q0 23 21.5 29t103.5 6l74 -3h29q121 293 200 400q129 174 326 174q82 0 132 -36t50 -95q0 -35 -21.5 -57.5t-53.5 -22.5q-27 0 -46.5 17.5t-19.5 39.5q0 16 27 47q8 16 8 27q0 51 -86 51 q-90 0 -147.5 -77.5t-137.5 -311.5l-55 -156h98h58h55q10 2 26 3q23 0 23 -23t-29 -23l-186 3h-53zM500 834l-178 -488q-193 -526 -375 -735q-74 -84 -136.5 -118t-148.5 -34q-80 0 -127 32t-47 85q0 37 25.5 60.5t64.5 23.5q27 0 44.5 -14.5t17.5 -36.5q0 -18 -21 -43 q-12 -16 -12 -27q0 -45 61 -45q104 0 182 103q63 90 156 354l309 878h-47l-102 -2q-16 -2 -37 -2q-25 0 -25 17q0 23 21.5 29t103.5 6l74 -3h29q121 293 200 400q129 174 326 174q82 0 132 -36t50 -95q0 -35 -21.5 -57.5t-53.5 -22.5q-27 0 -46.5 17.5t-19.5 39.5 q0 16 27 47q8 16 8 27q0 51 -86 51q-90 0 -147.5 -77.5t-137.5 -311.5l-55 -156h98h58h55q10 2 26 3q23 0 23 -23t-29 -23l-186 3h-53z" />
</font>
</defs>
</svg>
