<?xml version="1.0" standalone="no"?>
<!DOCTYPE svg PUBLIC "-//W3C//DTD SVG 1.1//EN" "http://www.w3.org/Graphics/SVG/1.1/DTD/svg11.dtd" >
<svg xmlns="http://www.w3.org/2000/svg">
<metadata>
This is a custom SVG webfont generated by Font Squirrel.
Copyright   : Copyright 1997 International Typeface Corporation All rights reserved
Designer    : Janice Fishman Holly Goldsmith Jim Parkinson Sumner Stone
Foundry URL : httpwwwitcfontscom
</metadata>
<defs>
<font id="webfont7XtNkH9C" horiz-adv-x="1091" >
<font-face units-per-em="2048" ascent="1638" descent="-410" />
<missing-glyph horiz-adv-x="380" />
<glyph unicode=" "  horiz-adv-x="380" />
<glyph unicode="&#x09;" horiz-adv-x="380" />
<glyph unicode="&#xa0;" horiz-adv-x="380" />
<glyph unicode="!" horiz-adv-x="729" d="M469 1323l10 -18q-92 -530 -88 -914q0 -45 -26 -45q-29 0 -27 41q0 399 -90 918q47 92 67.5 117.5t47 25.5t43 -19.5t63.5 -105.5zM365 209q45 0 76.5 -33t31.5 -78t-31.5 -77.5t-79 -32.5t-79 31.5t-31.5 78.5t33 79t80 32z" />
<glyph unicode="&#x22;" d="M457 1444q35 0 58.5 -23.5t23.5 -60.5q0 -57 -82 -158q-104 -127 -203 -325q-16 -33 -24.5 -42.5t-20.5 -9.5q-10 0 -19.5 7.5t-9.5 17.5q0 8 6 20q74 162 123 363q31 125 61 168t87 43zM827 1444q35 0 58.5 -23.5t23.5 -60.5q0 -57 -82 -158q-104 -129 -202 -325 q-16 -35 -24.5 -43.5t-20.5 -8.5q-10 0 -19.5 7.5t-9.5 17.5q0 8 6 20q70 154 123 363q31 125 60.5 168t86.5 43z" />
<glyph unicode="#" d="M248 158h-82l106 366h-178v119h211l72 246h-211v119h246l104 366h82l-104 -366h241l107 366h82l-107 -366h164v-119h-199l-71 -248h196v-117h-229l-107 -366h-82l107 366h-244zM387 643h244l69 246h-241z" />
<glyph unicode="$" d="M578 1317v-510q131 -63 183 -97t89 -77q90 -102 90 -240q0 -156 -101.5 -266.5t-260.5 -132.5v-170q0 -29 -5.5 -37t-19.5 -8q-18 0 -23.5 8t-5.5 37v166q-141 2 -229 55q-141 82 -141 217q0 68 35.5 111t93.5 43q49 0 81.5 -31t32.5 -76q0 -49 -28.5 -78.5t-77.5 -29.5 q-18 0 -29 2q-6 2 -16 2q-14 0 -15 -15q0 -59 92.5 -110t200.5 -51v592q-135 66 -221 137q-119 98 -119 250q0 141 96.5 239.5t243.5 108.5v141q0 37 27 37t27 -41v-135q135 -6 208 -68q102 -86 103 -196q0 -53 -32 -89t-79 -36t-75.5 26.5t-28.5 71.5t28.5 73.5t79.5 30.5 q18 0 19 13q0 23 -23.5 52.5t-56.5 47.5q-47 31 -143 33zM524 831v480q-176 -39 -176 -213q0 -104 39 -163t137 -104zM578 592v-557q199 37 198 264q0 109 -41.5 171.5t-156.5 121.5z" />
<glyph unicode="%" horiz-adv-x="1464" d="M1077 1444h97l-787 -1444h-96l737 1358q-100 -61 -229 -62q-90 0 -176 33q78 -111 77 -242q0 -184 -141 -286q-68 -49 -174 -49q-145 0 -240.5 98t-95.5 250q0 145 92 244.5t230 99.5q51 0 87 -8.5t144 -46.5q123 -41 205 -41q133 0 270 96zM379 1413q-160 0 -160 -307 q0 -319 164 -320q45 0 69.5 20.5t45.5 72.5q31 88 30 241q0 137 -41 226q-30 67 -108 67zM1094 674q135 0 217 -84q104 -109 104 -273q0 -86 -38 -162.5t-105 -123.5q-68 -49 -172 -49q-147 0 -242.5 98t-95.5 252q0 150 93.5 246t238.5 96zM1092 643q-160 0 -160 -307 q0 -319 166 -320q80 0 112 93q33 82 33 245q0 133 -41 221q-30 68 -110 68z" />
<glyph unicode="&#x26;" horiz-adv-x="1492" d="M1214 872h134q94 0 102 -2q23 -6 23 -16q0 -12 -14.5 -15t-92.5 -5h-2q-63 -2 -79.5 -14.5t-29.5 -63.5q-37 -242 -178 -461q41 -66 60 -102q49 -98 95 -124t185 -30q43 -4 43 -23q0 -16 -28 -16q-2 0 -34 1t-78 3t-77 2q-20 2 -63 2q-68 0 -148 -8q-23 39 -69 131 l-11 16q-164 -174 -428 -174q-203 0 -329.5 108.5t-126.5 283.5q0 291 360 458q-8 10 -27 29q-104 109 -129.5 153t-25.5 115q0 145 95 235.5t247 90.5q145 0 234 -75t89 -195q0 -195 -284 -310l102 -118q182 -211 318 -406q145 233 145 434q0 45 -18.5 52.5t-131.5 7.5 q-61 0 -61 20q0 16 35 16h198zM606 893q80 43 114 103.5t34 158.5q0 115 -50.5 186.5t-130.5 71.5q-82 0 -135 -54t-53 -136q0 -152 221 -330zM451 799q-100 -76 -142.5 -156t-42.5 -192q0 -174 97.5 -291t242.5 -117q182 0 322 145q-125 218 -477 611z" />
<glyph unicode="'" horiz-adv-x="729" d="M461 1444q35 0 58.5 -23.5t23.5 -60.5q0 -57 -82 -158q-104 -127 -203 -325q-16 -33 -24.5 -42.5t-20.5 -9.5q-10 0 -19.5 7.5t-9.5 17.5q0 8 6 20q74 162 123 363q31 125 61 168t87 43z" />
<glyph unicode="(" horiz-adv-x="624" d="M493.5 1458q16.5 0 16.5 -16q0 -8 -14 -37q-94 -178 -136.5 -376t-42.5 -472q0 -518 175 -836q16 -27 16 -41t-12.5 -14t-22.5 10.5t-45 55.5q-129 170 -211 399t-82 424q0 201 70.5 411t202.5 394q69 98 85.5 98z" />
<glyph unicode=")" horiz-adv-x="624" d="M127 1458q18 0 68 -63q76 -96 145 -244q150 -307 149 -582q0 -211 -79.5 -435t-225.5 -415q-39 -53 -53 -53q-16 0 -16 17q0 8 14 36q180 328 180 848q0 268 -41 460t-137 376q-16 31 -16 41q0 14 12 14z" />
<glyph unicode="*" d="M403 1327l68 6q16 0 25 -49q8 -76 61 -135q20 53 21 98q0 47 -7 66q-2 6 -2 16q0 18 29 25q35 10 45 16t31 33q20 29 35 29q16 0 16 -17q0 -6 -4 -26q-6 -29 -6 -41q0 -20 14 -54q6 -12 6 -20q0 -16 -39 -37q-74 -37 -110 -102q16 -2 30 -2q53 0 129 36q16 8 29 9 q14 0 27 -23q23 -35 43 -45q16 -10 49 -20q14 -8 14 -15q0 -23 -43 -18q-35 -2 -47 -7.5t-45 -35.5q-6 -8 -18.5 -8t-48.5 34q-55 51 -123 64q27 -84 92 -150q12 -12 12 -20t-20 -31q-25 -29 -27 -78q0 -41 -18 -41q-10 0 -14.5 5.5t-21 40t-40.5 47.5q-37 23 -37 36 q0 6 18 52q23 51 23 106q0 14 -2 27q-63 -43 -109 -129q-12 -23 -24 -23q-2 0 -11 4q-37 18 -57 19q-10 0 -57 -13q-4 -2 -17 -2q-18 0 -18 13q0 14 20 28q25 20 37 37q8 16 15 51q8 27 32 27q6 0 52 -8h16q53 0 111 22q-59 55 -160 68q-29 6 -29 25q0 14 2 24v19 q0 23 -26 61q-14 20 -14.5 32.5t14.5 12.5q8 0 71 -35z" />
<glyph unicode="+" d="M584 725h387v-74h-387v-381h-74v381h-389v74h389v379h74v-379z" />
<glyph unicode="," horiz-adv-x="530" d="M324 63q0 -76 -76 -75q-39 0 -66.5 27.5t-27.5 68.5q0 53 34.5 87t87.5 34q74 0 120 -54.5t46 -138.5q0 -150 -114 -217q-80 -49 -135 -49q-16 0 -17 12q0 10 21 17q172 41 172 176q0 83 -45 112z" />
<glyph unicode="-" horiz-adv-x="624" d="M594 512v-106h-563v106h563z" />
<glyph unicode="." horiz-adv-x="530" d="M264 207q45 0 77 -32t32 -79q0 -45 -32 -76.5t-77 -31.5q-47 0 -78.5 31.5t-31.5 78.5q0 45 31.5 77t78.5 32z" />
<glyph unicode="/" horiz-adv-x="1001" d="M973 1487l-846 -1548h-100l845 1548h101z" />
<glyph unicode="0" d="M553 1444q201 0 319 -182q68 -102 108 -258t40 -318q0 -180 -54.5 -342t-148.5 -262q-104 -106 -256 -107q-213 0 -351 209t-138 535q0 176 51 333.5t143 260.5q63 72 129 101.5t158 29.5zM551 1415q-258 0 -258 -686q0 -719 272 -719q68 0 110 48t73 161q51 190 51 541 q0 305 -68 504q-27 82 -68.5 116.5t-111.5 34.5z" />
<glyph unicode="1" d="M668 1362v-1225q0 -74 8 -87t49 -13l47 -2l35 -2h31q29 0 28 -19q0 -16 -45 -16h-24q-27 2 -236 2q-127 0 -180 -2q-25 -2 -62 -2q-49 0 -49 18.5t29 18.5q45 0 96 2q41 2 53.5 7t16.5 21q2 16 4 132v962q-2 68 -6 79t-27 11q-2 0 -16 -1t-48 -4t-69 -5q-14 -2 -33 -2 q-25 0 -24 14q0 16 24 19q96 10 194.5 58t158.5 114q20 18 30 18q16 0 17 -20v-39q-2 -17 -2 -37z" />
<glyph unicode="2" d="M973 18l-2 -24q-211 10 -482 10q-109 0 -272 -4q-90 -4 -111 -4q-55 0 -55 20q0 10 15.5 24.5t91.5 78.5q256 207 364 340q188 227 189 534q0 207 -86 314q-39 47 -77 64.5t-108 17.5q-119 0 -184 -72q-53 -53 -53 -111q0 -35 55 -37q143 -6 143 -125q0 -113 -118 -112 q-76 0 -121 47t-45 129q0 152 106.5 244t280.5 92q176 0 289 -111q133 -127 133 -336q0 -227 -151.5 -418.5t-510.5 -416.5q135 4 340 4q170 0 215 5t80 26q27 16 49 137q8 49 16.5 65.5t24.5 16.5q20 0 21 -31q0 -8 -4 -33q-23 -150 -33 -334z" />
<glyph unicode="3" d="M543 786v-14q168 -6 274 -76q72 -47 113 -128t41 -169q0 -170 -137 -290q-152 -133 -388 -134q-190 0 -282 91q-57 59 -58 131q0 63 40 101t108 38q53 0 88 -31t35 -78q0 -72 -96 -112q-39 -16 -39 -33q0 -27 53 -48.5t117 -21.5q156 0 253 106.5t97 278.5q0 168 -80 257 t-231 89q-31 0 -45 -2h-15q-27 0 -26 19q0 10 8 14t41 8q143 23 221 107t78 217q0 131 -67.5 210t-182.5 79q-84 0 -146.5 -36t-62.5 -83q0 -18 29 -25q74 -18 104.5 -43.5t30.5 -68.5q0 -47 -29 -76t-80 -29q-70 0 -111.5 41t-41.5 109q0 109 96 186q98 74 264 74 q197 0 299 -103q100 -96 100 -231q0 -84 -47 -157.5t-127 -114.5q-65 -32 -198 -52z" />
<glyph unicode="4" d="M803 393v-252l2 -69q10 -25 33.5 -31t115.5 -6q35 0 45.5 -4t10.5 -17q0 -10 -11.5 -12t-70.5 -2q-82 0 -459 -4q-20 -2 -45 -2q-41 0 -41 20.5t59 18.5q74 0 127 8q25 4 31 21.5t6 76.5v248q-41 2 -94 2h-84q-53 -2 -102 -2l-230 4l-30 2q-29 0 -29 17q0 12 38 65 l263 359l416 585q14 20 28 21q20 0 21 -39v-66v-897h20q76 0 109 8q25 4 33 12.5t8 28.5q-2 109 2 135.5t18 26.5q16 0 22.5 -11t6.5 -46v-92l2 -148q4 -90 4 -98q2 -12 2 -29q0 -20 -20 -20q-18 0 -23.5 23.5t-15.5 127.5q-4 23 -31 31t-94 8q-23 0 -43 -2zM606 438v41v105 q0 14 4 186l8 369l-86 -125l-114 -158l-158 -215q-143 -195 -145 -199q76 -6 325 -6q88 0 166 2z" />
<glyph unicode="5" d="M309 1245h-28q-8 -70 -15 -420q117 53 244 54q211 0 332 -112t121 -306q0 -123 -53.5 -230.5t-147.5 -171.5q-119 -84 -313 -84q-190 0 -283 101q-49 55 -49 131q0 63 41 103t106 40q53 0 89 -30.5t36 -75.5q0 -76 -100 -115q-45 -16 -45 -37q0 -33 60.5 -58.5 t133.5 -25.5q143 0 215 98q98 137 99 365q0 168 -78 260t-221 92q-111 0 -244 -84q12 461 18 582q2 70 31 85t156 15q92 0 147 -2h70q141 0 165.5 5.5t28.5 33.5q6 31 11.5 39t17.5 8q20 0 20 -22q0 -14 -2 -23l-4 -47q-6 -113 -38.5 -141.5t-157.5 -28.5z" />
<glyph unicode="6" d="M336 774q113 106 254 107q115 0 215 -62q193 -117 192 -362q0 -199 -120.5 -340.5t-288.5 -141.5q-211 0 -342 174.5t-131 452.5q0 256 111.5 468t297.5 306q66 35 163 57.5t177 22.5q43 0 43 -16q0 -12 -28 -17q-180 -14 -326 -133q-184 -154 -217 -516zM551 831 q-106 0 -163.5 -91t-57.5 -255q0 -236 84 -381q53 -92 155 -92q217 0 217 439q1 380 -235 380z" />
<glyph unicode="7" d="M907 1239h-45h-266q-236 0 -279 -2t-63 -14q-16 -12 -23.5 -35t-33.5 -144q-8 -25 -25 -24q-20 0 -20 24q0 27 10 80q29 156 28 213q4 63 27 88q27 -2 84 -4q115 -8 225 -8l424 4q29 2 56 2q66 0 65 -16q0 -8 -237 -383q-133 -207 -182.5 -326t-49.5 -235q0 -63 29 -234 q10 -68 10 -104q0 -68 -28.5 -107t-80.5 -39q-61 0 -95 58.5t-34 165.5q0 207 191 544q116 207 313 496z" />
<glyph unicode="8" d="M682 764l2 -8q160 -33 244 -126t84 -241q0 -203 -170 -330q-117 -84 -285 -84q-182 0 -307 82q-170 111 -170 312q0 147 85 247.5t245 139.5v10q-125 35 -196 118t-71 197q0 160 109.5 261.5t284.5 101.5q154 0 251 -74q66 -49 105 -122.5t39 -151.5q0 -121 -72 -216.5 t-178 -115.5zM539 1411q-193 0 -193 -321q0 -313 207 -314q94 0 129 68q47 84 47 248q0 184 -65 268q-37 51 -125 51zM553 741q-125 0 -194.5 -95t-69.5 -263q0 -174 72.5 -274.5t199.5 -100.5q106 0 160 62q82 100 82 299q0 180 -64.5 276t-185.5 96z" />
<glyph unicode="9" d="M756 645q-113 -106 -254 -106q-135 0 -246 82q-162 119 -162 350q0 197 120 335t290 138q209 0 341 -176t132 -455q0 -268 -124 -486t-325 -302q-55 -23 -146 -42.5t-149 -19.5q-53 0 -53 14q0 12 29 17q178 23 293.5 106.5t181.5 237.5q33 78 46.5 133t25.5 174z M514 1409q-211 0 -211 -442q0 -184 60.5 -281.5t175.5 -97.5q104 0 163.5 95t59.5 265q0 233 -86 369q-58 92 -162 92z" />
<glyph unicode=":" horiz-adv-x="530" d="M264 909q45 0 77 -31.5t32 -78.5q0 -45 -31 -77t-78 -32t-78.5 32t-31.5 79q0 45 31.5 76.5t78.5 31.5zM264 207q45 0 77 -32t32 -79q0 -45 -32 -76.5t-77 -31.5q-47 0 -78.5 31.5t-31.5 78.5q0 45 31.5 77t78.5 32z" />
<glyph unicode=";" horiz-adv-x="530" d="M334 63v-8q0 -72 -80 -71q-43 0 -71.5 29.5t-28.5 72.5q0 53 36.5 89t92.5 36q74 0 120 -55.5t46 -143.5q0 -150 -115 -217q-82 -49 -133 -49q-18 0 -19 12q0 10 21 17q172 41 172 180q0 77 -41 108zM270 909q45 0 77 -31.5t32 -76.5q0 -47 -32 -79t-77 -32 q-47 0 -78.5 32t-31.5 79q0 45 31.5 76.5t78.5 31.5z" />
<glyph unicode="&#x3c;" horiz-adv-x="1110" d="M995 1300v-94l-749 -477l749 -500v-94l-878 588v14z" />
<glyph unicode="=" d="M971 825v-73h-850v73h850zM971 625v-74h-850v74h850z" />
<glyph unicode="&#x3e;" horiz-adv-x="1110" d="M117 1300l878 -563v-14l-878 -588v94l749 500l-749 477v94z" />
<glyph unicode="?" horiz-adv-x="845" d="M365 1399q-94 0 -158 -66.5t-64 -167.5q0 -23 7 -22q6 8 12 20q23 39 76 39q41 0 66.5 -25.5t25.5 -68.5q0 -45 -29 -71.5t-78 -26.5q-63 0 -100 42t-37 111q0 125 91 205t237 80q160 0 257 -87t97 -231q0 -104 -55 -202q-31 -47 -59.5 -77t-147.5 -132 q-150 -129 -150 -223q0 -33 25 -113q2 -6 2 -18q0 -18 -16 -19q-23 0 -44.5 59.5t-21.5 120.5q0 82 33 155t121 185q74 94 102.5 157.5t28.5 133.5q0 113 -59.5 177.5t-161.5 64.5zM369 209q45 0 76.5 -33t31.5 -78t-31.5 -77.5t-79 -32.5t-79 32.5t-31.5 77.5q0 47 33 79 t80 32z" />
<glyph unicode="@" horiz-adv-x="2027" d="M1391 956l2 9q27 57 39 85.5t30 28.5q6 0 27 -4q29 -4 43 -4q23 0 39 8q25 12 39 13q12 0 12 -15q0 -16 -49 -121l-62 -133l-75 -174l-84 -184q-59 -131 -60 -182q0 -49 64 -50q70 0 155.5 42t151.5 108q70 70 112 185.5t42 236.5q0 125 -48.5 241.5t-132.5 194.5 q-82 78 -212 123t-271 45q-367 0 -604.5 -258t-237.5 -653q0 -340 190.5 -552t495.5 -212q344 0 615 223q143 123 209 248q14 25 34 24q27 0 27 -20q0 -31 -74 -123q-164 -197 -382 -302.5t-459 -105.5q-358 0 -597 229.5t-239 573.5q0 434 367 736q285 236 641 235 q186 0 352 -59.5t266 -161.5q160 -162 160 -408q0 -311 -244 -510q-78 -61 -182.5 -98t-202.5 -37q-78 0 -122 31t-44 86q0 8 6 43q-121 -164 -290 -164q-106 0 -174 72.5t-68 185.5q0 135 99.5 291t247 261.5t274.5 105.5q70 0 117 -36.5t57 -97.5zM1192 530l111 234 q57 125 57 151q0 18 -14.5 47t-30.5 44q-33 33 -90 32q-119 0 -248 -194q-178 -274 -178 -477q0 -135 102 -136q150 0 291 299z" />
<glyph unicode="A" horiz-adv-x="1232" d="M780 457h-438q-123 -328 -123 -377q0 -29 25 -35q14 -4 102 -8q59 -2 60 -21q0 -20 -54 -20q-63 0 -219 8q-16 2 -63 2q-27 0 -64 -4q-10 -2 -26 -2q-29 0 -29 18.5t61 20.5q66 4 94.5 20.5t47.5 65.5l430 1210q4 25 16 56l10 36q6 23 17 23q8 0 10 -12q29 -86 121 -334 l366 -998q14 -45 40 -56t108 -15q53 0 53 -21q0 -18 -31 -18q-20 0 -37 2l-260 4l-260 -4q-14 -2 -30 -2q-41 0 -41 20.5t55 22.5q180 0 180 37q0 4 -4 16l-16 55l-11 29q-24 82 -90 281zM569 504h199l-109 305l-98 281q-86 -225 -207 -586h35h180z" />
<glyph unicode="B" horiz-adv-x="1169" d="M627 760v-12q186 -12 291 -78q156 -98 155 -297q0 -209 -190 -310q-74 -39 -171.5 -50t-371.5 -13h-227h-23q-35 0 -35 18q0 12 10.5 15.5t53.5 3.5q74 2 88 17q13 13 12 73v18v1108q0 88 -8 105q-14 25 -105 26q-55 0 -55 21q0 18 51 18q35 0 66 -2l149 -2l250 -2 q225 -2 330 -74q127 -80 127 -243q0 -139 -104.5 -228t-292.5 -112zM422 1370v-594h18l113 4q117 2 181.5 81t64.5 218q0 199 -90 262q-47 35 -179 35q-34 0 -108 -6zM422 733v-610q0 -45 2 -53.5t10 -14.5q20 -14 115 -14q141 0 223 88q86 92 86 266q0 123 -54 207 t-155 113q-61 18 -227 18z" />
<glyph unicode="C" horiz-adv-x="1337" d="M1241 31v-19q0 -27 -16.5 -26.5t-28.5 30.5q-20 47 -28.5 60.5t-28.5 27.5q-147 -129 -355 -129q-301 0 -498.5 210t-197.5 530q0 322 181.5 525.5t467.5 203.5q104 0 167 -17.5t155 -70.5q47 -27 67.5 -27t34.5 33q20 41 26.5 49t16.5 8q16 0 17 -16q0 -6 -4 -27 q-23 -96 -23 -368q0 -33 -4 -42.5t-19 -9.5q-20 0 -26 39q-29 166 -76 244q-100 164 -315 164q-164 0 -262 -111q-174 -201 -175 -581q0 -338 144 -531q59 -76 148 -120t184 -44q106 0 195 52.5t134 142.5q55 109 76 227q10 49 27 49q20 0 20 -30q0 -6 -4 -56 q-8 -139 -8 -229q0 -47 8 -141z" />
<glyph unicode="D" horiz-adv-x="1466" d="M219 147v1104q0 100 -15.5 116.5t-105.5 16.5q-47 0 -47 23q0 16 35 16q4 0 21.5 -1t51.5 -2t64 -1h70h149q221 0 325.5 -10t197.5 -41q186 -61 300.5 -242.5t114.5 -416.5q0 -360 -252 -562q-98 -78 -212.5 -112.5t-280.5 -34.5q-53 0 -260 4h-103l-161 -2 q-14 -2 -31 -2q-39 0 -39 20q0 12 11 15.5t54 3.5q82 0 105 31q8 14 8 77zM424 1247v-1089q0 -57 3 -69.5t17 -20.5q49 -25 207 -25q102 0 198.5 42t158.5 114q143 164 143 518q0 340 -133 498.5t-416 158.5q-137 0 -166 -28q-12 -15 -12 -99z" />
<glyph unicode="E" horiz-adv-x="1191" d="M422 774h49q86 0 131 1t89 11.5t60.5 21.5t33 43t22.5 64.5t12 96.5q2 43 23 43q23 0 22 -37q0 -10 -4 -72q-4 -82 -4 -145q0 -207 8 -301q2 -14 2 -35q0 -27 -22 -27q-14 0 -18.5 16.5t-18.5 114.5q-14 106 -64.5 134t-228.5 28h-76h-16v-688q451 0 528 18q72 16 109 78 t45 185q6 51 26.5 51t20.5 -43q0 -6 -4 -101q-4 -90 -4 -176v-67q-201 10 -795 10q-172 0 -235 -2h-21q-39 0 -39 18q0 12 12.5 14.5t77.5 6.5q53 6 64.5 23.5t11.5 95.5v1151v12q0 49 -15 58q-17 11 -114 11q-33 0 -33 18.5t45 18.5l201 -2h150q45 2 231 3q62 0 115 1 q105 0 172 -2q78 2 112 9q2 -63 19 -244l8 -88q2 -10 2 -27q0 -20 -18 -20q-14 0 -19.5 9t-13.5 42q-39 186 -127 233q-63 37 -344 37h-168v-600z" />
<glyph unicode="F" horiz-adv-x="1112" d="M422 1370v-598q48 -1 85.5 -1t64.5 1q54 2 103.5 11.5t71 21.5t39 43t23.5 64.5t10 95.5q6 47 25 47q20 0 20 -31q0 -18 -2 -31q-6 -141 -6 -262q0 -156 8 -246q2 -8 2 -24q0 -25 -20 -25q-16 0 -21.5 13.5t-13.5 93.5q-10 78 -22.5 107.5t-40.5 47.5q-49 31 -193 31 q-76 0 -133 -4l2 -209l-4 -401q0 -51 30 -68q26 -15 98 -14h19q33 0 33 -17q0 -18 -41 -18h-20q-53 2 -142 2l-305 -2q-39 0 -39 16q0 12 13.5 16.5t58.5 4.5q72 6 84 21q11 13 10 73v21v1112l-2 63q-2 37 -22.5 45t-104.5 12q-33 0 -33 23q0 20 37 20h33q74 -4 528 -4 q346 0 424 17q10 -100 13 -154q12 -123 16 -153.5t4 -49.5q0 -29 -20.5 -28.5t-28.5 51.5q-25 150 -100 215q-39 35 -101.5 46t-214.5 11q-94 0 -225 -6z" />
<glyph unicode="G" horiz-adv-x="1361" d="M1227 205v-66q-104 -90 -201.5 -127t-232.5 -37q-324 0 -514.5 193.5t-190.5 525.5q0 336 186.5 543t491.5 207q82 0 136 -13.5t155 -60.5q45 -23 78 -22q39 0 51 49q10 29 24 28q16 0 17 -16q0 -6 -4 -43q-12 -111 -13 -168l2 -133q0 -76 -4 -94.5t-20 -18.5 q-20 0 -21 29q-10 199 -114.5 312.5t-274.5 113.5q-213 0 -337 -190.5t-124 -518.5q0 -315 126 -500.5t341 -185.5q164 0 226 94q31 47 30 170q0 102 -20 121q-18 17 -112 17h-21q-45 0 -45 16q0 23 45 23h37q20 -4 217 -4l172 2q25 2 53 2q41 0 41 -21q0 -6 -6 -12t-12 -6 l-48 2q-96 0 -106 -33q-8 -24 -8 -178z" />
<glyph unicode="H" horiz-adv-x="1458" d="M1036 748h-616v-580v-22q0 -72 12 -87q14 -16 98 -22q53 -2 54 -19q0 -18 -41 -18h-19q-31 0 -69.5 1t-60 2t-38.5 1q-51 0 -86 -2q-78 -2 -172 -2q-41 0 -41 16q0 18 39 21q96 0 115 24q6 10 6 115v1081q0 92 -9 107.5t-65 19.5q-63 4 -74.5 6.5t-11.5 16.5q0 16 27 16 q20 0 35 -2q74 -4 241 -4q104 0 146 2q14 2 37 2q37 0 37 -20q0 -18 -68 -19q-66 0 -79 -15t-13 -97v-471h616v440q0 11 1 22q0 89 -16 106.5t-98 17.5q-9 0 -18 -1q-31 0 -31 18.5t35 18.5h11q59 -2 210 -2q102 0 168 2q23 2 58 2q43 0 43 -18q0 -12 -14.5 -15.5 t-75.5 -5.5q-57 -2 -66 -28q-2 -8 -4 -94v-1090q0 -98 10 -115q20 -23 119 -22q33 4 33 -17q0 -18 -39 -18l-283 2q-76 0 -106 -2q-27 -2 -60 -2q-41 0 -41 16q0 10 16.5 14.5t80.5 8.5q51 4 59 17.5t8 95.5v598z" />
<glyph unicode="I" horiz-adv-x="643" d="M219 174v1077q0 100 -10 113q-12 18 -113 25q-39 0 -39 16q0 18 25 18l276 -4q12 0 119 2q39 2 78 2q33 0 33 -18q0 -10 -15.5 -13t-74.5 -8q-51 -2 -62.5 -18t-11.5 -86v-1094q0 -115 8 -125q20 -23 135 -28q23 0 23 -16.5t-25 -16.5h-20q-12 6 -279 6q-57 0 -102 -4 q-33 -2 -82 -2q-27 0 -27 18.5t54 18.5q84 4 97 20.5t13 116.5z" />
<glyph unicode="J" horiz-adv-x="671" d="M270 129v1169q0 59 -22.5 73.5t-114.5 14.5q-55 -2 -55 17q0 20 33 20q2 0 55 -2q45 -2 104 -2l301 4q43 0 54.5 -3t11.5 -17q0 -16 -43 -17q-78 0 -98 -4q-16 -6 -19.5 -18t-3.5 -80v-657q0 -547 -16 -613q-23 -106 -120 -183t-206 -77q-80 0 -129 42t-49 110 q0 53 30.5 85t84.5 32q47 0 78.5 -29t31.5 -74q0 -37 -26 -70q-18 -20 -19 -34q0 -18 31 -19q66 0 92 80q10 31 12 63.5t2 188.5z" />
<glyph unicode="K" horiz-adv-x="1363" d="M424 733v-592q0 -72 22.5 -89t120.5 -17q23 0 23 -21q0 -18 -29 -18q-20 0 -37 2l-284 4q-63 0 -136 -6h-18q-31 0 -31 18q0 14 12.5 17.5t63.5 5.5q70 0 82 31q6 10 6 129v1079l-2 61q0 27 -23 36q-19 8 -66 8q-10 0 -22 -1q-49 4 -49 22.5t35 18.5q14 0 27 -2 q41 -4 182 -4q162 0 203 4q23 2 47 2q37 0 37 -22q0 -12 -10.5 -15.5t-71.5 -5.5q-59 0 -72 -15q-11 -13 -10 -72v-21v-500l174 174l340 340q55 57 55 72q0 25 -96 24h-10q-52 0 -51 21q0 14 28.5 16t198.5 2h113q74 0 81 -2q20 -4 21 -20q0 -23 -45 -23q-23 1 -42 1 q-57 0 -76 -5q-26 -6 -56 -33l-291 -303q-55 -59 -115 -114l-53 -54l-27 -28q23 -27 103 -111q176 -182 493 -571q68 -82 93.5 -97.5t99.5 -21.5q39 -2 49 -5t10 -16q0 -18 -28 -18h-17l-246 2l-239 -2q-12 -2 -27 -2q-39 0 -39 16.5t52 20.5q68 6 87 12t19 22.5t-98 134.5z " />
<glyph unicode="L" horiz-adv-x="1155" d="M1130 -14h-22q-27 0 -166 8l-653 8l-152 -2h-47q-35 0 -35 18q0 16 56 19q78 4 93 17.5t15 76.5v1151q0 76 -15.5 88t-109.5 12q-39 0 -39 23q0 18 25 18h18q68 -6 269 -6q63 0 159 6h23q37 0 37 -20q0 -12 -10.5 -14.5t-69.5 -6.5q-61 0 -74 -18q-11 -16 -10 -84v-25 v-1208q55 -2 153 -2q240 0 338.5 24.5t133.5 90.5q33 63 40 184q0 27 25 27t25 -31l-2 -51q0 -23 2 -47v-80q-1 -53 -7 -176z" />
<glyph unicode="M" horiz-adv-x="1546" d="M131 1421h107q121 0 170 2q27 -76 120 -321l265 -717q47 166 79 262l218 678q8 20 17 51t15 47l308 2q55 0 71.5 -4t16.5 -20q0 -20 -35 -21q-121 -2 -146 -37q-10 -14 -10 -239v-952q0 -82 16 -97q27 -18 134 -18h12q41 0 41 -20.5t-43 -20.5h-23q-123 4 -221 4 q-188 0 -254 -2h-14q-43 0 -43 18q0 14 9 17.5t50 3.5q104 0 127 22q10 10 10 138v1060q0 -4 -3 -12t-8 -24l-11 -35l-150 -463l-88 -283l-96 -325l-27 -84q-4 -12 -14 -13q-14 0 -31 50q-59 186 -335 929l-82 220q2 -39 2 -107v-666q0 -75 -1 -134q0 -240 7 -244 q12 -27 98 -27q68 0 68 -19q0 -20 -43 -20q-29 0 -49 2q-25 2 -52 2l-235 -6q-37 0 -37 18q0 23 117 23q49 2 57 17.5t8 105.5v981q0 168 -4 184q-8 29 -34.5 38t-114.5 17q-33 0 -33 19q0 23 59 22q17 0 35 -2z" />
<glyph unicode="N" horiz-adv-x="1343" d="M1081 369v911q0 63 -2 76.5t-16 19.5q-14 8 -98 8q-74 0 -74 19q0 20 49 20h72q45 -2 96 -2t98 2h64q45 0 45 -20q0 -18 -51 -19l-45 2h-37q-33 0 -39 -11t-6 -68v-1180q0 -109 -2 -127t-13 -18q-12 0 -28 22l-263 383l-552 834v-1053l2 -90q2 -27 30.5 -33t137.5 -10 q27 0 26 -17q0 -20 -53 -20q-12 0 -117 6q-27 2 -63 2q-23 0 -152 -8h-20q-47 0 -47 18.5t40 18.5q121 2 142 16q19 13 18 74v12v1010q0 94 -15 141t-54 72q-35 20 -117 20q-53 0 -53 21q0 18 30 18q4 0 105 -2q27 -2 67 -2q6 0 28 1t67 2t94 1z" />
<glyph unicode="O" horiz-adv-x="1474" d="M748 1444q272 0 456.5 -213t184.5 -529q0 -305 -183.5 -516t-449.5 -211q-283 0 -475.5 214t-192.5 528q0 319 185.5 523t474.5 204zM737 1407q-164 0 -254 -100q-166 -184 -166 -600q0 -330 116 -512.5t325 -182.5q197 0 293 172q109 186 108 508q0 377 -153 584 q-51 72 -112 101.5t-157 29.5z" />
<glyph unicode="P" horiz-adv-x="1032" d="M422 717v-582q0 -53 9 -71.5t40 -22.5q57 -8 115 -8q23 0 22 -15q0 -20 -28 -20q-12 0 -21 2q-113 -2 -424 -2h-26q-61 0 -62 20q0 14 43 15q96 0 111 18q16 8 18 41v70v1138q0 53 -20.5 69.5t-85.5 16.5h-21q-6 -2 -14 -2q-31 0 -31 19q0 20 57 20h451q244 -8 342 -82 q123 -94 123 -260q0 -94 -45 -175t-125 -134q-109 -70 -270 -70q-70 1 -158 15zM422 1292v-544q16 -2 37 -3q139 0 229 60q117 72 117 272q0 307 -258 307q-88 0 -113 -28q-12 -13 -12 -64z" />
<glyph unicode="Q" horiz-adv-x="1478" d="M842 -18v-64q0 -162 60.5 -222.5t219.5 -60.5q43 0 58 3q49 4 51 4q33 0 33 -23q0 -16 -62 -29q-119 -20 -229 -20q-90 0 -170 31.5t-121 85.5q-51 66 -51 229v47l2 27q-197 49 -309 151q-111 100 -173.5 252t-62.5 320q0 197 82 367.5t219 265.5q143 98 342 98 q240 0 395 -135q125 -106 195 -267t70 -342q0 -281 -149.5 -477t-399.5 -241zM745 1409q-207 0 -317.5 -181t-110.5 -521q0 -338 114 -518.5t327 -180.5q207 0 299 172q104 190 104 506q0 371 -143 582q-99 141 -273 141z" />
<glyph unicode="R" horiz-adv-x="1204" d="M422 733v-571v-74q-2 -31 30.5 -42t129.5 -13q27 0 26 -17q0 -18 -35 -18h-24q-18 2 -178 2q-152 0 -199 -2h-80q-45 0 -45 18q0 10 10.5 13.5t48.5 3.5q96 4 105 24q8 10 8 80v1131v15q0 66 -16 82q-18 17 -107 19q-33 0 -42 3.5t-9 15.5q0 20 33 20q10 0 18 -2l273 -6 q10 0 112 4q43 2 117 2q190 0 302 -85t112 -230q0 -143 -115 -236.5t-311 -109.5q-20 0 -21 -6q0 -8 21 -9q215 -37 297 -150.5t106 -410.5q10 -90 37 -129t78 -39q31 0 31 13q0 2 -2 4q-10 23 -11 37q0 18 12.5 30.5t32.5 12.5q23 0 36.5 -14.5t13.5 -37.5q0 -39 -39 -62.5 t-105 -23.5q-160 0 -250 134q-39 57 -51 111t-33 269q-14 131 -84.5 185.5t-232.5 58.5zM422 1262v-486h10q188 0 274 72q87 74 87 239q0 293 -254 293q-68 0 -93.5 -18.5t-23.5 -65.5v-34z" />
<glyph unicode="S" horiz-adv-x="1019" d="M864 1128l2 -32q0 -23 -18 -23q-23 0 -31 47q-23 121 -106.5 202t-188.5 81q-102 0 -162.5 -65.5t-60.5 -178.5q0 -129 88 -211q57 -51 213 -127q193 -96 277 -195.5t84 -226.5q0 -176 -134.5 -300t-322.5 -124q-115 0 -264 68q-47 18 -62 18q-16 0 -21 -10t-10 -49 q-4 -31 -26 -31q-20 0 -21 25q0 16 2 24q16 125 17 232q0 20 -4 115q-2 12 -2 32q0 31 24 31q20 0 29 -49q27 -180 115 -272.5t231 -92.5q125 0 193.5 71t68.5 200q0 115 -66.5 195.5t-228.5 160.5q-195 96 -270.5 186.5t-75.5 223.5q0 170 109.5 280.5t277.5 110.5 q74 0 193 -47q47 -16 63 -17q23 0 29 8.5t14 43.5q2 20 22.5 20t20.5 -25q0 -16 -2 -24q-6 -49 -6 -119q0 -101 10 -156z" />
<glyph unicode="T" horiz-adv-x="1200" d="M694 1374v-1235q0 -68 25.5 -85t128.5 -19q25 -2 24 -19q0 -18 -32 -18q-16 0 -29 2q-123 4 -174 4q-72 0 -127 -2q-63 -2 -152 -2q-47 0 -47 16q0 12 14.5 15.5t73.5 5.5q59 0 76 19.5t17 90.5v1227q-207 -2 -252 -20q-131 -47 -152 -252q-8 -61 -29 -62q-25 0 -24 43 q0 27 2 45l4 48q8 137 18 247h93l417 -6q188 0 230 2l102 2q123 0 238 4l26 -340q4 -25 4 -26q0 -27 -24 -27q-27 0 -33 49q-8 123 -57 203q-45 70 -142 86q-51 10 -102 10q-103 -4 -117 -6z" />
<glyph unicode="U" horiz-adv-x="1363" d="M410 1231v-733q0 -154 18 -234t66 -133q88 -100 258 -100q152 0 241.5 91t110.5 263q6 57 6 451v116l2 164l-2 141q2 35 2 68q0 39 -22.5 49t-104.5 10q-41 0 -41 23q0 18 29 18q16 0 26 -2q25 -2 179 -2q63 0 90 2h30q47 0 48 -20q0 -18 -37 -19q-6 0 -41 2q-10 2 -29 3 q-41 0 -53 -13.5t-12 -60.5v-768q0 -299 -112 -435.5t-360 -136.5q-141 0 -250.5 44t-166.5 124q-80 111 -80 371v455q0 356 -2 366q-4 29 -26.5 38t-98.5 9q-35 4 -35 21q0 18 29 18h37q29 -2 106 -2l293 2q10 2 24 2q35 0 35 -22q0 -14 -12 -16.5t-82 -4.5q-59 0 -61 -32 q-2 -8 -2 -117z" />
<glyph unicode="V" horiz-adv-x="1296" d="M397 1335l17 -53l198 -577l125 -367q338 956 338 1005q0 45 -100 46l-64 -3q-25 0 -24 17q0 20 61 20q104 0 154 -2h65l136 2q37 0 36 -16q0 -18 -39 -18q-90 -4 -121.5 -28t-62.5 -114l-69 -190q-236 -635 -355 -1059q-6 -25 -20 -25q-10 0 -20.5 22.5t-47.5 131.5 l-143 422l-164 465q-27 68 -57 162q-35 102 -41 114q-18 57 -43 75.5t-84 23.5q-66 0 -80.5 3t-14.5 17q0 18 41 18h19q111 -6 258 -6q59 0 274 6h29q37 0 37 -20q0 -23 -74 -25l-63 -2l-62 -2q-43 0 -43 -26q0 -5 4 -17z" />
<glyph unicode="W" horiz-adv-x="1867" d="M1448 1389h-35q-94 0 -139 -25q-14 -8 -24.5 -27.5t-51.5 -119.5l-82 -195l-37 -92l90 -228q90 -215 162 -407q2 4 271 784q82 240 81 267q0 39 -71 38q-100 0 -101 23q0 20 41 20q33 0 56 -2q37 -4 82 -4l163 2q74 0 74 -16q0 -12 -11 -15t-58 -6q-80 0 -105 -51 q-16 -31 -78 -209q-74 -229 -164 -477q-133 -367 -223 -649q-8 -27 -20 -27q-10 0 -19.5 20.5t-54.5 143.5q-70 193 -125 322l-104 262l-285 -723q-8 -25 -21 -25q-10 0 -24 35q-63 147 -471 1256q-31 80 -41 96q-16 20 -74 22l-50 3q-17 1 -29.5 5.5t-15.5 8.5t-3 12 q0 18 33 19q14 0 24 -3q106 -6 234 -6q74 0 241 6h23q35 0 35 -18q0 -25 -64 -25q-74 -4 -100.5 -10t-26.5 -22q0 -18 127 -377l250 -690l205 510l-82 211l-76 193q-29 73 -45 120q-16 41 -37.5 54t-81.5 16q-55 0 -55 18q0 23 43 23q14 0 80 -5q29 -4 164 -4h155l125 -2 q49 -2 101 -2q76 0 182 8q12 2 29 2q49 0 49 -20q0 -18 -35 -18zM1036 1382l-35 -2q-47 -2 -60 -6t-13 -20q0 -4 121 -355q41 88 110 271q14 37 25 59l4 17q0 37 -127 36h-25z" />
<glyph unicode="X" horiz-adv-x="1280" d="M668 39l92 -2q57 0 73.5 7t16.5 34q0 29 -51 133q-213 426 -219 442l-258 -436q-68 -115 -68 -135q0 -29 27.5 -36t132.5 -7q37 0 37 -21q0 -18 -31 -18l-232 2l-151 -2h-23q-33 0 -32 18q0 20 41 23q100 2 137 37q25 20 67.5 89l184.5 312l139 236l-234 438 q-72 133 -99.5 174t-57.5 53q-33 6 -129 6q-25 0 -25 17q0 23 33 22q27 0 186 -4q51 -2 97 -2q240 0 264 4h28q43 0 43 -16q0 -23 -73 -23q-18 0 -33 1q-53 0 -76 -6q-29 -7 -29 -27q0 -37 234 -480q84 123 184.5 292t100.5 190q0 18 -23.5 24t-89.5 6q-35 0 -45 3.5 t-10 15.5q0 20 39 20q33 0 57 -2q41 -2 98 -2q115 0 195 6h18q35 0 35 -18t-27 -18q-8 -2 -65 -3q-70 -4 -96.5 -26.5t-85.5 -128.5q-84 -150 -234 -379l-22 -35l40 -78l99 -194l137 -266q88 -176 128 -210q38 -32 142 -32h13q51 0 51 -18.5t-57 -18.5q-51 0 -142 2 q-55 2 -143 2q-49 0 -209 -4q-39 -2 -88 -2q-59 0 -59 22q0 19 47 19z" />
<glyph unicode="Y" horiz-adv-x="1243" d="M276 1421l238 2q14 2 33 2q37 0 37 -20q0 -12 -11.5 -15.5t-58.5 -3.5q-127 0 -127 -45q0 -35 129 -280l186 -354q33 59 117 227l80 164l41 80q68 133 68 172q0 27 -35 30q-49 8 -96 9q-45 -4 -46 20q0 16 39 16l119 -2l68 2q139 0 174 -3t35 -17q0 -16 -35 -16 q-113 -4 -139 -39q-18 -16 -177 -349q-53 -125 -127 -256q-39 -78 -46 -105.5t-7 -117.5v-387q0 -68 17.5 -80t121.5 -18q55 -2 56 -21q0 -16 -29 -16h-24l-244 6h-43q-121 0 -199 -4q-12 -2 -29 -2q-29 0 -28.5 18.5t47.5 20.5q113 4 134 20q20 15 20 85v14v432 q-35 78 -119 239l-205 406q-61 123 -74 133q-16 16 -100 21q-6 0 -11 -1q-61 0 -61 23q0 16 33 16q10 0 172 -4q32 -2 106 -2z" />
<glyph unicode="Z" horiz-adv-x="1150" d="M1087 418l-10 -68q-10 -82 -18 -139q-12 -86 -19 -125q-10 -86 -10 -90q-6 0 -43 1t-114.5 2t-165.5 1h-152q-291 0 -416 -12q-10 -2 -30 -2q-31 0 -31 16l4 12q8 12 49 95l531 1001q70 129 131 258q-47 10 -205 10q-252 0 -316 -102q-16 -27 -40.5 -110t-34.5 -142 q-6 -43 -31 -43q-20 0 -21 20q0 16 2 25l15 98q4 37 16 103q8 53 15 84q14 96 24 121q123 -12 385 -13q209 0 365 6h32q18 0 33 2q-10 -33 -76 -167q-8 -25 -563 -1074l-74 -139q98 -6 240 -6q160 0 235.5 18.5t125.5 67.5q88 92 118 303q6 35 27 35q25 0 25 -25 q-1 -14 -3 -22z" />
<glyph unicode="[" horiz-adv-x="624" d="M182 -299v1722h320q51 0 51 -24q0 -14 -8 -17.5t-60 -3.5q-109 0 -131 -10q-14 -8 -16 -20.5t-2 -75.5v-1417q0 -80 15.5 -94.5t101.5 -14.5h51h28q35 0 35 -22q0 -14 -11 -18.5t-50 -4.5h-324z" />
<glyph unicode="\" horiz-adv-x="1001" d="M27 1487h100l846 -1548h-101z" />
<glyph unicode="]" horiz-adv-x="624" d="M444 1423v-1722h-319q-43 0 -54.5 4t-11.5 19q0 23 41 22q133 0 158 6q23 4 28 17.5t5 68.5v1422q0 78 -5 94t-30 20q-31 6 -133 6q-33 0 -41 3t-8 17.5t9 18.5t38 4h323z" />
<glyph unicode="^" d="M971 666h-203q-147 193 -287 528q-74 -203 -182 -369q-113 -172 -145 -172q-23 0 -23 23q0 18 25 47q160 197 299 569q43 115 54 135.5t33.5 20.5t34 -19.5t60.5 -138.5q160 -372 334 -624z" />
<glyph unicode="_" horiz-adv-x="1064" d="M47 -186h971v-95h-971v95z" />
<glyph unicode="`" horiz-adv-x="1026" d="M446 1360l66 -143l18 -39q6 -16 23 -54l16 -39l13 -28q4 -8 4 -13q0 -10 -13 -10q-10 0 -28.5 16.5t-114.5 112.5l-186 195h35l59 2h45h63z" />
<glyph unicode="a" horiz-adv-x="813" d="M682 608v-383q0 -113 12.5 -148.5t48.5 -35.5q57 0 95 41q20 23 30.5 22.5t10.5 -12.5q0 -35 -73 -72.5t-140.5 -37.5t-105.5 37.5t-42 107.5q-35 -70 -100.5 -111t-141.5 -41q-88 0 -145 52.5t-57 134.5q0 80 53 149.5t149 116.5q70 33 242 66v51q0 178 -18 237 q-33 104 -148 105q-72 0 -120 -39t-48 -98q0 -10 4.5 -13.5t20.5 -3.5q27 -2 47 -25.5t20 -54.5q0 -39 -25.5 -64.5t-64.5 -25.5q-47 0 -77.5 32t-30.5 81q0 96 76 166q84 76 233 76q186 0 254 -87q25 -29 33 -74t8 -149zM518 309v150q-154 -35 -220.5 -91.5t-66.5 -150.5 q0 -66 38 -107.5t96 -41.5q88 0 141 98q10 20 12 143z" />
<glyph unicode="b" horiz-adv-x="985" d="M307 868v-67q78 117 234 117q172 0 276.5 -118t104.5 -313q0 -213 -129 -362.5t-312 -149.5q-55 0 -133 27q-66 27 -94 27q-23 0 -49 -19q-33 -20 -45 -20q-10 0 -12.5 8t-4.5 59v1065q0 207 -26 224q-10 6 -80 6q-49 0 -49 16q0 14 22 14h29q113 0 217 48q31 14 43 14h8 v-350v-226zM506 879q-57 0 -109.5 -36t-68.5 -89q-18 -47 -18.5 -323.5t14.5 -336.5q25 -86 149 -86q123 0 178 92q84 135 84 377q0 193 -60 297.5t-169 104.5z" />
<glyph unicode="c" horiz-adv-x="837" d="M502 918q121 0 214 -63.5t93 -147.5q0 -43 -25.5 -69t-66.5 -26q-39 0 -64.5 25t-25.5 61q0 25 20 68q6 16 6 29q0 41 -42 67.5t-105 26.5q-123 0 -190.5 -106.5t-67.5 -299.5q0 -217 69.5 -334.5t196.5 -117.5q84 0 154 53q33 27 80 94q10 10 18 10q20 0 20 -16 q0 -29 -71 -100q-90 -96 -236 -97q-180 0 -298 129t-118 326q0 211 125.5 349.5t313.5 138.5z" />
<glyph unicode="d" horiz-adv-x="974" d="M676 817v320q0 158 -14 192q-12 33 -37 29q-68 -6 -72 -6q-27 0 -27 18.5t23 18.5l74 -3q66 0 188 58q8 4 14 4q20 0 21 -49q0 -55 -2 -101v-65v-16v-625q0 -485 10 -520q2 -10 15.5 -12.5t80.5 -2.5q29 0 29 -16q0 -14 -29 -14h-10q-27 2 -51 2q-100 0 -170 -41 q-27 -16 -35 -17q-18 0 -18 25l2 63q-88 -84 -209 -84q-172 0 -284 132.5t-112 336.5q0 211 112 342.5t292 131.5q139 -1 209 -101zM492 877q-111 0 -176.5 -115t-65.5 -307q0 -190 57 -316q23 -55 72 -91t100 -36q63 0 114.5 38t68.5 93q14 47 14 412q0 117 -8.5 168 t-34.5 84q-55 70 -141 70z" />
<glyph unicode="e" horiz-adv-x="880" d="M649 606l-143 2q-23 0 -246 -6q-10 -66 -10 -129q0 -207 79 -318.5t222 -111.5q82 0 130 37t107 141q8 16 23 17q16 0 16 -15q0 -20 -31.5 -72.5t-64.5 -84.5q-86 -90 -235 -91q-184 0 -308.5 133.5t-124.5 329.5q0 205 118 342.5t294 137.5q145 0 243.5 -85t104.5 -219 q-55 -8 -174 -8zM266 641h383q-4 127 -46 186.5t-130 59.5q-166 0 -207 -246z" />
<glyph unicode="f" horiz-adv-x="540" d="M350 893h135q41 0 41 -18.5t-53 -18.5h-53h-62h-8v-747v-54q0 -29 58 -28q25 1 43 0q27 0 37 -1q17 -3 18 -16q0 -14 -25 -14q-12 0 -20 2l-168 2l-223 -4q-37 0 -37 14q0 16 28 17q57 0 95 4q23 2 22 20l2 27v26v752q-76 0 -88 2t-12 16q0 18 37 19h49h16q8 262 70 375 q94 176 283 176q90 0 147 -43t57 -113q0 -43 -25.5 -70.5t-66.5 -27.5q-39 0 -65.5 24.5t-26.5 61.5q0 31 27 72q6 8 6 18q0 47 -68 47q-76 0 -112 -57q-35 -55 -46.5 -128t-11.5 -235v-100z" />
<glyph unicode="g" horiz-adv-x="956" d="M729 805q66 96 162 96q53 0 85 -28.5t32 -75.5q0 -43 -22.5 -69t-61.5 -26q-29 0 -52.5 19.5t-23.5 44.5q0 8 4 25q8 18 8 28q0 27 -29 27q-25 0 -47 -25.5t-22 -52.5q0 -14 10 -70q10 -72 10 -96q0 -139 -96 -233.5t-240 -94.5q-33 0 -135 31q-23 8 -35 8 q-43 0 -77.5 -34.5t-34.5 -75.5q0 -106 129 -107q53 0 158 19q86 14 153 14q125 0 195.5 -65.5t70.5 -182.5q0 -176 -150.5 -292.5t-379.5 -116.5q-170 0 -267.5 68.5t-97.5 189.5q0 117 91 176q47 31 143 51q-145 57 -146 176q0 78 44.5 126t144.5 79q-123 96 -123 254 q0 147 94 236.5t248 89.5q84 0 136 -22.5t122 -90.5zM463 891q-160 0 -160 -277q0 -311 170 -311q154 0 154 291q0 156 -39 226.5t-125 70.5zM248 -57q-104 -55 -105 -195q0 -104 75 -167.5t198 -63.5q156 0 262 85t106 208q0 170 -200 170q-70 0 -181 -19 q-100 -18 -155 -18z" />
<glyph unicode="h" horiz-adv-x="976" d="M319 1288v-502q49 72 104.5 102t141.5 30q162 0 234 -91q29 -39 38 -88t9 -176v-471v-45q2 -20 106 -20q18 -4 19 -15q0 -16 -35 -16q-16 0 -31 2q-72 -2 -319 -2h-23q-27 0 -26 16q0 10 10 12.5t67 2.5q45 0 53.5 11t8.5 77v415q0 186 -17 232q-33 94 -153 94 q-98 0 -160 -88q-14 -23 -17 -38t-3 -89v-522q0 -55 2 -64q2 -20 16 -23t88 -5q25 0 25 -17q0 -14 -21 -14q-2 0 -20 2l-162 2q-176 0 -188 -4h-21q-23 0 -22 14q0 16 22 17h31l30 2h6q42 0 44 28v107v813q0 328 -11 354q-12 23 -100 23q-49 2 -49 14t10 14t70 4 q104 2 200 50q16 8 29 10q14 -25 14 -158z" />
<glyph unicode="i" horiz-adv-x="514" d="M317 911l21 13q16 -31 16 -113q0 -10 -2 -100v-559q0 -82 3 -96.5t22 -18.5q27 -8 90 -8q29 0 29 -17q0 -18 -35 -18q-18 0 -49 4q-90 4 -103 4l-213 -4q-10 -2 -24 -2q-23 0 -23 14q0 20 41 21q78 2 86 12q6 10 6 84v455v102l-2 64q0 51 -4 60t-26 9l-60 -2 q-8 -2 -20 -2q-23 0 -23 16.5t35 16.5q147 8 235 65zM250 1380q92 0 92 -92q0 -41 -25.5 -66.5t-66.5 -25.5q-39 0 -65.5 25.5t-26.5 62.5q0 45 24.5 70.5t67.5 25.5z" />
<glyph unicode="j" horiz-adv-x="485" d="M188 -113v535q0 350 -2 369q-2 27 -30 26h-23q-8 -2 -94 -2q-23 0 -23 16q0 10 9.5 13.5t44.5 1.5q59 0 122.5 14t90.5 35q37 23 47 23q16 0 19 -26t3 -153l2 -243q2 -66 2 -152v-397q0 -219 -75.5 -347t-206.5 -128q-63 0 -105.5 32.5t-42.5 81.5q0 45 28 71t77 26 q39 0 62.5 -19.5t23.5 -52.5q0 -18 -13 -66q-2 -4 -2 -16q0 -18 13 -18q39 0 55 59q18 65 18 317zM252 1380q41 0 67.5 -26.5t26.5 -67.5t-25.5 -65.5t-64.5 -24.5q-41 0 -67.5 25.5t-26.5 66.5q0 39 25.5 65.5t64.5 26.5z" />
<glyph unicode="k" horiz-adv-x="960" d="M326 1280v-756q332 297 331 328q0 12 -79 12q-10 0 -43 -2h-21q-37 0 -37 17q0 18 64 18h84l75 -2h127q74 0 86.5 -2t12.5 -14q0 -10 -17.5 -13.5t-79.5 -3.5q-72 -2 -84 -10q-25 -16 -47 -37l-256 -248q264 -289 404 -456q47 -59 72 -71q21 -10 82 -10q11 0 24 1 q18 0 18 -17q0 -14 -75 -14q-72 0 -111 2q-131 4 -143 4q-39 0 -62 -2q-68 -6 -100 -6q-18 0 -19 14q0 16 39 17q98 0 99 32q0 18 -61.5 93t-282.5 321v-338v-51l2 -29q0 -16 12 -22t45 -6l55 2q27 0 27 -17q0 -18 -45 -18q-4 0 -193 4h-159q-49 0 -50 16q0 10 10.5 12.5 t69.5 4.5q49 2 52 22q4 14 4 107v1001q0 160 -2 168q-4 14 -60 15h-20q-14 -2 -33 -3q-23 0 -23 16.5t48 16.5q109 4 178 45q47 29 59 29q14 0 18.5 -30.5t4.5 -139.5z" />
<glyph unicode="l" horiz-adv-x="481" d="M293 1444l16 6q14 -53 15 -180l-2 -146l2 -641v-362q0 -61 2 -72.5t14 -15.5q6 -2 76 -4q47 0 47 -15q0 -18 -27 -18h-24q-8 2 -109 4q-31 2 -63 2q-16 0 -164 -6l-25 -2q-31 0 -31 18q0 14 23 15h53q35 2 46.5 6t11.5 18q2 12 2 160v1042q0 68 -4 74q-6 16 -33 16h-17 q-55 -2 -57 -2q-29 0 -29 19q0 14 52 18q94 2 182 45z" />
<glyph unicode="m" horiz-adv-x="1439" d="M117 799h-29q-18 -2 -39 -2q-27 0 -26 14q0 12 9 14t66 6q47 4 119 27t80 37q23 23 33 23t12 -16.5t4 -115.5q82 131 252 132q182 0 221 -138q80 137 256 138q154 0 205 -109q29 -55 29 -191v-505q0 -70 6 -76q8 -8 65 -12l37 2q23 0 23 -15q0 -16 -35 -16q-4 0 -43 2 q-41 2 -109 2q-23 0 -217 -4q-27 0 -26 14q0 16 22 17h17l51 2q31 2 36 14t5 86v508q0 119 -32 169t-108 50q-53 0 -99 -31.5t-64 -81.5q-6 -23 -9 -227v-387q0 -70 2 -78q4 -16 10.5 -20t26.5 -4h39h21q27 0 26 -17q0 -14 -30 -14h-15q-20 4 -139 4q-115 0 -192 -4h-23 q-25 0 -25 16q0 10 12.5 12.5t82.5 2.5q33 2 34 20l3 29v59v512q0 119 -30 164t-105.5 45t-126 -47t-50.5 -119v-581q2 -63 10.5 -73.5t59.5 -10.5h16q12 2 23 2q23 0 22 -17q0 -14 -26 -14h-21q-33 4 -153 4l-201 -4q-29 0 -29 16q0 14 27 15q78 0 92 8q10 4 12 24v54v479 q0 152 -6 182q-6 25 -59 25z" />
<glyph unicode="n" horiz-adv-x="1001" d="M346 879v-99q106 137 275 138q150 0 213 -109q37 -59 36 -234v-466q0 -66 7 -72q12 -12 59 -12q10 0 22 2h15q20 0 20 -15q0 -16 -30 -16h-25q-37 4 -100 4q-201 0 -238 -4h-14q-27 0 -27 14q0 10 11.5 12.5t78.5 4.5q39 2 45 11t6 66v394q0 170 -2 202.5t-14 63.5 q-33 92 -139 92q-102 0 -172 -90q-20 -27 -21 -74v-565l2 -74q2 -25 43 -26l62 -2q20 0 20 -14.5t-24 -14.5h-33q-45 4 -143 4q-127 0 -185 -4h-12q-31 0 -31 14q0 16 29 17q37 0 59 2q31 0 37 14l6 31v51v395q0 233 -6 258q-4 25 -49 25q-14 0 -49 -4h-10q-41 0 -41 14 q0 16 43 18q61 0 132.5 21.5t100.5 48.5q18 16 29 17q14 0 14 -39z" />
<glyph unicode="o" horiz-adv-x="983" d="M489 918q184 0 308.5 -136.5t124.5 -339.5q0 -199 -121 -333t-301 -134q-186 0 -311.5 134.5t-125.5 332.5q0 205 122 340.5t304 135.5zM494 887q-115 0 -179.5 -118t-64.5 -327q0 -207 68.5 -322.5t191.5 -115.5q96 0 139 72q86 131 86 368q0 223 -69 351 q-51 92 -172 92z" />
<glyph unicode="p" horiz-adv-x="1001" d="M156 647v111q-2 53 -52 53h-4q-82 4 -86 4q-18 0 -18 14q0 18 45 19h8q108 0 197 53q27 16 41 17q16 0 21 -15.5t7 -93.5q76 109 217 109q178 0 292 -130.5t114 -332.5q0 -205 -115.5 -342.5t-287.5 -137.5q-135 0 -209 99v-477q0 -45 3 -53.5t19 -14.5q31 -6 119 -6 q25 0 25 -19q0 -14 -27 -14h-39q-31 2 -100 2q-102 0 -154 -2h-109q-59 0 -59 14q0 18 25 19h61q37 0 49.5 5t14.5 21q2 14 2 189v909zM504 881q-72 0 -124 -50.5t-54 -121.5q-2 -33 -2 -100q0 -101 4 -279q4 -145 8 -175t24 -61q59 -84 154 -84q106 0 160 90q82 137 82 353 q0 250 -111 370q-51 58 -141 58z" />
<glyph unicode="q" horiz-adv-x="948" d="M672 -319v391q-88 -96 -219 -97q-164 0 -278 134.5t-114 330.5q0 205 127 341.5t320 136.5q68 0 141 -25q57 -18 82 -19q47 0 70 23q16 18 24 18q10 0 13.5 -6t3.5 -28v-201v-985v-135q0 -18 10 -25.5t39 -9.5q55 -4 69.5 -7t14.5 -14q0 -14 -27 -14q-12 0 -20 2l-246 4 q-47 0 -117 -4h-18q-20 0 -20.5 14.5t36.5 16.5q88 0 101 16q8 9 8 142zM502 885q-254 0 -254 -451q0 -199 61.5 -308.5t171.5 -109.5q57 0 107.5 33t70.5 82q14 37 15 209q0 336 -3 395.5t-24 87.5q-43 62 -145 62z" />
<glyph unicode="r" horiz-adv-x="692" d="M354 815v-41q66 143 185 144q66 0 108.5 -40t42.5 -100q0 -47 -28.5 -77.5t-73.5 -30.5q-37 0 -61.5 21.5t-24.5 53.5q0 29 18 50q18 18 19 28q0 31 -45 31q-61 0 -99 -72q-31 -51 -39 -107.5t-8 -203.5v-354v-51q2 -25 19.5 -31t103.5 -8q23 -4 23 -17q0 -14 -27 -14 q-47 0 -88 2t-156 2q-63 0 -86 -2q-31 -2 -67 -2q-33 0 -33 14.5t26 14.5h29q70 0 82 16q4 8 4 76v563q0 68 -6 93.5t-27 35.5q-37 16 -108 20q-25 0 -25 14.5t21 14.5h14q74 -6 88 -6q72 0 168 43l27 12l16 6q8 -49 8 -98z" />
<glyph unicode="s" horiz-adv-x="741" d="M614 920l-2 -86q0 -59 11 -158v-4q0 -16 -17 -17q-8 0 -12 8.5t-19 53.5q-23 74 -79 119t-129 45q-70 0 -115 -43t-45 -109q0 -57 30.5 -92t106.5 -64q135 -53 185.5 -78.5t84.5 -60.5q74 -70 74 -174q0 -119 -87 -202t-208 -83q-72 0 -164 48q-33 16 -53 16 q-31 0 -43 -39q-10 -25 -22 -25q-14 0 -15 17q0 14 2 24q6 45 6 121q0 53 -4 107v22q0 23 15 23q16 0 18 -23q14 -98 53 -147q35 -47 96.5 -77t123.5 -30q74 0 118.5 43t44.5 115q0 82 -51 127q-27 27 -51.5 38t-138.5 54q-121 47 -174.5 107.5t-53.5 150.5q0 115 78 193 t193 78q39 0 123 -25q18 -6 36 -6q43 0 54 41q6 20 18 20q14 0 14 -16q0 -6 -2 -12z" />
<glyph unicode="t" horiz-adv-x="581" d="M328 856v-379q0 -297 14 -360q12 -72 94 -72q41 0 71 14.5t81 61.5q8 10 18 10q14 0 15 -10q0 -18 -52 -66q-88 -80 -209 -80q-113 0 -170 58q-20 20 -26 57t-6 135v568v43q-2 20 -23 22h-39h-39q-45 0 -45 14q0 12 23 17q162 12 250 155q12 18 30 19q14 0 15 -14v-9 q-2 -10 -2 -34q0 -86 8 -111q18 -4 61 -4q115 0 150 10q8 2 14 2q16 0 16.5 -18.5t-33.5 -24.5t-132 -6q-29 0 -84 2z" />
<glyph unicode="u" horiz-adv-x="1003" d="M846 893v-571q0 -147 6 -186.5t33 -45.5q20 -6 114 -6q25 0 25 -14q0 -10 -8 -13.5t-37 -3.5q-109 -8 -158 -21.5t-123 -47.5q-8 -4 -14 -4q-12 0 -12 16l2 98v17q-96 -135 -264 -136q-152 0 -217 88q-27 37 -32 68t-5 166v469q0 70 -8.5 82t-55.5 16l-26 -2 q-55 0 -56 17q0 14 35 14q23 0 107 -4q20 -2 41 -2q72 0 133 6v-571q0 -156 20 -209q33 -80 133 -80q49 0 93 24.5t67 65.5q37 61 37 209v317q0 72 -2 105l-4 67q-2 27 -12.5 34t-47.5 7h-15q-71 0 -71 19q0 12 43 12h19q16 -2 108 -2q123 0 152 2z" />
<glyph unicode="v" horiz-adv-x="786" d="M352 893h10q20 0 21 -14q0 -16 -66 -17q-61 0 -61 -16q0 -20 18 -68q27 -61 127 -352q43 -123 68 -184l102 313q90 268 91 291q0 18 -31 18q-16 0 -27 -2h-18q-27 0 -27 17q0 14 25 14l127 -2l77 2q61 0 62 -14q0 -16 -39 -17q-14 0 -37 2h-12q-31 0 -45.5 -20.5 t-36.5 -102.5l-172 -528q-29 -82 -41 -125q-23 -78 -31 -95.5t-22.5 -17.5t-28.5 39q-20 51 -20 56l-99 256q-72 188 -69 190q-106 303 -129 330q-16 16 -58 16l-47 -2q-20 0 -20 16.5t28 16.5l144 -4q180 0 237 4z" />
<glyph unicode="w" horiz-adv-x="1226" d="M1225 864h-17q-33 0 -41 -20q-20 -45 -84 -256q-16 -47 -63 -205q-66 -209 -102 -340q-18 -70 -35 -70q-14 0 -35 50.5t-111 293.5l-67 185q-29 74 -47 133q-90 -252 -207 -637q-10 -25 -25 -25q-16 0 -29 31q-8 31 -24 70l-49 131q-29 72 -80 241l-21 63l-23 75l-22 65 q-57 176 -88 205q-18 8 -69 8q-29 0 -37 3t-8 16q0 14 22 14h17q31 -2 219 -2q86 0 110 2h25q29 0 28 -16q0 -18 -20 -19l-51 2q-49 0 -49 -20q0 -18 39 -129l159 -484l160 494q18 45 33 98q25 78 43 78q23 0 43 -72q53 -168 160 -462l47 -136q184 604 184 619q0 16 -25 16 q-23 0 -59 -2q-23 0 -22.5 16.5t28.5 16.5h21q52 -2 105.5 -2t109.5 2q25 0 24.5 -16.5t-30.5 -16.5q-23 0 -37 2z" />
<glyph unicode="x" horiz-adv-x="862" d="M455 565l8 -16q61 84 123.5 185.5t62.5 117.5q0 14 -49 10l-43 -2q-14 0 -14 16.5t26 16.5q33 0 70 -4l41 -2q84 4 111 6h22q14 2 21 2q25 0 24 -12q0 -20 -67 -21q-59 0 -76 -16q-16 -14 -41 -51l-39 -66q-33 -47 -78 -121l-59 -88l-9 -12l35 -59q57 -98 84 -152 l113 -195q27 -45 51.5 -57t83.5 -14q57 0 57 -16.5t-36 -16.5q-20 0 -54 2l-202 2q-96 0 -123 -2q-43 -2 -60 -2q-37 0 -37 16q0 12 12.5 14.5t88.5 2.5q39 0 48 3t9 15t-20 49q-29 49 -41 76q-43 76 -47 82q-12 23 -37 63q-10 14 -27 43l-12 21l-139 -211 q-72 -113 -72 -123q0 -12 18.5 -15t96.5 -5q20 0 20 -15q0 -18 -35 -18q-23 0 -45 2q-43 2 -84 2h-18l-54 -2l-40 2q-27 -2 -33 -2q-23 0 -23 16.5t45 18.5q70 2 109 49q2 4 16 24l23 33l131 199l57 84q-35 57 -176 330q-41 80 -62.5 94t-103.5 16q-31 0 -31 15q0 16 29 16 l232 -4q41 0 90 2q29 2 100 2q53 0 53 -16.5t-71 -18.5q-55 0 -73 -4t-18 -18q1 -33 138 -271z" />
<glyph unicode="y" horiz-adv-x="821" d="M332 616l35 -102l75 -205q39 -100 45 -119q197 616 197 648q0 18 -15.5 22t-86.5 4q-20 0 -21 17q0 14 25 14q10 0 16 -2q70 -4 115 -4h57q37 0 45 2q14 2 31 2q18 0 18 -14q0 -10 -7 -13.5t-40 -3.5q-53 -4 -66.5 -10t-21.5 -33l-14 -37l-17 -51l-86 -280 q-156 -504 -268 -807q-35 -94 -77 -134t-103 -40q-49 0 -81 28.5t-32 73.5q0 39 25.5 63.5t66.5 24.5q55 0 80 -45q14 -25 18.5 -30t12.5 -5q14 0 22.5 15.5t34.5 85.5q53 135 91 268l-259 694q-70 203 -81 205q-12 10 -68 10q-53 0 -53 21q0 16 26 16q6 0 76 -4 q18 -2 66 -2q23 0 155 4l94 2h11q23 0 22 -16q0 -10 -9 -12.5t-67 -4.5q-41 -2 -52 -5t-11 -15q0 -14 41 -127q25 -66 35 -99z" />
<glyph unicode="z" horiz-adv-x="808" d="M104 -6h-6q-55 0 -55 16q0 2 6 13q43 76 51 88l84 149l117 195l143 241l97 164q-45 6 -129 6q-131 0 -184.5 -48t-84.5 -191q-6 -25 -26 -25q-16 0 -17 16q0 12 2 20.5t4.5 23l4.5 25.5t4 20q23 141 41 196q143 -6 542 -6h27q2 -4 2 -10q0 -23 -106 -205l-390 -649 q55 -2 134 -2q133 0 200.5 20.5t98.5 69.5q43 72 65 172q6 18 25 18q14 0 14 -18q0 -14 -8 -45q-41 -174 -47 -250l-289 2q-220 0 -320 -6z" />
<glyph unicode="{" horiz-adv-x="624" d="M496 -264l49 2q37 0 37 -19q0 -20 -58 -20q-80 0 -129 18q-86 29 -137 110t-51 185q0 45 6 142q4 90 4 133q0 139 -47 192q-45 49 -104 53q-29 4 -37.5 9.5t-8.5 19.5t7.5 18.5t38.5 8.5q86 14 122 78q31 59 31 186q0 57 -6 141q-6 72 -6 119q0 102 55 186t139 111 q45 14 142 14q43 0 43 -18q0 -12 -10.5 -15.5t-55.5 -3.5q-47 0 -69.5 -9t-40.5 -36q-33 -45 -33 -151q0 -29 4 -131q4 -94 4 -115q0 -115 -28.5 -186.5t-98.5 -128.5q-59 -49 -125 -60q-10 -2 -10 -8q0 -8 12 -8q49 -4 109 -49q141 -111 141 -297q0 -55 -6 -164 q-2 -35 -2 -102q0 -211 119 -205z" />
<glyph unicode="|" horiz-adv-x="1064" d="M473 1536h117v-2048h-117v2048z" />
<glyph unicode="}" horiz-adv-x="624" d="M125 1386l-47 -2q-37 0 -37 19q0 20 53 20q82 0 133 -18q88 -29 138.5 -108.5t50.5 -188.5q0 -51 -6 -139q-4 -94 -4 -135q0 -137 47 -191q49 -49 102 -53q31 -2 39 -8.5t8 -20.5t-7 -18t-38 -8q-37 -4 -71.5 -27t-49.5 -51q-31 -53 -30 -187q0 -61 6 -139q4 -98 4 -119 q0 -104 -55.5 -188t-139.5 -111q-43 -14 -141 -14q-45 0 -45 18q0 12 11 15.5t56 3.5q47 0 70 9t41 36q33 49 33 156q0 25 -4 126q-4 90 -4 113q0 117 28.5 188.5t95.5 129.5q61 49 127 59q10 4 11 8q0 8 -13 8q-53 4 -108 49q-141 111 -141 300q0 57 6 161q2 37 2 105 q0 202 -121 202z" />
<glyph unicode="~" horiz-adv-x="1394" d="M1143 784q-51 -94 -131 -149t-158 -55q-39 0 -197 51q-117 39 -184 39q-55 0 -92 -23.5t-100 -99.5l-31 20q127 207 293 207q61 0 192 -47q113 -39 166 -39q117 0 211 115z" />
<glyph unicode="&#xa1;" horiz-adv-x="729" d="M258 -420l-10 21q94 541 88 913q0 45 26 45q29 0 27 -51q2 -389 90 -909q-43 -86 -65.5 -114t-49 -28t-43 18.5t-63.5 104.5zM362 920q45 0 77 -33t32 -80q0 -45 -31.5 -76t-79.5 -31q-45 0 -76.5 32t-31.5 79q0 45 31.5 77t78.5 32z" />
<glyph unicode="&#xa2;" horiz-adv-x="1042" d="M971 1239l-113 -178q20 -14 35.5 -45t15.5 -58q0 -39 -24.5 -64.5t-59.5 -25.5q-45 0 -71 39l-334 -514q76 -131 209 -131q63 0 125.5 38t95.5 97q14 23 29 23q18 0 18 -14q0 -25 -59 -93q-100 -106 -234 -106q-143 0 -256 84l-172 -266q-23 -37 -37 -37q-27 0 -26 26 q0 8 20 41l170 264q-141 158 -141 353q0 201 128 340t312 139q119 0 215 -55l111 166q16 25 22 36q14 25 31 25q25 0 25 -23q0 -8 -35 -61zM395 449l371 585q-37 90 -148 90q-123 0 -190.5 -104.5t-67.5 -296.5q0 -184 35 -274z" />
<glyph unicode="&#xa3;" horiz-adv-x="1056" d="M459 610h336q31 0 40 -4t9 -18q0 -29 -51 -29h-326v-24q0 -199 -211 -385q-8 -8 -8 -13q0 -6 6 -6q8 0 25 12q98 72 215 72q82 0 192 -47q129 -53 172 -53q68 0 94 90q8 29 11 90q2 41 26 41q27 0 27 -45q0 -145 -43 -215q-27 -47 -81 -79t-110 -32q-80 0 -258 76 q-137 59 -231 59q-57 0 -94 -20.5t-84 -81.5q-20 -23 -33 -23q-14 0 -34.5 25t-20.5 43q0 14 22 20q121 33 186.5 123t65.5 222q0 72 -25 151h-141h-49q-39 0 -39 25q0 27 43 26h168q-57 217 -57 328q0 197 109.5 315.5t289.5 118.5q152 0 247 -81t95 -210q0 -70 -39 -113.5 t-98 -43.5q-53 0 -84 28.5t-31 77.5q0 53 45 86q27 18 99 25q29 0 28 24q0 37 -43 84q-57 63 -170 64q-119 0 -188.5 -87t-69.5 -233q0 -143 68 -383z" />
<glyph unicode="&#xa4;" horiz-adv-x="1243" d="M158 1419l207 -207q127 90 256 91q133 0 260 -91l204 207l72 -73l-205 -205q86 -123 86 -256t-86 -256l205 -205l-72 -74l-204 207q-123 -88 -260 -88q-133 0 -256 88l-207 -207l-72 74l207 205q-88 123 -88 256t88 256l-207 205zM618 1200q-127 0 -219 -92t-92 -221 q0 -131 92.5 -223.5t223.5 -92.5q129 0 221 92.5t92 223.5t-92.5 222t-225.5 91z" />
<glyph unicode="&#xa5;" horiz-adv-x="1144" d="M686 465v-338q0 -59 16.5 -73.5t98.5 -16.5q74 -4 73.5 -20.5t-26.5 -16.5h-21l-57 2l-72 2l-161 2q-6 0 -28 -1t-64 -2t-87 -1q-12 -2 -28 -2q-27 0 -27 18q0 16 41 19q111 4 129 16q23 12 23 39l2 55v74v244h-346q-41 0 -41 24q0 16 10 20.5t47 4.5h330v45 q-35 82 -86 178h-260q-41 0 -41 25q0 16 10 20t47 4h219q-78 162 -125 252l-65 131q-53 113 -68 125q-20 18 -139 21q-31 0 -31 20q0 16 37 17q4 0 20.5 -1t53 -2t82.5 -1q33 -2 94 -2q53 0 237 2q14 2 33 2q37 0 37 -18.5t-35 -18.5h-43q-113 0 -113 -41q0 -35 119 -264 l174 -334l168 336q115 231 115 266q0 16 -10 22.5t-41 10.5q-35 6 -78 6q-43 -4 -43 18q0 10 14.5 13.5t75.5 3.5h59q195 0 234 -2t39 -17q0 -16 -29 -16q-74 -4 -95.5 -10.5t-43.5 -26.5q-12 -12 -41 -68l-57 -120l-72 -152l-29 -60l-20 -43q-6 -13 -14 -27l-11 -22h219 q37 0 37 -26q0 -23 -53 -23h-227l-15 -30q-37 -72 -44 -95.5t-7 -85.5v-12h309q37 0 37 -27q0 -23 -53 -22h-293z" />
<glyph unicode="&#xa6;" horiz-adv-x="1064" d="M473 1382h117v-716h-117v716zM473 358h117v-716h-117v716z" />
<glyph unicode="&#xa7;" d="M764 285q47 -63 65.5 -113.5t18.5 -120.5q0 -152 -99.5 -254t-246.5 -102q-121 0 -199 66.5t-78 166.5q0 68 37 108t98 40q45 0 79 -31t34 -72q0 -43 -32.5 -63.5t-108.5 -24.5q-45 -2 -45 -20q0 -51 66.5 -93t148.5 -42q96 0 147 59t51 168q0 100 -43 170t-159 158 q-115 84 -153 116.5t-69 71.5q-61 80 -61 191q0 137 119 280q-70 92 -70 195q0 139 89 224t235 85q119 0 193.5 -62.5t74.5 -162.5q0 -57 -29.5 -91t-83.5 -34q-47 0 -76.5 25.5t-29.5 66.5q0 47 26.5 65.5t104.5 22.5q18 0 18 16q0 45 -59 81t-133 36q-86 0 -137 -51 t-51 -137q0 -82 47 -146.5t174 -156.5q143 -106 190 -181q61 -96 62 -180q0 -149 -115 -274zM360 915l-8 -10q-49 -70 -49 -139q0 -88 105 -184q51 -45 221 -181l106 -90q68 78 68 138q0 119 -203 270l-117 90q-4 2 -123 106z" />
<glyph unicode="&#xa8;" horiz-adv-x="1026" d="M336 1247q39 0 68.5 -30.5t29.5 -71.5q0 -39 -29.5 -67.5t-70.5 -28.5t-69.5 28.5t-28.5 69.5q0 43 28.5 71.5t71.5 28.5zM692 1247q41 0 67.5 -29.5t26.5 -74.5q0 -39 -27.5 -65.5t-68.5 -26.5q-43 0 -71.5 27.5t-28.5 68.5t29.5 70.5t72.5 29.5z" />
<glyph unicode="&#xa9;" horiz-adv-x="1644" d="M836 1444q295 0 509 -217t214 -516q0 -305 -215.5 -520.5t-520.5 -215.5q-307 0 -521 215.5t-214 524.5q0 303 218.5 516t529.5 213zM813 1382q-264 0 -456.5 -199.5t-192.5 -471.5q0 -279 192.5 -476.5t467 -197.5t467 197.5t192.5 480.5q0 279 -195.5 473t-474.5 194z M1163 315v-12q0 -23 -16 -22q-12 0 -43 57q-8 16 -12 27q-76 -92 -220 -93q-199 0 -327.5 126t-128.5 319q0 190 118.5 313t305.5 123q66 0 106.5 -12.5t100.5 -48.5q31 -18 38 -19q12 0 19 21q10 29 16 37t17 8q14 0 14 -15q0 -8 -2 -20q-14 -72 -14 -223q0 -29 -21 -29 q-16 0 -22 27q-27 131 -80.5 184t-157.5 53q-123 0 -192.5 -107.5t-69.5 -296t76.5 -296t210.5 -107.5q96 0 161.5 64.5t85.5 181.5q6 33 23 33q18 0 18 -25q0 -10 -2 -33q-6 -104 -6 -135q0 -29 4 -80z" />
<glyph unicode="&#xaa;" horiz-adv-x="737" d="M553 938v-225q2 -74 6 -88.5t27 -14.5q20 0 51 25q14 12 27 12q14 0 14 -12q0 -23 -49 -47.5t-97 -24.5q-92 0 -92 84q-41 -51 -73.5 -69.5t-77.5 -18.5q-61 0 -100 32t-39 83q0 78 75.5 131t210.5 69v25q0 104 -10 137q-16 59 -92 60q-49 0 -76 -27q-25 -29 -25 -43 q0 -8 11 -8q55 -6 55 -53q0 -27 -19.5 -43.5t-48.5 -16.5q-35 0 -57 20.5t-22 53.5q0 66 57 106.5t149 40.5q115 0 166 -51q29 -31 29 -137zM436 762v80q-94 -20 -131 -50t-37 -83q0 -35 20.5 -58.5t53.5 -23.5q98 0 94 129v6z" />
<glyph unicode="&#xab;" horiz-adv-x="854" d="M238 463q129 -188 174 -268q2 -4 12 -21.5t16 -26.5q8 -14 9 -22q0 -14 -13 -14q-10 0 -20 12l-301 285q-14 12 -15 26q0 51 3 63.5t24 26.5q168 162 268 281q18 25 33 24q16 0 16 -16q1 -39 -206 -350zM743 195l29 -45q8 -14 8 -25q0 -12 -12 -12q-10 0 -20 12 q-195 188 -302 283q-14 14 -14 26q0 53 3 64.5t24 27.5q160 143 268 279q18 25 33 24q16 0 16 -18q0 -41 -205 -348q129 -192 172 -268z" />
<glyph unicode="&#xac;" d="M971 782v-452h-131v379h-719v73h850z" />
<glyph unicode="&#xad;" horiz-adv-x="624" d="M594 512v-106h-563v106h563z" />
<glyph unicode="&#xae;" horiz-adv-x="1644" d="M836 1444q295 0 509 -217t214 -516q0 -305 -215.5 -520.5t-520.5 -215.5q-307 0 -521 215.5t-214 524.5q0 303 218.5 516t529.5 213zM813 1382q-264 0 -456.5 -199.5t-192.5 -471.5q0 -279 192.5 -476.5t467 -197.5t467 197.5t192.5 480.5q0 279 -195.5 473t-474.5 194z M715 727v-332q0 -43 1 -51t11 -10q18 -8 78 -8q27 0 26.5 -16.5t-32.5 -16.5h-15q-20 2 -133 2q-53 0 -104 -2h-49q-39 0 -39 16.5t43 16.5q47 0 56 7t9 48v668q0 45 -8 54t-49 9h-10q-6 -2 -15 -2q-27 0 -26.5 18.5t26.5 18.5h17q25 -4 162 -4h77q29 2 72 2 q125 0 198.5 -52.5t73.5 -140.5q0 -106 -104 -161q-37 -20 -66.5 -27.5t-101.5 -13.5q-10 0 -10 -7q0 -4 10 -4q133 -12 189.5 -83.5t70.5 -245.5q12 -96 62 -97q10 0 10 4q0 2 -2 5q-4 12 -4 16q0 35 35 35q39 0 38 -37q0 -57 -98 -57q-100 0 -164 79q-27 33 -34 66 t-21 164q-8 76 -47 105.5t-133 33.5zM715 1044v-280q111 0 161 43t50 137q0 164 -150 164q-39 0 -50 -8t-11 -35v-21z" />
<glyph unicode="&#xaf;" horiz-adv-x="1026" d="M756 1198v-100h-486v100h486z" />
<glyph unicode="&#xb0;" d="M546.5 1444q106.5 0 179.5 -72t73 -178q0 -104 -74 -175t-184 -71q-102 0 -174 73t-72 173q0 106 72.5 178t179 72zM545 1366q-63 0 -108.5 -50t-45.5 -122t46 -120t113.5 -48t112 48t44.5 124q0 72 -46 120t-116 48z" />
<glyph unicode="&#xb1;" d="M584 725h387v-74h-387v-381h-74v381h-389v74h389v379h74v-379zM971 98v-73h-850v73h850z" />
<glyph unicode="&#xb2;" horiz-adv-x="724" d="M641 586l-2 -21q-172 6 -242 6l-334 -4q-23 0 -22 17q0 8 10 17t62 50q201 150 272.5 256.5t71.5 253.5q0 227 -160 228q-57 0 -99 -30t-42 -71q0 -16 22 -16q39 0 64.5 -22.5t25.5 -57.5q0 -74 -80 -74q-49 0 -77.5 30t-28.5 81q0 92 69.5 148.5t184.5 56.5 q125 0 200.5 -75t75.5 -196q0 -133 -91 -242.5t-310 -242.5q76 0 195 2q115 0 143.5 4t44.5 21q8 14 24 96q6 27 27 26.5t21 -20.5q0 -10 -11 -68l-10 -92z" />
<glyph unicode="&#xb3;" horiz-adv-x="724" d="M379 1040v-8q127 -12 190 -63q72 -55 72 -158q0 -109 -97.5 -182.5t-242.5 -73.5q-102 0 -163.5 37t-61.5 100q0 41 25.5 64.5t68.5 23.5q37 0 60.5 -19.5t23.5 -51.5q0 -49 -59 -72q-14 -6 -15 -12q0 -14 31 -24.5t70 -10.5q94 0 151 61.5t57 157.5q0 92 -47 145.5 t-129 53.5q-18 0 -39 -2h-8q-29 0 -28.5 16t41.5 20q180 29 180 185q0 76 -40 120t-108 44q-47 0 -84 -18.5t-37 -41.5q0 -14 35 -22q53 -12 54 -62q0 -31 -18.5 -49t-51.5 -18q-45 0 -72.5 25.5t-27.5 68.5q0 72 65.5 116t171.5 44q117 0 188.5 -56.5t71.5 -146.5 q0 -80 -59 -130.5t-168 -60.5z" />
<glyph unicode="&#xb4;" horiz-adv-x="1026" d="M573 1360h68q23 0 100 -2h37l-186 -195q-123 -129 -143 -129q-12 0 -13 10q0 4 4 13q37 82 68 160z" />
<glyph unicode="&#xb5;" horiz-adv-x="1003" d="M674 94v17q-96 -135 -260 -136q-117 0 -172 78q2 -25 7 -70.5t7 -66.5q6 -31 12 -106l17 -105q4 -41 4 -51q0 -47 -35 -103.5t-64 -56.5q-33 0 -65.5 56.5t-32.5 109.5q0 18 23 168q41 291 41 469v469q0 70 -8.5 82t-55.5 16l-26 -2q-55 0 -56 17q0 14 35 14q23 0 107 -4 q20 -2 41 -2q72 0 133 6v-571q0 -156 20 -209q33 -80 133 -80q49 0 93 24.5t67 65.5q37 61 37 209v317q0 72 -2 105l-4 67q-2 27 -12.5 34t-47.5 7q-86 -2 -86 19q0 12 43 12h19q16 -2 108 -2q123 0 152 2v-571q0 -147 6 -186.5t33 -45.5q20 -6 114 -6q25 0 25 -14 q0 -10 -8 -13.5t-37 -3.5q-109 -8 -158 -21.5t-123 -47.5q-8 -4 -14 -4q-12 0 -12 16z" />
<glyph unicode="&#xb6;" d="M612 125v633q-217 2 -329 73q-160 96 -160 273q0 102 47 177t131 105q96 37 311 37h396q47 0 47 -20q0 -10 -9.5 -13.5t-46.5 -3.5q-84 -2 -105.5 -8t-31.5 -24q-4 -12 -4 -74v-842q0 -279 -18.5 -383t-83.5 -188q-137 -182 -357 -182q-115 0 -189.5 52t-74.5 132 q0 53 36 89t91 36q49 0 79 -25.5t30 -70.5q0 -66 -101 -95q-27 -8 -26 -22q0 -23 48 -41.5t103 -18.5q125 0 174 97q43 80 43 307zM575 -227l11 -13q61 41 113.5 109t70.5 131q20 66 25.5 184.5t5.5 487.5v710h-133v-1042q0 -307 -18 -412.5t-75 -154.5z" />
<glyph unicode="&#xb7;" horiz-adv-x="530" d="M266 575q45 0 77 -31.5t32 -78.5t-32 -79t-79 -32t-78.5 33t-31.5 80q0 45 32.5 76.5t79.5 31.5z" />
<glyph unicode="&#xb8;" horiz-adv-x="1026" d="M485 8h43v-71q82 0 136.5 -44.5t54.5 -109.5q0 -70 -56.5 -119t-138.5 -49q-45 0 -98 25.5t-53 48.5q0 12 14 12q8 0 31 -16q27 -23 67.5 -23t72.5 45t32 105q0 43 -21.5 70.5t-54.5 27.5q-18 0 -29 -2v100z" />
<glyph unicode="&#xb9;" horiz-adv-x="724" d="M451 1378v-721v-36q2 -18 24 -19q100 0 100 -18q0 -16 -36 -17h-17q-31 2 -78 2h-47q-92 0 -137 -2h-39q-41 0 -41 19q0 16 27 16h61q33 0 35 14q0 8 2 74v567q0 35 -1 41.5t-9 6.5q-4 0 -84 -7h-21q-27 0 -26.5 14.5t24.5 16.5q127 16 222 101q16 12 22 12 q14 0 16.5 -8.5t2.5 -55.5z" />
<glyph unicode="&#xba;" horiz-adv-x="737" d="M367 1126q121 0 201.5 -81.5t80.5 -202.5t-78.5 -202t-197.5 -81q-121 0 -203 81t-82 200q0 123 80 204.5t199 81.5zM369 1096q-66 0 -105 -67.5t-39 -186.5t41 -186.5t113 -67.5q63 0 98 66.5t35 185.5q0 256 -143 256z" />
<glyph unicode="&#xbb;" horiz-adv-x="854" d="M285 477q-119 174 -172 268q-6 8 -16.5 25.5t-12.5 22.5q-8 16 -8 22q0 12 12 12q10 0 21 -12q193 -188 299 -283q14 -14 14 -26q0 -51 -3 -63.5t-24 -28.5q-41 -37 -138 -138.5t-130 -140.5q-18 -25 -33 -24q-16 0 -16 18q0 37 207 348zM618 477q-123 178 -176 268 q-2 2 -11 19.5l-15 28.5q-8 16 -8 22q0 12 12 12q10 0 20 -12q203 -197 301 -283q14 -14 15 -26q0 -51 -3 -63.5t-24 -28.5q-53 -49 -145 -144.5t-123 -134.5q-18 -25 -33 -24q-16 0 -16 16q-1 41 206 350z" />
<glyph unicode="&#xbc;" horiz-adv-x="1726" d="M426 1378v-721v-36q2 -18 25 -19q100 0 100 -18q0 -16 -37 -17h-16q-31 2 -78 2h-47q-92 0 -137 -2h-39q-41 0 -41 19q0 16 26 16h62q33 0 35 14q0 8 2 74v567q0 35 -1 41.5t-10 6.5q-4 0 -84 -7h-20q-27 0 -27 14.5t25 16.5q127 16 221 101q16 12 23 12q14 0 16 -8.5 t2 -55.5zM1290 1419l-774 -1419h-80l774 1419h80zM1473 233v-143q0 -37 3 -45t19 -10q4 0 82 -2q27 0 27 -17q0 -10 -10.5 -13t-51.5 -3h-135q-76 -2 -154 -2q-16 -2 -30 -2q-35 0 -35 18.5t47 18.5q43 -4 80 4q14 4 14 51v141h-102q-170 0 -213 4.5t-43 18.5q0 8 192 252 l150 196q29 43 86 115q25 33 33 40t18 7q23 0 23 -28v-39v-525q23 2 57 2q25 2 29 10.5t4 61.5q0 51 22.5 51t22.5 -28l-2 -45q0 -129 6 -164v-17q0 -20 -19 -20q-16 0 -19 9t-9 67q-2 31 -21 32q-24 4 -71 4zM1329 270v19v63q0 57 2 109q2 47 6 207l-188 -260l-94 -123 l-11 -13q59 -2 150 -2h59h76z" />
<glyph unicode="&#xbd;" horiz-adv-x="1726" d="M414 1378v-721v-36q2 -18 24 -19q100 0 101 -18q0 -16 -37 -17h-17q-31 2 -77 2h-48q-92 0 -137 -2h-39q-41 0 -41 19q0 16 27 16h61q33 0 35 14q0 8 2 74v567q0 35 -1 41.5t-9 6.5q-4 0 -84 -7h-20q-27 0 -27 14.5t25 16.5q127 16 221 101q16 12 22 12q14 0 16.5 -8.5 t2.5 -55.5zM1229 1419l-774 -1419h-80l774 1419h80zM1606 16l-2 -20q-129 6 -244 6l-332 -4q-23 0 -22 16q0 8 26 33q182 139 236 195q154 156 153 350q0 227 -159 227q-59 0 -100.5 -29.5t-41.5 -70.5q0 -16 23 -17q39 0 64.5 -22.5t25.5 -56.5q0 -74 -80 -74 q-47 0 -76.5 29.5t-29.5 80.5q0 92 69.5 148.5t183.5 56.5q125 0 201 -74.5t76 -195.5q0 -133 -89 -240.5t-312 -244.5l73 2h121q117 0 144.5 4t44.5 20q6 8 24 96q6 27 26.5 27t20.5 -20q0 -6 -10 -68q-6 -33 -10 -90z" />
<glyph unicode="&#xbe;" horiz-adv-x="1726" d="M416 1040v-8q127 -12 190 -63q72 -55 72 -158q0 -109 -97.5 -182.5t-242.5 -73.5q-102 0 -163.5 37t-61.5 100q0 41 25.5 64.5t68.5 23.5q37 0 60.5 -19.5t23.5 -51.5q0 -49 -60 -72q-14 -6 -14 -12q0 -14 31 -24.5t69 -10.5q94 0 151.5 61.5t57.5 157.5q0 92 -47 145.5 t-129 53.5q-18 0 -39 -2h-8q-29 0 -29 16t41 20q180 29 181 185q0 76 -40 120t-108 44q-47 0 -84 -18.5t-37 -41.5q0 -14 35 -22q53 -12 53 -62q0 -31 -18 -49t-51 -18q-45 0 -73 25.5t-28 68.5q0 72 65.5 116t172.5 44q117 0 188.5 -56.5t71.5 -146.5q0 -80 -59 -130.5 t-168 -60.5zM1352 1419l-774 -1419h-80l774 1419h80zM1497 233v-143q0 -37 3 -44t20 -11q4 0 82 -2q27 0 26 -19q0 -14 -61 -14h-135q-76 -2 -154 -2q-16 -2 -31 -2q-35 0 -35 18.5t48 18.5q43 -4 79 4q14 4 15 51v141h-103q-170 0 -213 4.5t-43 18.5q0 8 195 252l164 219 q68 92 88 115.5t33 23.5q14 0 18 -7t4 -30v-14v-16v-525q23 2 57 2q20 0 26.5 8.5t6.5 38.5q0 51 4 63.5t19 12.5q23 0 22 -28l-2 -52q0 -96 6 -157v-15q0 -23 -18 -22q-23 0 -25 39q-2 59 -12 65q-8 8 -84 8zM1354 270v19v63q0 59 2 108.5t6 207.5l-150 -207l-59 -82 l-74 -94l-10 -13q59 -2 150 -2h59h76z" />
<glyph unicode="&#xbf;" horiz-adv-x="845" d="M502 559q23 0 43 -59.5t20 -122.5q0 -84 -32.5 -154.5t-120.5 -183.5q-74 -94 -101.5 -157.5t-27.5 -135.5q0 -111 59 -176.5t160 -65.5q96 0 159.5 67t63.5 167q0 25 -4 24q-2 0 -14 -20q-23 -41 -78 -41q-41 0 -66.5 25.5t-25.5 70.5q0 43 29.5 70t76.5 27 q63 0 101 -41t38 -113q0 -125 -92 -205t-235 -80q-160 0 -257.5 88t-97.5 232q0 102 56 200q29 47 59.5 79t144.5 130q82 72 116 123t34 105q0 29 -23 110q-2 6 -2 21q1 16 17 16zM502 922q45 0 76.5 -33t31.5 -80q0 -45 -32.5 -77t-77.5 -32q-47 0 -79 32t-32 79t33 79 t80 32z" />
<glyph unicode="&#xc0;" horiz-adv-x="1232" d="M780 457h-438q-123 -328 -123 -377q0 -29 25 -35q14 -4 102 -8q59 -2 60 -21q0 -20 -54 -20q-63 0 -219 8q-16 2 -63 2q-27 0 -64 -4q-10 -2 -26 -2q-29 0 -29 18.5t61 20.5q66 4 94.5 20.5t47.5 65.5l430 1210q4 25 16 56l10 36q6 23 17 23q8 0 10 -12q29 -86 121 -334 l366 -998q14 -45 40 -56t108 -15q53 0 53 -21q0 -18 -31 -18q-20 0 -37 2l-260 4l-260 -4q-14 -2 -30 -2q-41 0 -41 20.5t55 22.5q180 0 180 37q0 4 -4 16l-16 55l-11 29q-24 82 -90 281zM569 504h199l-109 305l-98 281q-86 -225 -207 -586h35h180zM545 1878l65 -141l19 -41 q6 -16 22 -54l17 -36l12 -29q4 -8 4 -12q0 -10 -12 -11q-10 0 -28.5 16.5t-115.5 112.5l-186 193l35 2l59 2h43q37 0 66 -2z" />
<glyph unicode="&#xc1;" horiz-adv-x="1232" d="M780 457h-438q-123 -328 -123 -377q0 -29 25 -35q14 -4 102 -8q59 -2 60 -21q0 -20 -54 -20q-63 0 -219 8q-16 2 -63 2q-27 0 -64 -4q-10 -2 -26 -2q-29 0 -29 18.5t61 20.5q66 4 94.5 20.5t47.5 65.5l430 1210q4 25 16 56l10 36q6 23 17 23q8 0 10 -12q29 -86 121 -334 l366 -998q14 -45 40 -56t108 -15q53 0 53 -21q0 -18 -31 -18q-20 0 -37 2l-260 4l-260 -4q-14 -2 -30 -2q-41 0 -41 20.5t55 22.5q180 0 180 37q0 4 -4 16l-16 55l-11 29q-24 82 -90 281zM569 504h199l-109 305l-98 281q-86 -225 -207 -586h35h180zM631 1737l65 141 q31 2 68 2q27 0 100 -2l37 -2l-186 -193q-123 -129 -144 -129q-12 0 -12 11q0 4 4 12q37 82 68 160z" />
<glyph unicode="&#xc2;" horiz-adv-x="1232" d="M780 457h-438q-123 -328 -123 -377q0 -29 25 -35q14 -4 102 -8q59 -2 60 -21q0 -20 -54 -20q-63 0 -219 8q-16 2 -63 2q-27 0 -64 -4q-10 -2 -26 -2q-29 0 -29 18.5t61 20.5q66 4 94.5 20.5t47.5 65.5l430 1210q4 25 16 56l10 36q6 23 17 23q8 0 10 -12q29 -86 121 -334 l366 -998q14 -45 40 -56t108 -15q53 0 53 -21q0 -18 -31 -18q-20 0 -37 2l-260 4l-260 -4q-14 -2 -30 -2q-41 0 -41 20.5t55 22.5q180 0 180 37q0 4 -4 16l-16 55l-11 29q-24 82 -90 281zM569 504h199l-109 305l-98 281q-86 -225 -207 -586h35h180zM883 1544h-135 q-72 68 -150 225q-45 -92 -99.5 -161.5t-82.5 -69.5q-18 0 -19 14q0 6 13 19q88 86 174 266q23 49 30 60.5t21 11.5q12 0 20.5 -10.5t34.5 -63.5q80 -154 193 -291z" />
<glyph unicode="&#xc3;" horiz-adv-x="1232" d="M780 457h-438q-123 -328 -123 -377q0 -29 25 -35q14 -4 102 -8q59 -2 60 -21q0 -20 -54 -20q-63 0 -219 8q-16 2 -63 2q-27 0 -64 -4q-10 -2 -26 -2q-29 0 -29 18.5t61 20.5q66 4 94.5 20.5t47.5 65.5l430 1210q4 25 16 56l10 36q6 23 17 23q8 0 10 -12q29 -86 121 -334 l366 -998q14 -45 40 -56t108 -15q53 0 53 -21q0 -18 -31 -18q-20 0 -37 2l-260 4l-260 -4q-14 -2 -30 -2q-41 0 -41 20.5t55 22.5q180 0 180 37q0 4 -4 16l-16 55l-11 29q-24 82 -90 281zM569 504h199l-109 305l-98 281q-86 -225 -207 -586h35h180zM903 1772q18 0 19 -17 q0 -14 -14.5 -54t-26.5 -61q-45 -70 -123 -69q-47 0 -187 71q-125 66 -149 66q-14 0 -27.5 -13.5t-13.5 -29.5q0 -23 31 -55q10 -10 10 -17q0 -16 -20.5 -16t-41 26.5t-20.5 53.5q0 55 44 95t105 40q70 0 191 -63q119 -63 149 -64q27 0 45 72q13 35 29 35z" />
<glyph unicode="&#xc4;" horiz-adv-x="1232" d="M780 457h-438q-123 -328 -123 -377q0 -29 25 -35q14 -4 102 -8q59 -2 60 -21q0 -20 -54 -20q-63 0 -219 8q-16 2 -63 2q-27 0 -64 -4q-10 -2 -26 -2q-29 0 -29 18.5t61 20.5q66 4 94.5 20.5t47.5 65.5l430 1210q4 25 16 56l10 36q6 23 17 23q8 0 10 -12q29 -86 121 -334 l366 -998q14 -45 40 -56t108 -15q53 0 53 -21q0 -18 -31 -18q-20 0 -37 2l-260 4l-260 -4q-14 -2 -30 -2q-41 0 -41 20.5t55 22.5q180 0 180 37q0 4 -4 16l-16 55l-11 29q-24 82 -90 281zM569 504h199l-109 305l-98 281q-86 -225 -207 -586h35h180zM448.5 1767 q40.5 0 70.5 -30.5t30 -71.5q0 -39 -30 -67.5t-70.5 -28.5t-69.5 28.5t-29 69.5q0 43 29 71.5t69.5 28.5zM807 1765q41 0 67.5 -29.5t26.5 -74.5q0 -39 -27.5 -65.5t-68.5 -26.5q-43 0 -71.5 27.5t-28.5 68.5t29.5 70.5t72.5 29.5z" />
<glyph unicode="&#xc5;" horiz-adv-x="1232" d="M780 457h-438q-123 -328 -123 -377q0 -29 25 -35q14 -4 102 -8q59 -2 60 -21q0 -20 -54 -20q-63 0 -219 8q-16 2 -63 2q-27 0 -64 -4q-10 -2 -26 -2q-29 0 -29 18.5t61 20.5q66 4 94.5 20.5t47.5 65.5l430 1210q4 25 16 56l10 36q6 23 17 23q8 0 10 -12q29 -86 121 -334 l366 -998q14 -45 40 -56t108 -15q53 0 53 -21q0 -18 -31 -18q-20 0 -37 2l-260 4l-260 -4q-14 -2 -30 -2q-41 0 -41 20.5t55 22.5q180 0 180 37q0 4 -4 16l-16 55l-11 29q-24 82 -90 281zM569 504h199l-109 305l-98 281q-86 -225 -207 -586h35h180zM629 1917q76 0 128 -51 t52 -125q0 -76 -52 -126t-132 -50q-72 0 -124 51t-52 123q0 76 52 127t128 51zM627 1860q-45 0 -76 -35t-31 -86q0 -49 32 -83t79 -34t77.5 34t30.5 87q0 51 -31.5 84t-80.5 33z" />
<glyph unicode="&#xc6;" horiz-adv-x="1912" d="M1143 735v-694h202q75 0 151.5 6t116.5 11t80 22.5t56 35t32.5 51.5t22.5 67.5t13 91.5q8 49 32 49q20 0 21 -53q0 -27 -2 -50q-4 -106 -4 -200v-54v-30q-244 10 -781 10q-225 0 -256 -2h-14q-41 0 -41 20.5t55 20.5q78 0 94.5 18.5t16.5 106.5v295h-504 q-82 -129 -146.5 -247t-64.5 -136q0 -20 18.5 -24.5t129.5 -14.5q39 0 39 -18.5t-35 -18.5h-21q-84 2 -293 2q-117 0 -116 20q0 18 53 21q123 8 164 74q12 12 67 108l179 303l376 639l154 262h37l65 -2q39 -2 131 -2q109 0 172 2q76 2 148 2l213 -2q39 0 100 7 q4 -88 21 -256l6 -76q2 -10 2 -25q0 -23 -18 -22q-16 0 -19 22q-31 184 -106 246q-76 63 -373 63q-121 0 -174 -2v-608h88q227 0 274 62q27 39 35 141q4 78 25 78q23 0 22 -35q0 -18 -4 -72q-6 -96 -6 -145q0 -156 8 -303q2 -14 2 -35q0 -27 -20 -27q-14 0 -17.5 9.5 t-11.5 58.5q-14 125 -35.5 159.5t-93.5 57.5q-26 8 -266 12zM938 504v813q-78 -141 -143 -246l-183 -315q-129 -227 -145 -252h471z" />
<glyph unicode="&#xc7;" horiz-adv-x="1337" d="M723 -23v-40q82 0 136 -44.5t54 -109.5q0 -70 -56 -119t-138 -49q-45 0 -98.5 25.5t-53.5 48.5q0 12 15 12q8 0 30 -16q27 -23 68 -23t72.5 44t31.5 104q0 45 -21.5 72.5t-53.5 27.5q-18 0 -29 -2v76q-264 39 -428 240.5t-164 490.5q0 322 181.5 525.5t467.5 203.5 q102 0 166 -17.5t154 -70.5q47 -27 67.5 -27t34.5 33q20 41 26.5 49t16.5 8q16 0 17 -16q0 -6 -5 -27q-23 -96 -22 -334l2 -47q0 -39 -23 -39q-20 0 -26 39q-29 166 -76 244q-100 164 -315 164q-164 0 -262 -111q-174 -201 -175 -581q0 -340 146 -531q57 -76 146 -120 t184 -44q106 0 194 52.5t135 142.5q55 102 76 227q10 49 27 49q20 0 20 -28q0 -8 -4 -58q-10 -82 -10 -227q0 -49 10 -143v-19q0 -27 -16.5 -26.5t-28.5 30.5q-31 70 -57 88q-150 -129 -359 -129q-32 0 -57 2z" />
<glyph unicode="&#xc8;" horiz-adv-x="1191" d="M422 774h49q86 0 131 1t89 11.5t60.5 21.5t33 43t22.5 64.5t12 96.5q2 43 23 43q23 0 22 -37q0 -10 -4 -72q-4 -82 -4 -145q0 -207 8 -301q2 -14 2 -35q0 -27 -22 -27q-14 0 -18.5 16.5t-18.5 114.5q-14 106 -64.5 134t-228.5 28h-76h-16v-688q451 0 528 18q72 16 109 78 t45 185q6 51 26.5 51t20.5 -43q0 -6 -4 -101q-4 -90 -4 -176v-67q-201 10 -795 10q-172 0 -235 -2h-21q-39 0 -39 18q0 12 12.5 14.5t77.5 6.5q53 6 64.5 23.5t11.5 95.5v1151q2 59 -15.5 70t-113.5 11q-33 0 -33 18.5t45 18.5l201 -2h150q45 2 231 3t287 -1q78 2 112 9 q2 -63 19 -244l8 -88q2 -10 2 -27q0 -20 -18 -20q-14 0 -19.5 9t-13.5 42q-39 186 -127 233q-63 37 -344 37h-168v-600zM575 1878l66 -141l18 -41q6 -16 23 -54l16 -36l13 -29q4 -8 4 -12q0 -10 -13 -11q-10 0 -28.5 16.5t-114.5 112.5l-186 193l35 2l59 2h43q36 0 65 -2z " />
<glyph unicode="&#xc9;" horiz-adv-x="1191" d="M422 774h49q86 0 131 1t89 11.5t60.5 21.5t33 43t22.5 64.5t12 96.5q2 43 23 43q23 0 22 -37q0 -10 -4 -72q-4 -82 -4 -145q0 -207 8 -301q2 -14 2 -35q0 -27 -22 -27q-14 0 -18.5 16.5t-18.5 114.5q-14 106 -64.5 134t-228.5 28h-76h-16v-688q451 0 528 18q72 16 109 78 t45 185q6 51 26.5 51t20.5 -43q0 -6 -4 -101q-4 -90 -4 -176v-67q-201 10 -795 10q-172 0 -235 -2h-21q-39 0 -39 18q0 12 12.5 14.5t77.5 6.5q53 6 64.5 23.5t11.5 95.5v1151q2 59 -15.5 70t-113.5 11q-33 0 -33 18.5t45 18.5l201 -2h150q45 2 231 3t287 -1q78 2 112 9 q2 -63 19 -244l8 -88q2 -10 2 -27q0 -20 -18 -20q-14 0 -19.5 9t-13.5 42q-39 186 -127 233q-63 37 -344 37h-168v-600zM649 1737l66 141q31 2 67 2q27 0 101 -2l37 -2l-187 -193q-123 -129 -143 -129q-12 0 -12 11q0 4 4 12q36 82 67 160z" />
<glyph unicode="&#xca;" horiz-adv-x="1191" d="M422 774h49q86 0 131 1t89 11.5t60.5 21.5t33 43t22.5 64.5t12 96.5q2 43 23 43q23 0 22 -37q0 -10 -4 -72q-4 -82 -4 -145q0 -207 8 -301q2 -14 2 -35q0 -27 -22 -27q-14 0 -18.5 16.5t-18.5 114.5q-14 106 -64.5 134t-228.5 28h-76h-16v-688q451 0 528 18q72 16 109 78 t45 185q6 51 26.5 51t20.5 -43q0 -6 -4 -101q-4 -90 -4 -176v-67q-201 10 -795 10q-172 0 -235 -2h-21q-39 0 -39 18q0 12 12.5 14.5t77.5 6.5q53 6 64.5 23.5t11.5 95.5v1151q2 59 -15.5 70t-113.5 11q-33 0 -33 18.5t45 18.5l201 -2h150q45 2 231 3t287 -1q78 2 112 9 q2 -63 19 -244l8 -88q2 -10 2 -27q0 -20 -18 -20q-14 0 -19.5 9t-13.5 42q-39 186 -127 233q-63 37 -344 37h-168v-600zM874 1544h-135q-72 68 -149 225q-45 -92 -99.5 -161.5t-82.5 -69.5q-18 0 -19 14q0 6 12 19q88 86 174 266q23 49 30 60.5t22 11.5q12 0 20 -10.5 t35 -63.5q79 -154 192 -291z" />
<glyph unicode="&#xcb;" horiz-adv-x="1191" d="M422 774h49q86 0 131 1t89 11.5t60.5 21.5t33 43t22.5 64.5t12 96.5q2 43 23 43q23 0 22 -37q0 -10 -4 -72q-4 -82 -4 -145q0 -207 8 -301q2 -14 2 -35q0 -27 -22 -27q-14 0 -18.5 16.5t-18.5 114.5q-14 106 -64.5 134t-228.5 28h-76h-16v-688q451 0 528 18q72 16 109 78 t45 185q6 51 26.5 51t20.5 -43q0 -6 -4 -101q-4 -90 -4 -176v-67q-201 10 -795 10q-172 0 -235 -2h-21q-39 0 -39 18q0 12 12.5 14.5t77.5 6.5q53 6 64.5 23.5t11.5 95.5v1151q2 59 -15.5 70t-113.5 11q-33 0 -33 18.5t45 18.5l201 -2h150q45 2 231 3t287 -1q78 2 112 9 q2 -63 19 -244l8 -88q2 -10 2 -27q0 -20 -18 -20q-14 0 -19.5 9t-13.5 42q-39 186 -127 233q-63 37 -344 37h-168v-600zM467 1767q41 0 70.5 -30.5t29.5 -71.5q0 -39 -29.5 -67.5t-70.5 -28.5t-69.5 28.5t-28.5 69.5q0 43 28.5 71.5t69.5 28.5zM825 1765q41 0 68 -29.5 t27 -74.5q0 -39 -28 -65.5t-69 -26.5q-43 0 -71.5 27.5t-28.5 68.5t29.5 70.5t72.5 29.5z" />
<glyph unicode="&#xcc;" horiz-adv-x="643" d="M219 174v1077q0 100 -10 113q-12 18 -113 25q-39 0 -39 16q0 18 25 18l276 -4q12 0 119 2q39 2 78 2q33 0 33 -18q0 -10 -15.5 -13t-74.5 -8q-51 -2 -62.5 -18t-11.5 -86v-1094q0 -115 8 -125q20 -23 135 -28q23 0 23 -16.5t-25 -16.5h-20q-12 6 -279 6q-57 0 -102 -4 q-33 -2 -82 -2q-27 0 -27 18.5t54 18.5q84 4 97 20.5t13 116.5zM238 1878l65 -141l19 -41q6 -16 22 -54l16 -36l13 -29q4 -8 4 -12q0 -10 -12 -11q-10 0 -29 16.5t-115 112.5l-186 193l35 2l59 2h43q37 0 66 -2z" />
<glyph unicode="&#xcd;" horiz-adv-x="643" d="M219 174v1077q0 100 -10 113q-12 18 -113 25q-39 0 -39 16q0 18 25 18l276 -4q12 0 119 2q39 2 78 2q33 0 33 -18q0 -10 -15.5 -13t-74.5 -8q-51 -2 -62.5 -18t-11.5 -86v-1094q0 -115 8 -125q20 -23 135 -28q23 0 23 -16.5t-25 -16.5h-20q-12 6 -279 6q-57 0 -102 -4 q-33 -2 -82 -2q-27 0 -27 18.5t54 18.5q84 4 97 20.5t13 116.5zM324 1737l65 141q31 2 68 2q27 0 100 -2l37 -2l-186 -193q-123 -129 -144 -129q-12 0 -12 11q0 4 4 12q37 82 68 160z" />
<glyph unicode="&#xce;" horiz-adv-x="643" d="M219 174v1077q0 100 -10 113q-12 18 -113 25q-39 0 -39 16q0 18 25 18l276 -4q12 0 119 2q39 2 78 2q33 0 33 -18q0 -10 -15.5 -13t-74.5 -8q-51 -2 -62.5 -18t-11.5 -86v-1094q0 -115 8 -125q20 -23 135 -28q23 0 23 -16.5t-25 -16.5h-20q-12 6 -279 6q-57 0 -102 -4 q-33 -2 -82 -2q-27 0 -27 18.5t54 18.5q84 4 97 20.5t13 116.5zM575 1544h-135q-72 68 -149 225q-45 -92 -99.5 -161.5t-82.5 -69.5q-18 0 -19 14q0 6 12 19q88 86 174 266q23 49 30 60.5t22 11.5q12 0 20 -10.5t35 -63.5q79 -154 192 -291z" />
<glyph unicode="&#xcf;" horiz-adv-x="643" d="M219 174v1077q0 100 -10 113q-12 18 -113 25q-39 0 -39 16q0 18 25 18l276 -4q12 0 119 2q39 2 78 2q33 0 33 -18q0 -10 -15.5 -13t-74.5 -8q-51 -2 -62.5 -18t-11.5 -86v-1094q0 -115 8 -125q20 -23 135 -28q23 0 23 -16.5t-25 -16.5h-20q-12 6 -279 6q-57 0 -102 -4 q-33 -2 -82 -2q-27 0 -27 18.5t54 18.5q84 4 97 20.5t13 116.5zM174 1767q41 0 70.5 -30.5t29.5 -71.5q0 -39 -29.5 -67.5t-70.5 -28.5t-69.5 28.5t-28.5 69.5q0 43 28.5 71.5t69.5 28.5zM471 1765q39 0 66.5 -29.5t27.5 -72.5q0 -41 -27.5 -67.5t-68.5 -26.5t-70.5 28.5 t-29.5 67.5q0 41 29.5 70.5t72.5 29.5z" />
<glyph unicode="&#xd0;" horiz-adv-x="1466" d="M219 700h-143q-35 0 -35 25q0 14 9 19.5t38 5.5h131v501q0 100 -15.5 116.5t-105.5 16.5q-47 0 -47 23q0 16 35 16q4 0 21.5 -1t51.5 -2t64 -1h70h149q221 0 325.5 -10t197.5 -41q186 -61 300.5 -242.5t114.5 -418.5q0 -358 -252 -560q-184 -147 -491 -147q-55 0 -262 4 h-103l-161 -2q-14 -2 -31 -2q-39 0 -39 20q0 12 11 15.5t54 3.5q82 0 105 31q8 14 8 77v553zM424 750h274q31 0 31 -27q0 -23 -45 -23h-260v-542q0 -57 3 -69.5t17 -20.5q49 -25 207 -25q102 0 198.5 42t158.5 114q143 164 143 518q0 340 -133 498.5t-418 158.5 q-135 0 -164 -28q-12 -14 -12 -99v-497z" />
<glyph unicode="&#xd1;" horiz-adv-x="1343" d="M1081 369v911q0 63 -2 76.5t-16 19.5q-14 8 -98 8q-74 0 -74 19q0 20 49 20h72q45 -2 96 -2t98 2h64q45 0 45 -20q0 -18 -51 -19l-45 2h-37q-33 0 -39 -11t-6 -68v-1180q0 -109 -2 -127t-13 -18q-12 0 -28 22l-263 383l-552 834v-1053l2 -90q2 -27 30.5 -33t137.5 -10 q27 0 26 -17q0 -20 -53 -20q-12 0 -117 6q-27 2 -63 2q-23 0 -152 -8h-20q-47 0 -47 18.5t40 18.5q121 2 141.5 16.5t18.5 85.5v1010q0 94 -15 141t-54 72q-35 20 -117 20q-53 0 -53 21q0 18 30 18q4 0 105 -2q27 -2 67 -2q6 0 28 1t67 2t94 1zM944 1772q18 0 19 -17 q0 -14 -14.5 -54t-26.5 -61q-45 -70 -123 -69q-47 0 -187 71q-125 66 -149 66q-14 0 -27.5 -13.5t-13.5 -29.5q0 -23 31 -55q10 -10 10 -17q0 -16 -20.5 -16t-41 26.5t-20.5 53.5q0 55 44 95t105 40q70 0 191 -63q119 -63 149 -64q27 0 45 72q13 35 29 35z" />
<glyph unicode="&#xd2;" horiz-adv-x="1474" d="M748 1444q272 0 456.5 -213t184.5 -529q0 -305 -183.5 -516t-449.5 -211q-283 0 -475.5 214t-192.5 528q0 319 185.5 523t474.5 204zM737 1407q-164 0 -254 -100q-166 -184 -166 -600q0 -330 116 -512.5t325 -182.5q197 0 293 172q109 186 108 508q0 377 -153 584 q-51 72 -112 101.5t-157 29.5zM655 1878l66 -141l18 -41q6 -16 23 -54l16 -36l13 -29q4 -8 4 -12q0 -10 -13 -11q-10 0 -28.5 16.5t-114.5 112.5l-186 193l34 2l60 2h43q36 0 65 -2z" />
<glyph unicode="&#xd3;" horiz-adv-x="1474" d="M748 1444q272 0 456.5 -213t184.5 -529q0 -305 -183.5 -516t-449.5 -211q-283 0 -475.5 214t-192.5 528q0 319 185.5 523t474.5 204zM737 1407q-164 0 -254 -100q-166 -184 -166 -600q0 -330 116 -512.5t325 -182.5q197 0 293 172q109 186 108 508q0 377 -153 584 q-51 72 -112 101.5t-157 29.5zM739 1737l66 141q31 2 67 2q27 0 101 -2l37 -2l-187 -193q-123 -129 -143 -129q-12 0 -12 11q0 4 4 12q36 82 67 160z" />
<glyph unicode="&#xd4;" horiz-adv-x="1474" d="M748 1444q272 0 456.5 -213t184.5 -529q0 -305 -183.5 -516t-449.5 -211q-283 0 -475.5 214t-192.5 528q0 319 185.5 523t474.5 204zM737 1407q-164 0 -254 -100q-166 -184 -166 -600q0 -330 116 -512.5t325 -182.5q197 0 293 172q109 186 108 508q0 377 -153 584 q-51 72 -112 101.5t-157 29.5zM991 1544h-135q-72 68 -149 225q-45 -92 -99.5 -161.5t-83.5 -69.5q-18 0 -18 14q0 6 12 19q88 86 174 266q23 49 30 60.5t21 11.5q12 0 20.5 -10.5t35.5 -63.5q79 -154 192 -291z" />
<glyph unicode="&#xd5;" horiz-adv-x="1474" d="M748 1444q272 0 456.5 -213t184.5 -529q0 -305 -183.5 -516t-449.5 -211q-283 0 -475.5 214t-192.5 528q0 319 185.5 523t474.5 204zM737 1407q-164 0 -254 -100q-166 -184 -166 -600q0 -330 116 -512.5t325 -182.5q197 0 293 172q109 186 108 508q0 377 -153 584 q-51 72 -112 101.5t-157 29.5zM1012 1772q18 0 18 -17q0 -14 -14.5 -54t-26.5 -61q-45 -70 -123 -69q-47 0 -186 71q-125 66 -150 66q-14 0 -27.5 -13.5t-13.5 -29.5q0 -23 31 -55q10 -10 10 -17q0 -16 -20.5 -16t-40.5 26.5t-20 53.5q0 55 44 95t105 40q70 0 190 -63 q119 -63 150 -64q27 0 45 72q13 35 29 35z" />
<glyph unicode="&#xd6;" horiz-adv-x="1474" d="M748 1444q272 0 456.5 -213t184.5 -529q0 -305 -183.5 -516t-449.5 -211q-283 0 -475.5 214t-192.5 528q0 319 185.5 523t474.5 204zM737 1407q-164 0 -254 -100q-166 -184 -166 -600q0 -330 116 -512.5t325 -182.5q197 0 293 172q109 186 108 508q0 377 -153 584 q-51 72 -112 101.5t-157 29.5zM557 1767q41 0 70.5 -30.5t29.5 -71.5q0 -39 -29.5 -67.5t-70.5 -28.5t-69.5 28.5t-28.5 69.5q0 43 28.5 71.5t69.5 28.5zM915 1765q41 0 68 -29.5t27 -74.5q0 -39 -28 -65.5t-69 -26.5q-43 0 -71.5 27.5t-28.5 68.5t29.5 70.5t72.5 29.5z" />
<glyph unicode="&#xd7;" d="M545 739l305 305l53 -53l-305 -303l305 -305l-53 -53l-305 305l-303 -305l-54 53l306 305l-306 303l54 53z" />
<glyph unicode="&#xd8;" horiz-adv-x="1474" d="M1247 1495l-117 -192q258 -233 259 -603q0 -305 -183.5 -515t-449.5 -210q-193 0 -361 115l-114 -190q-12 -18 -31 -19q-33 0 -33 23q0 4 16 30l115 191q-260 215 -260 596q0 311 185.5 517t467.5 206q186 0 344 -105l115 191q8 14 29 14q31 0 31 -22q-1 -9 -13 -27z M1063 1192l-621 -1024q127 -156 314 -156q129 0 213 71t137 222q53 156 53 400q0 262 -96 487zM408 223l622 1026q-100 158 -289 158q-190 0 -290 -145q-133 -190 -134 -551q1 -293 91 -488z" />
<glyph unicode="&#xd9;" horiz-adv-x="1363" d="M410 1231v-733q0 -154 18 -234t66 -133q88 -100 258 -100q152 0 241.5 91t110.5 263q6 57 6 451v116l2 164l-2 141q2 35 2 68q0 39 -22.5 49t-104.5 10q-41 0 -41 23q0 18 29 18q16 0 26 -2q25 -2 179 -2q63 0 90 2h30q47 0 48 -20q0 -18 -37 -19q-6 0 -41 2q-10 2 -29 3 q-41 0 -53 -13.5t-12 -60.5v-768q0 -299 -112 -435.5t-360 -136.5q-141 0 -250.5 44t-166.5 124q-80 111 -80 371v455q0 356 -2 366q-4 29 -26.5 38t-98.5 9q-35 4 -35 21q0 18 29 18h37q29 -2 106 -2l293 2q10 2 24 2q35 0 35 -22q0 -14 -12 -16.5t-82 -4.5q-59 0 -61 -32 q-2 -8 -2 -117zM674 1878l65 -141l19 -41q6 -16 22 -54l17 -36l12 -29q4 -8 4 -12q0 -10 -12 -11q-10 0 -28.5 16.5t-115.5 112.5l-186 193l35 2l59 2h43q37 0 66 -2z" />
<glyph unicode="&#xda;" horiz-adv-x="1363" d="M410 1231v-733q0 -154 18 -234t66 -133q88 -100 258 -100q152 0 241.5 91t110.5 263q6 57 6 451v116l2 164l-2 141q2 35 2 68q0 39 -22.5 49t-104.5 10q-41 0 -41 23q0 18 29 18q16 0 26 -2q25 -2 179 -2q63 0 90 2h30q47 0 48 -20q0 -18 -37 -19q-6 0 -41 2q-10 2 -29 3 q-41 0 -53 -13.5t-12 -60.5v-768q0 -299 -112 -435.5t-360 -136.5q-141 0 -250.5 44t-166.5 124q-80 111 -80 371v455q0 356 -2 366q-4 29 -26.5 38t-98.5 9q-35 4 -35 21q0 18 29 18h37q29 -2 106 -2l293 2q10 2 24 2q35 0 35 -22q0 -14 -12 -16.5t-82 -4.5q-59 0 -61 -32 q-2 -8 -2 -117zM748 1737l65 141q31 2 68 2q27 0 100 -2l37 -2l-187 -193q-123 -129 -143 -129q-12 0 -12 11q0 4 4 12q37 82 68 160z" />
<glyph unicode="&#xdb;" horiz-adv-x="1363" d="M410 1231v-733q0 -154 18 -234t66 -133q88 -100 258 -100q152 0 241.5 91t110.5 263q6 57 6 451v116l2 164l-2 141q2 35 2 68q0 39 -22.5 49t-104.5 10q-41 0 -41 23q0 18 29 18q16 0 26 -2q25 -2 179 -2q63 0 90 2h30q47 0 48 -20q0 -18 -37 -19q-6 0 -41 2q-10 2 -29 3 q-41 0 -53 -13.5t-12 -60.5v-768q0 -299 -112 -435.5t-360 -136.5q-141 0 -250.5 44t-166.5 124q-80 111 -80 371v455q0 356 -2 366q-4 29 -26.5 38t-98.5 9q-35 4 -35 21q0 18 29 18h37q29 -2 106 -2l293 2q10 2 24 2q35 0 35 -22q0 -14 -12 -16.5t-82 -4.5q-59 0 -61 -32 q-2 -8 -2 -117zM973 1544h-135q-72 68 -150 225q-45 -92 -99 -161.5t-83 -69.5q-18 0 -19 14q0 6 13 19q88 86 174 266q23 49 30 60.5t21 11.5q12 0 20.5 -10.5t34.5 -63.5q80 -154 193 -291z" />
<glyph unicode="&#xdc;" horiz-adv-x="1363" d="M410 1231v-733q0 -154 18 -234t66 -133q88 -100 258 -100q152 0 241.5 91t110.5 263q6 57 6 451v116l2 164l-2 141q2 35 2 68q0 39 -22.5 49t-104.5 10q-41 0 -41 23q0 18 29 18q16 0 26 -2q25 -2 179 -2q63 0 90 2h30q47 0 48 -20q0 -18 -37 -19q-6 0 -41 2q-10 2 -29 3 q-41 0 -53 -13.5t-12 -60.5v-768q0 -299 -112 -435.5t-360 -136.5q-141 0 -250.5 44t-166.5 124q-80 111 -80 371v455q0 356 -2 366q-4 29 -26.5 38t-98.5 9q-35 4 -35 21q0 18 29 18h37q29 -2 106 -2l293 2q10 2 24 2q35 0 35 -22q0 -14 -12 -16.5t-82 -4.5q-59 0 -61 -32 q-2 -8 -2 -117zM541 1767q41 0 70.5 -30.5t29.5 -71.5q0 -39 -29.5 -67.5t-70.5 -28.5t-70 28.5t-29 69.5q0 43 29 71.5t70 28.5zM899 1765q41 0 67.5 -29.5t26.5 -74.5q0 -39 -27.5 -65.5t-68.5 -26.5q-43 0 -71.5 27.5t-28.5 68.5t29.5 70.5t72.5 29.5z" />
<glyph unicode="&#xdd;" horiz-adv-x="1243" d="M276 1421l238 2q14 2 33 2q37 0 37 -20q0 -12 -11.5 -15.5t-58.5 -3.5q-127 0 -127 -45q0 -35 129 -280l186 -354q33 59 117 227l80 164l41 80q68 133 68 172q0 27 -35 30q-49 8 -96 9q-45 -4 -46 20q0 16 39 16l119 -2l68 2q139 0 174 -3t35 -17q0 -16 -35 -16 q-113 -4 -139 -39q-18 -16 -177 -349q-53 -125 -127 -256q-39 -78 -46 -105.5t-7 -117.5v-387q0 -68 17.5 -80t121.5 -18q55 -2 56 -21q0 -16 -29 -16h-24l-244 6h-43q-121 0 -199 -4q-12 -2 -29 -2q-29 0 -28.5 18.5t47.5 20.5q113 4 134.5 20.5t19.5 98.5v432 q-35 78 -119 239l-205 406q-61 123 -74 133q-16 16 -100 21q-72 -2 -72 22q0 16 33 16q10 0 172 -4q32 -2 106 -2zM674 1737l65 141q31 2 68 2q27 0 100 -2l37 -2l-186 -193q-123 -129 -144 -129q-12 0 -12 11q0 4 4 12q37 82 68 160z" />
<glyph unicode="&#xde;" horiz-adv-x="1083" d="M424 1280v-180q162 0 260 -6q160 -10 261.5 -100.5t101.5 -221.5q0 -88 -49.5 -170t-129.5 -129q-121 -70 -284 -70q-72 0 -160 15v-299q0 -55 21.5 -68.5t121.5 -17.5q23 0 23 -16.5t-25 -16.5h-20l-62 2l-73 2q-33 2 -80 2q-115 0 -226 -6h-10q-39 0 -39 18.5t54 18.5 q74 2 92 16.5t18 65.5v1181q0 59 -15.5 70.5t-107.5 18.5q-39 0 -39 16q0 18 25 18h18q123 -4 258 -4q4 0 26 1t65 2t81 1h23q35 0 35 -18q0 -10 -15.5 -13t-74.5 -8q-51 -2 -62.5 -18t-11.5 -86zM424 973v-524q219 2 313 74.5t94 242.5q0 295 -282 295q-88 0 -113 -29 q-12 -12 -12 -59z" />
<glyph unicode="&#xdf;" horiz-adv-x="1013" d="M313 930v-930q-66 0 -123 -1t-84.5 -2t-33.5 -1q-49 0 -61.5 2t-12.5 12q0 16 37 17q74 -2 91 10t17 65v703q0 332 58 448q94 195 329 195q152 0 254.5 -83t102.5 -206q0 -119 -84 -203t-221 -100v-10q102 -6 198 -64q170 -102 170 -360q0 -223 -143 -354 q-104 -92 -229 -93q-86 0 -141.5 45.5t-55.5 114.5q0 47 28.5 77t73.5 30q39 0 65.5 -23.5t26.5 -58.5q0 -53 -65 -82q-33 -12 -33 -28.5t26.5 -30t59.5 -13.5q96 0 148.5 107.5t52.5 300.5q0 416 -283 415h-39q-29 0 -28 19q0 16 47 16q258 4 258 320q0 109 -46 170 t-130 61q-147 0 -197 -145q-33 -90 -33 -340z" />
<glyph unicode="&#xe0;" horiz-adv-x="813" d="M682 608v-383q0 -113 12.5 -148.5t48.5 -35.5q57 0 95 41q20 23 30.5 22.5t10.5 -12.5q0 -35 -73 -72.5t-140.5 -37.5t-105.5 37.5t-42 107.5q-35 -70 -100.5 -111t-141.5 -41q-88 0 -145 52.5t-57 134.5q0 80 53 149.5t149 116.5q70 33 242 66v51q0 178 -18 237 q-33 104 -148 105q-72 0 -120 -39t-48 -98q0 -10 4.5 -13.5t20.5 -3.5q27 -2 47 -25.5t20 -54.5q0 -39 -25.5 -64.5t-64.5 -25.5q-47 0 -77.5 32t-30.5 81q0 96 76 166q84 76 233 76q186 0 254 -87q25 -29 33 -74t8 -149zM518 309v150q-154 -35 -220.5 -91.5t-66.5 -150.5 q0 -66 38 -107.5t96 -41.5q88 0 141 98q10 20 12 143zM303 1360l66 -143l18 -39q6 -16 23 -54l16 -39l12 -28q4 -8 4 -13q0 -10 -12 -10q-10 0 -28.5 16.5t-114.5 112.5l-187 195h35l60 2h45h63z" />
<glyph unicode="&#xe1;" horiz-adv-x="813" d="M682 608v-383q0 -113 12.5 -148.5t48.5 -35.5q57 0 95 41q20 23 30.5 22.5t10.5 -12.5q0 -35 -73 -72.5t-140.5 -37.5t-105.5 37.5t-42 107.5q-35 -70 -100.5 -111t-141.5 -41q-88 0 -145 52.5t-57 134.5q0 80 53 149.5t149 116.5q70 33 242 66v51q0 178 -18 237 q-33 104 -148 105q-72 0 -120 -39t-48 -98q0 -10 4.5 -13.5t20.5 -3.5q27 -2 47 -25.5t20 -54.5q0 -39 -25.5 -64.5t-64.5 -25.5q-47 0 -77.5 32t-30.5 81q0 96 76 166q84 76 233 76q186 0 254 -87q25 -29 33 -74t8 -149zM518 309v150q-154 -35 -220.5 -91.5t-66.5 -150.5 q0 -66 38 -107.5t96 -41.5q88 0 141 98q10 20 12 143zM467 1360h68q23 0 100 -2h37l-187 -195q-123 -129 -143 -129q-12 0 -12 10q0 4 4 13q37 82 67 160z" />
<glyph unicode="&#xe2;" horiz-adv-x="813" d="M682 608v-383q0 -113 12.5 -148.5t48.5 -35.5q57 0 95 41q20 23 30.5 22.5t10.5 -12.5q0 -35 -73 -72.5t-140.5 -37.5t-105.5 37.5t-42 107.5q-35 -70 -100.5 -111t-141.5 -41q-88 0 -145 52.5t-57 134.5q0 80 53 149.5t149 116.5q70 33 242 66v51q0 178 -18 237 q-33 104 -148 105q-72 0 -120 -39t-48 -98q0 -10 4.5 -13.5t20.5 -3.5q27 -2 47 -25.5t20 -54.5q0 -39 -25.5 -64.5t-64.5 -25.5q-47 0 -77.5 32t-30.5 81q0 96 76 166q84 76 233 76q186 0 254 -87q25 -29 33 -74t8 -149zM518 309v150q-154 -35 -220.5 -91.5t-66.5 -150.5 q0 -66 38 -107.5t96 -41.5q88 0 141 98q10 20 12 143zM637 1024h-135q-76 72 -150 227q-43 -88 -99 -159.5t-85 -71.5q-18 0 -18 14q0 6 12 17q94 94 174 266q23 49 31 60.5t20 11.5q14 0 21.5 -10.5t33.5 -63.5q84 -160 195 -291z" />
<glyph unicode="&#xe3;" horiz-adv-x="813" d="M682 608v-383q0 -113 12.5 -148.5t48.5 -35.5q57 0 95 41q20 23 30.5 22.5t10.5 -12.5q0 -35 -73 -72.5t-140.5 -37.5t-105.5 37.5t-42 107.5q-35 -70 -100.5 -111t-141.5 -41q-88 0 -145 52.5t-57 134.5q0 80 53 149.5t149 116.5q70 33 242 66v51q0 178 -18 237 q-33 104 -148 105q-72 0 -120 -39t-48 -98q0 -10 4.5 -13.5t20.5 -3.5q27 -2 47 -25.5t20 -54.5q0 -39 -25.5 -64.5t-64.5 -25.5q-47 0 -77.5 32t-30.5 81q0 96 76 166q84 76 233 76q186 0 254 -87q25 -29 33 -74t8 -149zM518 309v150q-154 -35 -220.5 -91.5t-66.5 -150.5 q0 -66 38 -107.5t96 -41.5q88 0 141 98q10 20 12 143zM680 1251q18 0 18 -16q0 -14 -14 -54t-27 -61q-45 -68 -122 -67q-51 0 -187 69q-123 66 -149 66q-14 0 -27.5 -14.5t-13.5 -28.5q0 -23 30 -55q10 -6 11 -17q0 -14 -20.5 -14t-41 25.5t-20.5 54.5q0 53 44 93t105 40 q66 0 191 -64q123 -61 149 -61q25 0 45 70q13 34 29 34z" />
<glyph unicode="&#xe4;" horiz-adv-x="813" d="M682 608v-383q0 -113 12.5 -148.5t48.5 -35.5q57 0 95 41q20 23 30.5 22.5t10.5 -12.5q0 -35 -73 -72.5t-140.5 -37.5t-105.5 37.5t-42 107.5q-35 -70 -100.5 -111t-141.5 -41q-88 0 -145 52.5t-57 134.5q0 80 53 149.5t149 116.5q70 33 242 66v51q0 178 -18 237 q-33 104 -148 105q-72 0 -120 -39t-48 -98q0 -10 4.5 -13.5t20.5 -3.5q27 -2 47 -25.5t20 -54.5q0 -39 -25.5 -64.5t-64.5 -25.5q-47 0 -77.5 32t-30.5 81q0 96 76 166q84 76 233 76q186 0 254 -87q25 -29 33 -74t8 -149zM518 309v150q-154 -35 -220.5 -91.5t-66.5 -150.5 q0 -66 38 -107.5t96 -41.5q88 0 141 98q10 20 12 143zM217 1247q39 0 68.5 -30.5t29.5 -71.5q0 -39 -29.5 -67.5t-70.5 -28.5t-69.5 28.5t-28.5 69.5q0 43 28.5 71.5t71.5 28.5zM573 1247q41 0 68 -29.5t27 -74.5q0 -39 -28 -65.5t-69 -26.5q-43 0 -71.5 27.5t-28.5 68.5 t29.5 70.5t72.5 29.5z" />
<glyph unicode="&#xe5;" horiz-adv-x="813" d="M682 608v-383q0 -113 12.5 -148.5t48.5 -35.5q57 0 95 41q20 23 30.5 22.5t10.5 -12.5q0 -35 -73 -72.5t-140.5 -37.5t-105.5 37.5t-42 107.5q-35 -70 -100.5 -111t-141.5 -41q-88 0 -145 52.5t-57 134.5q0 80 53 149.5t149 116.5q70 33 242 66v51q0 178 -18 237 q-33 104 -148 105q-72 0 -120 -39t-48 -98q0 -10 4.5 -13.5t20.5 -3.5q27 -2 47 -25.5t20 -54.5q0 -39 -25.5 -64.5t-64.5 -25.5q-47 0 -77.5 32t-30.5 81q0 96 76 166q84 76 233 76q186 0 254 -87q25 -29 33 -74t8 -149zM518 309v150q-154 -35 -220.5 -91.5t-66.5 -150.5 q0 -66 38 -107.5t96 -41.5q88 0 141 98q10 20 12 143zM407.5 1397q75.5 0 128 -51.5t52.5 -124.5q0 -76 -52.5 -126.5t-132.5 -50.5q-72 0 -124 51.5t-52 123.5q0 76 52.5 127t128 51zM406 1339q-45 0 -76 -34.5t-31 -85.5q0 -49 31.5 -83t79 -34t78 33.5t30.5 87.5 q0 51 -31.5 83.5t-80.5 32.5z" />
<glyph unicode="&#xe6;" horiz-adv-x="1347" d="M694 801q98 117 250 117q268 0 344 -265q-96 -41 -342 -82q-16 -2 -137 -24l-90 -17q-2 -27 -2 -73q0 -236 112 -342q72 -70 183 -70q162 0 245 176q6 16 22.5 16.5t16.5 -14.5q0 -20 -29.5 -69.5t-60.5 -81.5q-96 -96 -250 -97q-254 0 -370 213q-96 -213 -277 -213 q-102 0 -162.5 55.5t-60.5 147.5q0 166 203 273q82 43 266 86q0 135 -3 167.5t-17 75.5q-33 106 -144 107q-72 0 -122 -37t-50 -88q0 -16 4 -18.5t29 -2.5q20 0 40.5 -25.5t20.5 -53.5q0 -39 -25.5 -64t-64.5 -25q-47 0 -77.5 30t-30.5 77q0 90 75 162q82 76 234 76 q92 0 150.5 -25.5t119.5 -91.5zM555 502q-313 -74 -313 -283q0 -72 43 -114t116 -42q63 0 103.5 57.5t48.5 160.5q2 18 2 221zM721 569q291 37 407 78q-23 127 -68.5 184.5t-123.5 57.5q-98 0 -150.5 -78t-64.5 -242z" />
<glyph unicode="&#xe7;" horiz-adv-x="837" d="M436 -23v-40q82 0 136.5 -44.5t54.5 -109.5q0 -70 -56.5 -119t-138.5 -49q-45 0 -98 25.5t-53 48.5q0 12 14 12q8 0 31 -16q29 -23 67 -23q41 0 73 44t32 104q0 45 -21.5 72.5t-54.5 27.5q-18 0 -29 -2v76q-152 35 -241 156.5t-89 291.5q0 207 124 346.5t311 139.5 q125 0 218 -63.5t93 -147.5q0 -43 -25.5 -69t-66.5 -26q-39 0 -64.5 25t-25.5 61q0 25 20 68q6 16 6 29q0 41 -42 67.5t-105 26.5q-123 0 -190.5 -106.5t-67.5 -299.5q0 -217 69.5 -334.5t196.5 -117.5q84 0 154 53q33 27 80 94q10 10 18 10q20 0 20 -16q0 -25 -71 -100 q-90 -96 -234 -97q-25 0 -45 2z" />
<glyph unicode="&#xe8;" horiz-adv-x="880" d="M649 606l-143 2q-23 0 -246 -6q-10 -66 -10 -129q0 -207 79 -318.5t222 -111.5q82 0 130 37t107 141q8 16 23 17q16 0 16 -15q0 -20 -31.5 -72.5t-64.5 -84.5q-86 -90 -235 -91q-184 0 -308.5 133.5t-124.5 329.5q0 205 118 342.5t294 137.5q145 0 243.5 -85t104.5 -219 q-55 -8 -174 -8zM266 641h383q-4 127 -46 186.5t-130 59.5q-166 0 -207 -246zM412 1360l65 -143l19 -39q6 -16 22 -54l17 -39l12 -28q4 -8 4 -13q0 -10 -12 -10q-10 0 -28.5 16.5t-115.5 112.5l-186 195h35l59 2h45h64z" />
<glyph unicode="&#xe9;" horiz-adv-x="880" d="M649 606l-143 2q-23 0 -246 -6q-10 -66 -10 -129q0 -207 79 -318.5t222 -111.5q82 0 130 37t107 141q8 16 23 17q16 0 16 -15q0 -20 -31.5 -72.5t-64.5 -84.5q-86 -90 -235 -91q-184 0 -308.5 133.5t-124.5 329.5q0 205 118 342.5t294 137.5q145 0 243.5 -85t104.5 -219 q-55 -8 -174 -8zM266 641h383q-4 127 -46 186.5t-130 59.5q-166 0 -207 -246zM539 1360h67q23 0 101 -2h36l-186 -195q-123 -129 -143 -129q-12 0 -13 10q0 4 5 13q37 82 67 160z" />
<glyph unicode="&#xea;" horiz-adv-x="880" d="M649 606l-143 2q-23 0 -246 -6q-10 -66 -10 -129q0 -207 79 -318.5t222 -111.5q82 0 130 37t107 141q8 16 23 17q16 0 16 -15q0 -20 -31.5 -72.5t-64.5 -84.5q-86 -90 -235 -91q-184 0 -308.5 133.5t-124.5 329.5q0 205 118 342.5t294 137.5q145 0 243.5 -85t104.5 -219 q-55 -8 -174 -8zM266 641h383q-4 127 -46 186.5t-130 59.5q-166 0 -207 -246zM733 1024h-135q-76 72 -149 227q-43 -88 -99.5 -159.5t-85.5 -71.5q-18 0 -18 14q0 6 12 17q94 94 174 266q23 49 31 60.5t20 11.5q14 0 21.5 -10.5t34.5 -63.5q83 -160 194 -291z" />
<glyph unicode="&#xeb;" horiz-adv-x="880" d="M649 606l-143 2q-23 0 -246 -6q-10 -66 -10 -129q0 -207 79 -318.5t222 -111.5q82 0 130 37t107 141q8 16 23 17q16 0 16 -15q0 -20 -31.5 -72.5t-64.5 -84.5q-86 -90 -235 -91q-184 0 -308.5 133.5t-124.5 329.5q0 205 118 342.5t294 137.5q145 0 243.5 -85t104.5 -219 q-55 -8 -174 -8zM266 641h383q-4 127 -46 186.5t-130 59.5q-166 0 -207 -246zM307 1247q39 0 69 -30.5t30 -71.5q0 -39 -30 -67.5t-71 -28.5t-69.5 28.5t-28.5 69.5q0 43 28.5 71.5t71.5 28.5zM664 1247q41 0 67.5 -29.5t26.5 -74.5q0 -39 -28 -65.5t-68 -26.5 q-43 0 -72 27.5t-29 68.5t30 70.5t73 29.5z" />
<glyph unicode="&#xec;" horiz-adv-x="514" d="M315 911l21 13q16 -31 16 -113q0 -10 -2 -100v-559q0 -82 3 -96.5t22 -18.5q27 -8 90 -8q29 0 29 -17q0 -18 -35 -18q-18 0 -49 4q-90 4 -103 4l-213 -4q-10 -2 -24 -2q-23 0 -23 14q0 20 41 21q78 2 86 12q6 10 6 84v455v102l-2 64q0 51 -4 60t-27 9l-59 -2 q-8 -2 -20 -2q-23 0 -23 16.5t35 16.5q147 8 235 65zM190 1360l66 -143l18 -39q6 -16 23 -54l16 -39l13 -28q4 -8 4 -13q0 -10 -13 -10q-10 0 -28.5 16.5t-114.5 112.5l-186 195h35l59 2h45h63z" />
<glyph unicode="&#xed;" horiz-adv-x="514" d="M317 911l21 13q16 -31 16 -113q0 -10 -2 -100v-559q0 -82 3 -96.5t22 -18.5q27 -8 90 -8q29 0 29 -17q0 -18 -35 -18q-18 0 -49 4q-90 4 -103 4l-213 -4q-10 -2 -24 -2q-23 0 -23 14q0 20 41 21q78 2 86 12q6 10 6 84v455v102l-2 64q0 51 -4 60t-26 9l-60 -2 q-8 -2 -20 -2q-23 0 -23 16.5t35 16.5q147 8 235 65zM319 1360h68q23 0 100 -2h37l-186 -195q-123 -129 -143 -129q-12 0 -13 10q0 4 4 13q37 82 68 160z" />
<glyph unicode="&#xee;" horiz-adv-x="514" d="M317 911l21 13q16 -31 16 -113q0 -10 -2 -100v-559q0 -82 3 -96.5t22 -18.5q27 -8 90 -8q29 0 29 -17q0 -18 -35 -18q-18 0 -49 4q-90 4 -103 4l-213 -4q-10 -2 -24 -2q-23 0 -23 14q0 20 41 21q78 2 86 12q6 10 6 84v455v102l-2 64q0 51 -4 60t-26 9l-60 -2 q-8 -2 -20 -2q-23 0 -23 16.5t35 16.5q147 8 235 65zM494 1024h-136q-76 72 -149 227q-43 -88 -99.5 -159.5t-84.5 -71.5q-18 0 -19 14q0 6 12 17q94 94 175 266q23 49 30.5 60.5t20.5 11.5q14 0 21 -10.5t34 -63.5q84 -160 195 -291z" />
<glyph unicode="&#xef;" horiz-adv-x="514" d="M315 911l21 13q16 -31 16 -113q0 -10 -2 -100v-559q0 -82 3 -96.5t22 -18.5q27 -8 90 -8q29 0 29 -17q0 -18 -35 -18q-18 0 -49 4q-90 4 -103 4l-213 -4q-10 -2 -24 -2q-23 0 -23 14q0 20 41 21q78 2 86 12q6 10 6 84v455v102l-2 64q0 51 -4 60t-27 9l-59 -2 q-8 -2 -20 -2q-23 0 -23 16.5t35 16.5q147 8 235 65zM117 1247q39 0 68.5 -30.5t29.5 -71.5q0 -39 -29.5 -67.5t-70.5 -28.5t-70 28.5t-29 69.5q0 43 29 71.5t72 28.5zM399 1247q39 0 67 -29.5t28 -72.5q0 -41 -28 -67.5t-69 -26.5q-43 0 -71.5 27.5t-28.5 68.5t29.5 70.5 t72.5 29.5z" />
<glyph unicode="&#xf0;" horiz-adv-x="983" d="M221 1055l176 86q59 29 88 41q-39 53 -122.5 128.5t-143.5 110.5q-23 12 -22 17q0 10 18 10q53 0 178 -70q78 -43 191 -143q182 90 202.5 90t20.5 -18q0 -12 -23 -25q-10 -4 -58 -26.5t-50 -22.5q-49 -25 -60 -29q303 -305 304 -696q0 -133 -34 -227.5t-110 -176.5 q-115 -129 -291 -129q-168 0 -284 111q-137 135 -138 334q0 201 122 335t307 134q113 0 182 -72q-61 199 -164 332q-8 -4 -33 -15l-53 -26l-94 -47q-49 -25 -70 -37q-55 -29 -67 -29q-23 0 -23 21q0 10 6 15.5t45 23.5zM489 858q-113 0 -176 -117.5t-63 -324.5 q0 -193 63.5 -301.5t175.5 -108.5q115 0 179.5 116t64.5 322q0 244 -80 336q-66 78 -164 78z" />
<glyph unicode="&#xf1;" horiz-adv-x="1001" d="M346 879v-99q106 137 275 138q150 0 213 -109q37 -59 36 -234v-466q0 -66 7 -72q12 -12 59 -12q10 0 22 2h15q20 0 20 -15q0 -16 -30 -16h-25q-37 4 -100 4q-201 0 -238 -4h-14q-27 0 -27 14q0 10 11.5 12.5t78.5 4.5q39 2 45 11t6 66v394q0 170 -2 202.5t-14 63.5 q-33 92 -139 92q-102 0 -172 -90q-20 -27 -21 -74v-565l2 -74q2 -25 43 -26l62 -2q20 0 20 -14.5t-24 -14.5h-33q-45 4 -143 4q-127 0 -185 -4h-12q-31 0 -31 14q0 16 29 17q37 0 59 2q31 0 37 14l6 31v51v395q0 233 -6 258q-4 25 -49 25q-14 0 -49 -4h-10q-41 0 -41 14 q0 16 43 18q61 0 132.5 21.5t100.5 48.5q18 16 29 17q14 0 14 -39zM774 1251q18 0 19 -16q0 -14 -14.5 -54t-26.5 -61q-45 -68 -123 -67q-51 0 -187 69q-123 66 -149 66q-14 0 -27.5 -14.5t-13.5 -28.5q0 -23 31 -55q10 -6 10 -17q0 -14 -20.5 -14t-41 25.5t-20.5 54.5 q0 53 44 93t105 40q66 0 191 -64q123 -61 149 -61q25 0 45 70q13 34 29 34z" />
<glyph unicode="&#xf2;" horiz-adv-x="983" d="M489 918q184 0 308.5 -136.5t124.5 -339.5q0 -199 -121 -333t-301 -134q-186 0 -311.5 134.5t-125.5 332.5q0 205 122 340.5t304 135.5zM494 887q-115 0 -179.5 -118t-64.5 -327q0 -207 68.5 -322.5t191.5 -115.5q96 0 139 72q86 131 86 368q0 223 -69 351 q-51 92 -172 92zM426 1360l66 -143l18 -39q6 -16 22 -54l17 -39l12 -28q4 -8 4 -13q0 -10 -12 -10q-10 0 -28.5 16.5t-114.5 112.5l-187 195h35l59 2h45h64z" />
<glyph unicode="&#xf3;" horiz-adv-x="983" d="M489 918q184 0 308.5 -136.5t124.5 -339.5q0 -199 -121 -333t-301 -134q-186 0 -311.5 134.5t-125.5 332.5q0 205 122 340.5t304 135.5zM494 887q-115 0 -179.5 -118t-64.5 -327q0 -207 68.5 -322.5t191.5 -115.5q96 0 139 72q86 131 86 368q0 223 -69 351 q-51 92 -172 92zM553 1360h68q23 0 100 -2h37l-187 -195q-123 -129 -143 -129q-12 0 -12 10q0 4 4 13q37 82 67 160z" />
<glyph unicode="&#xf4;" horiz-adv-x="983" d="M489 918q184 0 308.5 -136.5t124.5 -339.5q0 -199 -121 -333t-301 -134q-186 0 -311.5 134.5t-125.5 332.5q0 205 122 340.5t304 135.5zM494 887q-115 0 -179.5 -118t-64.5 -327q0 -207 68.5 -322.5t191.5 -115.5q96 0 139 72q86 131 86 368q0 223 -69 351 q-51 92 -172 92zM748 1024h-136q-76 72 -149 227q-43 -88 -99.5 -159.5t-84.5 -71.5q-18 0 -19 14q0 6 12 17q94 94 174 266q23 49 31 60.5t21 11.5q14 0 21 -10.5t34 -63.5q84 -160 195 -291z" />
<glyph unicode="&#xf5;" horiz-adv-x="983" d="M489 918q184 0 308.5 -136.5t124.5 -339.5q0 -199 -121 -333t-301 -134q-186 0 -311.5 134.5t-125.5 332.5q0 205 122 340.5t304 135.5zM494 887q-115 0 -179.5 -118t-64.5 -327q0 -207 68.5 -322.5t191.5 -115.5q96 0 139 72q86 131 86 368q0 223 -69 351 q-51 92 -172 92zM764 1251q18 0 18 -16q0 -14 -14 -54t-27 -61q-45 -68 -123 -67q-51 0 -186 69q-123 66 -149 66q-14 0 -27.5 -14.5t-13.5 -28.5q0 -23 30 -55q10 -6 11 -17q0 -14 -20.5 -14t-41 25.5t-20.5 54.5q0 53 44 93t105 40q66 0 191 -64q123 -61 149 -61 q25 0 45 70q13 34 29 34z" />
<glyph unicode="&#xf6;" horiz-adv-x="983" d="M489 918q184 0 308.5 -136.5t124.5 -339.5q0 -199 -121 -333t-301 -134q-186 0 -311.5 134.5t-125.5 332.5q0 205 122 340.5t304 135.5zM494 887q-115 0 -179.5 -118t-64.5 -327q0 -207 68.5 -322.5t191.5 -115.5q96 0 139 72q86 131 86 368q0 223 -69 351 q-51 92 -172 92zM313 1247q39 0 69 -30.5t30 -71.5q0 -39 -30 -67.5t-71 -28.5t-69.5 28.5t-28.5 69.5q0 43 28.5 71.5t71.5 28.5zM670 1247q41 0 67.5 -29.5t26.5 -74.5q0 -39 -27.5 -65.5t-68.5 -26.5q-43 0 -72 27.5t-29 68.5t30 70.5t73 29.5z" />
<glyph unicode="&#xf7;" d="M971 725v-74h-850v74h850zM545 1038q41 0 69.5 -28.5t28.5 -69.5q0 -43 -28.5 -71.5t-69.5 -28.5q-43 0 -72 28.5t-29 71.5q0 41 29 69.5t72 28.5zM545 539q41 0 69.5 -29t28.5 -70q0 -43 -28.5 -71.5t-69.5 -28.5q-43 0 -72 28.5t-29 71.5q0 41 30 70t71 29z" />
<glyph unicode="&#xf8;" horiz-adv-x="983" d="M821 961l-78 -130q178 -147 179 -387q0 -201 -121 -335t-301 -134q-125 0 -234 68l-63 -104q-12 -20 -29 -21q-10 0 -18.5 6t-8.5 15q0 4 7 14l10 18l63 103q-164 139 -164 370q0 201 122 337.5t300 136.5q117 0 217 -60l84 137q8 14 25 15q25 0 25 -21q-1 -10 -15 -28z M692 748l-381 -629q82 -115 199 -115t172 129q53 121 53 305q0 171 -43 310zM287 172l379 627q-66 88 -172 88q-115 0 -179.5 -117t-64.5 -321q0 -162 37 -277z" />
<glyph unicode="&#xf9;" horiz-adv-x="1003" d="M846 893v-571q0 -147 6 -186.5t33 -45.5q20 -6 114 -6q25 0 25 -14q0 -10 -8 -13.5t-37 -3.5q-109 -8 -158 -21.5t-123 -47.5q-8 -4 -14 -4q-12 0 -12 16l2 98v17q-96 -135 -264 -136q-152 0 -217 88q-27 37 -32 68t-5 166v469q0 70 -8.5 82t-55.5 16l-26 -2 q-55 0 -56 17q0 14 35 14q23 0 107 -4q20 -2 41 -2q72 0 133 6v-571q0 -156 20 -209q33 -80 133 -80q49 0 93 24.5t67 65.5q37 61 37 209v317q0 72 -2 105l-4 67q-2 27 -12.5 34t-47.5 7q-86 -2 -86 19q0 12 43 12h19q16 -2 108 -2q123 0 152 2zM434 1360l66 -143l18 -39 q6 -16 23 -54l16 -39l12 -28q4 -8 4 -13q0 -10 -12 -10q-10 0 -28.5 16.5t-114.5 112.5l-187 195h35l60 2h45h63z" />
<glyph unicode="&#xfa;" horiz-adv-x="1003" d="M846 893v-571q0 -147 6 -186.5t33 -45.5q20 -6 114 -6q25 0 25 -14q0 -10 -8 -13.5t-37 -3.5q-109 -8 -158 -21.5t-123 -47.5q-8 -4 -14 -4q-12 0 -12 16l2 98v17q-96 -135 -264 -136q-152 0 -217 88q-27 37 -32 68t-5 166v469q0 70 -8.5 82t-55.5 16l-26 -2 q-55 0 -56 17q0 14 35 14q23 0 107 -4q20 -2 41 -2q72 0 133 6v-571q0 -156 20 -209q33 -80 133 -80q49 0 93 24.5t67 65.5q37 61 37 209v317q0 72 -2 105l-4 67q-2 27 -12.5 34t-47.5 7q-86 -2 -86 19q0 12 43 12h19q16 -2 108 -2q123 0 152 2zM563 1360h68q23 0 100 -2h37 l-186 -195q-123 -129 -144 -129q-12 0 -12 10q0 4 4 13q37 82 68 160z" />
<glyph unicode="&#xfb;" horiz-adv-x="1003" d="M846 893v-571q0 -147 6 -186.5t33 -45.5q20 -6 114 -6q25 0 25 -14q0 -10 -8 -13.5t-37 -3.5q-109 -8 -158 -21.5t-123 -47.5q-8 -4 -14 -4q-12 0 -12 16l2 98v17q-96 -135 -264 -136q-152 0 -217 88q-27 37 -32 68t-5 166v469q0 70 -8.5 82t-55.5 16l-26 -2 q-55 0 -56 17q0 14 35 14q23 0 107 -4q20 -2 41 -2q72 0 133 6v-571q0 -156 20 -209q33 -80 133 -80q49 0 93 24.5t67 65.5q37 61 37 209v317q0 72 -2 105l-4 67q-2 27 -12.5 34t-47.5 7q-86 -2 -86 19q0 12 43 12h19q16 -2 108 -2q123 0 152 2zM756 1024h-135 q-76 72 -150 227q-43 -88 -99.5 -159.5t-84.5 -71.5q-18 0 -19 14q0 6 13 17q94 94 174 266q23 49 31 60.5t20 11.5q14 0 21.5 -10.5t33.5 -63.5q84 -160 195 -291z" />
<glyph unicode="&#xfc;" horiz-adv-x="1003" d="M846 893v-571q0 -147 6 -186.5t33 -45.5q20 -6 114 -6q25 0 25 -14q0 -10 -8 -13.5t-37 -3.5q-109 -8 -158 -21.5t-123 -47.5q-8 -4 -14 -4q-12 0 -12 16l2 98v17q-96 -135 -264 -136q-152 0 -217 88q-27 37 -32 68t-5 166v469q0 70 -8.5 82t-55.5 16l-26 -2 q-55 0 -56 17q0 14 35 14q23 0 107 -4q20 -2 41 -2q72 0 133 6v-571q0 -156 20 -209q33 -80 133 -80q49 0 93 24.5t67 65.5q37 61 37 209v317q0 72 -2 105l-4 67q-2 27 -12.5 34t-47.5 7q-86 -2 -86 19q0 12 43 12h19q16 -2 108 -2q123 0 152 2zM324 1247q39 0 68.5 -30.5 t29.5 -71.5q0 -39 -30 -67.5t-70.5 -28.5t-69.5 28.5t-29 69.5q0 43 29 71.5t72 28.5zM680 1247q41 0 67.5 -29.5t26.5 -74.5q0 -39 -27.5 -65.5t-68.5 -26.5q-43 0 -71.5 27.5t-28.5 68.5t29.5 70.5t72.5 29.5z" />
<glyph unicode="&#xfd;" horiz-adv-x="821" d="M332 616l35 -102l75 -205q39 -100 45 -119q197 616 197 648q0 18 -15.5 22t-86.5 4q-20 0 -21 17q0 14 25 14q10 0 16 -2q70 -4 115 -4h57q37 0 45 2q14 2 31 2q18 0 18 -14q0 -10 -7 -13.5t-40 -3.5q-53 -4 -66.5 -10t-21.5 -33l-14 -37l-17 -51l-86 -280 q-156 -504 -268 -807q-35 -94 -77 -134t-103 -40q-49 0 -81 28.5t-32 73.5q0 39 25.5 63.5t66.5 24.5q55 0 80 -45q14 -25 18.5 -30t12.5 -5q14 0 22.5 15.5t34.5 85.5q53 135 91 268l-259 694q-70 203 -81 205q-12 10 -68 10q-53 0 -53 21q0 16 26 16q6 0 76 -4 q18 -2 66 -2q23 0 155 4l94 2h11q23 0 22 -16q0 -10 -9 -12.5t-67 -4.5q-41 -2 -52 -5t-11 -15q0 -14 41 -127q25 -66 35 -99zM510 1360h68q23 0 100 -2h37l-187 -195q-123 -129 -143 -129q-12 0 -12 10q0 4 4 13q37 82 67 160z" />
<glyph unicode="&#xfe;" horiz-adv-x="1001" d="M322 1169v-350q84 100 210 101q168 0 275 -115q131 -141 131 -350q0 -207 -114.5 -343.5t-288.5 -136.5q-137 0 -209 99v-477l2 -41q0 -20 22.5 -25.5t116.5 -7.5q25 0 25 -19q0 -14 -33 -14h-33q-20 2 -109 2q-55 0 -206 -2h-52q-55 0 -55 14q0 18 25 19h61q37 0 49.5 5 t14.5 21q2 14 2 189v1515q0 68 -4 74q-6 16 -33 16h-17q-55 -2 -57 -2q-29 0 -29 19q0 14 52 18q90 0 188 47q14 12 37 19l16 6q14 -53 15 -182q0 -25 -2 -47v-52zM326 657v-155q0 -260 8 -338q8 -63 60 -108.5t120 -45.5q113 0 177.5 121t64.5 328q0 195 -69 309.5 t-183 114.5q-70 0 -125 -52.5t-55 -117.5q0 -31 2 -56z" />
<glyph unicode="&#xff;" horiz-adv-x="821" d="M332 616l35 -102l75 -205q39 -100 45 -119q197 616 197 648q0 18 -15.5 22t-86.5 4q-20 0 -21 17q0 14 25 14q10 0 16 -2q70 -4 115 -4h57q37 0 45 2q14 2 31 2q18 0 18 -14q0 -10 -7 -13.5t-40 -3.5q-53 -4 -66.5 -10t-21.5 -33l-14 -37l-17 -51l-86 -280 q-156 -504 -268 -807q-35 -94 -77 -134t-103 -40q-49 0 -81 28.5t-32 73.5q0 39 25.5 63.5t66.5 24.5q55 0 80 -45q14 -25 18.5 -30t12.5 -5q14 0 22.5 15.5t34.5 85.5q53 135 91 268l-259 694q-70 203 -81 205q-12 10 -68 10q-53 0 -53 21q0 16 26 16q6 0 76 -4 q18 -2 66 -2q23 0 155 4l94 2h11q23 0 22 -16q0 -10 -9 -12.5t-67 -4.5q-41 -2 -52 -5t-11 -15q0 -14 41 -127q25 -66 35 -99zM252 1247q39 0 68.5 -30.5t29.5 -71.5q0 -39 -29.5 -67.5t-70.5 -28.5t-69.5 28.5t-28.5 69.5q0 43 28.5 71.5t71.5 28.5zM608 1247 q41 0 67.5 -29.5t26.5 -74.5q0 -39 -27.5 -65.5t-68.5 -26.5q-43 0 -71.5 27.5t-28.5 68.5t29.5 70.5t72.5 29.5z" />
<glyph unicode="&#x152;" horiz-adv-x="1937" d="M1167 735v-694q66 -2 150 -2q219 0 315.5 17.5t143.5 64.5q31 33 40 62.5t29 154.5q6 37 31 37q20 0 20 -51q0 -23 -2 -39q-6 -150 -6 -211v-86q-209 10 -647 10h-323q-205 0 -271 10q-248 39 -404.5 233.5t-156.5 463.5q0 229 106.5 412t282.5 259q88 39 167 45t450 6 l276 -2q414 0 461 7q18 -250 26 -332q2 -10 3 -27q0 -20 -19 -20q-16 0 -18 22q-35 186 -109 248q-80 61 -371 61q-111 0 -174 -2v-608h19h76q76 2 115.5 5t78.5 13.5t54.5 22.5t29.5 42t18.5 62.5t8.5 92.5q2 43 22 43q23 0 23 -37v-25q-10 -127 -10 -192q0 -219 10 -301 q2 -14 2 -31q0 -31 -21 -31q-14 0 -19 17.5t-20 124.5q-8 68 -39.5 102.5t-99.5 44.5q-47 4 -248 8zM965 152v1134q0 68 -25 85.5t-117 17.5q-152 0 -231 -35q-145 -61 -223 -224t-78 -405q0 -330 131 -511t366 -181q119 0 148 19.5t29 99.5z" />
<glyph unicode="&#x153;" horiz-adv-x="1525" d="M1391 608h-195q-186 -4 -291 -6q-10 -61 -10 -129q0 -207 80 -318.5t227 -111.5q82 0 133 43q61 53 84 107q23 45 39.5 45t16.5 -15q0 -35 -62 -119q-98 -129 -276 -129q-197 0 -326 170q-119 -170 -315 -170q-184 0 -308.5 135.5t-124.5 336t123 336t306 135.5 q193 0 313 -148q74 80 143.5 114t161.5 34q193 0 299 -134q55 -76 61 -170q-24 -2 -79 -6zM496 889q-115 0 -179.5 -120t-64.5 -333q0 -205 68.5 -318.5t193.5 -113.5q92 0 137 70q86 129 86 375q0 223 -71 346q-53 94 -170 94zM911 641h193h53h78h61q-2 248 -178 248 q-84 0 -133 -58.5t-74 -189.5z" />
<glyph unicode="&#x178;" horiz-adv-x="1243" d="M276 1421l238 2q14 2 33 2q37 0 37 -20q0 -12 -11.5 -15.5t-58.5 -3.5q-127 0 -127 -45q0 -35 129 -280l186 -354q33 59 117 227l80 164l41 80q68 133 68 172q0 27 -35 30q-49 8 -96 9q-45 -4 -46 20q0 16 39 16l119 -2l68 2q139 0 174 -3t35 -17q0 -16 -35 -16 q-113 -4 -139 -39q-18 -16 -177 -349q-53 -125 -127 -256q-39 -78 -46 -105.5t-7 -117.5v-387q0 -68 17.5 -80t121.5 -18q55 -2 56 -21q0 -16 -29 -16h-24l-244 6h-43q-121 0 -199 -4q-12 -2 -29 -2q-29 0 -28.5 18.5t47.5 20.5q113 4 134.5 20.5t19.5 98.5v432 q-35 78 -119 239l-205 406q-61 123 -74 133q-16 16 -100 21q-72 -2 -72 22q0 16 33 16q10 0 172 -4q32 -2 106 -2zM465 1767q41 0 70.5 -30.5t29.5 -71.5q0 -39 -29.5 -67.5t-70.5 -28.5t-69.5 28.5t-28.5 69.5q0 43 28.5 71.5t69.5 28.5zM823 1765q41 0 68 -29.5t27 -74.5 q0 -39 -28 -65.5t-69 -26.5q-43 0 -71.5 27.5t-28.5 68.5t29.5 70.5t72.5 29.5z" />
<glyph unicode="&#x2c6;" horiz-adv-x="1026" d="M766 1024h-135q-76 72 -150 227q-43 -88 -99 -159.5t-85 -71.5q-18 0 -18 14q0 6 12 17q94 94 174 266q23 49 31 60.5t20 11.5q14 0 21.5 -10.5t33.5 -63.5q84 -160 195 -291z" />
<glyph unicode="&#x2dc;" horiz-adv-x="1026" d="M786 1251q18 0 19 -16q0 -14 -14.5 -54t-26.5 -61q-45 -68 -123 -67q-51 0 -186 69q-123 66 -150 66q-14 0 -27.5 -14.5t-13.5 -28.5q0 -23 31 -55q10 -6 10 -17q0 -14 -20.5 -14t-41 25.5t-20.5 54.5q0 53 44 93t106 40q66 0 190 -64q123 -61 150 -61q25 0 45 70 q12 34 28 34z" />
<glyph unicode="&#x2000;" horiz-adv-x="958" />
<glyph unicode="&#x2001;" horiz-adv-x="1916" />
<glyph unicode="&#x2002;" horiz-adv-x="958" />
<glyph unicode="&#x2003;" horiz-adv-x="1916" />
<glyph unicode="&#x2004;" horiz-adv-x="638" />
<glyph unicode="&#x2005;" horiz-adv-x="479" />
<glyph unicode="&#x2006;" horiz-adv-x="319" />
<glyph unicode="&#x2007;" horiz-adv-x="319" />
<glyph unicode="&#x2008;" horiz-adv-x="239" />
<glyph unicode="&#x2009;" horiz-adv-x="382" />
<glyph unicode="&#x200a;" horiz-adv-x="106" />
<glyph unicode="&#x2010;" horiz-adv-x="624" d="M594 512v-106h-563v106h563z" />
<glyph unicode="&#x2011;" horiz-adv-x="624" d="M594 512v-106h-563v106h563z" />
<glyph unicode="&#x2012;" horiz-adv-x="624" d="M594 512v-106h-563v106h563z" />
<glyph unicode="&#x2013;" horiz-adv-x="1013" d="M963 512v-106h-914v106h914z" />
<glyph unicode="&#x2014;" horiz-adv-x="1243" d="M1198 512v-106h-1155v106h1155z" />
<glyph unicode="&#x2018;" horiz-adv-x="536" d="M227 1155q4 70 86 70q45 0 75 -30t30 -73q0 -51 -38 -87t-91 -36q-78 0 -127 54.5t-49 138.5q0 152 118 217q90 47 138 47q23 0 22 -16q0 -14 -24 -21q-90 -25 -129 -63.5t-39 -108.5q-1 -53 28 -92z" />
<glyph unicode="&#x2019;" horiz-adv-x="536" d="M311 1288q0 -31 -24.5 -50t-63.5 -19q-45 0 -74.5 29.5t-29.5 72.5q0 51 38 87t93 36q76 0 125 -54.5t49 -138.5q0 -150 -119 -217q-82 -47 -137 -47q-23 0 -23 17q0 14 25 20q94 27 131 63.5t37 106.5q0 55 -27 94z" />
<glyph unicode="&#x201a;" horiz-adv-x="536" d="M311 49q0 -31 -24.5 -50t-63.5 -19q-45 0 -74.5 29.5t-29.5 72.5q0 51 38 87t93 36q76 0 125 -54.5t49 -136.5q0 -152 -119 -217q-82 -47 -137 -47q-23 0 -23 17q0 14 25 20q94 27 131 63.5t37 106.5q0 51 -27 92z" />
<glyph unicode="&#x201c;" horiz-adv-x="913" d="M233 1155q4 70 86 70q45 0 75 -30t30 -73q0 -51 -38 -87t-91 -36q-78 0 -127 54.5t-49 138.5q0 152 119 217q90 47 137 47q23 0 22 -16q0 -14 -24 -21q-90 -25 -129 -63.5t-39 -108.5q-1 -53 28 -92zM608 1155q4 70 88 70q45 0 75 -30t30 -73q0 -51 -38 -87t-93 -36 q-76 0 -126 53.5t-50 137.5q0 154 118 219q86 47 140 47q23 0 22 -16q0 -14 -24 -21q-92 -25 -131 -63.5t-39 -106.5q-1 -55 28 -94z" />
<glyph unicode="&#x201d;" horiz-adv-x="913" d="M305 1288q0 -31 -24.5 -50t-63.5 -19q-45 0 -74.5 29.5t-29.5 72.5q0 51 37.5 87t93.5 36q76 0 125 -54.5t49 -138.5q0 -150 -119 -217q-82 -47 -137 -47q-23 0 -23 17q0 14 25 20q94 27 131 63.5t37 106.5q0 55 -27 94zM680 1288q-4 -70 -88 -69q-45 0 -75 29.5 t-30 72.5q0 51 38 87t93 36q78 0 127.5 -54.5t49.5 -138.5q0 -147 -119 -217q-94 -47 -139 -47q-23 0 -23 17q0 14 25 20q94 27 132 64.5t38 103.5q0 57 -29 96z" />
<glyph unicode="&#x201e;" horiz-adv-x="913" d="M305 49q0 -31 -24.5 -50t-63.5 -19q-45 0 -74.5 29.5t-29.5 72.5q0 51 37.5 87t91.5 36q76 0 126 -53.5t50 -137.5q0 -152 -119 -217q-82 -47 -137 -47q-23 0 -23 17q0 14 25 20q94 27 131 63.5t37 106.5q0 51 -27 92zM680 49q-4 -70 -88 -69q-45 0 -75 29.5t-30 72.5 q0 51 38 87t93 36q76 0 126.5 -53.5t50.5 -137.5q0 -152 -119 -217q-86 -47 -139 -47q-23 0 -23 17q0 14 25 20q94 27 132 63.5t38 104.5q0 57 -29 94z" />
<glyph unicode="&#x2022;" horiz-adv-x="1419" d="M717 1016q119 0 205 -87t86 -208q0 -123 -86 -209t-209 -86t-209 86t-86 209q0 125 86 210t213 85z" />
<glyph unicode="&#x2026;" horiz-adv-x="1589" d="M264 207q45 0 77 -32t32 -79q0 -45 -32 -76.5t-77 -31.5q-47 0 -78.5 31.5t-31.5 78.5q0 45 31.5 77t78.5 32zM797 209q45 0 76.5 -33t31.5 -78t-32.5 -77.5t-77.5 -32.5t-78 32.5t-33 77.5q0 47 33 79t80 32zM1327 207q45 0 76 -32t31 -79t-31 -77.5t-78 -30.5t-79 31.5 t-32 78.5q0 45 33 77t80 32z" />
<glyph unicode="&#x202f;" horiz-adv-x="382" />
<glyph unicode="&#x2039;" horiz-adv-x="522" d="M238 463q129 -188 174 -268q2 -4 12 -21.5t16 -26.5q8 -14 9 -22q0 -14 -13 -14q-10 0 -20 12l-301 285q-14 12 -15 26q0 51 3 63.5t24 26.5q168 162 268 281q18 25 33 24q16 0 16 -16q1 -39 -206 -350z" />
<glyph unicode="&#x203a;" horiz-adv-x="522" d="M285 477q-119 174 -172 268q-6 8 -16.5 25.5t-12.5 22.5q-8 16 -8 22q0 12 12 12q10 0 21 -12q193 -188 299 -283q14 -14 14 -26q0 -51 -3 -63.5t-24 -28.5q-41 -37 -138 -138.5t-130 -140.5q-18 -25 -33 -24q-16 0 -16 18q0 37 207 348z" />
<glyph unicode="&#x205f;" horiz-adv-x="479" />
<glyph unicode="&#x20ac;" d="M1047 420q0 -27 -3 -49q-8 -123 -8 -207q0 -10 4 -44t4 -83v-17q0 -25 -16 -24q-12 0 -24 29q-10 25 -23.5 44t-22.5 25l-6 8q-170 -127 -293 -127q-201 0 -332.5 182.5t-154.5 458.5h-102q-41 0 -41 25q0 16 10 20.5t47 4.5h86q0 147 4 172h-106q-41 0 -41 24 q0 16 10 20.5t47 4.5h96q43 270 183 426q117 131 297 131q33 0 63.5 -6t56 -16.5t42 -18.5t36 -21.5t21.5 -13.5q43 -25 59 -25q18 0 33 31q16 37 21 44t16 7q16 0 16 -14q0 -8 -4 -25q-20 -92 -21 -331q0 -29 -4 -37t-16 -8q-18 0 -25 34q-16 92 -44.5 168t-94 139.5 t-158.5 63.5q-117 0 -184 -135t-78 -393h238h178q37 0 37 -27q0 -23 -53 -22h-187h-217q-2 -29 -2 -170v-2h37h117h268q37 0 37 -27q0 -23 -53 -23h-252h-117h-35q20 -606 271 -606q129 0 222 126t120 267q8 45 22 46q19 0 19 -29z" />
<glyph unicode="&#x2122;" horiz-adv-x="1499" d="M401 1393v-605q0 -31 10.5 -37t61.5 -8q20 0 20.5 -14t-28.5 -14h-12q-20 2 -72 2h-84q-37 -2 -84 -2q-29 0 -29 14t31 14h23q29 0 33.5 6.5t7.5 45.5v598h-11q-100 0 -133 -17q-49 -27 -57 -114q-2 -35 -20.5 -35t-18.5 26q0 66 14 172q14 2 35 2h39l78 -2h88l45 -2 q240 0 297 7q8 -113 14 -175q2 -12 2 -16q0 -16 -16 -16q-20 0 -25 28q-6 78 -39.5 111t-105.5 33l-59 -2h-5zM879 1425l8 -20q25 -57 55 -139l131 -332l119 348q29 88 49 143q53 2 158 2h20q45 0 45 -16q0 -10 -8 -13t-37 -3q-47 -2 -53 -21q-2 -8 -2 -110v-467 q0 -39 4 -43q8 -8 74 -9q29 0 28 -16q0 -14 -28 -14h-15q-31 0 -57 2h-53q-127 0 -139 -2h-11q-29 0 -28 14q0 16 32 16q59 0 68 9q4 4 4 65v471q-119 -344 -172 -516q-10 -35 -14 -42t-14.5 -7t-15.5 8t-17 43l-195 498v-492q0 -23 4 -30q6 -6 43 -7q45 0 45 -14t-33 -14 h-24q-16 2 -33 2q-29 0 -119 -4q-29 0 -28 14q0 16 69 16q20 0 23.5 7.5t3.5 48.5v483q0 78 -5 91.5t-34 15.5q-59 6 -59 18t14 14t102 2h95z" />
<glyph unicode="&#xe000;" horiz-adv-x="895" d="M0 895h895v-895h-895v895z" />
<glyph unicode="&#xfb01;" horiz-adv-x="1028" d="M350 893h363q94 0 137 31q16 -33 16 -123v-45q-2 -20 -2 -47v-623q0 -37 16.5 -47t80.5 -10h20q27 0 27 -17q0 -18 -35 -18q-8 0 -49 4l-136 4l-180 -4q-10 -2 -24 -2q-23 0 -23 14q0 20 39 21h33q47 0 54 12t7 84v287q0 186 -2 372v39q0 20 -9 24.5t-50 4.5h-283v-791 q0 -27 15.5 -31.5t107.5 -4.5q33 -2 33 -16.5t-27 -14.5q-10 0 -18 2h-49l-66 2h-45q-33 0 -166 -4h-39q-43 0 -53 2t-10 12t7 13.5t38 3.5q70 0 88 6q12 4 14 22v47v752q-100 0 -100 20q0 12 10 15.5t51 3.5h33h4v37q0 160 30 254t101 159q106 100 281 101 q117 0 191.5 -50.5t74.5 -127.5q0 -45 -28.5 -74t-71.5 -29q-45 0 -76 30t-31 71q0 51 45 79q25 18 25 27q0 20 -38 32.5t-97 12.5q-123 0 -178.5 -66.5t-55.5 -215.5v-111v-102v-27z" />
<glyph unicode="&#xfb02;" horiz-adv-x="1032" d="M178 893v37q0 160 30 254t101 159q111 100 266 101q98 0 170 -43q25 8 62 24q6 6 37 19l16 6q14 -53 14 -186q0 -23 -2 -45v-50v-137q0 -229 2 -549v-362q0 -66 5.5 -77t35.5 -13q16 -2 37 -2h33q29 -2 29 -15q0 -18 -27 -18h-16q-4 0 -129 4q-20 2 -47 2q-4 0 -82 -4 l-47 -2h-39q-10 -2 -27 -2q-29 0 -29 18q0 10 8.5 12.5t41.5 2.5q61 0 77 8q6 4 9 22v43v1065q-82 23 -82 99q0 53 45 79q25 18 24 27q0 18 -35.5 31.5t-85.5 13.5q-115 0 -169 -68.5t-54 -213.5v-111v-102v-27h47h45q61 0 71.5 -2t10.5 -17q0 -18 -51 -18h-33h-45h-37h-8 v-793q0 -23 12.5 -29.5t51.5 -6.5q66 0 65 -17q0 -14 -26 -14q-12 0 -23 2l-137 2q-25 0 -158 -4h-41q-41 0 -51 3t-10 13q0 14 45 15q70 0 88 6q12 4 14 22v49v752q-76 0 -88 2t-12 19q0 10 10 13t51 3h33h4z" />
<glyph unicode="&#xfb03;" horiz-adv-x="1595" d="M1398 911l21 13q16 -31 16 -113q0 -10 -2 -100v-559q0 -82 3 -96.5t22 -18.5q27 -8 90 -8q29 0 29 -17q0 -18 -35 -18q-18 0 -49 4q-90 4 -103 4l-213 -4q-10 -2 -24 -2q-23 0 -23 14q0 20 41 21q78 2 86 12q6 10 6 84v455v102l-2 64q0 51 -4 60t-26 9l-60 -2 q-8 -2 -20 -2q-23 0 -23 16.5t35 16.5q147 8 235 65zM1331 1380q92 0 92 -92q0 -41 -25.5 -66.5t-66.5 -25.5q-39 0 -65.5 25.5t-26.5 62.5q0 45 24.5 70.5t67.5 25.5zM891 893h135q41 0 41 -18.5t-53 -18.5h-53h-62h-8v-747v-54q0 -29 58 -28q25 1 43 0q27 0 37 -1 q17 -3 18 -16q0 -14 -25 -14q-12 0 -20 2l-168 2l-223 -4q-37 0 -37 14q0 16 28 17q57 0 95 4q23 2 22 20l2 27v26v752q-76 0 -88 2t-12 16q0 18 37 19h49h16q8 262 70 375q94 176 283 176q90 0 147 -43t57 -113q0 -43 -25.5 -70.5t-66.5 -27.5q-39 0 -65.5 24.5t-26.5 61.5 q0 31 27 72q6 8 6 18q0 47 -68 47q-76 0 -112 -57q-35 -55 -46.5 -128t-11.5 -235v-100zM350 893h135q41 0 41 -18.5t-53 -18.5h-53h-62h-8v-747v-54q0 -29 58 -28q25 1 43 0q27 0 37 -1q17 -3 18 -16q0 -14 -25 -14q-12 0 -20 2l-168 2l-223 -4q-37 0 -37 14q0 16 28 17 q57 0 95 4q23 2 22 20l2 27v26v752q-76 0 -88 2t-12 16q0 18 37 19h49h16q8 262 70 375q94 176 283 176q90 0 147 -43t57 -113q0 -43 -25.5 -70.5t-66.5 -27.5q-39 0 -65.5 24.5t-26.5 61.5q0 31 27 72q6 8 6 18q0 47 -68 47q-76 0 -112 -57q-35 -55 -46.5 -128t-11.5 -235 v-100z" />
<glyph unicode="&#xfb04;" horiz-adv-x="1562" d="M1374 1444l16 6q14 -53 15 -180l-2 -146l2 -641v-362q0 -61 2 -72.5t14 -15.5q6 -2 76 -4q47 0 47 -15q0 -18 -27 -18h-24q-8 2 -109 4q-31 2 -63 2q-16 0 -164 -6l-25 -2q-31 0 -31 18q0 14 23 15h53q35 2 46.5 6t11.5 18q2 12 2 160v1042q0 68 -4 74q-6 16 -33 16h-17 q-55 -2 -57 -2q-29 0 -29 19q0 14 52 18q94 2 182 45zM891 893h135q41 0 41 -18.5t-53 -18.5h-53h-62h-8v-747v-54q0 -29 58 -28q25 1 43 0q27 0 37 -1q17 -3 18 -16q0 -14 -25 -14q-12 0 -20 2l-168 2l-223 -4q-37 0 -37 14q0 16 28 17q57 0 95 4q23 2 22 20l2 27v26v752 q-76 0 -88 2t-12 16q0 18 37 19h49h16q8 262 70 375q94 176 283 176q90 0 147 -43t57 -113q0 -43 -25.5 -70.5t-66.5 -27.5q-39 0 -65.5 24.5t-26.5 61.5q0 31 27 72q6 8 6 18q0 47 -68 47q-76 0 -112 -57q-35 -55 -46.5 -128t-11.5 -235v-100zM350 893h135q41 0 41 -18.5 t-53 -18.5h-53h-62h-8v-747v-54q0 -29 58 -28q25 1 43 0q27 0 37 -1q17 -3 18 -16q0 -14 -25 -14q-12 0 -20 2l-168 2l-223 -4q-37 0 -37 14q0 16 28 17q57 0 95 4q23 2 22 20l2 27v26v752q-76 0 -88 2t-12 16q0 18 37 19h49h16q8 262 70 375q94 176 283 176q90 0 147 -43 t57 -113q0 -43 -25.5 -70.5t-66.5 -27.5q-39 0 -65.5 24.5t-26.5 61.5q0 31 27 72q6 8 6 18q0 47 -68 47q-76 0 -112 -57q-35 -55 -46.5 -128t-11.5 -235v-100z" />
</font>
</defs>
</svg>
