<?xml version="1.0" encoding="utf-8"?>
<!-- Generator: Adobe Illustrator 17.0.2, SVG Export Plug-In . SVG Version: 6.00 Build 0)  -->
<!DOCTYPE svg PUBLIC "-//W3C//DTD SVG 1.1//EN" "http://www.w3.org/Graphics/SVG/1.1/DTD/svg11.dtd">
<svg version="1.1" id="Layer_1" xmlns="http://www.w3.org/2000/svg" xmlns:xlink="http://www.w3.org/1999/xlink" x="0px" y="0px"
	 width="752px" height="152px" viewBox="0 0 752 152" enable-background="new 0 0 752 152" xml:space="preserve">
<g>
	<polygon fill="#FFFFFF" points="217.485,31.403 253.907,31.403 253.907,43.839 232.03,43.839 232.03,49.372 252.35,49.372 
		252.35,60.687 232.03,60.687 232.03,74.924 217.485,74.924 	"/>
	<path fill="#FFFFFF" d="M267.506,31.092h14.419l18.331,43.835h-15.783l-2.3-5.848h-15.225l-2.237,5.848h-15.54L267.506,31.092z
		 M278.568,58.76l-3.978-10.571l-3.978,10.571H278.568z"/>
	<polygon fill="#FFFFFF" points="302.055,31.403 317.217,31.403 326.542,46.698 335.867,31.403 351.029,31.403 351.029,74.924 
		336.547,74.924 336.547,53.348 326.542,68.832 326.294,68.832 316.285,53.348 316.285,74.924 302.055,74.924 	"/>
	<rect x="356.121" y="31.406" fill="#FFFFFF" width="14.541" height="43.52"/>
	<polygon fill="#FFFFFF" points="375.754,31.403 390.299,31.403 390.299,62.488 410.745,62.488 410.745,74.924 375.754,74.924 	"/>
	<polygon fill="#FFFFFF" points="418.765,59.506 402.36,31.402 418.643,31.402 426.101,45.701 433.621,31.402 449.719,31.402 
		433.31,59.321 433.31,74.926 418.765,74.926 	"/>
	<g>
		<path fill="#FFFFFF" d="M470.309,75.67c-13.177,0-21.814-10.504-21.814-22.382v-0.126c0-11.873,8.763-22.508,21.94-22.508
			c13.173,0,21.814,10.509,21.814,22.386c0.059,0.063,0.059,0.063,0,0.122C492.249,65.04,483.486,75.67,470.309,75.67
			 M488.891,53.163c0-10.752-7.831-19.585-18.583-19.585c-10.752,0-18.457,8.707-18.457,19.464v0.122
			c0,10.756,7.831,19.59,18.583,19.59c10.751,0,18.457-8.707,18.457-19.464V53.163z"/>
		<polygon fill="#FFFFFF" points="540.85,75.236 538.239,75.236 525.499,37.43 512.758,75.236 510.147,75.236 494.36,31.401 
			497.965,31.401 511.641,70.139 524.382,31.275 526.867,31.275 539.603,70.139 553.28,31.401 556.633,31.401 		"/>
		<polygon fill="#FFFFFF" points="598.391,74.925 567.752,36.253 567.752,74.925 564.642,74.925 564.642,31.404 567.689,31.404 
			597.711,69.265 597.711,31.404 600.816,31.404 600.816,74.925 		"/>
		<polygon fill="#FFFFFF" points="611.318,74.925 611.318,31.404 642.272,31.404 642.272,34.385 614.549,34.385 614.549,51.485 
			639.472,51.485 639.472,54.47 614.549,54.47 614.549,71.944 642.578,71.944 642.578,74.925 		"/>
		<path fill="#FFFFFF" d="M667.436,74.923h-14.482v-43.52h14.482c13.668,0,23.119,9.388,23.119,21.638v0.122
			C690.555,65.41,681.105,74.923,667.436,74.923 M687.198,53.163c0-10.32-7.642-18.779-19.762-18.779h-11.251v37.559h11.251
			c12.12,0,19.762-8.271,19.762-18.653V53.163z"/>
		<path fill="#FFFFFF" d="M232.65,85.124h14.419l18.331,43.839h-15.783l-2.3-5.848h-15.225l-2.237,5.848h-15.54L232.65,85.124z
			 M243.712,112.795l-3.978-10.571l-3.978,10.571H243.712z"/>
		<polygon fill="#FFFFFF" points="267.198,85.436 282.36,85.436 291.685,100.731 301.009,85.436 316.172,85.436 316.172,128.961 
			301.689,128.961 301.689,107.386 291.685,122.869 291.437,122.869 281.428,107.386 281.428,128.961 267.198,128.961 		"/>
		<polygon fill="#FFFFFF" points="321.136,85.436 358.242,85.436 358.242,97.377 335.43,97.377 335.43,101.789 356.685,101.789 
			356.685,112.298 335.43,112.298 335.43,117.025 358.549,117.025 358.549,128.961 321.136,128.961 		"/>
		<path fill="#FFFFFF" d="M362.462,85.436h21.256c7.705,0,12.615,1.927,15.662,4.975c2.61,2.611,3.978,5.844,3.978,10.32v0.126
			c0,6.344-3.294,10.756-8.578,13.305l10.131,14.799h-16.593l-8.204-12.436h-0.126h-2.984v12.436h-14.541V85.436z M383.281,106.143
			c3.479,0,5.594-1.557,5.594-4.228v-0.126c0-2.796-2.178-4.165-5.531-4.165h-6.341v8.518H383.281z"/>
		<rect x="407.017" y="85.435" fill="#FFFFFF" width="14.545" height="43.525"/>
		<path fill="#FFFFFF" d="M425.661,107.324v-0.126c0-12.994,10.126-22.696,23.119-22.696c9.568,0,16.035,4.664,19.703,11.319
			l-11.994,7.024c-1.62-3.107-3.915-5.282-7.894-5.282c-4.91,0-8.141,4.291-8.141,9.514v0.122c0,5.66,3.357,9.64,8.141,9.64
			c4.104,0,6.4-2.238,8.2-5.475l11.998,6.78c-3.668,6.465-9.757,11.751-20.572,11.751
			C436.165,129.894,425.661,120.817,425.661,107.324"/>
		<path fill="#FFFFFF" d="M486.006,85.124h14.415l18.335,43.839h-15.783l-2.3-5.848h-15.229l-2.237,5.848h-15.536L486.006,85.124z
			 M497.068,112.795l-3.979-10.571l-3.978,10.571H497.068z"/>
		<polygon fill="#FFFFFF" points="520.554,85.436 534.163,85.436 549.64,104.648 549.64,85.436 564.059,85.436 564.059,128.961 
			551.13,128.961 534.973,108.876 534.973,128.961 520.554,128.961 		"/>
		<polygon fill="#FFFFFF" points="610.789,128.961 610.789,91.154 593.574,116.214 593.323,116.214 576.108,91.154 576.108,128.961 
			572.999,128.961 572.999,85.436 576.045,85.436 593.512,111.176 610.973,85.436 614.02,85.436 614.02,128.961 		"/>
		<path fill="#FFFFFF" d="M661.745,128.961l-5.531-12.188h-25.666l-5.531,12.188h-3.357l20.261-43.835h3.105l20.261,43.835H661.745z
			 M643.41,88.669l-11.499,25.182h22.934L643.41,88.669z"/>
		<path fill="#FFFFFF" d="M686.545,128.958h-14.482v-43.52h14.482c13.668,0,23.119,9.388,23.119,21.638v0.122
			C709.664,119.445,700.214,128.958,686.545,128.958 M706.307,107.198c0-10.32-7.642-18.779-19.762-18.779h-11.251v37.559h11.251
			c12.12,0,19.762-8.271,19.762-18.653V107.198z"/>
		<polygon fill="#FFFFFF" points="718.24,128.961 718.24,85.436 749.194,85.436 749.194,88.421 721.471,88.421 721.471,105.521 
			746.395,105.521 746.395,108.506 721.471,108.506 721.471,125.975 749.5,125.975 749.5,128.961 		"/>
		<line fill="none" stroke="#FFFFFF" stroke-width="0.437" x1="195.045" y1="1" x2="195.045" y2="151"/>
		<rect x="79.247" y="25.1" fill="#D11242" width="95.93" height="7.998"/>
		<rect x="2.5" y="33.093" fill="#FFFFFF" width="172.677" height="7.994"/>
		<rect x="79.247" y="41.091" fill="#D31242" width="95.93" height="7.998"/>
		<rect x="2.5" y="49.089" fill="#FFFFFF" width="172.677" height="7.994"/>
		<rect x="79.1" y="57.087" fill="#D31242" width="96.077" height="7.998"/>
		<rect x="2.5" y="65.085" fill="#FFFFFF" width="172.677" height="7.998"/>
		<rect x="78.798" y="73.083" fill="#D31242" width="96.379" height="7.998"/>
		<rect x="2.5" y="81.077" fill="#FFFFFF" width="172.677" height="7.998"/>
		<rect x="2.5" y="88.953" fill="#D31242" width="172.677" height="7.998"/>
		<rect x="2.5" y="96.951" fill="#FFFFFF" width="172.677" height="7.998"/>
		<rect x="2.5" y="104.949" fill="#D31242" width="172.677" height="7.998"/>
		<rect x="2.5" y="112.947" fill="#FFFFFF" width="172.677" height="7.998"/>
		<rect x="2.5" y="120.945" fill="#D31242" width="172.677" height="7.994"/>
		<rect x="2.5" y="25.095" fill="#003770" width="76.965" height="55.981"/>
		<polygon fill="#FFFFFF" points="6.821,26.303 7.413,28.235 9.394,28.159 7.732,29.314 8.403,31.19 6.821,29.956 5.264,31.19 
			5.91,29.284 4.27,28.159 6.284,28.209 		"/>
		<polygon fill="#FFFFFF" points="19.46,26.303 20.051,28.235 22.011,28.159 20.37,29.314 21.046,31.19 19.434,29.956 17.877,31.19 
			18.549,29.284 16.912,28.159 18.922,28.209 		"/>
		<polygon fill="#FFFFFF" points="33.441,26.303 34.033,28.235 36.018,28.159 34.356,29.314 35.028,31.19 33.416,29.956 
			31.859,31.19 32.531,29.284 30.894,28.159 32.904,28.209 		"/>
		<polygon fill="#FFFFFF" points="47.557,26.303 48.149,28.235 50.109,28.159 48.472,29.314 49.139,31.19 47.532,29.956 
			45.975,31.19 46.647,29.284 45.01,28.159 47.02,28.209 		"/>
		<polygon fill="#FFFFFF" points="60.896,26.303 61.488,28.235 63.472,28.159 61.806,29.314 62.478,31.19 60.896,29.956 
			59.314,31.19 59.981,29.284 58.344,28.159 60.359,28.209 		"/>
		<polygon fill="#FFFFFF" points="73.696,26.303 74.258,28.235 76.248,28.159 74.582,29.314 75.278,31.19 73.671,29.956 
			72.114,31.19 72.756,29.284 71.124,28.159 73.134,28.209 		"/>
		<polygon fill="#FFFFFF" points="6.821,50.656 7.413,52.587 9.394,52.512 7.732,53.666 8.403,55.518 6.821,54.309 5.264,55.518 
			5.91,53.612 4.27,52.512 6.284,52.562 		"/>
		<polygon fill="#FFFFFF" points="19.46,50.656 20.051,52.587 22.011,52.512 20.37,53.666 21.046,55.518 19.434,54.309 
			17.877,55.518 18.549,53.612 16.912,52.512 18.922,52.562 		"/>
		<polygon fill="#FFFFFF" points="33.441,50.656 34.033,52.587 36.018,52.512 34.356,53.666 35.028,55.518 33.416,54.309 
			31.859,55.518 32.531,53.612 30.894,52.512 32.904,52.562 		"/>
		<polygon fill="#FFFFFF" points="47.557,50.656 48.149,52.587 50.109,52.512 48.472,53.666 49.139,55.518 47.532,54.309 
			45.975,55.518 46.647,53.612 45.01,52.512 47.02,52.562 		"/>
		<polygon fill="#FFFFFF" points="60.896,50.656 61.488,52.587 63.472,52.512 61.806,53.666 62.478,55.518 60.896,54.309 
			59.314,55.518 59.981,53.612 58.344,52.512 60.359,52.562 		"/>
		<polygon fill="#FFFFFF" points="73.696,50.656 74.258,52.587 76.248,52.512 74.582,53.666 75.278,55.518 73.671,54.309 
			72.114,55.518 72.756,53.612 71.124,52.512 73.134,52.562 		"/>
		<polygon fill="#FFFFFF" points="6.821,38.361 7.413,40.293 9.394,40.213 7.732,41.372 8.403,43.223 6.821,42.01 5.264,43.223 
			5.91,41.313 4.27,40.213 6.284,40.263 		"/>
		<polygon fill="#FFFFFF" points="19.46,38.361 20.051,40.293 22.011,40.213 20.37,41.372 21.046,43.223 19.434,42.01 
			17.877,43.223 18.549,41.313 16.912,40.213 18.922,40.263 		"/>
		<polygon fill="#FFFFFF" points="33.441,38.361 34.033,40.293 36.018,40.213 34.356,41.372 35.028,43.223 33.416,42.01 
			31.859,43.223 32.531,41.313 30.894,40.213 32.904,40.263 		"/>
		<polygon fill="#FFFFFF" points="47.557,38.361 48.149,40.293 50.109,40.213 48.472,41.372 49.139,43.223 47.532,42.01 
			45.975,43.223 46.647,41.313 45.01,40.213 47.02,40.263 		"/>
		<polygon fill="#FFFFFF" points="60.896,38.361 61.488,40.293 63.472,40.213 61.806,41.372 62.478,43.223 60.896,42.01 
			59.314,43.223 59.981,41.313 58.344,40.213 60.359,40.263 		"/>
		<polygon fill="#FFFFFF" points="73.696,38.361 74.258,40.293 76.248,40.213 74.582,41.372 75.278,43.223 73.671,42.01 
			72.114,43.223 72.756,41.313 71.124,40.213 73.134,40.263 		"/>
		<polygon fill="#FFFFFF" points="6.821,62.577 7.413,64.509 9.394,64.429 7.732,65.583 8.403,67.435 6.821,66.23 5.264,67.435 
			5.91,65.529 4.27,64.429 6.284,64.483 		"/>
		<polygon fill="#FFFFFF" points="19.46,62.577 20.051,64.509 22.011,64.429 20.37,65.583 21.046,67.435 19.434,66.23 
			17.877,67.435 18.549,65.529 16.912,64.429 18.922,64.483 		"/>
		<polygon fill="#FFFFFF" points="33.441,62.577 34.033,64.509 36.018,64.429 34.356,65.583 35.028,67.435 33.416,66.23 
			31.859,67.435 32.531,65.529 30.894,64.429 32.904,64.483 		"/>
		<polygon fill="#FFFFFF" points="47.557,62.577 48.149,64.509 50.109,64.429 48.472,65.583 49.139,67.435 47.532,66.23 
			45.975,67.435 46.647,65.529 45.01,64.429 47.02,64.483 		"/>
		<polygon fill="#FFFFFF" points="60.896,62.577 61.488,64.509 63.472,64.429 61.806,65.583 62.478,67.435 60.896,66.23 
			59.314,67.435 59.981,65.529 58.344,64.429 60.359,64.483 		"/>
		<polygon fill="#FFFFFF" points="73.696,62.577 74.258,64.509 76.248,64.429 74.582,65.583 75.278,67.435 73.671,66.23 
			72.114,67.435 72.756,65.529 71.124,64.429 73.134,64.483 		"/>
		<polygon fill="#FFFFFF" points="6.821,74.096 7.413,76.032 9.394,75.977 7.732,77.106 8.403,78.983 6.821,77.749 5.264,78.983 
			5.91,77.077 4.27,75.977 6.284,76.002 		"/>
		<polygon fill="#FFFFFF" points="19.46,74.096 20.051,76.032 22.011,75.977 20.37,77.106 21.046,78.983 19.434,77.749 
			17.877,78.983 18.549,77.077 16.912,75.977 18.922,76.002 		"/>
		<polygon fill="#FFFFFF" points="33.441,74.096 34.033,76.032 36.018,75.977 34.356,77.106 35.028,78.983 33.416,77.749 
			31.859,78.983 32.531,77.077 30.894,75.977 32.904,76.002 		"/>
		<polygon fill="#FFFFFF" points="47.557,74.096 48.149,76.032 50.109,75.977 48.472,77.106 49.139,78.983 47.532,77.749 
			45.975,78.983 46.647,77.077 45.01,75.977 47.02,76.002 		"/>
		<polygon fill="#FFFFFF" points="60.896,74.096 61.488,76.032 63.472,75.977 61.806,77.106 62.478,78.983 60.896,77.749 
			59.314,78.983 59.981,77.077 58.344,75.977 60.359,76.002 		"/>
		<polygon fill="#FFFFFF" points="73.696,74.096 74.258,76.032 76.248,75.977 74.582,77.106 75.278,78.983 73.671,77.749 
			72.114,78.983 72.756,77.077 71.124,75.977 73.134,76.002 		"/>
		<polygon fill="#FFFFFF" points="13.235,68.727 13.827,70.658 15.812,70.578 14.145,71.737 14.817,73.584 13.21,72.375 
			11.653,73.584 12.324,71.682 10.683,70.578 12.698,70.633 		"/>
		<polygon fill="#FFFFFF" points="25.874,68.727 26.466,70.658 28.426,70.578 26.789,71.737 27.457,73.584 25.849,72.375 
			24.292,73.584 24.964,71.682 23.302,70.578 25.312,70.633 		"/>
		<polygon fill="#FFFFFF" points="39.856,68.727 40.448,70.658 42.408,70.578 40.771,71.737 41.438,73.584 39.831,72.375 
			38.274,73.584 38.946,71.682 37.305,70.578 39.319,70.633 		"/>
		<polygon fill="#FFFFFF" points="53.972,68.727 54.535,70.658 56.52,70.578 54.883,71.737 55.554,73.584 53.947,72.375 
			52.39,73.584 53.057,71.682 51.396,70.578 53.41,70.633 		"/>
		<polygon fill="#FFFFFF" points="67.31,68.727 67.902,70.658 69.861,70.578 68.221,71.737 68.892,73.584 67.285,72.375 
			65.728,73.584 66.399,71.682 64.758,70.578 66.773,70.633 		"/>
		<polygon fill="#FFFFFF" points="13.235,45.395 13.827,47.327 15.812,47.247 14.145,48.406 14.817,50.282 13.21,49.044 
			11.653,50.282 12.324,48.376 10.683,47.247 12.698,47.302 		"/>
		<polygon fill="#FFFFFF" points="25.874,45.395 26.466,47.327 28.426,47.247 26.789,48.406 27.457,50.282 25.849,49.044 
			24.292,50.282 24.964,48.376 23.302,47.247 25.312,47.302 		"/>
		<polygon fill="#FFFFFF" points="39.856,45.395 40.448,47.327 42.408,47.247 40.771,48.406 41.438,50.282 39.831,49.044 
			38.274,50.282 38.946,48.376 37.305,47.247 39.319,47.302 		"/>
		<polygon fill="#FFFFFF" points="53.972,45.395 54.535,47.327 56.52,47.247 54.883,48.406 55.554,50.282 53.947,49.044 
			52.39,50.282 53.057,48.376 51.396,47.247 53.41,47.302 		"/>
		<polygon fill="#FFFFFF" points="67.31,45.395 67.902,47.327 69.861,47.247 68.221,48.406 68.892,50.282 67.285,49.044 
			65.728,50.282 66.399,48.376 64.758,47.247 66.773,47.302 		"/>
		<polygon fill="#FFFFFF" points="13.235,56.671 13.827,58.602 15.812,58.523 14.145,59.681 14.817,61.558 13.21,60.324 
			11.653,61.558 12.324,59.652 10.683,58.523 12.698,58.577 		"/>
		<polygon fill="#FFFFFF" points="25.874,56.671 26.466,58.602 28.426,58.523 26.789,59.681 27.457,61.558 25.849,60.324 
			24.292,61.558 24.964,59.652 23.302,58.523 25.312,58.577 		"/>
		<polygon fill="#FFFFFF" points="39.856,56.671 40.448,58.602 42.408,58.523 40.771,59.681 41.438,61.558 39.831,60.324 
			38.274,61.558 38.946,59.652 37.305,58.523 39.319,58.577 		"/>
		<polygon fill="#FFFFFF" points="53.972,56.671 54.535,58.602 56.52,58.523 54.883,59.681 55.554,61.558 53.947,60.324 
			52.39,61.558 53.057,59.652 51.396,58.523 53.41,58.577 		"/>
		<polygon fill="#FFFFFF" points="67.31,56.671 67.902,58.602 69.861,58.523 68.221,59.681 68.892,61.558 67.285,60.324 
			65.728,61.558 66.399,59.652 64.758,58.523 66.773,58.577 		"/>
		<polygon fill="#FFFFFF" points="13.235,33.367 13.827,35.273 15.812,35.219 14.145,36.377 14.817,38.225 13.21,37.016 
			11.653,38.225 12.324,36.323 10.683,35.219 12.698,35.248 		"/>
		<polygon fill="#FFFFFF" points="25.874,33.367 26.466,35.273 28.426,35.219 26.789,36.377 27.457,38.225 25.849,37.016 
			24.292,38.225 24.964,36.323 23.302,35.219 25.312,35.248 		"/>
		<polygon fill="#FFFFFF" points="39.856,33.367 40.448,35.273 42.408,35.219 40.771,36.377 41.438,38.225 39.831,37.016 
			38.274,38.225 38.946,36.323 37.305,35.219 39.319,35.248 		"/>
		<polygon fill="#FFFFFF" points="53.972,33.367 54.535,35.273 56.52,35.219 54.883,36.377 55.554,38.225 53.947,37.016 
			52.39,38.225 53.057,36.323 51.396,35.219 53.41,35.248 		"/>
		<polygon fill="#FFFFFF" points="67.31,33.367 67.902,35.273 69.861,35.219 68.221,36.377 68.892,38.225 67.285,37.016 
			65.728,38.225 66.399,36.323 64.758,35.219 66.773,35.248 		"/>
	</g>
</g>
</svg>
